<svg xmlns="http://www.w3.org/2000/svg" xmlns:xlink="http://www.w3.org/1999/xlink" width="1694.843" height="1688.126" viewBox="0 0 1694.843 1688.126"><defs><clipPath id="a"><rect width="1258.833" height="1242.588" fill="none" stroke="rgba(73,61,124,0.4)" stroke-width="1"/></clipPath></defs><g transform="matrix(0.788, 0.616, -0.616, 0.788, 633.941, -16.031)"><g transform="matrix(0.985, -0.174, 0.174, 0.985, -29.989, 43.774)" clip-path="url(#a)"><path d="M481.844,375.987c.425,13.583-9.557,28-18.536,37.448-11.7,12.316-22.635,23.362-41.026,23.437-6.909.027-13.038-3.532-18.6-7.268-3.726-2.5-7.292-5.23-10.992-7.768-2.924-2.007-3.355-8.151-4.311-11.335-4.783-15.953-7.571-32.351-5.937-49.008a109.648,109.648,0,0,1,4.715-22.012c1.749-5.749,3.38-16.091,8.2-20.115,4.987-4.16,10.11-10.206,15.833-13.252,3.2-1.7,19-9.352,22.124-7.088,24.059,17.417,47.535,45.557,48.533,76.962C482.02,381.6,481.6,368.324,481.844,375.987Z" transform="translate(167.108 130.639)" fill="none" stroke="rgba(73,61,124,0.4)" stroke-miterlimit="10" stroke-width="1.874"/><path d="M606.261,239.727c-11.488-.014-23.156-7.784-34.6-6.536a99.6,99.6,0,0,0-37.787,11.9c-11.1,6.269-13.662,19.27-10.035,31.284,3.374,11.175,18.486,17.946,26.155,26.273,3.387,3.68,8.314,11.258,13.862,11.475,7.021.275,14.038-.231,21.046-.565,7.249-.346,14.5-.6,21.754-.929,7.422-.336,11.142-3.292,16.823-8.241" transform="translate(228.502 101.959)" fill="none" stroke="rgba(73,61,124,0.4)" stroke-miterlimit="10" stroke-width="1.874"/><path d="M517.774,342.336c-1.161,5.554-11.359,8.261-16.011,10.213-2.064.867-5.832,3.8-7.574,1.241-2.411-3.553-4.66-7.213-6.914-10.867-5.244-8.5-26.716-28.741-16.475-39.5,11.935-12.542,28.168-12.26,41.109-2.169,15.843,12.354,9.3,24.575,5.865,41.086C517.529,343.5,519.648,333.336,517.774,342.336Z" transform="translate(204.775 128.548)" fill="none" stroke="rgba(73,61,124,0.4)" stroke-miterlimit="10" stroke-width="1.874"/><path d="M675.214,479.493c1.7,14.521-7.86,28.258-20.878,33.361-6.753,2.648-11.915,6.466-17.5,11.031-7.157,5.852-14.655,9.349-22.97,13.211-15.275,7.094-24.725,20.435-43.353,18.144-4.254-.522-10.554-7.613-14.4-9.957-7.682-4.686-6.024-10.471-5.343-18.2a15.346,15.346,0,0,0-1.147-6.936c-1.263-3.608-.057-6.914.906-10.468,1.8-6.63,4.1-17.638,9.153-22.6,4.925-4.836,11.376-8.26,16.425-13.091,5.73-5.481,9.443-13.213,16.558-17.178,6.884-3.84,15.094-3.367,22.633-4.675,6.618-1.149,17.572-4.685,24.008-1.836,12.05,5.353,34.08,13.617,35.907,29.194C676.285,488.644,674.323,471.9,675.214,479.493Z" transform="translate(240.217 196.527)" fill="none" stroke="rgba(73,61,124,0.4)" stroke-miterlimit="10" stroke-width="1.874"/><path d="M731.2,518.474c.687-8.082,4.35-17.3.331-25.061-3.682-7.11-12.227-9.684-18.734-13.382-12.19-6.929-32.149-14.733-43.6-3.254-6.591,6.607-9.464,13.27-6.05,22.152,2.182,5.677,8.117,20.214,14.271,22.464a144.579,144.579,0,0,0,26.622,6.4c5.478.852,26.579-2.529,27.16-9.316C731.909,510.148,731.082,519.849,731.2,518.474Z" transform="translate(289.487 206.029)" fill="none" stroke="rgba(73,61,124,0.4)" stroke-miterlimit="10" stroke-width="1.874"/><path d="M1007.221,1024.169c-6.778,7.5-22.666,9.438-32,6.165-13.665-4.791-21.15-17.008-26.112-29.952-2.3-5.994-3.265-12.552-6.673-18.091-3.516-5.717-8.4-10.4-13.222-15-3.9-3.712-9.247-5.794-13.6-9.3a116.4,116.4,0,0,0-18.1-12.312c-22.988-12.336-42.784-29.773-64.336-44.236-10.579-7.1-22.11-13.458-31.734-21.861-11.095-9.689-17.287-21.521-23.861-34.3-12.143-23.606-45.068-28.178-64.283-43.957-10.232-8.4-16.916-19.971-27.345-28.247-11.795-9.359-24.436-15.042-38.128-21.212-5.133-2.3-14.125-.319-19.645-.033-6.884.356-13.741.927-20.6,1.616-13.847,1.389-25.955.868-39.541-2.723-12.807-3.384-20.425-12.817-31.937-18.075-4.377-2-7.9-10.16-10.822-13.889-4.413-5.628-9.841-9.226-15.785-13.027-11.562-7.394-14.45-18.184-21.15-29.387-3.276-5.478-7.192-10.781-8.819-17.054-1.808-6.968-.917-14.227-.97-21.327-.1-13.507-1.9-26.05-.216-39.534a301.952,301.952,0,0,1,8.885-42.481c1.65-6.032,2.961-12.163,4.967-18.092,1.755-5.189,4.757-9.384,5.776-14.884,2.572-13.876,4.338-27.47,7.591-41.272s7.742-26.71,12.171-40.171c3.49-10.612,12.8-22.671,24.394-25.149,17.122-3.658,30.069-11.611,40.34-26.181,10.292-14.6,19.122-31.208,36.11-38.9,15.555-7.047,31.807-4.166,47.283.916,8.033,2.638,14.365,5.375,20.848,10.794,7.755,6.485,15.207,13.213,23.539,18.972" transform="translate(208.954 151.852)" fill="none" stroke="rgba(73,61,124,0.4)" stroke-miterlimit="10" stroke-width="1.874"/><path d="M.924,160.512c1.974,11.843.99,25.873,7.9,36.015,7.987,11.721,17.4,22.129,27.2,32.345,9.772,10.189,16.431,17.247,31.106,16.41,27.41-1.561,52.471-15.361,73.469-32.424,10.777-8.757,19.536-20.887,27.964-31.852,8.057-10.482,19.645-16.531,30-24.406,22.238-16.9,47.907-28.462,73.988-38.125,7.026-2.6,13.671-6.681,21.246-7.521,5.943-.657,11.851.676,17.67,1.7,13.008,2.293,25.948,4.581,38.725,8.222,24.6,7.012,52.085,15.933,72.471,31.533a67.762,67.762,0,0,1,23.563,33.722c3.733,12.365,9.1,24.166,12.638,36.56a206.988,206.988,0,0,1,6.677,83.843c-3.528,27.551-14.977,51.392-30.88,73.723-17.007,29.177-25.728,33.632-25.917,53.891-.161,17.2,9.641,30.092,13.041,46.381,7.537,36.123,2.031,72.169-9.91,106.607-5.833,16.827-15.5,33.321-18.462,50.853-1.4,8.306-3.322,17.075-2.527,25.533.8,8.552,2.015,16.926,2.024,25.54.019,18.574,1.008,36.813-.8,55.309-1.656,16.959,4.2,32.663,2.912,49.522-1.942,25.528,22.064,47.423,40.792,61.617,9.433,7.15,27.57,1.4,38.345.3,12.966-1.328,26.05-1.148,38.7,2.116,13.712,3.538,25.055,7.765,37.165,15.168,10.606,6.484,19.86,15.178,29.03,23.517,21.135,19.222,44.375,25.758,72.438,27.754,13.8.982,28.267.72,41.887,3.165,12.867,2.31,24.66,6.848,37.806,7.909,13.268,1.071,26.578,4.265,39.869,4.412,6.483.072,12.735-1.906,19.127-2.661,6.167-.732,12.561,1.629,18.5,3.094,14.381,3.543,28.613,7.09,42.806,11.378,11.217,3.381,23.25,4.66,34.172,8.914,12.414,4.834,25.336,5.386,37.408,11.678a110.4,110.4,0,0,1,29.207,21.437c19.728,20.343,45.062,34,65.761,53.312,10.357,9.661,17.994,22.416,27.837,32.768,9.174,9.65,15.551,21.213,25.748,29.957,5.543,4.752,10.389,8.49,14.388,14.6,3.519,5.38,7.07,10.771,10.121,16.435,5.969,11.073,10.945,23.995,19.485,33.41,17.018,18.759,49.057,22.169,71.87,15.375,26.275-7.824,47.673-23.973,70.2-38.742" transform="translate(0.404 48.465)" fill="none" stroke="rgba(73,61,124,0.4)" stroke-miterlimit="10" stroke-width="1.874"/><path d="M532.747,121.939c-6.821,2.727-13.668,3.611-20.963,3.805-2.905.076-15.154,2.865-11.885-2.531,5.76-9.508,3.819-31.3,18.683-29.536" transform="translate(218.46 40.938)" fill="none" stroke="rgba(73,61,124,0.4)" stroke-miterlimit="10" stroke-width="1.874"/><path d="M595.608,177.525c-18.932,10.292-35.49,23.686-53.732,35-8.721,5.411-15.894,9.433-26.382,6.479a79.6,79.6,0,0,1-13.36-5.536c-5.872-2.886-8.266-6.134-12.67-10.761-7.312-7.685-10.164-15.717-15.712-24.39-4.688-7.327-14.767-11.409-23.177-11.826-10.557-.523-19.3,8.481-28.789,12.056a69.045,69.045,0,0,0-29.414,20.246,78.282,78.282,0,0,0-9.244,13.553c-1.925,3.441-6.013,7.6-6.944,11.442-2.539,10.479-2.905,21.456-5.054,32.046-4.581,22.574-2.659,46.835-8.852,69.025-.98,3.51-2.014,7.63-2.8,10.113-3.18,10.067-6.683,20.039-10.364,29.934-3.6,9.679-13.675,17.478-19.3,26.116-5.793,8.9-10.443,18.686-11.21,29.4-.789,11.024,2.72,21.281,3.907,32.106,4.665,42.509-3.716,85.414-11.556,127.027-3.772,20.024-7.037,44.319-1.88,64.3,2.319,8.99,5.322,20.6,10.614,28.339,4.83,7.055,14.139,8.8,22.047,9.725,42.157,4.925,80.389-30.065,107.146-58.387,10.231-10.829,18.122-16.423,33.7-14.915,14.22,1.376,19.245,6.625,20.418,20.927,2.1,25.6,5.514,50.381-3.253,75.138-4.808,13.58-9.819,26.75-17.092,39.268-3.15,5.421-7.909,7.455-10.432,13.531-2.014,4.852-4.912,11.51-4.364,16.876.781,7.655,6.112,15.406,9.555,22.1,3.417,6.643,6.516,13.448,10.088,20.01,4.847,8.9,12.9,19.587,22.891,22.661,11.921,3.668,25.228,6.612,37.642,7.317,12.239.693,24.975,6.847,36.358,11.169,27.154,10.327,53.572,18.056,82.975,17.036,14.618-.51,28.368-2.529,43.1-1.384,13.121,1.019,24.328,7.576,35.6,13.928,12.214,6.884,21.9,17.622,34.49,24.259,11.066,5.833,21.869,12.027,32.463,18.684,11.235,7.06,20.747,17.448,28.789,27.945,8.171,10.663,18.186,17.241,28.918,25.027a455.816,455.816,0,0,1,35.877,28.232c9.391,8.325,17.629,18.035,26.529,26.9,9.706,9.67,20.3,15.953,31.034,23.993,10.372,7.758,19.718,14.779,26.052,26.384,6.833,12.515,11.184,26.261,20.42,37.3,3.466,4.143,5.9,8.813,11.077,10.468,6.217,1.988,12.433,4.012,18.778,5.568,27.235,6.673,53.581-16.083,70.96-33.978" transform="translate(134.053 72.828)" fill="none" stroke="rgba(73,61,124,0.4)" stroke-miterlimit="10" stroke-width="1.874"/><path d="M609.3,43.366c-12.2,5.52-23.849,9.513-37.142,11.513-14.516,2.185-28.218,2.681-42.514,6.394-12.062,3.134-24.8-.868-36.959-3.244C477.6,55.079,467.1,60,458.407,72.333c-5.9,8.365-23.5,10.8-32.1,6.358-5.6-2.889-10.79-6.564-16.645-8.948-6.6-2.684-15.735-1.176-22.653-.87-13.169.585-27.994.206-40.391,4.974-5.961,2.291-11.894,4.737-18.286,5.51-7.018.847-14.129.157-21.134,1.157-12.756,1.826-25.227,5.625-38,7.645-13.073,2.058-23.169,11.149-36.64,11.888-27.686,1.518-50.72,14.989-69.878,34.58a158.243,158.243,0,0,0-23.272,30.118c-7.38,12.663-12.421,25.626-18.291,39.009-4.977,11.35-15.879,19.185-26.458,25.057-9.375,5.2-27.929,14.624-38.17,9.374-12.528-6.421-23.97-12.311-33.6-22.827-8.846-9.661-3.8-25.331-4.3-37.36" transform="translate(7.702 18.972)" fill="none" stroke="rgba(73,61,124,0.4)" stroke-miterlimit="10" stroke-width="1.874"/><path d="M918.614,806c-5.225-2.412-11.108-5.9-16.981-6.145-6.91-.293-13.673,1.452-20.4,2.764-6.109,1.192-12.155,2.714-18.272,3.851-5.81,1.08-10.445.177-16.343,2.263-5.1,1.8-10.762,3.986-16.238,2.6s-9.66-5.6-14.809-7.74c-5.506-2.29-11.4-3.354-16.714-6.145-5.286-2.776-10.258-5.829-15.789-8.141-5.332-2.227-11.132-4.074-16.021-7.21-5.5-3.527-9.72-10.625-13.188-16.019-6.63-10.32-11.672-24.082-12.341-36.4-.273-5.041,3-8.981,2.839-13.751-.191-5.636-7.886-6.167-11.766-7.777-24.3-10.1-58.515-8.957-72.734-35.109-3.092-5.685-5.6-11.642-9.807-16.645-4.265-5.079-9.51-9.318-13.2-14.875-3.574-5.372-5.151-11.729-8.155-17.392-3.213-6.056-8.914-8.912-13.477-13.715-8.057-8.481.372-17.2,6.252-23.792,10.174-11.405,19.218-19.507,35.09-20.9a70.708,70.708,0,0,1,19.172.837c4.1.749,10.822,4.037,14.792,3.694,15.209-1.31,26.529-6.312,40.021-12.815,11.54-5.562,24.621-8.277,36.827-12" transform="translate(267.7 238.623)" fill="none" stroke="rgba(73,61,124,0.4)" stroke-miterlimit="10" stroke-width="0.703"/><path d="M974.483,895.368c-3.677,4.219-7.8,8.428-10.856,13.123-2.688,4.13-4.877,9.107-8.946,12.115-7.629,5.639-21.706-2.649-22.692-11.59-.448-4.074,2.94-7.85,4.754-11.179,2.708-4.974,5.057-10.324,7.474-15.453,5.415-11.494,9.142-24.4,6.063-36.991-6.328-25.882-40.611-31.138-62.216-22.3-8.812,3.605-24.964,15.042-34.53,10.745-11.46-5.146-22.283-11.964-33.187-17.894-22.991-12.515-53.966-23.6-63.672-50.853-4.13-11.593-6.372-25.981-14.8-35.471-2.843-3.2-7.892-2.257-11.478-3.97-5.964-2.851-10.955-7.233-17.215-9.541-12.562-4.631-22.038-8.158-32.335-17.113-10.484-9.118-17.428-21.443-27.879-30.233-10.261-8.651-19.37-16.127-31.465-22.205-11.555-5.806-25.6-9.605-35.244-18.792-4.144-3.949-8.786-8.345-12.535-12.654-3.541-4.068,1.223-8.868,3.405-12.633,6.549-11.307,12.811-23.516,20.893-33.827,7.726-9.86,22.441-12.232,32.433-19.5,10.885-7.912,24.5-14.674,38.293-14.65,12.529.023,23.1,2.662,34.806,6.9,3.943,1.426,10.3,5.343,14.565,5.143,7.862-.375,15.564-2.1,23.33-3.233,13.334-1.949,26.434-4.5,39.668-6.962,5.616-1.049,6.689-1.409,10.929-5.312" transform="translate(250.442 232.328)" fill="none" stroke="rgba(73,61,124,0.4)" stroke-miterlimit="10" stroke-width="0.703"/><path d="M669.028,418.429c-3.1-1.9-15.485-2.894-20.279-12.1-4.3-8.257-6.48-13.245-15.969-15.334-7.962-1.752-17.954-4.87-24.939-9.1-8.865-5.369-13.1,3.25-17.037,10.338a73.671,73.671,0,0,0-7.577,22.81c-1.4,8.651,4.216,10.291,11.312,11.241,8.391,1.124,16.409,5.547,24.66,7.591,10.563,2.616,21.18-2.05,31.792-1.312,4.949.343,12.193,4.6,14.332,3.558s12.15-3.185,9.692-9.529S672.13,420.326,669.028,418.429Z" transform="translate(255.061 166.341)" fill="none" stroke="rgba(73,61,124,0.4)" stroke-miterlimit="10" stroke-width="0.703"/><path d="M734.457,484.494c-5.81-2.011-11.954-3.5-17.658-5.75-5.546-2.185-10.281-6.965-14.8-10.709-5.021-4.156-8.8-7.17-15.44-7.691-7.486-.588-15.015-.522-22.485-1.327-11.818-1.266-22.244-8.467-34.365-5.276-12.411,3.269-25.435,9.566-37.826,3.283-8.75-4.437-24.782,8.25-29.247,15.086a59.762,59.762,0,0,1-30.167,23.553c-7.094,2.608-15.529-21.569-12.674-26.1,8.313-13.193,13.729-22.528,28.875-28.326,8.668-3.318,26.64-7.389,28.277-17.9.841-5.4,4.964-8.856,8.3-12.876,4.519-5.442,6.068-12.118,8.066-18.739,3.737-12.383,11.139-18.59,23.27-23.217,12.621-4.813,28.661,4.384,39.626,10.129,11.142,5.838,22.015,6.552,31.677,15.36,9.475,8.638,17.454,18.138,31.215,18.416" transform="translate(227.155 160.631)" fill="none" stroke="rgba(73,61,124,0.4)" stroke-miterlimit="10" stroke-width="0.703"/><path d="M995.316,908.115c-6.165,9.94-10.384,18.288-19.147,26.423-7.123,6.61-24.421,12.234-32.053,3.6-7.35-8.315-15.045-18.4-11.05-29.933,4.178-12.05,10.314-23.753,14.009-35.9,2.993-9.844-2.189-24.046-11-29.3-14.122-8.411-23.162.618-35.733,6.2-5.873,2.613-11.458,5.987-17.691,7.724-5.523,1.539-7.647-2.434-12.463-4.561-6.448-2.851-13.015-5.421-19.51-8.165-6.311-2.665-11.306-7.7-16.721-11.828-9.178-6.988-20.083-10.254-29.191-17.224-10.967-8.393-22.564-14.711-31.842-25.173-8.578-9.671-10.775-21.039-17.362-31.9-7.98-13.157-17.578-18.927-31.5-24.565a144.258,144.258,0,0,1-32.743-18.411c-11.086-8.521-17.772-20.01-27.286-29.931-7.472-7.791-19.689-16.686-30.186-19.513-13.29-3.579-26.362-5.192-39.639-8.1-5.859-1.285-11.747-2.553-17.777-2.395-5.534.145-10.98.617-16.318-1.228a50.3,50.3,0,0,1-14.634-8.165c-5.856-4.857-4.888-11.71-3.73-18.42a124.367,124.367,0,0,1,10.821-32.775c6.132-12.015,18-20.908,28.978-28.14,12.14-8,26.024-13.393,39.075-19.731l43.655-21.2c10.872-5.28,20.74-14.514,33.038-9.249,11.856,5.077,21.686,12.239,34.386,15.062,12.552,2.792,25.7,7.241,38.693,6.206" transform="translate(236.628 225.171)" fill="none" stroke="rgba(73,61,124,0.4)" stroke-miterlimit="10" stroke-width="0.703"/><path d="M1012.084,1001.408c-10.1,12.375-18.1,18.207-34.747,17.828-12.822-.292-19.474-12.651-24.324-23.25-5.628-12.308-4.732-26.769-9.939-38.944-4.2-9.831-17.366-10.5-26.292-12.729-12.339-3.078-21.792-14.181-33.892-18.5-12.036-4.3-22.911-14.753-33.593-21.7-11.9-7.744-23.351-16.145-35.266-23.916-10.6-6.914-18.716-13.931-26.125-24.393-3.815-5.386-5.658-11.431-8.327-17.385-3.185-7.1-8.782-12.922-14.552-18.017-9.04-7.981-20.559-11.115-31.122-16.646-12.756-6.676-22.29-12.759-31.6-23.786-15.413-18.259-38.585-40.658-64.151-42.045-11.625-.632-23.024,4.207-34.6,3.01-6.017-.623-11.947-1.876-17.963-2.516-6.351-.676-16.133.02-21.5-3.97-10.333-7.685-18.745-16.714-24.518-28.273-5.678-11.366-4.039-25.191-14.858-33.486-9.4-7.209-21.3-12.332-29.136-21.46-4.226-4.925-6.541-11.8-9.038-17.7-3.6-8.511-2.1-12.871.18-21.656,3.354-12.917.5-24.951,2.715-37.815,1.179-6.847,2.454-13.676,3.742-20.5,1.472-7.81,4.427-13.409,8.234-20.388,6.6-12.088,9.545-22.284,11.661-35.874a374.747,374.747,0,0,1,8.648-40.874c2.478-9.075,10.288-23.6,19.077-27.877,5.225-2.541,11.263-2.244,16.732-3.97,6.985-2.207,13.132-7.478,18.68-12.063,8.657-7.157,17.526-18.292,23.069-28.078,2.885-5.093,5.575-10.367,9.4-14.844,4.182-4.9,11.161-8.155,16.481-11.731,3.985-2.68,10.175-1.047,14.74-.779,6.375.375,12.831.87,18.912,2.958a110.018,110.018,0,0,1,31.813,16.77c10.149,7.76,20.5,16.993,32.1,22.528" transform="translate(211.914 155.895)" fill="none" stroke="rgba(73,61,124,0.4)" stroke-miterlimit="10" stroke-width="0.703"/><path d="M791.737,551.713c-12.561,9.02-24.253,7.041-38.009,2.72-11.069-3.476-25.491-6.976-34.595-14.575-4.561-3.806-7.081-5.931-13.256-6.913-4.939-.785-15.437-3.535-20.144-1.64-13.8,5.539-26.825,13.3-40.138,19.9-14.326,7.1-28.974,13.679-43.06,21.249-12.325,6.624-20.793,8.947-34.747,6.835-12.015-1.818-23.019,3.217-32.306-6.627-8.914-9.447-8.958-20.363-6.866-32.421,2.156-12.427,6.5-27.246,12.6-38.326,6.391-11.606,15.828-22.651,24.883-32.254,8.848-9.384,17.082-22.352,30.732-25.3,5.711-1.236,11.586-.217,17.358-.7,5.187-.434,9.955-2.337,14.877-3.9,13.16-4.182,24.1.459,36.841,3.673,10.3,2.6,23.464,11.038,31.449,17.9,4.17,3.584,8.595,6.8,14.053,8.07,6.309,1.463,12.362-1.749,18.628-.678,7.683,1.311,14.556,5.22,21.914,7.58,8.336,2.675,16.9,4.485,25.145,7.571" transform="translate(230.769 191.662)" fill="none" stroke="rgba(73,61,124,0.4)" stroke-miterlimit="10" stroke-width="0.703"/><path d="M1015.37,1029.5c-7.492,7.182-25.221,15.825-35.368,11.388-12.033-5.266-22.619-10.006-28.573-22.431-6.174-12.878-11.231-25.288-20.283-36.245C922.281,971.484,911.561,965.3,900,957.919c-12.3-7.854-23.785-16.987-35.861-25.267-10.518-7.212-19.234-16.571-29.944-23.517-10.9-7.071-21.847-13.555-31.977-21.784a99.254,99.254,0,0,1-24.329-30.115A65.336,65.336,0,0,0,748.809,829.3c-11.878-5.826-22.838-9.853-33.522-17.924-10.988-8.3-17.71-20.849-28.57-28.832-9.9-7.255-19.8-15.364-31.757-19.01-12.158-3.706-28.608-.093-41.1.848-12.145.917-28.383,4.571-40.027.676-14.408-4.818-27.927-9.971-41.26-17.292-11.266-6.184-17.29-17.178-27.935-23.7-12.388-7.584-21.9-12.135-27.154-26.673-4.39-12.158-7.99-25.123-5.9-38.114,2.235-13.9-.4-26.721-.382-40.638.037-27.85,9.334-55.507,15.761-82.316,2.869-11.98,4.144-24.562,6.18-36.714,2.306-13.763,5.391-27.128,6.786-41.072,1.265-12.654.959-24.877,4.2-37.449,3.26-12.638,21.105-17.685,32.63-17.869,8.542-.137,15.279-.911,21.568-7.261,5.894-5.95,11.273-12.617,16.906-18.828,11.248-12.4,20.762-27.744,36.9-33.867a78.645,78.645,0,0,1,48.308-2.613,65.274,65.274,0,0,1,23.95,10.833A262.076,262.076,0,0,1,707,369.2" transform="translate(206.047 147.897)" fill="none" stroke="rgba(73,61,124,0.4)" stroke-miterlimit="10" stroke-width="0.703"/><path d="M712.025,493.715c2.424,4.991-14.141,9.959-17.576,11.261-8.481,3.216-10.945-7.2-13.788-13.819-4.681-10.9.7-8.907,9.095-6.1C694.318,486.581,709.828,489.191,712.025,493.715Z" transform="translate(297.023 211.24)" fill="none" stroke="rgba(73,61,124,0.4)" stroke-miterlimit="10" stroke-width="0.703"/><path d="M635.221,487.843c-1.193-4.965-5.6-19.931-11.549-21.157-6.249-1.288-16.328,0-22.528,1.335-8.477,1.831-12.969,8.247-18.028,14.66-5.636,7.146-12.9,10.021-16.06,19.122-1.808,5.218-4.151,17.138,2.168,20.637,4.837,2.678,17.418-8.395,22.024-10.263,8.125-3.295,17.054-3.181,24.695-7.862,2.9-1.772,20.12-12.969,19.278-16.471C633.477,480.585,635.674,489.721,635.221,487.843Z" transform="translate(247.222 203.937)" fill="none" stroke="rgba(73,61,124,0.4)" stroke-miterlimit="10" stroke-width="0.703"/><path d="M544.579,334.317c1.038,5.008,2.133,10.131,1.7,15.279-.5,6.01-4.44,8.181-7.816,12.577-2.994,3.893-4.53,10.374-10.32,10.952-5.437.543-9.559-1.816-14.867.689-9.646,4.55-21.959-7.17-27.482-14.395-3.937-5.153-6.249-11.3-9.933-16.619-3.318-4.785-8.129-8.3-11.383-13.134-6.2-9.2-2.687-23.29-.421-33.321,2.1-9.3,22.83-11.816,30.542-10.325,6.117,1.183,12.278,2.215,18.275,3.934,6.056,1.736,9.474,5.989,13.895,10.238,10.364,9.962,14.914,20.184,17.8,34.126C545.82,340.3,543.05,326.94,544.579,334.317Z" transform="translate(201.683 124.955)" fill="none" stroke="rgba(73,61,124,0.4)" stroke-miterlimit="10" stroke-width="0.703"/><path d="M362.33,457.872c.39,6.223-5.97,12.315-10.459,5.079-4.324-6.968-7.055-16.957-8.064-25.084-.622-5.005,9.548-5.662,12.6-3.842,6.825,4.07,5.516,17.266,5.924,23.848C362.5,460.606,361.851,450.181,362.33,457.872Z" transform="translate(150.4 189.476)" fill="none" stroke="rgba(73,61,124,0.4)" stroke-miterlimit="10" stroke-width="0.703"/><path d="M1039.869,1045.119c-3.86,5.263-9.317,9.924-14.086,14.362-9.907,9.216-24.873,15.2-38.5,15.026-29.188-.375-34.208-37.092-47.437-55.474-7.755-10.784-18.048-18.442-29.443-24.928-12.6-7.17-23.151-16.916-35.226-24.847-10.817-7.105-19.629-17.27-29.837-25.275-10.915-8.559-23.188-15.922-34.616-23.847A97.306,97.306,0,0,1,784.374,892.3c-3.515-5.527-5.918-11.868-10.584-16.6-5.221-5.3-11.526-9.341-17.8-13.254-11.021-6.87-23.27-10.627-33.984-18.337-5.264-3.788-11.664-7.742-15.86-12.738-4.445-5.29-8.473-11.2-13.8-15.666-8.511-7.136-20.394-17.553-31.814-18.478-14.247-1.154-28.136.874-42.307,1.685-13.215.756-26.389,2.484-39.623,1.042-13.011-1.417-24.34-8.369-35.847-14.159-11.589-5.829-23.374-10.358-34.189-17.608-9.684-6.49-22.559-11.634-30.976-19.59-18.226-17.227-8.365-52.585-6.874-74.127.87-12.651-.5-25.107.641-37.75,1.351-14.931,4.977-29.18,7.144-43.947,3.923-26.719,10.886-53.354,12.025-80.43.276-6.561.02-13.127.16-19.691.095-4.63-3.1-8.277-5.408-12.222-6.824-11.656-.885-21.817,4.019-32.9,4.754-10.741,7.1-25.291,6.434-37.034-.873-15.315-6.659-26.854-13.915-40.064-6.226-11.343-13.63-21.782-20.589-32.641-3.755-5.859-5.593-12.223-7-18.978-1.611-7.715-.441-11.506,1.791-18.913,3.747-12.428,9.391-20.054,22.921-22.093,11.825-1.78,28.248-3.16,38.194,4.33a308.838,308.838,0,0,1,31.9,27.156c9.466,9.385,15.436,22.314,22.255,33.6,5.993,9.914,19.57,14.389,30.745,14.3a53.439,53.439,0,0,0,17.329-3.311c6.85-2.621,16.277-2,23.533-2.113,13.489-.2,26.118.434,38.162,6.512,12.833,6.474,21.637,14.631,31.984,24.3" transform="translate(198.389 120.924)" fill="none" stroke="rgba(73,61,124,0.4)" stroke-miterlimit="10" stroke-width="0.703"/><path d="M401.092,457.7c-.032,10.78-7.192,22.895-11.6,32.5-5.3,11.556-11.087,26.7-23.057,33.1-11.208,5.991-25.136-7.21-28.258-17.3-2.251-7.275-2.731-15.381-4.2-22.868-1.505-7.693-3.408-15.213-2.059-23.018,2.4-13.879,4.755-26.762,11.98-39.022,2.544-4.317,8.477-11.59,6.385-16.843-2.319-5.819.263-6.827,6.393-7.62,17.077-2.211,16.055,14.812,23.332,25.114,7.068,10.008,21.122,22.715,21.079,35.953C401.065,467.369,401.117,450.236,401.092,457.7Z" transform="translate(145.012 173.438)" fill="none" stroke="rgba(73,61,124,0.4)" stroke-miterlimit="10" stroke-width="0.703"/><path d="M1033.275,1071.381c-11.317,8.544-24.912,11.592-38.838,11.245-7.683-.191-10.633-.124-16.472-5.319-5.005-4.452-10.012-9.083-13.616-14.789-7.361-11.657-10.554-26.089-18.943-37.067-8.241-10.78-19.791-17.973-31.324-24.637a172.79,172.79,0,0,1-33.516-25.668C860.583,955.727,837.87,939.7,814.923,924c-10.775-7.373-18.689-17.97-25.685-28.975-8.375-13.17-18.473-19.129-31.288-27.4-10.568-6.837-22.364-10.909-32.4-18.828-10.336-8.153-18.765-17.683-28.741-26.138-9.912-8.4-18.841-13.939-31.789-14.946-14.467-1.123-28.665.864-42.99,2.712-13.534,1.747-26.588.927-40.093-.608-12.495-1.422-23.573-8.948-34.92-13.962-11.727-4.919-23.26-9.575-34.393-15.673-11.444-6.269-23.171-14.155-35.43-18.626-10.464-3.815-13.157-21.436-14.142-31.228-.538-5.356-2.526-12.144-1.384-17.458,1.363-6.341,4.028-12.285,6.332-18.316,4.745-12.429,3.48-26.9,4.688-40.033,1.328-14.445,2.862-28.623,5.322-42.931,2.106-12.255,4.64-24.654,5.711-37.044,1.124-13.006,4.655-25.3,3.21-38.49-1.117-10.195-10.33-26.668-21.909-27.614-5.933-.485-11.737-.743-17.673-1.525-2.14-.282-17.753-.877-18.372-2.152-.933-1.922,5.34-10.617,6.359-12.521,2.654-4.952,5.779-10.458,10.623-13.593,4.794-3.1,10.656-3.818,15.624-6.562,5.761-3.181,6.293-9.693,10.307-14.389,3.942-4.616,6.89-8.152,8.28-14.24,1.36-5.953,1.758-12.082,3.861-17.856,5.248-14.411,7.31-26.3,3-41.323-7.554-26.332-28.649-45.566-32.563-73.328-.348-2.458-3.236-15.525-1.686-17.141,4.108-4.4,7.535-9.4,11.865-13.6,9.416-9.127,24.052-12.742,36.836-12.529,5.6.093,10.824-.969,16.124,1.163a93.27,93.27,0,0,1,15.926,8.069c11.153,7.212,20.049,18.557,29.907,27.462,9.8,8.856,19.638,18.121,30.2,26.067,11.024,8.294,22.344,11.362,35.765,12.22,13.886.89,25.968-.617,39.613-2.424,10.374-1.374,29.123,5.743,36.683,12.9,9.532,9.032,17.475,19.829,26.9,29.052" transform="translate(187.631 117.027)" fill="none" stroke="rgba(73,61,124,0.4)" stroke-miterlimit="10" stroke-width="0.703"/><path d="M574.993,213.968c-5.94-.172-16.847.026-21.447-4.473-6.459-6.318-10.735-14.44-1.613-26.339" transform="translate(239.174 80.128)" fill="none" stroke="rgba(73,61,124,0.4)" stroke-miterlimit="10" stroke-width="0.703"/><path d="M436.31,471.3c2.007,4.133-1.581,8.654-3.566,12.017-2.8,4.739-3.546,10.195-5.58,15.25-2.127,5.29-6.566,8.56-9.4,13.347-3.483,5.876-6.421,12.049-9.449,18.164-5.576,11.264-15.615,19.947-24.739,28.436-10.614,9.878-20.415,11.359-34.458,10.948-24.869-.729-22.435-45.541-23.243-62.393-.634-13.27-.282-26.791,3.962-39.423q3.351-9.977,6.986-19.855c2.235-6.081,2.406-11.425,2.373-18.085-.035-6.738-.132-13.459-.474-20.187-.285-5.622,1.088-10.5,1.275-15.88.454-12.943-1.987-26.369-.581-39.223.917-8.386,9.746-20.954,17.593-24.114,14.507-5.842,16.14,10.8,18.738,21.091,1.649,6.538,1.912,13.3,2.794,19.961.808,6.105,3.23,11.946,3.585,18.1.73,12.68,3.694,24.814,7.619,36.885,4.456,13.708,12.456,21.794,22.267,31.876,3.575,3.673,6.654,7.757,11.984,8.721C427.874,467.643,434.239,467.037,436.31,471.3Z" transform="translate(142.458 143.976)" fill="none" stroke="rgba(73,61,124,0.4)" stroke-miterlimit="10" stroke-width="0.703"/><path d="M551.879,175.861c-20.445,10.453-38.293,21.956-53.792,38.789-3.21,3.486-6.548,7.8-6.326,12.592s5.079,14.212,9.781,20.138c2.655,3.355,15.653-2.508,18.759-3.484,13.715-4.312,28.06-5.846,42.133-8.589,12.963-2.527,25.547-.4,38.847-.457" transform="translate(215.135 76.937)" fill="none" stroke="rgba(73,61,124,0.4)" stroke-miterlimit="10" stroke-width="0.703"/><path d="M546.257,229.2c-10.393,3.236-24.445,7.732-32.276,15.674-9.62,9.752-8.668,24.246.3,33.771,8.477,9,18.492,16.533,26.793,25.613,9.692,10.6,17.787,18.239,31.99,22.333,5.509,1.588,10.384.362,15.9,1.044,5.967.736,10.8,3.4,17,2.918,14.312-1.1,28.679-4.916,42.828-7.318,2.576-.417,11.08,5.793,13.545,7.139" transform="translate(221.874 100.273)" fill="none" stroke="rgba(73,61,124,0.4)" stroke-miterlimit="10" stroke-width="0.703"/><path d="M486.539,355.547c4.071,8.382,7.366,18.654,5.853,27.909-1.176,7.186-2.247,19.4-6.362,25.485-10.771,15.942-22.812,32.7-40.069,42.081a49.785,49.785,0,0,1-27.708,5.556c-10.113-.723-14.616-4.012-21.217-11.277-14.884-16.379-17.3-33.834-19.709-55.1-2.048-18.036-2.977-38.968,3.921-56.154,3.158-7.87,5.1-16.351,10.876-22.829,6.426-7.195,14.816-12.424,21.778-19.086C442.425,264.835,477.188,336.292,486.539,355.547Z" transform="translate(164.424 125.12)" fill="none" stroke="rgba(73,61,124,0.4)" stroke-miterlimit="10" stroke-width="0.703"/><path d="M598.3,172.166c-10.727,5.905-20.885,10.07-30.3,18.174-8.828,7.6-19.078,14.8-30.19,18.564-11.8,3.992-21.342,6.474-30.59-2.79-9.8-9.819-14.457-20.723-20.44-32.92-4.876-9.937-6.6-22.389-19.38-24.856-10.788-2.08-23.135,5.329-31.951,10.8-4.548,2.822-8.885,6.016-13.715,8.362-5.841,2.836-12.51,3.381-18.278,6.394-9.717,5.076-14.109,15.787-19.56,24.377-5.542,8.737-13.916,15.467-14.2,26.5-.29,11.161-2.437,22.237-3.566,33.321-2.682,26.306-6.135,52.246-10.484,78.332-.865,3.765-3.269,11.106-3.269,11.106-3.924,11.327-6.387,21.118-14.281,30.443a156.829,156.829,0,0,0-16.86,25.044c-5.989,10.647-7.15,19.073-7.14,31.347.009,10.876,4.62,20.974,4.831,31.659.231,11.6,1.249,22.886.453,34.517-.673,9.815-1.816,19.521-2.332,29.346a148.887,148.887,0,0,1-5.457,34.27c-2.787,9.39-6.229,20.832-7.018,30.575-1.932,23.568-6.194,47.666,1.232,70.464,3.666,11.254,6.844,23.054,17.362,29.809,9.068,5.822,18,7.771,28.727,7.689,11.6-.089,22.35-6.559,33.115-10.182a102.02,102.02,0,0,0,28.431-14.751c8.467-6.145,19.162-10.577,26.315-18.325,7.44-8.059,12.24-15.738,21.807-21.679,4.949-3.073,11.467-7.3,17.608-6.6,5.312.6,9.193,7.478,11.566,11.626a69.483,69.483,0,0,1,8.576,36.93c-.743,13.035-4.446,26.121-9.518,38.1-4.827,11.417-10.2,23.888-20.338,31.311-7.886,5.774-21.3,15.5-19.816,26.849.746,5.707,4.144,10.636,6.68,15.657,3.236,6.406,5.708,13.146,9.148,19.465,6.7,12.311,16.057,24.232,25.438,34.62,8.812,9.759,20.7,13.369,33.331,15.638,12.418,2.23,27.212-.831,39.116,3.937,11.375,4.557,23.527,9.151,35.354,12.331,27.728,7.452,53.213,11.146,81.984,10.259a204.954,204.954,0,0,1,23.169.348c5.539.454,14.333-.145,19.3,2.458,5.743,3.01,11.358,6.259,17.076,9.316,5.031,2.688,10.888,4.052,15.723,6.946,6.538,3.914,11.94,9.312,18.611,13.133,5.69,3.26,11.53,6.242,17.253,9.441,10.665,5.994,22.106,11.133,31.07,19.636,10.041,9.525,17.858,21.449,28.34,30.37,9.552,8.129,20.4,14.915,30.639,22.137,22.461,15.837,38.158,37.83,58.777,55.649,10.839,9.367,22.944,17.2,33.862,26.456,9.722,8.244,16.433,20.471,21.207,32.128,3.972,9.7,11.5,29.03,22.665,32.279,10.991,3.2,24.22,9.15,35.6,6.25,13.472-3.434,26.986-7.906,38.707-15.575,10.075-6.6,18.414-16.088,27.294-24.151" transform="translate(131.943 64.74)" fill="none" stroke="rgba(73,61,124,0.4)" stroke-miterlimit="10" stroke-width="0.703"/><path d="M614.968,252.479c7.118,14.658-5.633,37.912-21.232,40.391-17.5,2.78-40.069-3.129-51.489-16.882a49.717,49.717,0,0,1-6.875-9.738c-1.872-3.852,5.6-7.952,7.948-9.791,8.112-6.348,16.692-9.472,26.76-11.227,9.03-1.574,16.4,1.422,25.254,3.647,3.558.894,7.639,2.475,11.342,2.388C608.961,251.214,613.616,249.695,614.968,252.479Z" transform="translate(234.089 107.095)" fill="none" stroke="rgba(73,61,124,0.4)" stroke-miterlimit="10" stroke-width="0.703"/><path d="M470.579,375.2c-1.9-13.376-3.594-25.676-10.058-37.783a87.577,87.577,0,0,0-11.151-16.011c-2.406-2.786-7.382-10.935-11.52-11.221-12.7-.884-24.088-1.069-33.328,8.977-8.766,9.533-11.119,19.3-14.487,31.54-5.268,19.144-1.8,59.624,22.173,65.551,11.77,2.911,25.536.6,34.526-7.754a98.261,98.261,0,0,0,13.039-15.193c2.461-3.483,11.409-13.817,10.806-18.107C469.488,367.5,470.656,375.747,470.579,375.2Z" transform="translate(169.704 135.537)" fill="none" stroke="rgba(73,61,124,0.4)" stroke-miterlimit="10" stroke-width="0.703"/><path d="M448.125,331.524c4.344,8.945,8.37,17.812,7.4,27.828-.742,7.67-.87,20.4-7.239,25.766-7.163,6.04-14.243,13.073-23.943,14.474-10.156,1.468-18.354-5.588-23.637-13.606-10.6-16.087-7.8-41.576,4.683-55.943,5.1-5.865,9.226-14.826,18.433-11.6C430.184,320.664,445.013,325.116,448.125,331.524Z" transform="translate(172.445 139.017)" fill="none" stroke="rgba(73,61,124,0.4)" stroke-miterlimit="10" stroke-width="0.703"/><path d="M437.583,354.432c2.547,9.566-10.176,16.234-17.675,18.739C408.461,377,405.488,361.133,403.631,353.1c-1.652-7.146-1.371-7.7,3.818-12.842,3.878-3.845,7.911-7.813,13.025-9.973,9.315-3.937,15.65,18.679,17.109,24.148C438.3,357.123,435.658,347.218,437.583,354.432Z" transform="translate(176.192 144.295)" fill="none" stroke="rgba(73,61,124,0.4)" stroke-miterlimit="10" stroke-width="0.703"/><path d="M525.911,196.21c-11.751,7.265-22.954,16.379-35.218,22.681-8.56,4.4-26.69,11.455-32.977,1.317-7.629-12.308-9.088-24.242-10.116-38.341-.768-10.517-2.334-25.26,2.336-35.032,5.716-11.963,16.7-21.209,23.763-32.379,6.246-9.877,14.708-22.748,15.978-34.6,1.248-11.638,12.439-22.79,21.916-28.73" transform="translate(195.434 22.368)" fill="none" stroke="rgba(73,61,124,0.4)" stroke-miterlimit="10" stroke-width="0.703"/><path d="M415.314,215.628c2.333,4.8-2.69,10.083-4.7,14.053a74.042,74.042,0,0,0-6.937,22.594c-.985,7.383-4.3,11-12.1,11.26-3.436.112-16.34.272-17.845-2.826-1.2-2.468-.19-8.405-.231-11.174a129.887,129.887,0,0,1,.351-13.773c.558-6.127-1.082-14.172,3.719-19.034C384.1,210.123,409.96,204.606,415.314,215.628Z" transform="translate(163.247 91.587)" fill="none" stroke="rgba(73,61,124,0.4)" stroke-miterlimit="10" stroke-width="0.703"/><path d="M637.041,23.213a185.97,185.97,0,0,1-39.075,14.759c-12.8,3.371-24.926,6.585-37.4,11.034a65.593,65.593,0,0,1-42.8.244c-6.055-2.106-12.147-4.839-18.394-6.278-4.439-1.022-9.628-9.683-12.466-13.045C478.994,20.555,471.79,7.8,460.939,1.475c-9.643-5.625-12.48,11.441-15.774,16.688C438.724,28.4,432.1,41.686,421.816,48.507c-11.9,7.892-24.322,7.942-37.8,10.373C370.028,61.4,355.3,63.8,341.674,67.818c-12.308,3.627-24.552,7.466-36.852,11.119-13.587,4.036-26.937,9.347-41.164,10.452-6.72.522-13.15,1.266-19.485,3.709-5.825,2.247-11.553,5.944-17.842,6.454-14.966,1.2-28.8,2.566-43.214,7.12-13.229,4.176-23.848,8.723-33.716,18.818-9.559,9.779-18.429,22.406-23.673,35.01-5.182,12.452-11.152,23.177-17.984,34.777C101.3,206.218,99.358,218.645,88.6,226.85c-10.8,8.244-23.476,11.493-36.82,12.463-8.691.631-24.41-11.6-26.477-20.279-1.324-5.562.161-11.349.936-16.872.8-5.717.44-11.138,1.57-16.883" transform="translate(10.84 0.154)" fill="none" stroke="rgba(73,61,124,0.4)" stroke-miterlimit="10" stroke-width="0.703"/><path d="M754.231,371.973c-9.773-8.657-17.542-11.7-30.383-13.563-14.327-2.077-26.34,7.026-40.507,4.622-12.387-2.1-22.449-6.413-33.864-11.337-5.826-2.513-12.492-4.586-17.664-8.345-5.83-4.235-10.745-10.051-15.778-15.171-8.92-9.071-17.934-20.348-28.432-27.583-8.636-5.951-22.307-16.068-33.113-16.906-11.192-.868-24.386,5.342-34.173,10.195-10.754,5.335-24.35,11.493-29.483,23.044-5.648,12.713-1.793,22.849,4.074,34.478,6.792,13.468,13.553,26.484,20.9,39.649,9.049,16.206,13.964,33.463,8.6,51.708-2.136,7.256-3.867,16.36-8.52,22.505-1.991,2.629-4.711,4.584-6.69,7.223-2.606,3.474-4.108,7.7-7.137,10.87-13.347,13.959-29.016,21.656-46.815,28.5-8.934,3.436-16.649,4.5-24.861-1.1A76.456,76.456,0,0,1,410.7,491.943c-21.449-30.56-21.515-76.161-18.846-111.786,1.433-19.149,9.42-33.781,22.707-47.625,6.929-7.221,14.018-14.562,17.691-24.066,3.413-8.831,6.025-18.066,9.128-27.023s2.506-7.586,3.8-11.366c3.269-9.512,14.126-14.507,19.189-23.31,5.148-8.95,4.479-19.485.917-28.951C461.448,207.6,452.93,202,444.592,195.7c-8.823-6.66-15.384-3.937-24.8.91-8.835,4.551-20.727,7.678-27.281,15.562-5.9,7.1-8.014,17.031-9.605,25.85-2.08,11.527-.828,22.556-.5,34.146.275,9.71-1.757,19.855-2.451,29.581-.252,3.3-.805,9.911-.805,9.911-1.462,10.9-2.365,20.969-7.657,30.847-5.543,10.351-12.769,19.732-19.706,29.165-6.357,8.644-13.208,17.553-17.611,27.41-4.334,9.7-4.783,20.461-5.547,30.9-.776,10.6,4.425,20.928,4.636,31.635.194,9.9-1.018,19.932-1.586,29.822-.63,10.985-1.174,19.7-5.286,30.072-3.332,8.4-3.5,17.391-4.432,26.3-2.094,20.036-4.292,42.429-1.59,62.46,1.216,9.006,2.2,20.588,10.363,26.155,6.7,4.57,15.091,5.507,22.8,7.269,20.846,4.77,39.186-14.877,53.127-27.3,8.657-7.716,15.223-16.994,23.205-25.31,4.045-4.216,8.843-7.607,12.989-11.717,2.6-2.579,3.15-4.609,6.569-6.585,4.243-2.452,14.606-9.7,19.648-7.966,5.517,1.9,12.069,1.417,17.848,1.943,11.389,1.037,22.116.868,29.585,10.724,9.017,11.9,6.687,24.049,5.96,37.884-.723,13.607-4.518,27.574-6.607,41.051-2.107,13.583-4,27.882-4.524,41.622-.463,12.173-6.078,23.467-10.026,34.858-4.682,13.51-8.913,22.72-5.714,37.465,2.744,12.653,6.638,25.261,18.293,32.288,11.1,6.687,23.5,9.615,34.891,15.589,11.813,6.2,24.833,10.136,37.2,15.151,23.847,9.684,46.671,20.842,73.375,17.851,24.473-2.741,55.674-11.173,77.136,5.915,11.6,9.234,21.814,19.7,33.84,28.5,10.287,7.531,21.927,12.444,32.722,19.173,12.012,7.489,21.531,13.82,30.147,25.306,7.873,10.495,15.212,21.416,26.1,28.876,23.769,16.285,47,33.328,67.358,53.778,10.073,10.123,19.288,18.39,31.795,25.442,10.251,5.78,22.694,13.19,29.772,22.888,13.094,17.931,19.813,58.792,47.6,59.851,14.809.575,28.967-1.289,41.873-9.03,11.438-6.86,20.257-18.145,28.951-28.051" transform="translate(139.611 83.884)" fill="none" stroke="rgba(73,61,124,0.4)" stroke-miterlimit="10" stroke-width="0.703"/><path d="M663.921,16.375c-12.93,5.1-24.854,12.446-37.74,17.536-13.442,5.319-27.249,6.917-41.089,10.5-6.273,1.623-11.941,4.729-17.621,7.758-5.8,3.093-9.713,3.1-16.307,3.46a198.962,198.962,0,0,1-20.244.221c-5.741-.272-14.049.551-19.458-1.32-10.026-3.457-21.212-12.239-32.387-9.992-5.646,1.136-10.126,5.268-14.946,8.119-5.457,3.226-12.753,3.4-18.867,4.722-12.5,2.7-23.352,9.338-36.485,8.123-5.82-.539-11.55-1.775-17.372-2.287-5.733-.49-13.714,3.043-19.4,4.182-25.7,5.155-52.5,8.593-77.478,16.806-6.086,2-12.213,4.144-18.582,5.053-6.67.952-13.512.781-20.054,2.567-6.243,1.7-11.537,5.629-17.552,7.895-6.714,2.529-13.882,1.948-20.9,2.487-12.463.957-24.562,7.508-35.8,12.555a92.585,92.585,0,0,0-33.111,25.587c-17.141,20.6-24.212,46.667-37.554,69.4-6.956,11.854-13.787,20.992-27.042,26.036C72.85,240,58.045,245.561,46.977,238.743c-8.064-4.969-21.557-11.868-25.35-20.987-2-4.807-.979-10.143-.063-15.066a58.206,58.206,0,0,0,.075-20.365" transform="translate(8.957 7.164)" fill="none" stroke="rgba(73,61,124,0.4)" stroke-miterlimit="10" stroke-width="0.703"/><path d="M641.273,161.952c-20.658,8.866-39.856,21.079-58.174,34.035-8.9,6.29-17.714,11.736-24.286,20.645-6.5,8.815-13.15,16.195-22.283,22.416-6.354,4.33-15.476,12.834-23.522,12.991-9.383.183-11.593-11.662-16.645-17.3-7.458-8.316-15.541-16.041-22.993-24.373-6.735-7.531-12.887-16.232-21.125-22.186-18.495-13.369-35.036,10.242-49.829,18.026-9.49,4.994-15.114,12.335-20.039,21.692-4.86,9.233-5.553,18.143-7.331,28.376-1.912,11.017-1.944,20.858-1.593,31.97.349,11.092-2.383,21.873-3.61,32.825-.424,3.4-.643,7.379-1.4,10.2-5.657,21.145-13.172,40.7-27.676,57.649-2.09,2.442-7.167,6.443-8.092,9.5q-2.872,8.269-5.74,16.541c-1.082,3.122-5.066,10.163-4.586,13.36.778,5.546,1.62,11.083,2.4,16.627,2.948,21.016,4.243,41.3,1.558,62.43-2.718,21.4-5.954,42.8-9.025,64.194-3.04,21.223-6.992,41.75-2.845,63.188,2.178,11.257,5.516,19.85,15,26.809,1.867,1.368,8.1,7.374,10.225,7.365,5.25.086,10.471.722,15.719.864,22.36.609,40.287-14.112,56.942-27.151,8.309-6.5,16.466-13.488,23.307-21.565,5.471-6.457,10.893-14,17.634-19.176,20.648-15.845,58.506-7.262,60.8,21.554,1.088,13.679-1.509,26.487-2.754,40-1.2,12.962-1.764,25.993-3.865,38.86-2.071,12.677-7.728,27.67-13.928,38.868-3.279,5.921-4.962,12.87-7.1,19.257-1.357,4.061-5.063,9.152-4.673,13.547,1.115,12.454,7.314,28.985,14.283,39.361,6.088,9.062,17.982,16.788,28.373,19.448,26.44,6.766,51.78,16.6,77.1,26.828,25.02,10.11,50.437,12.452,77.034,9.022,14.008-1.806,26.9-3.38,40.458,1.229,12.073,4.1,21.035,8.267,30.529,16.8,20.775,18.659,46.031,29.714,69.149,44.94,11.221,7.391,19.5,21.243,27.848,31.508,8.217,10.1,20.427,16.456,30.886,23.98,22.857,16.443,42.035,35.6,62.023,55.276,9.815,9.663,22.567,14.159,33.171,22.817,4.041,3.3,11.106,7.68,13.656,12.208,3.484,6.3,7.127,12.512,10.451,18.9,6.2,11.92,10.586,24.408,20.527,33.994,8.968,8.648,22.343,10.059,34.238,8.947,14.085-1.317,28.343-6.71,38.8-16.431" transform="translate(136.782 70.852)" fill="none" stroke="rgba(73,61,124,0.4)" stroke-miterlimit="10" stroke-width="0.703"/><path d="M687.785,26.986c-13.811,3.342-24.779,12.439-37.038,19.176-5.47,3.006-10.867,6.138-15.326,10.564-4.12,4.088-7.8,8.842-12.949,11.72-12.807,7.153-25.178,6.326-39.06,4.56-13.484-1.715-23.644,7.278-36.009,10.928-13.837,4.082-27.656,6.378-42.172,5.74-6.174-.27-12.291-1.2-18.427-1.873-5.887-.645-7.126.308-11.82,4.817-4.759,4.573-10.525,7.856-15.157,12.607s-9.263,10.357-16.041,11.93c-12.219,2.836-23.743-1.163-34.139-7.123a52.331,52.331,0,0,1-15.177-12.825c-5.218-6.482-6.934-10.517-15.36-9.854-13.663,1.072-26.253,3.891-39.642,6.423-13.409,2.537-27.573.842-41.206,2.819-12.68,1.84-26.815,3.114-38.411,8.9-5.836,2.911-11.3,6.315-17.766,7.688-7.6,1.616-15.667,1.042-23.042,3.513-26.481,8.872-48.037,27.948-64.69,50.144-6.881,9.17-15.561,19.6-20.138,30.09-2.564,5.878-3.871,12.357-7.353,17.815-3.942,6.177-10.428,11.257-16.052,15.843-10.1,8.233-21.319,15-33.817,18.86-14.4,4.45-23.479.526-36.09-6.736-10.129-5.833-20.458-14.589-25.377-25.574" transform="translate(6.793 11.806)" fill="none" stroke="rgba(73,61,124,0.4)" stroke-miterlimit="10" stroke-width="0.703"/><path d="M690.079,34.05c-15.107,2.333-20.529,18.508-24.871,31.044-4.065,11.728-4.739,22.743-11.557,33.427-2.129,3.336-5.652,12.5-10.43,12.032-6.95-.69-14.017-1.412-20.9-2.652-11.918-2.152-24.5-7.482-35.725-12-15.242-6.138-24.416-3.157-38.71,3.607-11.49,5.437-26.634,6.647-39.012,4.278-4.492-.86-10.463-3.293-15.029-3.053-6.6.348-11.3,9.693-15.592,13.676-8.858,8.2-22.8,12.449-34.327,14.855-11.383,2.375-29.987,1.253-39.722-6.154a162.659,162.659,0,0,0-33.574-19.75c-5.327-2.317-10.438-5.209-16.428-4.877-7.479.414-15.029,2.007-22.5,2.766-11.976,1.218-24.478-1.555-36.189.316-13.735,2.2-26.479,7.459-39.1,12.991-11.9,5.209-25.084,6.532-37.268,11.079-13.752,5.13-23.445,14.819-34.774,23.72-9.917,7.791-18.282,16.669-26.752,25.973-9.158,10.061-14.1,22.882-21.4,34.064-13.2,20.21-39.422,42.9-64.389,45.567-10.468,1.117-25.081-4.065-33.307-10.455-9.628-7.472-22.7-19.487-26.093-31.528" transform="translate(5.435 14.897)" fill="none" stroke="rgba(73,61,124,0.4)" stroke-miterlimit="10" stroke-width="0.703"/><path d="M593.383,181.181c-5.652,3.013-11.543,5.616-16.886,9.181-5.483,3.663-9.924,8.616-15.209,12.535-10.781,7.992-20.576,13.962-34.1,9.083-12.771-4.607-19.708-12.992-23.549-25.763-4.117-13.681-4.975-28.1-8.849-41.978a83.99,83.99,0,0,1-2.874-19.163c-.1-2.353-.742-5.792.413-7.988.619-1.177,2.313-2.842,1.575-4.361-4.831-9.946-26.809,12.121-30.209,16.078-18.746,21.81-43.78,33.655-67.7,48.788-5.452,3.453-11.151,6.535-16.363,10.36-5.076,3.725-6.7,8.634-8.889,14.352-5,13.05-5.054,25.178-6.786,38.893-1.637,12.963-1.1,25.433-2.023,38.345-.952,13.361-2.829,26.668-4.715,39.922-1.876,13.185-4.16,25.406-8.52,37.989-.979,3.495-2.294,10.633-2.294,10.633-7.386,21.353-25.484,37.284-34.166,58.457-8.707,21.232,2.769,41.913,3.966,63.034,1.285,22.643-.755,46.31-3.033,68.86-1.08,10.685-5.08,20.713-7.376,31.142-2.076,9.434-6.219,19.057-7.062,28.63-.972,11.036-.381,22.05-1.711,33.077a79.677,79.677,0,0,0,2.074,31.179c5.224,19.469,14.048,45.765,35.842,51.517,20.432,5.392,41.687-12.7,60.653-17.98,3.7-1.029,10.616-1.2,13.333-4.136,3.722-4.018,8.851-7.308,13.37-10.372,9.013-6.112,19.6-9.417,28.2-16.17,7.327-5.75,20.652-15.868,30.918-11.439,9.878,4.261,9.447,22.341,8.043,31.021a100.142,100.142,0,0,1-13.078,35.9c-6.453,10.852-17.624,17.576-26.549,26.2-8.458,8.173-18.709,19.566-17.855,32.377.845,12.625,12.6,24.114,20.982,32.492,10.091,10.084,19.773,21.9,28.687,33.031,4.248,5.3,8.968,8.859,14.776,12.362,4.666,2.815,11.537,8.215,17.079,8.649,14.982,1.173,29.878,1.607,44.808,3.486,13.589,1.711,26.053,7.715,39.3,10.969a402.535,402.535,0,0,0,80.124,11.167c14.465.608,28.354-.906,42.243,3.847,11.737,4.015,22.583,9.9,34.176,14.358,12.539,4.817,23.385,13.188,35.214,19.6,11.583,6.289,22.684,10.422,32.713,19.5,10.936,9.9,19.639,22.262,31.12,31.411,10.62,8.461,22.124,15.659,32.983,23.777a174.065,174.065,0,0,1,30.969,30.34c8.517,10.509,19.147,19.639,29.4,28.429,10.15,8.7,22.986,16.958,31.343,27.37,8.49,10.577,13.229,21.4,18.84,33.554,6.105,13.224,11.641,23.454,26.4,27.265,12.217,3.154,22.024,6.565,34.743,3.355,13.209-3.332,26.983-8.766,38.427-16.212" transform="translate(129.652 48.201)" fill="none" stroke="rgba(73,61,124,0.4)" stroke-miterlimit="10" stroke-width="0.703"/><path d="M9.238,185.353c1.515,13.091,11.378,22.883,20.392,31.715,3.643,3.568,10.179,12.318,15.079,13.762,6.209,1.834,12.456,3.538,18.766,4.985,11.615,2.665,23.26-.428,33.728-6.5,23.122-13.416,40.093-31.97,54.793-54,4.353-6.526,7.443-12.981,13.045-18.654a157.7,157.7,0,0,1,15.013-13.3c10.242-8.02,22.053-14.29,31.832-22.856,10.566-9.253,27.6-13.18,40.5-18.154,12.232-4.714,23.985-10.142,36.844-13.045a65.048,65.048,0,0,1,22.694-.794c5.6.686,11.76.052,17.116.821q9.774,1.406,19.406,3.65c5.9,1.366,11.346,4.4,17.356,5.189,6.6.867,12.707.8,18.774,3.952,5.293,2.748,10.439,5.836,15.692,8.671,11.181,6.033,23.4,10.636,36.357,10.6,26.092-.08,47.075-28.388,73.96-24.13,12.743,2.02,24.514,4.331,37.544,4.024,10.423-.247,17.3-7.866,23.711,3.743,6.874,12.449,3.2,21.746-8.682,28.534-11.658,6.658-22.281,12.847-31.815,22.56-4.979,5.074-7.8,12.243-13.389,16.708-5.027,4.018-10.979,6.681-16.336,10.2-6.8,4.466-23.131,17.542-21.236,26.891,2.83,13.984,1.712,28.566.108,42.6-1.5,13.117,1.666,26.729.645,40-1.105,14.363-3.111,28.652-5.362,42.875-2,12.656-6.484,24.181-10.673,36.271-.924,3.449-.607,7.481-2.021,10.5-2.705,5.777-6.805,10.793-10.278,16.146-8.169,12.594-15.907,23.329-20.989,37.547-1.9,5.312-5.126,11.718-4.412,17.48.8,6.449,1.955,12.863,3.285,19.222,2.968,14.184,5.977,26.254,5.575,40.914-.349,12.805.088,25.689-1.011,38.461-1.32,15.364-4.84,29.158-8.851,44.02-3.037,11.267-9.495,23.954-9.861,35.607-.812,25.909-4.285,52,3.539,77.212,4.189,13.5,6.587,27.508,11.051,40.868,4.305,12.883,10.488,21.407,20.967,29.939,2.224,1.81,18.038,18.624,14.546,5.773-2.868-10.554,8.947-19.074,17.4-23.36,13.07-6.63,27.012-13.728,40.82-18.614,12.617-4.465,22.648-10.948,34.3-17.254,9.934-5.379,20.26-11.292,31.539-13.406,10.837-2.031,7.636,9.871,4.3,15.525a74.771,74.771,0,0,0-6.462,14.51c-1.712,4.941-8.112,9.2-12.1,12.216-10.271,7.754-22.182,13.006-32.522,20.762-9.64,7.23-17.66,19.6-20.041,31.547-1.537,7.715-8.8,21.155,3.719,22.973,11.383,1.653,20.115,9.6,30.573,14.3,4.525,2.034,10.3,3.674,13.751,7.384,4.535,4.875,8.911,9.893,13.36,14.845,10.131,11.276,19.609,21.361,31.978,30.228,10,7.17,23.21,7.126,35.234,7.945,28.171,1.921,54.054,8.693,81.382,15.327,13.816,3.352,27.578,4.432,41.733,5.094,12.693.594,25.27,2.851,38,2.947,26.939.2,51.481,14.333,76.584,22.711,6.94,2.317,12.561,7.584,19.048,10.844,5.412,2.715,11.293,4.3,16.77,6.865,11.477,5.382,21.019,14.662,29.943,23.5,10.052,9.956,19.337,19.448,30.626,28.1,10.5,8.048,21.613,14.983,31.675,23.6,11.2,9.585,18.768,21.8,29.259,31.964,9.02,8.736,18.133,17.441,27.318,26,5.93,5.527,12.433,10.379,18.407,15.854,5.129,4.7,8.727,10.472,13.156,15.772,7.478,8.945,11.12,22.521,15.624,33.21,9.223,21.886,42.525,25.958,63.081,20.677a137.484,137.484,0,0,0,38.154-16.814" transform="translate(4.042 38.451)" fill="none" stroke="rgba(73,61,124,0.4)" stroke-miterlimit="10" stroke-width="0.703"/><path d="M506.4,74.378c-3.9,3.047-8.638,6.9-11.054,11.31-2.658,4.847-3.947,10.149-6.85,14.959-6.207,10.29-14.376,19.126-21.371,28.85-5.14,7.147-12.1,23.92-10.673,32.873,1.788,11.158,2.468,22.163,11.783,29.934,8.924,7.443,18.579,2.917,27.485-2,10.351-5.721,18.672-14.122,29.113-19.8,11.192-6.088,23.421-11.71,35.914-14.461" transform="translate(199.612 32.54)" fill="none" stroke="rgba(73,61,124,0.4)" stroke-miterlimit="10" stroke-width="0.703"/><path d="M6.039,168.895c1.985,14.79,1.78,24.942,12.187,36.824a279.775,279.775,0,0,0,27.636,28.01c10.36,8.907,24.873,7.246,37.038,3.742,26.974-7.768,48.545-27.123,65.3-48.817,7.967-10.314,14.8-21.041,24.8-29.43,10.85-9.105,21.912-18,33.6-26.014a192.462,192.462,0,0,1,36.747-19.633c5.955-2.409,12.063-4.419,18.006-6.86,6.911-2.84,13.278-7.018,20.55-8.953,27.909-7.435,53.184,5.3,80.085,11.082,7.672,1.647,15.562,1.882,23.031,4.465,8.509,2.943,15.707,8.56,23.967,12.076,9.326,3.97,17.989,4.793,27.986,5.086a23.361,23.361,0,0,1,9.551,2c3.507,1.5,10.551-3.029,13.652-4.494,12.85-6.071,37.736-20.364,49.595-4.633,4.474,5.94,5.112,18.58,2.751,25.5-2.783,8.158-14.392,10.475-21.032,14.289a67.833,67.833,0,0,0-18.283,14.979c-5.493,6.709-3.624,16.63-2.721,24.65,2.166,19.213,4.521,38.588,5.549,57.892,2.022,37.99-.332,78.138-18.571,112.08-1.258,3.42-1.341,7.254-3.589,11.263-7.655,13.652-20.49,25.51-26.519,40-2.918,7.012-5.944,14.963-5.787,22.673.151,7.38,2.983,14.708,4.82,21.779,2.191,8.429,4.6,17.02,5.726,25.668.923,7.094-.055,14.477.3,21.631.785,15.956.664,33.064-2.723,48.737-3.328,15.4-8.533,30.183-13.048,45.238-2.186,7.288-6.168,15.089-6.771,22.652-.589,7.4-.49,14.833-.788,22.248-.622,15.68-.9,29.732,1.889,45.277,2.655,14.8,5.421,28.753,5.635,43.828.388,27.334,9.878,53.072,23.842,76.263,7.272,12.076,14.317,16.757,28.533,15.661,5.938-.457,11.726-2.017,17.665-2.461,5.751-.43,11.133,2.753,16.682,4.085,25.835,6.211,50.511,16.282,72.1,31.993,11.408,8.3,19.543,20.282,30.9,28.908,11.013,8.365,21.667,9.988,35.21,10.827,13.984.865,28.346,1.219,42.127,3.831,12.608,2.389,25.03,5.737,37.524,8.645,13.359,3.111,27.45,6.078,41.154,7,13.114.887,26.122.694,39.229,2.113,13.124,1.423,27.475,2.385,40.018,6.723,11.808,4.084,23.48,8.539,35.227,12.774,7.272,2.616,14.731,4.7,21.909,7.578,5.335,2.139,10.285,5.517,15.726,7.711,5.4,2.178,13.384,3.781,17.893,7.518,5.383,4.45,10.829,8.832,16.032,13.5,10.587,9.489,20,19.541,31.05,28.539,10.441,8.5,22.238,15.327,32.405,24.125,5.636,4.877,11.652,9.421,16.383,15.23,4.133,5.074,7.581,10.679,11.934,15.578,8.556,9.621,18.142,18.7,27.179,27.887,9.944,10.114,21.683,18.031,30.439,29.329,8.153,10.52,11.921,22.443,17.947,34.091,2.784,5.383,6.267,14.721,11.658,17.995,4.9,2.977,11.093,4.787,16.432,6.838,12.565,4.827,24.51,5.041,37.8,2.783,27.17-4.619,48.948-22.682,70.323-38.474" transform="translate(2.642 41.778)" fill="none" stroke="rgba(73,61,124,0.4)" stroke-miterlimit="10" stroke-width="0.703"/><path d="M528.268,151.35c-11.089,4.386-22.09,8.992-33.243,13.216-2.931,1.11-9.943,5.161-12.7,2.066-3.778-4.256-7.718-8.444-10.689-13.33-4.39-7.226,6.114-20.756,9.454-27.652A138.274,138.274,0,0,1,496.7,100.194c6.785-8.612,14.576-17.424,25.577-20.257" transform="translate(205.874 34.972)" fill="none" stroke="rgba(73,61,124,0.4)" stroke-miterlimit="10" stroke-width="0.703"/><path d="M5.754,191.046c4.505,11.621,15.837,22.2,24.516,30.851q7.325,7.295,15.246,13.928c7.61,6.4,10,7.107,19.886,6.506,27.511-1.673,51.99-16.636,72.263-34.583,9.053-8.017,15.982-19.244,23.151-28.894,8.58-11.549,20.132-18.344,31.563-26.7,10.571-7.731,20.786-15.233,32.355-21.483,13.308-7.189,27.284-11.96,41.089-17.941,6.855-2.97,13.292-6.819,20.2-9.669,4.37-1.8,11.7-.252,16.31-.011,12.693.661,25.284,5.033,37.518,8.3,25.494,6.819,50.316,16,75.161,24.787,6.02,2.129,9.546,5.337,14.474,9.1,4.3,3.286,9.657,2.6,14.3,4.939,12.515,6.3,15.426,23.675,14.443,35.921-1.32,16.445,4.834,32.013,8.066,47.979,3.322,16.41,3.887,32.479,4.091,49.133a182.525,182.525,0,0,1-5.991,47.6c-4.32,16.469-12.411,31.585-16.632,43.759a84.518,84.518,0,0,1-5.691,12.283c-4.088,7.3-10.078,13.287-14.648,20.3-3.942,6.048-10.157,12.843-10.938,20.089-.908,8.425-2.965,17.258-.883,25.672,1.826,7.366,5.812,13.944,7.6,21.358,7.81,32.377,6.168,67.22-1.938,99.332a288.7,288.7,0,0,1-15.666,46.373,47.551,47.551,0,0,0-4.272,22.089c.171,7.15-1.489,14.116-1.748,21.278-.6,16.406,3.591,31.751,4.016,47.946.443,16.844,1.626,33.735,1.678,50.581.083,27.114,7.591,54.2,26.652,74.458,20.054,21.311,49.718,3.543,73.377,11.207,24.335,7.883,49.539,15.006,68.215,33.633,9.2,9.18,20.891,21.286,33.2,25.953,12.542,4.754,24.043,8.023,37.3,9.463,13.4,1.458,28.241-1.011,41.224,2.077,13.252,3.15,26.457,6.462,39.8,9.21,12.516,2.577,26.371,5.793,39.172,6,13.484.213,26.641-2.271,39.989.907,26.509,6.309,52.605,12.434,78.336,21.569,12.871,4.571,25.779,8.268,38.342,13.7,12.075,5.222,21.768,13.1,30.864,22.543,19.275,20.011,43.1,34.271,64.172,52.26,10.653,9.095,17.2,21.558,27.164,31.428,9.309,9.227,17.138,20.877,27.135,29.252,10.728,8.987,19.536,17.708,26.851,29.78,6.673,11.01,11.013,23.236,17.769,34.241,13.407,21.84,45.919,25.042,68.59,19.77,26.775-6.226,48.284-23.3,70.257-38.607" transform="translate(2.517 44.711)" fill="none" stroke="rgba(73,61,124,0.4)" stroke-miterlimit="10" stroke-width="0.703"/></g></g></svg>