<svg xmlns="http://www.w3.org/2000/svg" width="777.593" height="2361.498" viewBox="0 0 777.593 2361.498"><g transform="translate(777.988 -0.071) rotate(90)"><g transform="translate(0.244 1.323)"><path d="M1109.261,369.819c8.235,4.253,25.926,13.611,29.659-.373,2.891-10.828,7.99-25.543,2.758-36.26-12.6-25.815-43.363,30.99-32.417,36.634C1116.771,373.7,1107.033,368.671,1109.261,369.819Z" transform="translate(629.161 184.182)" fill="none" stroke="#a6a6a6" stroke-miterlimit="10" stroke-width="1.874"/><path d="M1069.2,517.051c6.6-19.228,12.279-39.2,12.023-59.686-.085-6.833-7.509-24.7-2.681-30.132,7.1-7.991,19.942,7.487,24.4,12.118,6.773,7.04,11.766,15.266,17.586,23.078,6.4,8.587,10.935,15.269,13.124,25.691" transform="translate(607.694 240.183)" fill="none" stroke="#a6a6a6" stroke-miterlimit="10" stroke-width="1.874"/><path d="M45.5,433.674c13.884,2.256,28.028,2.428,41.973,4.477a73.934,73.934,0,0,0,44.24-7.628c24.864-12.9,46.426-35.9,64.765-56.952,9.522-10.929,17.785-22.649,26.086-34.434,3.713-5.271,7.769-10.488,9.879-16.662,2.684-7.871,1.735-16.328,2.427-24.474,2.554-30.243,3.048-60.957-3.332-90.764-2.973-13.885-3.57-28.138-10.188-40.958-6.919-13.412-14.836-27.689-18.486-42.4-7.112-28.654-9.117-59.808,2.056-87.606,5.983-14.883,16.044-18.185,30.64-23.11C250.2,8.228,264.846,3.759,280.128,1.309c13.222-2.121,26.624,5.358,39.237,8.905,14.648,4.118,30.245,9.032,45.537,9.617,15.112.579,30.3-2.033,45.4-.858s29.067,5.349,43.068,10.856c12.66,4.979,22.83,15.012,35.639,19.462,5.689,1.976,10.729,5.727,16.584,7.2,7.8,1.962,16.387-1.021,23.912-2.874,27.893-6.869,57.722-18.376,86.53-8.482a175.812,175.812,0,0,1,36.293,17.048c13.147,8.107,24.37,19.661,36.161,29.575,44.074,37.06,106.04,62.477,163.348,45.645,13.976-4.1,26.877-8.679,37.474-19.021,10.61-10.359,18.593-23.78,25.107-36.955,2.61-5.282,4.8-11.832,8.157-16.638,2.653-3.8,15.391-.874,19.162-.267,9.225,1.487,8.938,3.087,9.176,12.315.218,8.491.681,15.509-3.588,22.9-6.985,12.091-14.139,26.154-24.47,35.771-9.918,9.231-17.852,24.372-21.667,37.454-4.311,14.762-5.923,27.739-3.953,43.1,2.2,17.206,9.934,28.019,21.115,40.583,5.693,6.4,6.2,9.467,14.474,6.6,7.005-2.427,14.362-4.461,21.045-7.71,13.677-6.649,22.179-12.373,37.322-5.048,12.151,5.879,19.507,16.492,28.7,26.207,9.885,10.445,20.944,24.624,26.6,37.946,5.046,11.881,11.129,22.881,14.69,35.388,4.251,14.935,7.578,30.11,10.508,45.355,1.178,6.125,1.009,13.11,6.1,17.145,4.776,3.784,9.228,7.992,14.3,11.388,12.742,8.525,29.087,6.809,43.089,2.362,13.645-4.334,26.252-11.691,37.923-19.889,12.546-8.822,25.313-16.6,35.151-28.532,8.467-10.273,16.439-20,22.819-31.685,7.189-13.175,11.307-23.829,25.939-29.686,10.294-4.121,26.745-8.535,37.11-2.638,10.806,6.146,12.718,25.934,15.158,36.619,1.492,6.541,4.293,10.869,8.35,16.044,3.718,4.742,5.82,10.59,9.9,15.065,10.469,11.492,21.586,18.863,37.459,20.549,14.273,1.515,28.276-2.841,40.373-10.21,5.319-3.241,10.4-6.6,16.121-9.074,5.561-2.4,9.749-10.535,12.657-15.568,7.363-12.748,4.8-26.391-2.265-38.767-7.407-12.982-17.238-21.686-30.158-28.663-12.2-6.588-27.6-10.925-41.545-9.154-7.1.9-13.779,2.4-20.984,1.8-5.914-.493-19.255-.935-23.363-5.851-3.556-4.254-1.1-15.139-.562-20.16.723-6.722,2.809-9.854,5.788-15.835,6.364-12.775,16.542-25.233,21.521-38.445,4.562-12.105,13.943-24.045,21.264-34.652,8.985-13.023,15.978-27.132,23.169-41.183,6.439-12.587,11.711-24.532,21.788-34.75,11.1-11.261,22.7-18.9,35.525-27.939,24.4-17.209,49.1-35.079,80.47-26.207,12.952,3.663,25.385,11.965,38.43,14.27,6.96,1.23,13.91,2.764,21,2.98,8.207.253,16.216-2.125,24.416-2.063,14.654.11,25.288.529,36.422,11.018,10.231,9.636,20.314,19.611,27.981,31.5,7.071,10.968,10.39,25.462,15.038,37.622,5.736,15.009,3.059,31.016-2.863,45.722-4.32,10.728-13.109,24.921-25.7,26.9-14.78,2.315-32.441-5.313-46.674-8.66-5.288-1.236-11.379,5.216-15.489,8.061-5.027,3.482-12.1,7.374-13.049,13.939-2.169,15.041-5.379,29.468-4.561,44.8a87.207,87.207,0,0,0,4.02,20.946c2.443,8,3.141,10.706,9.734,15.868,11.758,9.208,23.644,15.862,31.173,28.889,7.451,12.891,2.776,22.027-5.023,33.264-4.17,6.008-6.267,9.3-12.689,13.1-6.536,3.865-13.776,8.046-21.688,6.936-6.609-.927-12.326-4.786-18.295-7.468-6.668-3-13.76-5.045-20.56-7.716-8.657-3.4-35.281-7.23-37.226,5.278a64.971,64.971,0,0,0,.028,21.005c.8,4.634,8.072,9.978,11.057,13.289,4.969,5.506,9.972,10.962,14.8,16.59,5,5.827,10.991,9.3,16.725,14.2,9.123,7.8,12.977,23.962,13.374,35.456.549,15.863.852,30.29,6.808,45.44,5.5,13.978,11.919,27.5,17.181,41.6,5.087,13.631,13.1,25.9,17.672,39.841,9.161,27.943-28.709,42.089-44.251,56.839-24.179,22.947-4.6,58.484,8.943,81.219" transform="translate(25.603 -0.937)" fill="none" stroke="rgba(73,61,124,0.4)" stroke-miterlimit="10" stroke-width="1.874"/><path d="M27.344,505.141c.471-8,2.773-15.175,5.967-22.47,1.272-2.905,4.2-16.3,8.014-10.565,6.718,10.1,29.142,18.293,20.505,32.155" transform="translate(15.277 266.177)" fill="none" stroke="#a6a6a6" stroke-miterlimit="10" stroke-width="1.874"/><path d="M977.834,284.562c-4.943-2.154-10.086-10.267-13.947-14.056-4.979-4.886-9.917-9.82-15.289-14.278-5.214-4.326-9.954-9.2-14.986-13.729-5.048-4.546-12.707-7.189-17.016-12.242-4.678-5.493-7.79-12.058-11.283-18.309-3.316-5.934-2.976-7.617-1.944-14.431,2.336-15.383,6.673-26.858,14.162-40.607,6.455-11.849,15.328-22.452,22.519-33.873,7.875-12.511,15.531-25.3,24.115-37.341,7.9-11.079,19.476-20.817,29.818-29.576,10.013-8.478,29.958-6.814,40.21-.111,11.735,7.672,23.259,15.757,34.923,23.569,9.746,6.527,25.184,13.945,36.488,6.238,20.834-14.205,57.626,3.324,49.237,32.717-1.087,3.812-5.748,8.944-8.869,11.421-3.2,2.536-12.1.163-15.94-.248-9.814-1.057-30.223-13.936-36.908-3.165-3.288,5.3-8.983,6.389-14.307,8.907-5.851,2.767-9.49,8-12.2,13.708a86.553,86.553,0,0,0-8.1,44.32c1.958,23.932.151,53.085-12.67,73.75-7.382,11.9-16.237,17.343-29.346,21.805-13.994,4.762-25.609,1.225-38.671-4.469Z" transform="translate(512.995 27.164)" fill="none" stroke="rgba(73,61,124,0.38)" stroke-miterlimit="10" stroke-width="1.874"/><path d="M923.844,437.331c8.085,1.642,16.18,3.8,24.494,3.738,8.3-.061,16.328-2.413,24.39-4.086,13.531-2.816,25.865-21.167,31.307-33.019,6.515-14.188,10.232-31.176,2.408-45.84-7.049-13.213-24.4-23.057-39.113-23.484-16.37-.474-32.306,1.785-48.295,5.038-13.62,2.772-33.724,7.261-41.419,20.536-6.627,11.432,6.8,32.066,12.276,42.21a65.313,65.313,0,0,0,14.541,18.756c4.792,4.351,12.924,14.834,19.412,16.151C931.937,438.975,922.646,437.088,923.844,437.331Z" transform="translate(497.736 188.778)" fill="none" stroke="#a6a6a6" stroke-miterlimit="10" stroke-width="1.874"/><path d="M14.176,418.833c9.41-1.23,18.119-9.293,22.431-17.405,5.415-10.184.576-22.993,1.448-34.027,1.1-13.912-.7-25.6-6.351-38.445a85.219,85.219,0,0,0-9.1-15.416c-2.505-3.5-4.718-9.465-8.078-12.168" transform="translate(7.789 169.897)" fill="none" stroke="#a6a6a6" stroke-miterlimit="10" stroke-width="1.874"/><path d="M130.341,677.084c.205-14.605,1.667-27.97,5.859-42.027,4.577-15.35,10.442-29.113,13.409-44.956,2.5-13.366,12.364-24.1,20.35-35,9.914-13.536,9.922-26.188,1.774-40.494-5.526-9.7.235-28.215,8.613-34.656,5.449-4.19,11.487-7.613,16.56-12.29,5.711-5.271,8.461-14.995,11.368-21.97,5.531-13.28,12.783-27.744,13.826-42.2.5-6.952.838-13.945,3.042-20.618,2.417-7.325,6.4-14.028,8.66-21.412,4.113-13.446,6.146-27.525,10.077-41.076,4.031-13.867-.264-28.056,5.256-41.7,11.343-28.05,8.725-57.049-1.74-85.06a172.686,172.686,0,0,0-18.951-36.957C219.36,143.5,208.9,132.508,198.4,120.5c-8.9-10.182-11.581-24.583-12.472-37.757-.791-11.674-1.489-34.37,8.447-42.05,12.154-9.394,23.281-17.964,38.135-22.6,13.647-4.256,26.781,8,38.9,13.081,13.776,5.776,27.275,8.238,42.16,8.665,16.295.46,32.539-2.739,48.87-1.531a113.7,113.7,0,0,1,21.476,4.216c6.22,1.724,12.161,8.585,16.9,12.725,12.027,10.494,20.916,21.652,30.1,34.757,3.231,4.615,3.147,7.884,8.505,10.814,5.647,3.09,11.906,6.4,18.541,6.193,10.889-.334,19.539-14.847,27.31-21.26C491.4,80.7,497.36,75.435,503.387,70.252c5.81-4.994,9.821-6.425,17.142-8.53,14.221-4.089,29.965-5.357,44.483-1.9,5.293,1.263,13.5,2.391,17.779,5.975,5.556,4.66,10.864,9.608,16.171,14.547,11.326,10.543,23.666,20.012,36.053,29.283,22.508,16.844,42.93,34.7,68.108,47.5,12.921,6.569,24.117,15.777,37.462,21.645,11.054,4.861,22.389,16.1,28.891,26.47,15.209,24.262-2.855,55.735-23.3,70.557-11.608,8.416-24.889,12.693-38.2,17.809-6.092,2.34-11.874,5.44-18.066,7.533-8.011,2.706-15.467,1.816-23.719,1.319-12.386-.743-28.48,4.014-36.069,13.956-7.842,10.273-18.6,26.87-19.714,40.15-1.25,15.082-2.935,30.326-3.664,45.432-.7,14.453-.784,29.954,9.824,40.742,9.73,9.895,20.889,18.014,30.656,27.882,10.461,10.571,23.84,18.232,35.906,26.951,10.911,7.885,23.027,13.83,33.979,21.672,13.059,9.349,23.805,21.413,36.756,31.01,10.888,8.08,27.859,7.694,40.263,13.473,14.823,6.905,26.215,13.718,37.424,25.885,4.4,4.772,6.389,11.959,9.7,17.656,3.468,5.97,7.084,11.852,10.715,17.725,6.759,10.93,16.925,23.369,28.9,28.913,11.746,5.438,29.079,3.3,39.548-3.875,12.317-8.434,14.957-25.377,15.115-39.275.159-13.824-3.923-25.085-6.384-38.337-2.03-10.93-8.234-29.812.066-39.713,6.652-7.937,27.416-4.427,36.753-4.961,15.162-.869,28.139-6.754,41.281-14.321,6.058-3.487,11.8-7.515,18.052-10.662,6.133-3.089,12.474-3.747,19.084-5.172,15.209-3.275,28.778-10.656,43.17-16.58,26.8-11.035,53.259-24.4,75.287-43.41,10.819-9.335,20.129-17.879,28.782-29.317,7.184-9.495,20.438-23.09,33.943-20.712,12.34,2.173,23.452,12.695,32.477,20.59,11.341,9.918,22.872,17.979,38.35,20.138,29.335,4.1,57.7-10.638,86.741-8.695,28.234,1.89,55.448,18.139,70.588,41.965,15.575,24.508,16.455,56.564,29.625,82.309,6.725,13.147,13.321,23.579,15.763,38.535,2.587,15.843-7.555,28.861-17.015,40.378-9.528,11.6-16.849,21.777-20,36.867-1.453,6.96-.88,14.215.428,21.148,1.49,7.909,5.247,12.769,8.521,19.821,6.055,13.052,11.569,26.249,18.055,39.175" transform="translate(73.843 8.32)" fill="none" stroke="rgba(73,61,124,0.4)" stroke-miterlimit="10" stroke-width="1.874"/><path d="M310.531,388.919c-4.7.061-6.613-6.444-9.407-9.162-3.92-3.82-6.616-8.758-10.844-12.281-4.792-4-10.67-4.006-16.56-3.231a61.847,61.847,0,0,1-23.042-.971c-4-.916-15.115-1.865-15.476-7.1-.488-6.979.036-13.97-.155-20.954-.193-7.075-1.765-13.909-2.676-20.9-1.089-8.345.3-16.234,1.506-24.47,1.139-7.749.894-15.493.714-23.3-.141-6.083-1.914-14.626,2.4-19.578,3.561-4.094,8.5-6.736,11.875-11.013,4.472-5.675,5.683-13.622,7.131-20.485,1.453-6.893.941-23.38,9.738-10.152,6.612,9.943,14.726,19.705,27.31,20.637,5.655.417,12.836-.177,17.656-3.493,4.546-3.126,6.819-8.488,10.623-12.342,4.359-4.417,12.494-4.5,18.2-6.471,8-2.767,15.823-5.376,24.369-5.611,7-.191,14.008.621,21.005.116,6.93-.5,14.067-1.954,20.936-.158,4.929,1.288,8.485,8.267,11.962,11.655,5.843,5.694,11.727,11.329,17.31,17.28,8.867,9.452,24.489,13.87,35.655,20.4,6.064,3.55,10.6,4.56,10.963,11.918.425,8.681,1.01,18.038-.679,26.613-2.794,14.18-9.117,25.151-17.314,36.9-4.7,6.736-5.634,9.471-14.223,9.683-8.129.2-16.354-.035-24.482-.26-14.075-.392-24.811,3.106-38.27,6.231-10.519,2.441-23.47-4.082-32.411,3.774-8.028,7.054-14.646,16.792-22.18,24.525l-12.464,12.792C316.973,382.305,315.227,388.857,310.531,388.919Z" transform="translate(131.635 110.622)" fill="none" stroke="rgba(73,61,124,0.51)" stroke-miterlimit="10" stroke-width="1.874"/><path d="M411.2,571.688c3.5-13.311-.041-27,7.727-39.109,3.36-5.238,7.5-10.2,9.28-16.273,2.336-7.978.083-16.336.919-24.456.4-3.851,10.922-8.184,13.859-9.976,5.97-3.642,11.991-7.247,18.174-10.519,5.393-2.853,10.709-4.343,16.274-6.527,6.249-2.45,12.27-10.216,16.671-15.081,4.132-4.566,6.976-7.669,7.794-13.746.685-5.095,9.209-7.617,13.349-9.073,15.44-5.434,23.369,3.479,37.233,7.628,13.054,3.9,27.74,3.123,40.055,8.994,13.167,6.276,27.937,13.879,38.408,24.052,11.089,10.773,21.42,21.051,30.6,33.506,9.969,13.529,21.269,23.534,35.672,32.329,11.7,7.142,30.7,6.968,44.042,6.927,16.673-.052,33.41.146,50.073-.232,9.973-.226,26.539-2.442,33.639-10.016,11.161-11.9,15.7-24.419,18.87-40.124,2.6-12.861,6.922-25.335,5.82-38.555-1.355-16.251,4.02-31.183,12.092-45.2,3.1-5.384,6.748-14.034,11.669-17.945a188.731,188.731,0,0,1,17.462-12.268,153.171,153.171,0,0,1,41.208-17.746c13.41-3.7,28.259-4.173,40.983-9.906,12.808-5.769,28.309-13.332,42.629-7.813,11.972,4.609,19.57,16.414,30.249,23.137,13.827,8.707,24.742,17.878,36.488,29.159,9.826,9.438,18.648,19.887,27.6,30.147,9.664,11.074,18.477,27.023,30.982,35.147,12.149,7.884,23.4,15.448,36.928,20.859,6.373,2.551,10.927,6.273,17.707,7.746,8.376,1.821,16.572,3.493,24.71,6.26,6.086,2.069,14.764,4.151,19.572,8.616,4.827,4.483,8.948,10.138,13.214,15.15,4.543,5.333,9.1,10.176,12,16.584,3.66,8.07,7.084,16.259,11.393,24.016" transform="translate(233.544 191.091)" fill="none" stroke="#a6a6a6" stroke-miterlimit="10" stroke-width="1.874"/><path d="M176.154,558.684c2.8-13.667,4.778-25.517,3.249-39.644-.674-6.22-3.493-12.011-4.56-18.172-1.5-8.659-1.139-17.82-.99-26.574.2-11.933,15.3-22.513,23.564-30.29,3.451-3.247,14.7-1.242,19.129-1.184,8.11.105,16.518.733,24.6.118,13.112-1,23-10.914,34.05-16.952,13.2-7.213,25.871-9.1,39.924-13.441,11.178-3.454,18.427-14.46,24.814-23.617,3.432-4.921,8.7-4.052,12.278.489,4.689,5.947,1.209,14.37-1.2,20.521-2.093,5.343-2.293,13.932-5.44,18.452-2.886,4.144-7.8,6.2-11.434,9.55-9.738,8.968,2.409,27.365,7.387,36.213,3.343,5.94,4.223,12.448,7.217,18.243a198.189,198.189,0,0,0,10.831,18.384c7.818,11.807,20.121,18.938,28.781,29.99,2.944,3.755,4.091,8.491,6.295,12.649" transform="translate(98.501 217.793)" fill="none" stroke="#a6a6a6" stroke-miterlimit="10" stroke-width="1.874"/><path d="M901.609,435.841c-19.173-37.131-49.24-78.444-95.748-61.443-19,6.944-37.28-1.487-56.207,3.507-27.708,7.311-22.745,43.683-22.482,63.877" transform="translate(412.926 209.182)" fill="none" stroke="#a6a6a6" stroke-miterlimit="10" stroke-width="0.703"/><path d="M862.244,436.031c-16.185-28-21.126-38.8-54.707-39.7-7.584-.205-74.778-8.558-56.7,19" transform="translate(424.921 223.126)" fill="none" stroke="#a6a6a6" stroke-miterlimit="10" stroke-width="0.703"/><path d="M575.8,557.284c.756-12.819,25.07-5.707,32.836-5.429,8.143.292,16.29-.317,24.433.08,7.417.365,12.486,4.137,18.85,7.421,11.558,5.966,28.053,1.544,40.655,2.133,6.668.312,13.531.373,19.554-2.9,6.259-3.4,11.371-7.329,18.641-8.323,13.283-1.812,23.129,1.481,33.413-9.377,8.7-9.191,13.081-20.921,22.913-28.711,12.455-9.871,8.24-20.023,8.058-34.075-.091-7,.82-14,.154-20.988-.754-7.934-5.076-14.212-7.659-21.551-4.359-12.387,1.173-28.924,8.392-39.263,8.988-12.869,17.958-20.212,33.584-23.791,13.878-3.178,28.187-4.345,41.895-8.365,6.226-1.826,11.285-5.258,16.979-8.205,7.085-3.669,15.144-3.391,22.933-3.515,7.4-.116,11.539-.911,16.773,4.216,5.037,4.933,9.942,10,15.027,14.882,10.119,9.716,24.3,14.069,34.354,24.165,9.987,10.027,19.831,19.562,28.469,30.789,9.868,12.833,19.449,25.393,30.872,36.891,4.527,4.557,9.02,10.116,15.708,10.783,6.546.654,13.608,5.495,19.288,8.571,13.54,7.33,21.959,16.35,38.478,14.949,9.012-.764,12.242-.469,18.875,5.867,5.566,5.316,10.985,10.783,16.422,16.229,5.223,5.245,8.784,13.564,12.528,19.909a213.926,213.926,0,0,1,12.466,23.355" transform="translate(327.141 198.862)" fill="none" stroke="#a6a6a6" stroke-miterlimit="10" stroke-width="0.703"/><path d="M452.726,507.082c-.108-6.169-2.684-12.358-1.25-18.533.994-4.284,7.66-7.865,10.572-10.855,8.907-9.145,16.626-23.892,30.613-22.151,15.581,1.939,20.033-3.26,29.5-14.637,2.522-3.032,5.782-9.216,9.821-10.267,7.986-2.075,16.344-1.087,24.428-.317A135.668,135.668,0,0,1,577.45,434.4c8.08,2.094,8.577,6.034,10.48,13.856,1.415,5.823,3.429,14.38-1.426,19.147-5.619,5.517-13.749,3.007-20.615,2.369-13.914-1.294-19.443,11.713-27.82,20.314-10.535,10.817-20.809,24.514-33.131,33.267" transform="translate(256.201 242.696)" fill="none" stroke="#a6a6a6" stroke-miterlimit="10" stroke-width="0.703"/><path d="M228.131,481.938c4.474-4.595,8.88-11.747,14.023-15.471,6.3-4.56,19.385-2.889,26.39-1.263,4.765,1.107,10.284,10.028,13.628,13.286,5.462,5.327,13.826,10.634,18.243,16.742" transform="translate(129.449 262.093)" fill="none" stroke="#a6a6a6" stroke-miterlimit="10" stroke-width="0.703"/><path d="M392.669,575.077c6-4.427,6.353-7.848,7.2-15.321a91.682,91.682,0,0,1,5.929-24.643c5.34-13.242,9.258-30.039,17.454-41.664A160.135,160.135,0,0,1,454.8,459.59c10.858-8.8,21.768-15.332,31.343-25.722a37.706,37.706,0,0,0,9.724-17.8c1.606-6.3,2.732-16.034,8.536-20.11,4.458-3.128,10.955-3.705,14.971.036,4.358,4.056,11.965,4.943,17.351,7.161,14.467,5.959,26.063,15.757,41.19,20.549,13.878,4.4,28.535,7.192,41.764,13.377,14.43,6.747,23.772,15.421,35.076,26.524,19.288,18.946,35.238,46.29,60.888,57.507a122.85,122.85,0,0,0,87.51,4.5c13.468-4.348,20.748-10.621,27.727-22.908,6.419-11.3,13.917-26.431,15.374-39.482,1.608-14.389.725-27.892,4.78-42.106,1.846-6.471,6.533-11.192,10.168-16.751a114.636,114.636,0,0,1,15.035-19.139c21.114-20.914,50.2-29.477,78.025-37.741,14.088-4.187,27.73-7.867,41.6-12.747,14.743-5.189,30.331-6.223,44.1,1.818,25.683,14.993,49,37.2,68.607,59.452,6.667,7.565,14.119,14.91,19.808,23.244,5.672,8.311,10.927,17.045,17.652,24.574,11.749,13.15,29.2,22.886,44.787,30.688,17.233,8.624,37.2,7.553,55.655,12.016,7.525,1.82,15.361,13.106,20.59,18.453,6.88,7.037,10.571,14.365,15.068,23.063" transform="translate(223.008 186.561)" fill="none" stroke="#a6a6a6" stroke-miterlimit="10" stroke-width="0.703"/><path d="M168,671.319c2.933-13.688,3.634-28.21,1.115-42-2.739-14.99-3.55-30.768.977-45.528,2.05-6.681,5.34-13.139,6.754-19.994,1.286-6.231,2.664-10.074,7.962-14.023a95.074,95.074,0,0,1,16.381-9.813c6.946-3.194,16.8-.678,24.227-1,51.214-2.234,125.639-54.53,85.651-110.472-2.811-3.932-6.116-10.976-10.488-13.319-6.025-3.225-12.381-5.758-18.533-8.722-13.426-6.467-20.688-11.912-23.521-27.241-5.457-29.52.028-60.284,2.853-89.807,1.324-13.829,1.511-28.409,4.626-41.965,1.719-7.479,4.808-14.536,7.683-21.619,2.733-6.736,4.955-13.431,7.12-20.652,2.273-7.586,5.925-22.536,12.894-27.2,9.689-6.483,18.689,8.58,24.547,13.805,4.955,4.42,10.436,4.43,16.579,5.882,6.376,1.5,11.153,3.755,17.736,1.562,5.9-1.965,12.886-1.917,18.441-4.591,6.715-3.235,12.256-8.342,18.608-12.168,11.843-7.128,27.17-7.382,40.587-8.715,16.688-1.66,26.187,8.6,38.489,17.931,10.309,7.81,14.345,23.347,24.838,31.286,12.29,9.294,24.265,16.657,33.691,28.93,9.217,12,12.227,22.3,10.515,37.412-1.74,15.336-6.571,30.561-10.19,45.562-3.213,13.31-5.355,24.621-16.1,33.587-4.867,4.063-9.666,8.753-15.89,10.638-7.958,2.409-16.321.212-24.427.317-15.7.2-27.228.038-41.891,6.72-5.7,2.595-11.1,3.456-14.518,8.911-4.235,6.759-8.207,13.879-10.055,21.707-1.631,6.907.085,13.991.334,20.941.249,6.98-.831,14.119-1.807,21.013-2.011,14.224-6.707,27.758-8.135,42.092-1.44,14.458-8.444,23.34-15,35.7-6.224,11.729-7.793,28.249-7.473,41.3.286,11.683,2.315,27.79,8.85,37.7a121.322,121.322,0,0,0,28.943,31.106c10.428,7.769,21.509,13.987,32.07,21.47" transform="translate(94.619 97.22)" fill="none" stroke="rgba(73,61,124,0.51)" stroke-miterlimit="10" stroke-width="0.703"/><path d="M968.846,172.1c-8.55.111-8.3-11.948-2.034-15.362C973.507,153.091,974.487,172.026,968.846,172.1Z" transform="translate(546.886 87.39)" fill="none" stroke="rgba(73,61,124,0.38)" stroke-miterlimit="10" stroke-width="0.703"/><path d="M464.648,143.229c-7.432.1-10.119-12.943-18.5-14.568-12.478-2.422-24.513,3.1-36.483-2.693-8.689-4.207-22.858-11.675-23.252-22.31-.259-7.026.621-14.03,1.6-20.972.61-4.358,10.924-7.876,14.356-9.567,20.433-10.066,41.6,14.322,54.5,27.928,7.156,7.553,4.814,16.507,14.111,22.179C480.656,129.129,476.3,143.077,464.648,143.229Z" transform="translate(219.427 38.758)" fill="none" stroke="rgba(73,61,124,0.4)" stroke-miterlimit="10" stroke-width="0.703"/><path d="M272.708,113.094c-11.645-3.747-25.233-16.279-21.65-29.724,4.333-16.257,15.415-22.976,31.426-23.686,6.389-.282,16-.9,20.347,4.866,4.234,5.611,5.206,16.329,4.776,23.087-.965,15.151-19.41,30.444-34.9,25.457Z" transform="translate(142.153 32.371)" fill="none" stroke="rgba(73,61,124,0.4)" stroke-miterlimit="10" stroke-width="0.703"/><path d="M158.786,684.26c2.511-13.517,4.147-27.724,2.158-41.319-2.224-15.214-1.958-31.339,2.69-46.11,4.318-13.718,6.935-28.838,12.538-42.028,5.358-12.618,19.871-20.351,32.629-23.644,6.856-1.769,13.975-.413,20.924-.27,6.745.138,14.063-1.793,20.743-2.827,12.317-1.9,29.49-11.583,37.316-21.421,7.07-8.886,17.024-21.148,13.608-33.231-3.267-11.558-12.819-27.073-23.3-33.333-5.9-3.523-12.538-5.482-18.645-8.579-5.023-2.555-7.418-9.459-9.727-14.416-6.748-14.483-2.718-31.173-1.928-46.552,1.544-30.019,6.088-59.488,10.182-89.176,2.077-15.062,6.132-27.6,10.765-41.979,4.514-14,2.513-28.808,10.715-41.685,7.537-11.832,15.2-24.193,19.929-37.518,2.27-6.4,5.682,2.11,7.74,4.275,5.4,5.678,10.707,11.471,16.7,16.536,4.6,3.89,9.608,3.851,14.841,6.4,6.754,3.282,11.7,5.3,19.355,3.942,14.529-2.587,28.488-9.153,41.6-15.787,6.2-3.136,12.078-6.853,18.13-10.257,5.707-3.211,12.066-4.2,17.4-7.958,4.712-3.319,9.661-7.421,15.848-6.008,6.7,1.531,11.267,7.429,17.761,9.416,5.948,1.82,8,9.107,10.325,14.281a79.706,79.706,0,0,0,10.4,17.071,297.253,297.253,0,0,0,27.915,30.974c9.983,9.551,20.381,18.875,29.794,28.991,3.961,4.26,4.808,12.943,6.091,18.4a90.423,90.423,0,0,1,2.231,24.519c-.584,14.391-5.109,27.989-6.215,42.274-1.17,15.14-3.078,30.706-7.578,45.267-2.205,7.139-4.982,14.083-7.841,20.98-2.006,4.839-2.676,10.279-5.518,14.761-6.627,10.453-27.586,8.541-38.227,8.315-5.741-.122-15.343-1.884-20.124,2.2a140.126,140.126,0,0,0-15.647,15.65c-3.693,4.328-4.58,9.774-7.81,14.574-4.248,6.31-9,12.321-12.46,19.129-6,11.829-7.732,26.166-12.4,38.623-5.551,14.828-11.719,29.365-17.076,44.251-5.005,13.923-8.063,24.67-5.548,39.8,2.176,13.12,10.82,26.069,20.063,35.079,9.876,9.628,20.271,13.391,32.494,19.256,12.08,5.8,23.316,15.749,37.233,9.484,12.77-5.749,20.8-13.294,27.573-25.333,3.376-6,6.907-12.475,8.552-19.211,1.942-7.951.946-16.91,5.755-23.819,7.743-11.128,16.127-21.943,26.588-30.583,11.583-9.565,22.671-18.525,32.194-30.229a36.341,36.341,0,0,0,5.034-37.86c-5.606-12.99-15.407-21.791-16-37.005-.541-13.736,12.37-14.825,23.143-13.454,14.83,1.887,27.528,9.471,39.92,17.223,11.73,7.34,22.227,16.367,33.914,23.626,13.015,8.083,26.439,15.955,39.783,23.484,11.885,6.706,25.261,10.115,37.915,15.068a219.923,219.923,0,0,1,20.877,9.051c5.274,2.722,18.333,7.437,21.244,12.721,7.133,12.9,12.342,24.188,22.689,34.943,9.183,9.545,17.471,21.667,29.854,27.338,11.783,5.395,24.591,6.6,36.922,9.955,13.118,3.564,29.634,1.286,41.316-5.352s20.333-12.811,27.241-24.527c8.488-14.4,11.7-26.535,13.366-43.026,1.464-14.48,1.3-26.737,10.187-38.993,8.621-11.885,18.569-22.24,28.858-32.692,9.729-9.884,23.7-14.444,36.154-20.235a268.619,268.619,0,0,1,45.164-16.754c13.7-3.633,26.394-6.5,39.452-12.187,13.451-5.862,29.158-9.013,43.2-3.589,24.413,9.431,43.454,31.9,61.785,49.76,9.128,8.9,20.14,17.412,27.384,28,8.458,12.38,15.849,25.052,24.911,37.15,6.686,8.918,20.075,19.206,30.262,23.7,5.627,2.483,10.667,5.975,16.248,8.474,6.2,2.78,13.545,3.429,20.218,4.259,14.144,1.759,28.356.874,41.59,6.894,5.941,2.7,13.341,4.66,15.81,11.062,2.513,6.51,4.5,13.228,7.468,19.558" transform="translate(90.018 84.407)" fill="none" stroke="rgba(73,61,124,0.51)" stroke-miterlimit="10" stroke-width="0.703"/><path d="M909.321,309.959c-2.159-.169-9.142.648-9.189-2.965-.052-3.975,10.229-3.338,12.587-3.512,10.715-.8,21.631-.464,32.369-.762,2.568-.071,6.816.067,6.863,3.6.057,4.387-6.289,3.859-9.117,3.7-11.187-.618-22.311.817-33.512-.064C906.115,309.708,917.44,310.6,909.321,309.959Z" transform="translate(511.562 170.657)" fill="none" stroke="#a6a6a6" stroke-miterlimit="10" stroke-width="0.703"/><path d="M983.98,239.7c-5.909.077-14.463-7.333-19.148-10.516-7.189-4.882-12.183-10.612-17.007-17.754-4-5.926-8.461-11.82-10.573-18.753-2.828-9.288.446-18.546,3.084-27.449,4.816-16.226,14-31.956,22.328-46.564,6.469-11.352,7.685-35.9,22.6-39.608,6.849-1.7,17.471-2.37,23.572,1.983,7.09,5.059,7.75,15.961,7.529,23.823-.486,17.151-9.909,29.852-14.459,45.488-2.223,7.639-3.5,14.941,1.184,21.841,5.495,8.094,6.314,15.024,6.552,24.729.264,10.678,1.224,18.1-6.152,26.183C999.2,227.821,990.942,239.614,983.98,239.7Z" transform="translate(532.05 42.743)" fill="none" stroke="rgba(73,61,124,0.38)" stroke-miterlimit="10" stroke-width="0.703"/><path d="M524.262,188.761c-9.885-4.077-21.341-5.341-31.584-8.731a168.275,168.275,0,0,1-34.042-15.518c-4.525-2.7-6.944-5.438-12.119-5.485-6.789-.061-13.57.411-20.358.427-11.357.028-22.621-.173-33.97-.521-27.187-.833-25.474-25.738-21.678-46.106,2.4-12.9,6.264-23.675,14.315-33.959,4.066-5.194,8.234-10.311,12.572-15.28,2.908-3.333,11.387-1.92,15.272-1.97,4.9-.064,11-1.107,15.319,1.572,5.181,3.211,10.358,6.431,15.456,9.776,9.443,6.191,18.323,12.783,26.223,20.878,7.708,7.9,16.96,14.025,24.66,21.932s18.577,13.278,25.336,21.989c6.8,8.762,17.393,14.908,22.93,24.565,2.593,4.524,3.758,10.224,7.266,14.171,2.8,3.156,4.869,4.861,4.913,9.308.058,6,.314,17.034-8.359,16.4-8.891-.654-14.318-10.212-22.152-13.441Z" transform="translate(209.197 33.422)" fill="none" stroke="rgba(73,61,124,0.4)" stroke-miterlimit="10" stroke-width="0.703"/><path d="M258.395,145.273c-10.629-5.032-22.386-15.751-24.536-27.852-2.125-11.967,1.769-26.747,6.951-37.487,9.692-20.1,46.7-39.946,68.075-28.654,8.7,4.6,23.1,15.628,23.932,25.812,1.178,14.322.841,27.278-5.831,40.3-5.34,10.419-20.927,15.131-30.384,21.285-10.588,6.889-25.89,12.428-38.207,6.6Z" transform="translate(132.369 25.821)" fill="none" stroke="rgba(73,61,124,0.4)" stroke-miterlimit="10" stroke-width="0.703"/><path d="M151.641,756.332c5.766-29.233-1.76-58.294,4.833-87.438,3.027-13.385,6.579-26.406,8.929-39.956,1.159-6.674,5.573-12.618,9.277-18.133,3.493-5.2,7.816-14.5,13.672-17.423a106.228,106.228,0,0,1,41.716-11.318c12.56-.869,29.68-1.159,38.645-10.8,6.452-6.935,17.9-14.361,16.016-25.343-1.663-9.718-13.838-20.734-22.19-24.834-9.418-4.626-21.89-16.61-24.436-26.95-3.542-14.392-1.92-28.278.047-42.779,3.948-29.112,7.63-58.473,12.292-87.469,2.223-13.835,3.194-28.307,7.678-41.609,2.4-7.118,5.738-13.863,6.714-21.4,1.051-8.121.568-16.271,3.081-24.171,4.078-12.82,9.1-25.674,13.545-38.394,3.649-10.453,16.292-20.6,15.241-32.166-1.067-11.774-14.612-16.711-17.09-27.746-1.576-7.02-2.445-14.367-5.794-20.844-3.57-6.907-8.932-12.627-13.94-18.491-8.609-10.078-16.219-21.6-23.3-32.783-7.978-12.6-19.622-20.136-26.1-34-2.684-5.746-5.771-9.278-3.26-15.244,2.59-6.147,4.557-12.643,8.215-18.282,9.685-14.93,24.282-6.833,31.073,5.594,1.366,2.5,6.071,15.407,8.979,15.575,5.74.331,11.548,4.769,17.082,6.337,6.554,1.857,9.536.532,14.127-3.95,5.289-5.161,13.562-4.334,20.329-5.945,13.841-3.293,27.468-6.613,41.845-5.319,7.18.646,13.7,3.144,20.246,6.024,7.6,3.346,11.087,9.481,15.148,16.518,11.73,20.328,15.793,61.324-6.213,76.988-4.874,3.467-11.076,3.97-16.8,4.817-7.435,1.1-10.9,4.025-16.632,8.882-5.2,4.409-10.775,10.756-17.012,13.633-6.444,2.973-9.426,9.034-12.533,15.3-11.944,24.067,21.186,50.968,43.27,51.906,14.075.6,27.037-5.816,38.861-12.643,5.8-3.346,9.484-6.955,14.238-11.755,3.288-3.319,15.689-12.48,16-17.081.361-5.256,5.181-12.784,7.558-17.495,3.159-6.262,7.192-10.422,12.309-15.068,5.194-4.715,5.633-10.712,9.719-15.89,4.825-6.113,10.94-11.01,16.307-16.61,9.656-10.074,9.878-26.665,16.863-38.623,7.7-13.178,15.275-22.819,30.27-27.821C551.252,61.859,575.266,85.12,597.3,102.66c11.288,9,22.312,18.747,33.225,28.2,11.111,9.619,23.057,18.643,33.313,29.15,9.186,9.409,20.1,15.645,28.35,26.033,3.534,4.452,7.683,7.114,11.728,10.922,5.151,4.853,4.725,14.925,4.066,21.357-1.31,12.8-6.232,24.412-19.838,27.325-15.164,3.247-25.259-4.232-37.576-11.5-11.84-6.988-25.062-10.376-36.544-17.95-5.873-3.874-11.841-8.546-18.549-10.878-6.419-2.234-14.682-6.5-21.365-7.255-13.465-1.514-28.343-.248-41.909.1-14.718.378-22.71,7.258-28.336,20.918-10.427,25.321,23.681,52.163,39.435,67.291,20.637,19.815,29.758,48.6,27.239,76.889-2.574,28.908-13.026,58.277-6.017,87.462a109.438,109.438,0,0,0,7.515,20.745c2.444,5.22,10.14,8.511,14.772,11.324,12.929,7.851,27.159,12.58,40.124,20.179,24.626,14.431,47.625,32.05,71.079,48.284,11.31,7.829,22.077,16.116,34.466,22.158,6.859,3.347,13.788,6.711,21.073,9.042,7.3,2.334,16.888,2.882,23.373,7.092,10.833,7.034,22.671,12.678,30.783,23.074,8.779,11.252,14.3,24.07,23.857,34.759,4.817,5.388,9.642,10.772,14.552,16.08,4.068,4.4,11.245,6.491,16.662,8.792a91.528,91.528,0,0,0,45.854,6.781c29.056-3.2,43.94-32.82,48.107-58.845,2.234-13.958,1.084-28.459,7.947-41.223,7.7-14.323,17.975-24.351,29.236-35.915,9.925-10.212,25.194-16.248,38.056-22.052,13.754-6.205,27.28-13.214,41.63-17.95,13.784-4.549,27.9-7.826,41.793-11.983,14.612-4.364,25.807-14.853,41.57-17.005,12.775-1.743,26.246,5.763,35.48,13.79,11.977,10.417,23.817,20.623,35.187,31.706,8.248,8.042,16.471,16.108,24.83,24.038,9.355,8.874,15.429,17.576,21.73,28.772,12.488,22.193,27.517,40.922,50.316,52.866,23.661,12.4,49.328,5.034,74.169,11.74,12.14,3.277,20.287,10.425,24.624,22.339,2.078,5.711,2.914,11.765,4.635,17.576,1.983,6.7,6.328,12.042,9.183,18.332,5.052,11.132,12.262,20.529,19.135,30.569" transform="translate(85.955 15.983)" fill="none" stroke="rgba(73,61,124,0.4)" stroke-miterlimit="10" stroke-width="0.703"/><path d="M360.689,524.418c-8.914-2.055-23.063-5.053-25.6-14.515-3.238-12.078-7.711-24.052-10.59-36.161-5.089-21.409,14.529-41.415,22.075-59.691,4.4-10.663,6.6-22.535,14.568-31.266,7.544-8.267,15.592-16.886,24.154-24.056,7.275-6.093,14.762-14.787,24.985-15.2,10.063-.408,21.969,5.868,30.892,10.02,17.048,7.931,37.123,24.215,41.3,43.724,4.916,22.96-17.073,34.48-30.85,48.615-7.752,7.951-15.481,15.837-22.787,24.183-6.783,7.747-15.142,15.591-17.3,26.083-1.126,5.465-1.015,11.1-2.137,16.562-.715,3.481-9.266,6.982-12.187,8.693-12.016,7.037-23.4,6.033-36.522,3.01Z" transform="translate(183.773 193.857)" fill="none" stroke="#a6a6a6" stroke-miterlimit="10" stroke-width="0.703"/><path d="M895.043,326.309c-8.768-4.756-16.18-10.009-10.619-20.77,5.2-10.055,14.428-13.478,25.175-13.053,24.1.951,51.852-6.966,72.4,8.278,7.634,5.663,15.973,8.38,13.973,18.911-2.1,11.052-18.841,11.556-27.556,13.024-11.405,1.923-23.38.988-34.914,1.685a71.674,71.674,0,0,1-38.463-8.075Z" transform="translate(501.537 164.149)" fill="none" stroke="#a6a6a6" stroke-miterlimit="10" stroke-width="0.703"/><path d="M967.352,245.9c-2.772-1.14-5.5-5.636-7.446-7.729q-6.2-6.654-12.375-13.333c-5.7-6.149-11.76-11.867-17.578-17.895-15.332-15.881-3.93-35.915,5.98-51.846,10.847-17.437,21.2-33.871,29.554-52.657,4.474-10.061,12.216-18.668,18.969-27.3,4.067-5.2,5.2-5.708,11.994-6.136a127.976,127.976,0,0,1,17.463.058c5.429.392,14.75,14.7,17.7,18.927,6.11,8.739,7.123,18.563,5.305,28.9-1.667,9.481-7.472,16.478-10.943,25.212-4.093,10.3-4.933,23.462-3.048,34.315,3.939,22.671,4.314,40.939-3.467,62.927-2.93,8.287-13.024,12-21.231,14.3-11.443,3.2-20.775-3.58-30.88-7.732C966.287,245.457,975.38,249.193,967.352,245.9Z" transform="translate(524.263 37.609)" fill="none" stroke="rgba(73,61,124,0.38)" stroke-miterlimit="10" stroke-width="0.703"/><path d="M145.8,720.9a202.866,202.866,0,0,1,3.551-45.441c2.609-14.209,5.059-27.675,6.452-42.063a71.574,71.574,0,0,1,19.616-42.387c4.888-5,10.414-9.752,14.732-15.256,3.07-3.909,14.031-5.018,18.668-6.26,12.927-3.464,28.861-4.662,40.147-12.445,10.028-6.914-5.511-17.633-9.165-23.321-7.118-11.109-17.17-23.819-19.137-37.139-2.276-15.413,3.438-27.707,7.291-42.149,4-14.983,8.458-30.641,10.814-45.965,2.125-13.838,4.014-27.714,6.111-41.557,2.317-15.291,3.264-30.941,8.775-45.506,2.6-6.878,4.849-13.576,5.374-20.966.485-6.8-.51-14.168,1.9-20.616,5.762-15.336,10.827-29.634,13.016-45.986,2.013-15,2.449-27.6-2.946-42.031-5.224-13.978-13.581-28.6-23.6-39.625-9.895-10.894-17.719-21.765-26.008-33.895-7.816-11.44-19.189-19.125-22.3-33.553-3.129-14.5-.46-28.519,4.773-42.149,3.407-8.877,22.779-18.729,32.31-16.745,6.108,1.272,11.134,5.424,16.23,8.751,5.275,3.443,10.8,5.6,15.948,9.383,13.71,10.066,25.774,8.9,41.964,6.486,27.38-4.077,63.375-11.071,81.148,16.62a175.979,175.979,0,0,1,10.274,18.43c2.8,5.8,3.241,12.347,6.165,18.23,5.958,11.986,5.46,26.278,14.188,36.979,7.854,9.631,25.87,5.953,34.668-1.026,10.113-8.019,16.549-24.673,23.848-35.165,8.425-12.11,14.789-22.949,27.849-30.477,13.3-7.664,27.467-12,42.858-8.514,13.554,3.071,24.161,11.385,34.359,20.158,11.3,9.719,23.838,17.92,34.715,28.058,9.986,9.31,21.744,17.219,32.455,25.707C665.2,149.258,677.476,159.134,690,168.7c11.164,8.527,21.495,15.931,31.449,26.041,5.379,5.462,8.165,7.683,9.15,15.652.878,7.109,1.681,16.082-1.741,22.654-5.812,11.158-10.836,21.28-22.229,27.685-13.523,7.6-30.183,8.442-44.743,3.755-12.246-3.942-24.422-10.615-34.932-18.058-12.047-8.536-20.434-18.083-35.1-21.415-12.775-2.9-28.031-5.233-40.863-1.481-12.478,3.649-16.1,19.943-12.441,31.316,1.711,5.326,7.1,8.242,11.291,11.388,4.653,3.493,7.2,8.071,10.419,12.775,9.4,13.721,17.456,25.016,21.954,41.2,7.864,28.273-.536,59.537-4.151,87.764-3.647,28.5,6.538,62.051,34.458,74.469,28.828,12.822,53.309,31.929,79.294,49.631,22.312,15.2,41.264,36.688,68.567,43.292,29.46,7.125,53.284,25.35,68.779,51.512,6.823,11.525,14.122,24.229,25.67,31.7a79.127,79.127,0,0,0,39.369,13.06,70.074,70.074,0,0,0,21.018-2.287c7.973-1.959,11.029-2.756,15.906-9.335,9.724-13.12,14.505-24.017,16.6-40.279,1.6-12.466,2.483-24.976,4.173-37.446,2.163-15.978,10.494-21.661,21.034-32.478,9.14-9.388,19.623-13.829,31.143-19.962,14.776-7.868,29.8-14.736,45.088-21.52,27.873-12.362,58.425-18.991,84.629-34.726,6.047-3.631,11.9-5.123,18.21-7.856,5.25-2.271,11.843-6.786,17.851-4.825,5.617,1.832,10.213,5.884,16,7.779,7.564,2.475,12.982,8.9,18.289,14.527,10.317,10.936,21.782,20.927,32.563,31.437,11.224,10.943,24.241,21.343,33.372,34.107,17.15,23.97,28.58,51.887,53.717,68.85,12.078,8.151,22.911,11.766,37.532,12.259,15.175.511,30.237-2.133,45.451-1.313,15.382.828,21.533,6.365,26.857,20.685,5.3,14.26,5.038,29.525,11.691,43.231,6.133,12.638,16.085,23.172,21.658,35.906" transform="translate(82.556 13.081)" fill="none" stroke="rgba(73,61,124,0.4)" stroke-miterlimit="10" stroke-width="0.703"/><path d="M351.606,482.12c-3.294-.441-6.207-10.478-7.4-12.927-3.514-7.192-5.992-14.381-5.038-22.5,1.973-16.836,10.993-28.82,20.643-42.07,4.281-5.87,8.169-12.024,12.659-17.741,4.191-5.341,10.6-8.62,15.823-12.946,12.105-10.019,29.147-10.618,43.112-3.829,12.06,5.863,17.8,20.789,12.823,33.419-4.64,11.782-19.007,17.758-26.364,27.8-9.153,12.492-17.393,24.488-28.312,35.517-2.662,2.689-5.321,5.38-7.936,8.114-.742.773-4.286,6.637-5.583,6.846a83.75,83.75,0,0,1-24.425.317Z" transform="translate(192.468 206.423)" fill="none" stroke="#a6a6a6" stroke-miterlimit="10" stroke-width="0.703"/><path d="M11.136,315.319c4.747,10.13,2.32,23.327,2.715,34.165.422,11.545.067,19.288-10.6,24.913" transform="translate(1.575 177.827)" fill="none" stroke="#a6a6a6" stroke-miterlimit="10" stroke-width="0.703"/><path d="M902.027,346.5c-6.96-1.416-12.436-6.907-17.288-11.722-4.138-4.108-12.86-10.79-13.691-16.979-1.1-8.168-.06-16.486,1.776-24.469.414-1.791,15.895-3.293,17.962-3.678,16.778-3.136,34.166-2.913,51.162-4.169,18.075-1.336,33.189-1.547,49.822,6.3,10.53,4.966,26,18.477,29.448,29.816,1.791,5.9,4.819,14.871,3.983,21.038-.626,4.631-18.154,5.986-21.868,6.356-8.332.83-16.25-.811-24.5-1.586-9.245-.869-18.667-.229-27.928.082-16.519.557-32.456,2.347-48.875-.991Z" transform="translate(494.768 160.454)" fill="none" stroke="#a6a6a6" stroke-miterlimit="10" stroke-width="0.703"/><path d="M971.727,260.217c-8.77-4.894-15.443-15.614-22.251-22.808-8.011-8.466-17.313-15.277-24.93-24.218-8.19-9.612-11.427-14.4-8.458-27.583,2.806-12.455,8.5-21.424,15.429-32.019,6.708-10.254,14.207-20.347,19.893-31.206,5.719-10.924,10.869-21.994,18.108-32.031,5.769-8,11.94-17.38,19.634-23.7,8.582-7.046,24.847-7.181,34.254-1.915,16.471,9.217,33.249,29.895,30.637,49.36-1.522,11.341-6.276,20.325-11.862,30.124-5.57,9.776-6.91,25.427-5.424,36.409,3.2,23.678,4.152,46.977-7.054,69.032-11.622,22.874-38.665,21.332-57.976,10.554C966.622,257.367,979.283,264.434,971.727,260.217Z" transform="translate(520.019 33.244)" fill="none" stroke="rgba(73,61,124,0.38)" stroke-miterlimit="10" stroke-width="0.703"/><path d="M287.748,180.65c-4.549.06-11.922-11.815-14.328-15.286-4.8-6.935-5.442-14.21-1.655-21.787,3.12-6.238,8.2-17.007,15.252-19.357a81.267,81.267,0,0,1,31.473-4.169c6.505.463,20.376.6,20.492,9.54.056,4.287-2.008,8.182-2.875,12.292-.844,3.991.169,8.667-2.3,12.22a95.343,95.343,0,0,1-18.933,20.163C308.184,179.575,296.192,180.54,287.748,180.65Z" transform="translate(152.866 66.686)" fill="none" stroke="rgba(73,61,124,0.4)" stroke-miterlimit="10" stroke-width="0.703"/><path d="M138.284,748.38c.958-15.139-.762-30.321.188-45.41.984-15.744,5.809-30.124,8.692-45.454,1.308-6.951.869-13.991.511-21-.364-7.161,1.443-11.032,4.149-17.713A217.591,217.591,0,0,1,161,598.7c2.933-5.543,5.973-14.132,10.333-18.607,8.064-8.3,21.928-15.272,24.892-27.352,1.5-6.1-.507-12.444-1.085-18.529-.656-6.885,2.558-14.172,4.089-20.825,3.128-13.6,1.609-27.4,8.9-39.805,3.231-5.5,7.111-10.583,10.317-16.1,3.143-5.434,3.358-14.957,4.869-21.1,6.831-27.774,15.867-55.84,19.344-84.321.847-6.941,1.573-13.986,3.63-20.7,2.154-7.031,5.5-13.71,6.767-21,1.213-6.957-.207-14.006.345-21,.618-7.8,4.516-14.613,7.239-21.794,4.836-12.753,3.98-27.743,4.209-41.184a101,101,0,0,0-9.914-44.574c-12.39-26.486-34.858-45.564-51.124-69.289-8.48-12.37-14.337-23.355-13.17-38.787.976-12.908,2.353-30.11,14.221-37.877,8.649-5.661,21.722-15.788,32.489-15.3,5.675.257,10.472,3.74,14.91,6.927a63.528,63.528,0,0,0,20.08,9.522c12.389,3.628,25.619,7.346,38.615,7.614,15.169.311,30.053-4.584,45.368-3.321,31.558,2.6,47.449,25.045,62.3,49.926,3.581,6,6.9,12.154,10.334,18.241,3.788,6.722,3.943,8.78,11.975,10.913,4.707,1.25,14.941,4.064,19.244.505,1.554-1.285,2.2-3.476,2.941-5.253,1.451-3.474,4.151-5.755,6.94-8.193,19.606-17.123,35.674-45.278,65.065-46.307,15.253-.533,25.546.573,39.211,7.449,12.911,6.5,22.025,18.93,33.623,27.457,12.494,9.187,24.709,18.456,36.862,28.1,11.308,8.968,22.3,18.812,33.992,27.252,4.693,3.388,10.406,4.834,15.035,8.394,5.2,4,10.017,7.983,15.664,11.379,6.127,3.682,12.4,7.109,18.56,10.736,4.9,3.18,9.824,9.627,13.845,13.942,18.706,20.086,11.591,52.966-10.033,68.285-10.431,7.39-21.768,14.141-33.876,18.152-16.019,5.305-28.966,3.936-45.4,1.649-12.11-1.683-25.862-5.233-38.116-4.394-14.657,1.005-11.307,19.587-11.92,29.774-1.758,29.181-4.649,58.354-8.351,87.41-1.815,14.251-3.406,28.528,2.091,42.16,6.02,14.93,13.514,24.329,26.477,33.761,11.233,8.172,24.275,14.176,36.045,21.692,12.982,8.281,24.645,18.213,37.937,26.139,12.742,7.6,22.041,18.031,32.751,28.152,9.581,9.051,25.934,15.608,38.345,19.416,26.613,8.166,49.917,19.907,65.25,44.434,14.53,23.245,30.248,51.917,61.667,52.315,11.757.149,28.883-3.686,37.228-12.77,9.236-10.053,10.6-30.347,11.114-43.28.527-13.346-3.741-28.8-.078-41.659,1.835-6.444,5.227-12.276,8.044-18.31,2.908-6.231,12.8-6.888,19.027-9.107,13.951-4.979,27.647-11.983,40.608-19.137,6.119-3.38,11.623-7.442,18.205-9.964,7.962-3.051,16.24-5.161,24.149-8.369,27.161-11.016,55.457-21.107,80.826-35.865,23.354-13.583,53.887-26.023,70.831-47.915,5.991-7.736,10.348-19.561,22.238-13.012,9.827,5.412,18.93,15.225,27.932,22.111,13.125,10.041,22.858,8.093,38.351,6.993,16.246-1.155,32.632-2.991,48.8-4.969,30.172-3.686,59.851-7.457,84.676,14.781,11.843,10.609,19.353,19.832,23.109,35.446,3.567,14.833.064,30.466,7.424,44.226,11.084,20.726,34.158,52.044,18.7,75.164-6.565,9.821-13.92,19.187-20.014,29.324-7.856,13.064-6.679,28.941-5.393,43.6,1.3,14.835,8.6,25.42,15.543,38.085" transform="translate(78.298 10.213)" fill="none" stroke="rgba(73,61,124,0.4)" stroke-miterlimit="10" stroke-width="0.703"/><path d="M17.233,393.794c21.783-12.066,6.138-39.357,5.311-57.579-.53-11.691-5.172-20.649-12.129-29.856" transform="translate(5.651 172.733)" fill="none" stroke="#a6a6a6" stroke-miterlimit="10" stroke-width="0.703"/><path d="M952,468.941c-25.228-7.829-42.309-38.166-53.022-60.119-6.289-12.886-12.154-25-21.518-36.027-9.606-11.3-21.986-20.27-32.234-30.95-5.958-6.209-18.249-17.278-16.483-26.828,1.967-10.649,11.368-23.7,23.223-23.849,9.564-.124,14.629,11.305,19.33,17.874,7.506,10.488,16.764,20.014,23.081,31.771,6.4,11.909,15.31,14.494,28.58,15.675,14.847,1.322,30.208-2.547,44.968-4.078,13.989-1.451,28.166-2.144,42,.8,6.409,1.363,12.731,3.128,19.114,4.6,7.362,1.7,11.194,8.527,14.486,14.833,7.053,13.514,5.989,26.129,5.145,40.822-.9,15.715-4.877,29.551-13.713,42.725-6.266,9.343-26.976,12.154-37.532,14.108-14.925,2.766-30.779,3.181-45.424-1.357C946.612,467.27,959.865,471.378,952,468.941Z" transform="translate(470.869 164.094)" fill="none" stroke="#a6a6a6" stroke-miterlimit="10" stroke-width="0.703"/><path d="M999.806,280.763c-25.873.295-42.808-25.978-60.227-41.27a198.808,198.808,0,0,1-23.379-23.7c-9.986-12.152-8.061-22.991-3.5-37.139,7.878-24.438,27.261-43.288,39.209-65.617,10.2-19.054,25.023-45.134,45-55.614,5.1-2.673,11.076-2.307,16.637-2.212,7.617.13,7.666-.356,14,4.268,10.544,7.7,24.844,14.347,32.119,25.285,3.3,4.963,6.121,10.22,9.23,15.3,3,4.905,1.2,7.813.413,14.067-1.813,14.359-9.385,22.806-15.244,35.377-12.047,25.849.99,55.739-6.019,82.66-3.322,12.783-6.582,21.683-15.117,32.1-3.788,4.624-6.427,10.022-12.223,11.688-6.85,1.97-13.661,4.723-20.891,4.808C993.351,280.837,1008.146,280.665,999.806,280.763Z" transform="translate(516.592 29.883)" fill="none" stroke="rgba(73,61,124,0.38)" stroke-miterlimit="10" stroke-width="0.703"/><path d="M126.13,766.367c3.107-15.192-.791-30.245-1.757-45.481-.431-6.8-1.023-13.58-3.324-20.038-2.127-5.965-5.117-11.8-5.57-18.226-1.123-15.969,5.434-27.8,13.617-40.695,7.95-12.522,3.78-26.729,5.912-40.637,2.387-15.559,6.53-30.273,13.893-44.315,3.133-5.972,6.891-11.58,10.4-17.332,3.369-5.515,3-7.18.728-13.911-2.309-6.822-2.877-14.039-5.421-20.819s-5.931-13.953-4.342-21.377c2.869-13.383,12.165-22.911,22.874-30.416a57.121,57.121,0,0,1,19.708-9.04c8.823-2.146,13.6-1.97,16.86-10.6,5.278-13.992,8.334-27.735,12.045-42.135,3.716-14.42,11.959-27.622,16.331-42.006,4.066-13.377,9.365-27.928,9.032-42.066-.166-7.114-.993-14.091.649-21.114,1.931-8.257,6.238-15.958,7.219-24.387,3.522-30.271-5.319-60.411-19.515-87.156-5.865-11.053-12.14-24.463-20.38-33.851-4.615-5.258-10.408-9.556-14.183-15.526-4.273-6.759-6.281-15.521-8.2-23.2-3.448-13.8-4.927-28.017-2.943-42.15,2.289-16.292,10.375-23.435,23.4-32.522,10.461-7.3,23.9-13.438,37.034-13.2,13.6.246,27.561,10.406,39.722,15.681,28.1,12.187,57.159,2.3,86.249,5.871,14.061,1.725,24.722,4.659,35.478,13.929,10.591,9.129,21.106,16.257,28.911,28.008,6.124,9.22,17.89,13.917,28.136,17.329,4.264,1.42,9.22-5.371,12.562-7.636,6.648-4.508,13.426-8.761,19.313-14.268,20.361-19.046,56.182-21.459,81.9-13.912,15.212,4.464,23.562,14.35,35.1,24.8,11.719,10.626,24.907,19.617,37.293,29.426a379.216,379.216,0,0,0,74.917,46.216c12.957,6.1,25.015,13.661,38.48,19.01,14.122,5.613,22.586,12.653,27.857,27.514,8.991,25.352-1.482,59.662-19.256,79.2-9.288,10.207-24.6,15.184-37.722,18.085-6.919,1.529-14.008,2.047-20.947,3.457-7.36,1.495-13.926,7.153-21.139,9.4-12.6,3.931-23.805-2.927-35.65,5.442a88.892,88.892,0,0,0-27.427,30.321c-6.654,12.163-4.489,27.647-5.373,41.062-.846,12.861-.82,33.129,9.15,42.852,9.363,9.126,19.28,17.724,28.582,26.991,10.386,10.345,23.934,17.738,35.9,26.132,12.13,8.51,24.514,16.447,36.943,24.5,12.368,8.017,24.376,18.513,37.708,24.63a297.637,297.637,0,0,0,42.237,15.154c14.339,4.1,26.882,3.507,33.7,19.023,5.628,12.8,5.267,26.754,11.581,39.581,5.694,11.562,13.705,23.584,24.26,31.437,28.4,21.126,48.9-16.582,45.175-41.285-4.016-26.609-25.35-49.468-47.278-63.306-8.869-5.6-15.832-12.3-7.705-22.533,3.63-4.571,8.489-7.954,12.922-11.677,4.348-3.652,13.156-3.462,18.521-5.247,6.557-2.18,11.112.267,17.454,1.6,6.587,1.384,13.249,2.439,19.867,3.666,13.737,2.546,31.294,9.907,45.156,7.286,12.125-2.292,23.35-9.3,34.015-15.14,13.714-7.512,28.728-5.609,42.881-11.457,28.4-11.735,54.688-25.8,81.043-41.495,11.586-6.9,21.065-16.659,30.789-25.9,10.161-9.655,17.6-21.92,28.906-30.329,10.448-7.774,20.1-15.239,33.2-8.32,12.585,6.643,20.248,16.765,30.276,26.387,20.372,19.545,48.466,18.643,74.273,14.762,14.01-2.107,27.4-6.659,41.515-8.337,14.267-1.7,26.5,4.514,38.528,11.606,11.266,6.656,25.832,13.506,33.526,24.376,8.794,12.428,14.6,24.64,19.719,38.853,4.946,13.74,7.965,27.94,14.783,40.957a296.688,296.688,0,0,1,18.044,42.226c6.036,17.664,6.729,38.234-8.094,52.138-5.691,5.338-12,11.451-16.174,18.075-3.537,5.616-10.778,17.846-10.69,24.582.264,20.342,5.087,37.628,14.256,55.779" transform="translate(65.321 6.582)" fill="none" stroke="rgba(73,61,124,0.4)" stroke-miterlimit="10" stroke-width="0.703"/><path d="M29.373,444.514c12.077-.207,25.175,3.868,33.54-7.612,7.06-9.689,5.47-25.322,4.157-36.569-.678-5.8-1.823-11.567-1.9-17.426-.094-7.084,2.464-13.923,2.162-21.018-.5-11.953-9.045-21.26-15-30.627-6.058-9.526-8.819-20.921-19.587-26.326-10.888-5.464-20.833-12.721-31.256-18.979" transform="translate(0.575 161.131)" fill="none" stroke="#a6a6a6" stroke-miterlimit="10" stroke-width="0.703"/><path d="M918.557,426.951c-11.148-5.76-20.427-16.07-23.962-27.976-1.929-6.494-6.155-11.177-6.974-18.13a71.725,71.725,0,0,1,.392-20.977c.75-4.206,12.185-7.721,15.4-9.277a95.314,95.314,0,0,1,20.914-7.561c13.186-2.916,32.326-6.754,44.949-.629,5.911,2.867,10.944,7.212,15.72,11.65,5.467,5.081,5.194,7.11,6.868,14,1.575,6.475,4.5,13.7.808,19.879-3.134,5.252-3.936,11.523-6.745,16.944-12.205,23.543-43.426,34.461-67.371,22.081C910.48,422.777,925.947,430.772,918.557,426.951Z" transform="translate(504.117 191.369)" fill="none" stroke="#a6a6a6" stroke-miterlimit="10" stroke-width="0.703"/><path d="M1374.658,326.845c-10.905-7.969,6.4-16.778,12.853-20.383,10.345-5.779,25.084-.9,28.183,11.371,2.315,9.169-5.465,20.568-13.992,23.532C1390.521,345.254,1382.4,332.5,1374.658,326.845Z" transform="translate(779.384 171.415)" fill="none" stroke="#a6a6a6" stroke-miterlimit="10" stroke-width="0.703"/><path d="M982.6,294.725c-4.9-2.761-7.954-7.7-11.528-11.854a156.142,156.142,0,0,0-15.721-15.327c-10.982-9.592-21.512-19.405-33.882-27.179-10.834-6.808-20.031-16.116-23.953-28.9-4.091-13.341,4.863-29.945,10.163-41.859,5.669-12.75,14.094-23.338,21.758-34.921,8.072-12.188,15.82-24.654,24.075-36.772,13.8-20.257,34.656-47.492,60.665-51.239,14.386-2.074,23.976,4.282,35.945,10.932,11.54,6.409,20.605,17.071,34.119,19.465a63.856,63.856,0,0,0,21.213.223c7.012-1.208,13.636-4.483,20.842-4.577a71.205,71.205,0,0,1,21.09,3.277c7.884,2.339,10.758,8.96,14.877,15.589,7.018,11.294,10.223,24.29,5.452,37.178-5.667,15.311-19.833,15.7-33.513,12.579-13.222-3.013-28.222-5.821-40.122,2.125-5.486,3.663-10.215,8.311-15.566,12.154-4.091,2.929-6.907,17.7-8.042,22.527-3.392,14.406-.56,30.693-2.13,45.534-1.642,15.534-1.692,30.133-8.288,44.607-3.2,7.009-4.952,10.913-11.2,15.445a123.577,123.577,0,0,1-20.7,12.6c-15.958,7.374-30.1,7.1-45.547-1.6Z" transform="translate(509.484 24.842)" fill="none" stroke="rgba(73,61,124,0.38)" stroke-miterlimit="10" stroke-width="0.703"/><path d="M135.274,764.145c4.7-16-8.756-28.861-19.123-38.968-9.7-9.456-20.265-15.231-27.655-26.922-2.309-3.652-9.73-11.385-7.046-15.884,3.906-6.546,7.9-13.191,12.314-19.407,7.655-10.775,18.758-20.732,28.427-29.719,13.132-12.207,14.444-22.651,14.4-39.907-.039-13.871,5.79-29.39,13.873-40.518,2.933-4.038,8.107-8.8,9.987-13.427,2.717-6.678-4.334-15.653-6.274-21.744-3.989-12.554-1.719-28.292,1.253-40.8,2.935-12.343,12.671-30.2,24.505-36.378a177.516,177.516,0,0,0,35.082-24c4.761-4.187,9.987-7.893,12.439-13.964,3.06-7.578,4.99-15.776,7.705-23.507,4.353-12.392,12.892-23.454,16.477-35.89,4.2-14.585,4.916-29.612,5.31-44.649.372-14.166,5.186-27.805,6.348-41.95,1.311-15.964-3.762-30.033-7.3-45.35-3.095-13.41-7.983-25.791-13.242-38.472-5.688-13.713-16.058-24.544-23.716-36.944C205.2,113.337,194.949,76.909,203.9,51.011c3.754-10.858,15.65-22.886,25.779-28.047,11.846-6.042,29.777-13.382,43.244-11.145,11.708,1.945,25.656,7.849,36.226,13.211,13.5,6.849,29.606,9.1,44.635,8.3,27.484-1.451,61.129-5.385,83.333,14.882,5.233,4.776,10.922,8.949,16.529,13.271,5.266,4.058,9.537,9.683,14.969,13.142,12.1,7.7,21.713,14.085,34.623,3.912C513.685,70.305,523.062,64.3,535.748,59.7c14.376-5.224,29.879-8,45.189-7.123,13.209.756,28.906,4.143,39.663,12.215,11.456,8.6,21.325,19.368,32.558,28.334C664.032,101.8,675.01,111.135,686.469,119c12.918,8.872,26.2,15.583,39.592,23.394,12.276,7.161,26.14,15.478,40.115,18.618,6.643,1.493,12.367,4.585,18.654,7.051,8.129,3.18,16.714,5.184,24.55,9.1,26.2,13.085,22.483,50.881,20.623,75.473-.974,12.877.187,28.853-9.865,38.5-8.98,8.615-21.507,20.659-33.385,24.806-13.308,4.642-27.915,5.986-41.788,8.049-15.536,2.311-29.374,7.275-45.288,6.645-6.568-.26-11.089-.42-15.917,4.2-5.526,5.283-10.93,10.7-16.1,16.332-10.141,11.043-8.334,29.136-7.58,43.369.671,12.69,3.349,28.1,11.791,38.229,8.961,10.754,20.246,20.318,31.736,28.245,11.313,7.8,22.5,15.788,33.816,23.583,12.332,8.5,26.632,13.824,39.1,22.3,18.048,12.267,54.718,35.786,70.533,8.605,5.829-10.019,10.886-20.555,20.549-27.451,12.615-9,24.331-14.034,39.8-16.014a85.025,85.025,0,0,1,41.7,4.743c13.162,4.99,28.317,4.61,40.812,10.872,13.432,6.731,21.418,10.27,36.536,5.393,15.14-4.885,29.085-11.314,45.126-12.394,13.647-.916,25.819-7.311,38.263-12.726a259.63,259.63,0,0,0,42.06-22.737c11.763-7.906,23.975-14.632,34.436-24.241,11.556-10.616,22.149-21.788,33.06-33.04,4.635-4.781,8.938-7.779,14.351-11.327,4.723-3.1,7.862-8.165,12.836-10.919,5.089-2.817,10.538-.8,15.012,2.193,4.264,2.852,11.063,6.124,14.573,9.616,10.206,10.177,18.6,21.744,30.753,29.633,14.185,9.212,26.172,12.483,43.079,11.915,14.467-.485,28.077-4.568,41.74-8.94,14.883-4.762,29.189-9.4,44.048-2.336,11.882,5.65,20.071,14.892,31.23,21.617,13.441,8.1,22.19,17.8,30.107,31.062,7.188,12.031,11.177,24.98,15.557,38.243,4.791,14.5,10.527,28.036,16.612,42.026,10.626,24.427,29.39,56.535,9.606,81.413-7.678,9.658-16.721,17.3-23.73,27.583-9.037,13.26-11.589,25.236-8.755,41.124,2.552,14.287,10.083,27.856,16.98,40.436" transform="translate(45.715 5.017)" fill="none" stroke="rgba(73,61,124,0.4)" stroke-miterlimit="10" stroke-width="0.703"/><path d="M26.756,463.676c15.423,2.281,30.064,8.124,45.567,10.734a91.726,91.726,0,0,1,20.262,6.052c2.367,1,6.063,1.954,7.7,4.113.877,1.159,1.733,3.6,3.578,3.58,12.064-.157.464-32.1-1.867-37.3C89.148,422.225,89.061,392,85.21,361.358c-.88-6.988-1.282-14.045-2.642-20.968-1.324-6.74-5.42-10.621-10.052-15.438C61.948,313.96,49.995,308.279,37.251,300.2,25.207,292.575,12.643,287.319.315,280.42" transform="translate(-0.092 157.983)" fill="none" stroke="#a6a6a6" stroke-miterlimit="10" stroke-width="0.703"/><path d="M618.02,428.971c8.271.565,16.394-1.6,24.384-3.4,3.484-.786,3.371-16.966,3.509-19.918.8-17.175-15.18-22.409-23.683-34.994-9.98-14.772-21.669,11.175-22.436,19.175-.761,7.956,1.282,15.145,5.266,22,2.235,3.846,7.84,16.8,12.96,17.145C626.208,429.529,615.424,428.8,618.02,428.971Z" transform="translate(340.694 206.754)" fill="none" stroke="#a6a6a6" stroke-miterlimit="10" stroke-width="0.703"/><path d="M914.264,415.559c9.711,4.185,20.4,6.841,30.856,3.969,8.453-2.321,20.77-6.9,25.023-15.194,5.192-10.13,10.538-19.962,8.98-31.747-1.385-10.491-5.768-22.356-16.886-25.489-11.139-3.134-23.743-2.482-35.016-.409-9.423,1.732-22.8,3.305-27.835,12.423C889.731,376.584,893.806,406.742,914.264,415.559Z" transform="translate(508.305 194.671)" fill="none" stroke="#a6a6a6" stroke-miterlimit="10" stroke-width="0.703"/><path d="M1387.472,370.616a76.344,76.344,0,0,1-16.783-9.151c-4.789-3.652-7.812-9.707-11.66-14.281-7.937-9.429-13.813-27.854-6.361-39.181,6.538-9.942,18.917-14.1,25.382-23.645,3.226-4.764,5.474-8.213,11.772-8.05,4.736.124,19.79,3,22.118,7.682,5.213,10.488,10.528,24,19.707,31.744,10.543,8.9,19.024,21.719,21.453,35.451,2.287,12.936-8.1,23.819-19.948,27.3-15.51,4.563-31.6-1.929-45.68-7.873Z" transform="translate(766.934 155.641)" fill="none" stroke="#a6a6a6" stroke-miterlimit="10" stroke-width="0.703"/><path d="M627.311,256.155c-5.308-3.2-6.932-18.394-7.244-24.038-.417-7.544,8-14.008,11.683-20.392,3.925-6.8,10.828-16.944,19.175-18.5,7.948-1.479,24.141.045,29.106,7.4,9.454,14,13.539,46.4,1.189,59.683-6.588,7.082-19.973,10.493-29.306,8.979-9.409-1.522-16.712-8.373-24.6-13.129C626.162,255.46,635.272,260.954,627.311,256.155Z" transform="translate(352.303 108.113)" fill="none" stroke="#a6a6a6" stroke-miterlimit="10" stroke-width="0.703"/><path d="M1010.686,312.843c-6.039.078-11.187-3.718-16.734-5.511-6.714-2.166-10-4.025-15.073-9.3-10.536-10.958-20.668-21.371-32.273-31.259a256.635,256.635,0,0,0-34.565-24.761c-4.26-2.56-10.586-2.376-13.648-6.772a46.039,46.039,0,0,1-7.772-21.131c-1.565-14.152,5.879-29.529,11.95-41.931,6.78-13.853,17.285-24.577,24.753-37.917,6.605-11.8,12.985-22.952,20.643-34.16,9.411-13.776,21.044-25.238,32.817-37.045,8.446-8.434,21.5-17.281,33.189-19.9,16.817-3.771,27.837,3.89,42.211,10.9,11.948,5.821,21.766,14.391,34.981,16.822,6.646,1.222,13.689,1.842,20.268-.045,7.446-2.135,13.843-5.3,21.8-4.88,15.189.794,26.127,7.059,35.021,19.118,9.253,12.547,13.121,25.214,13.254,40.571.074,8.463-.493,10.938-6.6,16.491-4.439,4.034-8.859,8.289-14.215,11.106-12.013,6.32-27.666-2.279-40.469-3.18-9.277-.651-17.267.282-24.058,7.1-6.263,6.287-15.239,17.685-16.061,26.839-.838,9.3-.058,18.656-.964,27.959-1.026,10.541-2.643,20.861-2.794,31.478-.223,15.681-2.334,42.48-17.016,52.179-7.3,4.828-16.205,5.983-24.317,8.841C1027.668,307.036,1018.454,312.743,1010.686,312.843Z" transform="translate(506.033 22.505)" fill="none" stroke="rgba(73,61,124,0.38)" stroke-miterlimit="10" stroke-width="0.703"/><path d="M148.169,539.152c-1.471-12.116-7.293-28.343-18.21-34.976-11.115-6.751-19.9-21.081-26.761-31.83-7.758-12.158-11.793-27.3-20.957-38.494-7.485-9.143-22.775-14.436-33.518-18.558-14.4-5.525-26.866-9.619-42.561-7.793" transform="translate(3.232 229.993)" fill="none" stroke="#a6a6a6" stroke-miterlimit="10" stroke-width="0.703"/><path d="M.173,427c12.634,7.164,27.547,10.356,39.808,17.92,13.12,8.1,27,15.965,42.128,19.656,10.111,2.467,15.451,24.665,16.707,33.449.991,6.925.863,14.041,2.5,20.869,1.818,7.587,7.589,13.7,10.292,20.976,5.172,13.923,6.354,27.285,7.522,41.888,1.191,14.889,8.671,22.827,24.157,21.813,14.439-.944,10.105-11.274,14.7-21.683,5.74-13.013,13.484-23.567,21.39-35.217,16.679-24.577-1.547-58.436,10.478-84.243,5.972-12.816,16.188-22.75,27.333-30.994,5.236-3.873,10.674-7.523,15.845-11.476,5.926-4.529,8.7-10.6,12.612-16.709,3.569-5.572,9.093-9.547,13.178-14.737q6.664-8.471,12.607-17.474c3.244-4.933,5.476-11.311,8.751-16.524a70.924,70.924,0,0,0,9.746-22.784c3.1-14.047,3.189-28.174,4.205-42.441,1.074-15.054,5.095-33.7.858-48.423-3.923-13.633-4.638-28.207-7.807-42.044a172.391,172.391,0,0,0-6.171-21c-3.005-8.165-7.948-14.21-12.373-21.539-14.94-24.737-25.39-50.106-27.915-79.168-1.142-13.154,1.206-26.092,9.225-36.328,4.358-5.561,8.94-10.943,13.631-16.224,3.7-4.171,15.374-6.566,20.588-8.507,12.9-4.806,27.153-10.006,40.786-5.431,13.12,4.4,26.252,11.158,39.7,14.311,14.343,3.371,27.145,5.6,41.935,4.689,15.181-.932,30.516-1.624,45.562,1.065,11.838,2.114,26.234,7.89,35.772,15.4,11.424,9.007,20.361,19.382,35.124,22.425,3.906.8,11.967,6.676,15.405,4.251,5.768-4.069,11.776-5.026,18.555-6.9,15.482-4.274,29.153-12.108,45.228-14.841a98.339,98.339,0,0,1,42.207,1.609c15.58,4.216,26.51,12.292,38.466,22.643,22.348,19.358,45.766,39,71.1,54.359,10.483,6.356,22.618,10.008,33.583,15.542A178.722,178.722,0,0,0,830.6,160.353c12.93,2.863,24.707,4.583,37.234,9.2,5.2,1.917,12.594,4.441,14.447,10.287,2.18,6.883,3.4,14.547,4.827,21.631,2.8,13.965-.089,28.215,3.338,41.983,3.446,13.845,10.783,30.679,6.93,45.034-3.454,12.866-11.3,22.734-20.623,31.716-4.776,4.6-9.667,9.133-13.793,14.348-3.959,5-1.038,10.684-8.814,12.387-6.963,1.525-14.1-.215-21.121-.025-8.14.22-16.284.185-24.425.317s-16.281.579-24.425.475-16.276-2.009-24.445-1.087c-13.114,1.482-27,4.424-33.09,17.064-7.159,14.856-7.636,25.035-.568,39.962,5.583,11.788,7.131,24.51,18.679,32.075,5.385,3.529,11.168,6.455,16.271,10.408,6.544,5.065,10.775,11.636,18.257,15.664,24.364,13.115,54.2,37.451,83.708,31.36,7.267-1.5,14.017-4.732,20.7-7.846,4.282-2,8.461-12.685,10.925-16.64,3.445-5.529,7.454-11.034,9.278-17.344,2.113-7.31,8.557-9.365,15.441-11.067,12.028-2.973,27.962-6.221,39.914-1.7,5.762,2.18,10.557,6.2,16.044,8.91,7.608,3.76,15.012,2.279,23.1,1.667,8-.607,11.355,3.192,18.337,5.639,6.681,2.344,12.588,2.242,18.758,6.3,13.225,8.707,23.463,15.4,39.989,15.478,14.085.064,27.666-5.573,41.888-6.276,15.25-.753,30.339-6.411,43.975-13.035,12.877-6.257,24.375-13.823,36.246-21.79,13.121-8.8,26.381-16.409,37.741-27.539,10.684-10.467,22.447-20.274,31.91-31.918a67.324,67.324,0,0,1,14.143-12.775c3.222-2.271,12.149-10.985,15.9-11.034,3.352-.044,10.458,5.642,13.54,7.266,5.275,2.781,11.269,5.743,14.443,11.016,6.894,11.457,17.57,23.506,28.758,31.032,12.6,8.458,22.742,13.161,38.266,13.412,16.056.259,30.554-3.923,45.291-9.879,6.26-2.53,13.126-3.269,19.238-5.991,6.264-2.791,11.307-5.506,18.229-2.985,5.278,1.923,11.131,3.7,16.224,6.019,6.984,3.18,12.682,11.234,17.922,16.626,10.038,10.333,22.59,18.9,33.631,28.257,4.1,3.473,7.049,11.269,9.671,15.959a118.424,118.424,0,0,1,9.685,23.087c4.331,14.006,8.378,28.35,14.052,41.876,5.77,13.752,14.726,27.42,19.137,41.59,4.56,14.66,8.615,26.408,5.366,41.945-2.671,12.778-15.677,24.7-25.02,33.6-9.584,9.134-16.822,19.594-18.019,33.071-1.365,15.36,3.977,31.2,11.522,44.458" transform="translate(-0.173 3.57)" fill="none" stroke="rgba(73,61,124,0.4)" stroke-miterlimit="10" stroke-width="0.703"/><path d="M911.138,404.349c7.991,2.311,15.987,6.049,24.5,5.468,7.429-.505,18.907-5.409,22.215-12.543,3.454-7.445,8.078-15.6,7.032-24.028-.87-7.013-3.253-18.833-11.225-20.745-13.453-3.225-35.344-4.016-45.336,7.591-5.824,6.765-10.37,14.714-7.94,23.881,1.183,4.461,5.9,18.972,10.753,20.376C919.179,406.674,910.009,404.023,911.138,404.349Z" transform="translate(511.326 197.79)" fill="none" stroke="#a6a6a6" stroke-miterlimit="10" stroke-width="0.703"/><path d="M1421.932,427.888c-13.067-1.751-25.658-8.894-36.827-15.416-11.225-6.557-28.345-10.347-34.1-22.7-2.728-5.854-7.1-8.339-11.7-12.5-4.8-4.337-6.317-12-6.986-18.158-1.511-13.862,5.386-29.266,14.924-39.06,5.094-5.233,10.333-10.322,15.39-15.589,4.114-4.284,6.823-9.762,11.594-13.211,12.736-9.208,26.847-16.072,39.673-25.11,6.052-4.263,12.27-8.268,18.383-12.442,5.379-3.672,9.346-8.557,14.646-12.2,12.229-8.409,24.607-17.614,38.751-22.29,27.65-9.142,58.645-3.517,86.586.234,14.1,1.893-3.249,16.836-6.171,21.667-6.924,11.456-17.275,21.514-30.091,26.93-5.418,2.289-12.42,5.738-18.34,6.138-6.976.472-13.969-.077-20.947.265-14.069.69-26.831,1.592-37.667,11.57-24.45,22.521.41,50.921,10.856,73.15,3.694,7.856,5.785,17.368,7.925,25.761,2.524,9.9.08,16.758-5.452,24.965-11.084,16.444-31.539,20.529-50.439,18C1414.538,426.9,1430,428.967,1421.932,427.888Z" transform="translate(757.19 120.364)" fill="none" stroke="#a6a6a6" stroke-miterlimit="10" stroke-width="0.703"/><path d="M597.984,294.55c-4.766-1.44-13.564-6.682-11.1-12.987,2.08-5.318,9.765-7.46,12.789-12.69,4.695-8.118,5.663-16.665,7.308-25.678,1.68-9.2,5.986-13.018,12.518-19.065,6.136-5.682,8.251-13.6,15.876-17.936a209.2,209.2,0,0,0,22.809-14.718c2.627-1.973,8.2-7.945,11.647-7.991,3.972-.05,8.16,1.427,12.149,1.765,9.787.828,16.143,4.792,22.58,12.16,11.361,13,17.181,28.684,18.522,45.8.7,8.924.922,17.837-3.274,26-3.763,7.305-9.848,13.569-14.932,19.97-11.677,14.7-34.31,10.83-51.019,9.267-9.391-.878-18.579-2.824-27.932-3.887C616.731,293.505,606.938,297.253,597.984,294.55Z" transform="translate(333.2 102.863)" fill="none" stroke="#a6a6a6" stroke-miterlimit="10" stroke-width="0.703"/><path d="M989.994,319c-3.906-1.732-6.019-9.186-8.9-12.347-5.159-5.655-10.75-10.9-15.906-16.558-9.536-10.467-19.489-20.94-32.366-27.377-6.041-3.02-11.057-7.7-16.994-10.908-6.836-3.694-14.044-6.621-21.079-9.9-6.792-3.165-8.2-3.479-9.6-11.341-1.382-7.76-1.922-16.067.232-23.738,3.942-14.038,10.152-26.872,17.366-39.5,7.4-12.951,17.485-23.947,24.215-37.277,12.755-25.267,28.71-45.774,49.579-64.889,9.953-9.12,22.532-17.625,34.273-24.234,4.66-2.626,15.443-1.906,20.817-2.26,7.587-.5,14.787,3.928,21.55,6.979,11.749,5.3,24.084,15.972,37.1,17.307,6.14.629,12.439,2.974,18.582,2.894,7.038-.091,14.251-4.5,21.3-5.511,27.785-3.976,49.085,20.969,58.034,44.2,4.742,12.3,6.615,27.761,1.266,40.116-5.685,13.136-18.979,22.387-33.966,20.988-11.278-1.053-22.138-4.726-33.559-5.49-12.25-.819-20.364,7.495-26.047,17.507-6.858,12.08-5.3,23.495-7.049,36.739a324.13,324.13,0,0,0-2.527,40.828,154.078,154.078,0,0,1-3.832,34.974c-1.275,5.31-2.826,10.649-5.588,15.405-3.382,5.826-7.758,5.286-13.689,6.549-12.469,2.651-24.414,3.478-36.477,7.965A48.411,48.411,0,0,1,989.994,319Z" transform="translate(502.349 20.5)" fill="none" stroke="rgba(73,61,124,0.38)" stroke-miterlimit="10" stroke-width="0.703"/><path d="M115.748,515.209c-1.2-5.271-2.806-11.732-6.042-16.166-3.556-4.872-8.194-8.605-11.6-13.7-7.28-10.9-12.22-23.073-18.58-34.492-4.674-8.392-18.012-23.048-27.517-25.793-11.849-3.41-23.034-7.841-35.03-2.248-11.493,5.36-11.5,17-10.772,28.075.847,12.878,5.285,24.993,6.05,37.942.82,13.879.7,28.566-2.376,42.182" transform="translate(3.109 237.432)" fill="none" stroke="#a6a6a6" stroke-miterlimit="10" stroke-width="0.703"/><path d="M1575.288,745.26c-7.021-14.254-15.211-27.269-20.572-42.3-3.774-10.58-3.953-30.179,4.025-39.037,10.576-11.738,21.91-22.9,32.823-34.321,21.11-22.094-.025-59.033-10.809-81.234-13.147-27.065-18.5-56.753-30.612-84.235-5.658-12.831-12.665-22.336-23.878-30.867-10.812-8.229-18.771-18.649-28.61-27.94-6.954-6.566-8.593-21.216-18.744-23.336-12.8-2.675-28.852,5.8-39.827,11.437-13.346,6.853-25.683,13.46-40.637,16.038-12.441,2.143-32.288,2.715-43.04-5.184-11.076-8.141-22.64-17.368-30.776-28.55-4.215-5.793-8.042-11.851-12.141-17.722-3.42-4.905-9.743-8.6-14.53-12.293-10.469-8.088-17.958-4.642-26.29,4.041-3.914,4.077-8.729,6.842-12.541,10.987-5.7,6.2-11.054,12.706-16.7,18.952-19.694,21.761-43.214,36.513-66.836,53.352-10.769,7.677-24.6,17.534-37.674,20.42-15.448,3.41-30.15,5.385-46.041,4.98-7.01-.179-14-.753-20.969-1.522-7.565-.835-8.733-8.973-11.257-15.349-5.647-14.279-11.043-30.067-7.693-45.488,2.932-13.5,7.474-28.044,6.025-41.984-1.594-15.278-7.114-31.016-12.858-45.179-4.494-11.081-17.452-19.427-24.635-28.845-8.731-11.445-30.285-9.071-41.173-3.068-10.238,5.647-60.026,40.682-64.9,18.367-2.841-12.98-8.96-24.737-14.6-36.761-2.846-6.061-6.188-12.072-8.643-18.3-2.758-6.993-.706-16.321-.864-23.67-.3-13.542-3.445-26.914-4.136-40.467-.744-14.565-11.005-20.938-25.013-20.463-14.417.493-27.594,1.325-41.968-1.315-15.346-2.813-27.821-9.366-42.229-14.449-13.86-4.893-28.321-9.65-40.266-18.422-11.9-8.74-24.1-16.563-35.694-25.845C677.51,76.879,656.71,54.156,625.959,48.04c-30.969-6.158-58.415,6.568-87.038,16.094-14.077,4.685-28.966,1.365-41.2-6.946-5.079-3.453-9.095-8.183-14.237-11.6-6.238-4.144-13.154-7.416-19.882-10.681-12.883-6.249-26.748-9.106-41.041-9.47-16.442-.417-34.983,4.042-51.012-.282C357.193,21.285,342.974,18,328.742,13.511c-15.531-4.9-25.462-9.813-42.026-5.048a305.574,305.574,0,0,0-40.486,14.3c-13.6,6.1-18.695,21.2-20.877,34.847-4.841,30.246,4.268,60.53,17.922,87.146,6.491,12.652,13.915,24.378,17.564,38.147,3.958,14.94,7.616,29.994,10.1,45.256a210.049,210.049,0,0,1,2.347,45.4c-.383,7-1.233,13.965-1.58,20.968-.4,8.143.772,16.369-.69,24.452-5.6,31.013-29.907,50.07-48.1,73.959-5.187,6.812-9.079,14.5-15.1,20.676-6.852,7.038-15.741,11.542-23.045,18.069-8.248,7.371-13.081,15.545-18.006,25.283a25.507,25.507,0,0,1-6.413,8.505c-3.1,2.769-1.9,11.826-1.895,15.569.036,15.507,2.609,46.718-18.43,51.132-7.943,1.664-20.721-3.57-26.461-9.109-6.765-6.535-3.669-19.074-4.354-27.4-.685-8.312-2.709-17.462-6.312-25.005-4.08-8.538-14.745-11.3-23.084-14.122C59.841,449.763,39.613,443.1,20.07,435.161" transform="translate(11.141 2.24)" fill="none" stroke="rgba(73,61,124,0.4)" stroke-miterlimit="10" stroke-width="0.703"/><path d="M931.95,396.289c-4.05.458-14.309-1.675-17.468-4.05-3.881-2.918-5.329-9.776-7.518-14.263-4.585-9.4,16.985-19.6,23.859-21.394C938.8,354.5,947.309,364.9,947.71,374.7c.194,4.758-2.778,11.3-5.457,15.043C940.821,391.738,935.717,395.862,931.95,396.289Z" transform="translate(515.086 201.138)" fill="none" stroke="#a6a6a6" stroke-miterlimit="10" stroke-width="0.703"/><path d="M1309.554,357.375c-.59,3.06,2.973,6.6,6.068,15.506,2.64,7.6,10.077,11.82,16.254,16.278,14.521,10.48,23.951,22.916,41.534,29.087,16.732,5.874,30.124,17.831,47.3,22.39,18.965,5.035,38.38,2.835,56.221-5.081a47.875,47.875,0,0,0,26.963-32.312c3.343-12.991-4.709-29.412-8.8-41.626-4.1-12.237-13.126-27.979-7.565-40.787,4.831-11.128,13.084-23.151,25.722-24.254,14.96-1.3,31.52-2.869,44.29-11.843,10.878-7.642,20.494-18.372,30.352-27.289,5.757-5.208,10.21-11.2,15.415-16.891,3.327-3.631,8.484-5.2,11.465-9.184,7.2-9.622-9.518-22.478-17.591-23.863-14.84-2.547-32.191-.747-47.245-.682-14.76.064-30.1-.656-44.778.99-8.246.924-16.215,3.357-24.37,4.792-6.974,1.227-14.179.842-21.054,2.684-6.445,1.727-11.493,5.851-16.4,10.174-3.266,2.877-7.219,8.758-11.1,10.588-6.808,3.216-14.406,4.058-21.4,6.758-5.726,2.21-9.71,6.284-14.347,10.108-4.922,4.061-10.794,6.256-15.508,10.668-5.355,5.012-10.229,10.5-15.173,15.909-10.787,11.813-21.106,23.936-32.684,35.106-4.8,4.632-9.967,8.976-13.932,14.389-3.539,4.831-5.136,10.7-7.7,16.036C1309.186,348.33,1310.144,354.313,1309.554,357.375Z" transform="translate(744.331 115.748)" fill="none" stroke="#a6a6a6" stroke-miterlimit="10" stroke-width="0.703"/><path d="M564.841,332.97C553.6,332.519,544,315.078,534.9,309.52c-5.518-3.369-10.767-6.162-14.99-11.178-4.938-5.868-12.82-7.456-19.818-9.718-12.673-4.1-22.2-15.128-25.216-28.452-3.107-13.752,12.246-25.147,24.775-20.954,12,4.017,27.976,10.074,36.243,19.8,8.58,10.1,25.981,9.4,36.133,18.654q8.643,7.868,16.734,16.314c6.086,6.339,7.368,9.143,5.6,18.4-.585,3.054-1.581,14.9-5.153,15.8-8,2.033-15.984,5.115-24.37,4.783C560.739,332.806,573.113,333.3,564.841,332.97Z" transform="translate(269.524 134.055)" fill="none" stroke="#a6a6a6" stroke-miterlimit="10" stroke-width="0.703"/><path d="M995.427,334.744c-9.567-5.214-10.734-18.411-17.879-25.947-10.687-11.274-18.64-24.853-31.758-33.7a156.4,156.4,0,0,0-35.2-17.707c-9.373-3.256-27.227-7.543-33.456-16.025-6.806-9.271,2.413-27.923,5.868-37.245,5-13.478,12.635-26.329,20.287-38.483,7.465-11.848,15.817-22.618,21.914-35.259,6.213-12.886,13.47-28.13,23.387-38.662,9.6-10.2,20.045-20.891,31.12-29.462,11.327-8.769,25.421-22.282,39.725-25.169,15.8-3.186,26.593-.557,41.561,4.281,13.815,4.469,24,14.64,38.844,17.321,15.013,2.712,27.492-3.9,42.08-3.139a91.418,91.418,0,0,1,20.941,3.948c5.9,1.733,12.5,11.084,16.792,15.269,20.634,20.135,31.661,52.927,19.307,80.282-2.243,4.968-4.682,12.946-10.228,15.28a65.3,65.3,0,0,1-24.37,4.745c-8.375.122-16.127-3.964-24.483-4.028-8.19-.061-16.839.047-24.381,3.664-13.507,6.477-13.071,28.386-15.216,40.736-3.087,17.776-2.116,34.585-2.656,52.475-.194,6.43-.755,13.7,1.961,19.733,2.5,5.553,7.363,9.6,10.031,15.049,6.169,12.609-10.88,26.243-22.425,26.347-7.449.067-14.554-2.489-22.078-2.3a159.592,159.592,0,0,0-24.419,2.176c-7.983,1.449-15.995,3.169-23.942,4.8-6.727,1.384-14.742,4.61-21.332,1.016C987.17,330.243,1002.587,338.648,995.427,334.744Z" transform="translate(497.099 18.827)" fill="none" stroke="rgba(73,61,124,0.38)" stroke-miterlimit="10" stroke-width="0.703"/><path d="M17.63,495.594C18.443,482.608,19,469.605,20,456.63c.264-3.412-.485-12.215,3.849-13.5,5.958-1.757,11.922-3.707,18.127-4.373,9.172-.985,17.663,15.666,22.924,22.165a150.977,150.977,0,0,1,17.9,27.223c5.357,10.7,10.445,22.482,8.141,34.66" transform="translate(9.753 247.992)" fill="none" stroke="#a6a6a6" stroke-miterlimit="10" stroke-width="0.703"/><path d="M1568.562,701.845c-10.744-31.419,23.239-44.337,38.047-64.588,2.384-3.263,11.368-12.045,11.347-16.033-.042-7.043-1.393-13.981-2.414-20.925-2.082-14.144-8.761-28.773-14.571-41.769-6.1-13.641-13.762-26.983-17.271-41.575-3.4-14.143-3.584-31.893-10.419-44.8-6.207-11.724-13.782-23.239-23.032-32.7-10.657-10.9-22.077-21.311-30.7-34.017-3.637-5.36-3.244-10.492-5.114-16.4-1.379-4.361-7.619-10.34-2.061-14.041,11.5-7.661,21.851-17.085,36.445-17.227,13.791-.135,28.64,3.338,41.342,8.648,13.551,5.666,22.505,11.3,34.663-1.186,10.885-11.175,8.626-22.394.982-34.615-3.41-5.451-7.585-7.318-12.543-11.052-6.038-4.549-10.657-12.049-12.554-19.275-7.427-28.3-3.209-60.108,5.446-87.537,2.8-8.863,5.208-9.409,13.887-12.339,6.872-2.32,13.813-3.87,21.073-2.673,12.136,2,30.008,9.015,41.887,3,10.781-5.457,17.95-19.51,20.786-30.729,3.978-15.735.306-30.794-4.508-45.877-8.163-25.576-31.111-55.209-59.762-56.389-14.332-.59-27.717,4.274-42.1,2.347-15.59-2.088-27.316-10.932-41.918-15.921-14.388-4.918-27.02-7.244-42.055-3.462-13.694,3.445-25.674,13.6-36.733,21.961a371.46,371.46,0,0,0-33.841,28.265c-10.817,10.367-18.69,23.211-25.482,36.576-12.607,24.809-29.048,46.993-42.295,71.324-5.9,10.841-10.165,22.612-15.755,33.636-6.234,12.29-5.943,27.419,7.063,35.492,5.405,3.352,12.187,2.323,18.2,2.149,6.191-.18,11.385,2.121,17.385,3.318a98.688,98.688,0,0,1,40.351,18.263c9.551,7.462,18.1,20.938,23.771,31.448,6.571,12.169,13.454,20.453,3.969,33.212-2.309,3.106-4.483,10.334-7.411,12.455-5.721,4.135-12.143,7.122-18.386,10.354-6.853,3.547-13.591,7.319-20.419,10.914-7.642,4.025-14.867,5.177-23.467,6.34-12.439,1.683-28.329-.976-38.147-9.016a157.849,157.849,0,0,1-29.713-32.053c-4.093-5.794-7.31-11.434-9.247-18.278-1.418-5.015-2.965-12.4-8.817-13.9-5.6-1.437-11.575-3.158-17.244-4.19-6.538-1.192-13.685,4.944-19.307,7.849-12.037,6.218-15.97,19.054-24.847,28.709-10.408,11.321-19.951,22.841-31.683,32.908-11.013,9.451-24.077,17.264-36.284,25.07-12.342,7.893-25.435,15.139-39.874,18.433-15,3.423-27.846,1.507-42.081-3.912-11.925-4.54-20.32-21.01-22.455-33.217-2.384-13.65-.554-28.161-2.121-41.992-1.57-13.868-7.84-28.9-12.844-41.89-5.064-13.14-12.947-24.267-22.541-34.452-10.21-10.845-15.457-22.132-31.94-23.079-5.768-.333-10.314-1.453-15.714.342-6.726,2.235-13.506,4.323-20.119,6.885-13.253,5.137-21.189,15.327-35.807,6.419-3.937-2.4-12.63-6.8-14.555-11.1-2.628-5.873-5.726-11.5-8.431-17.341-6.4-13.821-6.3-29.267-7.73-44.18-.67-6.993-1.194-14.027-.016-20.993,1.161-6.861,2.508-13.192.991-20.125-3.36-15.346-12.621-19.6-27.532-17.857-13.732,1.606-27.25,5.12-41.139,4.742-14.287-.389-28.549-3.821-41.97-8.621-28.158-10.069-55.147-20.676-78.666-39.645-22.036-17.772-44.353-43.694-72.406-51.775-13.189-3.8-24.784-6.124-38.651-5.631-14.419.511-28.227,4.348-41.721,9.106-12.533,4.419-27.865,11.173-41.217,7.245-14.9-4.383-26.075-14.637-39.405-22.025-13.2-7.318-26.4-11.231-40.968-14.282-16.452-3.446-33.2-1.555-49.879-1.043-14.332.441-28.3-3.263-42-7.126C340.9,12.609,326.189,4.3,312.31,3.335c-13.567-.94-29.277,5.343-41.845,9.9q-10.6,3.847-20.83,8.6c-9.849,4.547-11.658,6.576-15.652,16.623-11.109,27.948-7.688,59.066.634,87.416,3.719,12.662,11.592,24.714,17.8,36.271,7.426,13.832,8.778,28.4,11.732,43.562,2.733,14.028,5.4,27.6,6.21,41.925.927,16.48-.844,32.5-1.341,48.906-.246,8.149.569,16.292.177,24.439-.253,5.151-5.178,11.672-7.556,16.118-6.541,12.229-16.7,22.637-25.6,33.2-18.561,22.016-39.146,42.274-59.349,62.737-4.9,4.958-9.7,6.952-15.707,10.074-5.244,2.726-7.048,8.331-11.514,11.834-12.033,9.437-30.541,4.253-42.179-2.4-15.631-8.933-33.863-10.077-51.132-14.292C38.405,433.925,22.272,427.027,5.728,419.5" transform="translate(2.986 0.373)" fill="none" stroke="rgba(73,61,124,0.38)" stroke-miterlimit="10" stroke-width="0.703"/><path d="M1108.067,470.746c-2.538-5.032-8.341-.171-10.822,2.242-4.01,3.9-7.439,5.453-12.51,7.58-5.562,2.333-6.438,8.5-7.612,13.75" transform="translate(612.203 264.958)" fill="none" stroke="#a6a6a6" stroke-miterlimit="10" stroke-width="0.703"/><path d="M1097.455,495.8c3.1-12.809,2.767-29.542-4.146-41.209-6.022-10.162-11.7-25.761-22.336-32.133-11.1-6.649-28.24-1.741-38.293,4.546-5.382,3.365-11.548,6.166-14.385,11.967-3.028,6.187-6.7,12.442-7.181,19.478-.9,13.314,6.347,28.15,13.324,39.034,4.182,6.524,8.059,13.15,11.714,19.984" transform="translate(574.625 236.942)" fill="none" stroke="#a6a6a6" stroke-miterlimit="10" stroke-width="0.703"/><path d="M1024.242,285.308c-3.787-.325-9.17-7.846-11.721-10.309q-6.586-6.355-13.012-12.872c-9.5-9.614,19.525-5.74,24.361-5.421,8.355.546,19.126,16.105,24.716,21.769,9.738,9.859-19.238,7.272-24.344,6.833Z" transform="translate(566.992 143.909)" fill="none" stroke="#a6a6a6" stroke-miterlimit="10" stroke-width="0.703"/><path d="M883.687,280.959c28.991,12.7,56.542,5.032,76.665-18.773,20.9-24.723,1.023-49.943-21.482-64.368-10.566-6.773-26.817-8.24-38.971-6.3-12.982,2.074-27.478,3.954-34.485,16.045-2.646,4.562-6.331,10.26-7.639,15.383-1.512,5.925.168,17.021.969,23.208,1.352,10.475,15.093,30.488,24.943,34.8C891.48,284.374,880.235,279.447,883.687,280.959Z" transform="translate(487.13 106.983)" fill="none" stroke="#a6a6a6" stroke-miterlimit="10" stroke-width="0.703"/><path d="M1145.53,534.621c5.33-14.287,4.264-30.426,4.866-45.412.563-13.981,11.36-19.063,18.676-29.735,7.884-11.5,22.557-19.567,27.3-32.988,4.4-12.455,4.271-25.824,18.174-31.644,14.034-5.873,28.761-10.207,42.888-16.08,4.419-1.839,11.645,2.373,15.94,3.7,5.97,1.843,11.253,4.328,15.556,8.979,8.681,9.385,13.706,23.7,23.943,31.332,9.827,7.326,11.03,25.125,10.582,36.472-.606,15.38-6.483,30.2-6.526,45.473" transform="translate(651.1 213.643)" fill="none" stroke="#a6a6a6" stroke-miterlimit="10" stroke-width="0.703"/><path d="M1081.012,493.8c4.082-21.231-5.22-46.847-23.012-58.993-7.656-5.227-15.9-7.9-24-1.965-3.636,2.663-17.605,15.245-17.547,19.711.143,10.987,5.683,24.21,10.932,33.641,2.8,5.04,5.889,9.918,8.631,14.994,2.017,3.733,2.24,9.206,6.185,11.649,7.258,4.5-3.738-2.314,0,0" transform="translate(577.705 242.73)" fill="none" stroke="#a6a6a6" stroke-miterlimit="10" stroke-width="0.703"/><path d="M1177.85,507.227c-2.094.027-2.949-2.548-4.8-3.1a79.439,79.439,0,0,0-9.889-2.039,85.58,85.58,0,0,1-20.518-6.362c-14.127-6.163-27.193-14.943-41.559-20.437-12.8-4.894-22.654-8.11-31.8-18.7-4.416-5.114-8.569-10.45-12.525-15.926-4.863-6.734-6.2-14.373-8.207-22.295-1.631-6.442-3.534-12.275-7.526-17.645-3.148-4.232-7.5-8.824-7.794-14.4-.559-10.618,15.278-21.725,25.17-19.143,9.1,2.375,17.253,13.032,26.212,3.835,3.689-3.788,5.9-8.739,9.592-12.527,5.122-5.266,9.876-10.216,14.019-16.348,7.6-11.235,14.042-26.1,13.868-39.845a137.914,137.914,0,0,0-2.031-20.982c-1.3-7.653-4.339-15.558-2.185-23.355,1.107-4.008,4.533-10.792,9.849-8.515,4.444,1.9,5.787,7.724,9.319,10.711,5.238,4.424,10.347,8.587,16.692,11.336,7.83,3.394,16.6,5.049,24.025,9.311,12.337,7.079,25.212,11.97,37.181,19.929,12.3,8.179,25.294,16.731,35.633,27.412,7.258,7.5,17.585,20.737,17.651,31.589.046,7.3-3.432,14.022-5.048,21-1.912,8.251-3.714,16.565-6.644,24.53-1.926,5.234-5.95,9.329-7.911,14.612-2.006,5.409-3.894,10.838-5.984,16.218-4.263,10.961-8.367,18.53-16.5,26.883a328.938,328.938,0,0,0-22.165,25.556c-3.329,4.184-8.4,7.142-12.853,9.964C1188.2,500.347,1181.337,507.181,1177.85,507.227Z" transform="translate(587.235 140.107)" fill="none" stroke="#a6a6a6" stroke-miterlimit="10" stroke-width="0.703"/><path d="M880.321,270.794c10.627,3.454,19.989,9.1,31.591,7.283,13.551-2.118,22.659-6.434,31.694-16.583,3.8-4.268,7.337-8.772,11.2-12.98,3.892-4.24,1.878-12.4,1.269-17.587-.442-3.776.059-10.113-3.144-12.736-4.884-4.008-9.358-8.489-14.26-12.478-17.237-14.031-47.76-12.265-64.225,2.888-9.435,8.682-13.217,21.534-10.82,34.094a37.745,37.745,0,0,0,6.654,14.649c1.876,2.668,7.115,12.481,10.042,13.451C888.471,273.443,880.11,270.723,880.321,270.794Z" transform="translate(490.404 110.061)" fill="none" stroke="#a6a6a6" stroke-miterlimit="10" stroke-width="0.703"/><path d="M1074.446,223.6c-3.312-.293-6.847-4.194-9.774-5.647-5.051-2.507-10.406-4.6-14.838-8.182-8.324-6.726-13.085-13.8-14.18-24.659-1.839-18.227,7.623-39.045,28.7-34.458,9.746,2.121,17.857,6.616,25.857,12.422,1.914,1.388,8.311,5.448,9.644,10.356,1.536,5.653,1.4,8.369,1.937,14.205.985,10.61-.543,20.965-1.8,31.476-.827,6.949-20.017,4.976-25.539,4.486Z" transform="translate(588.495 83.83)" fill="none" stroke="rgba(73,61,124,0.53)" stroke-miterlimit="10" stroke-width="0.703"/><path d="M1162.6,501.582c1.093-13.281,8.486-24.315,15.548-35.219,8.074-12.351,15.194-26.792,26.438-36.615,9.556-8.348,19.131-16.974,29.41-24.309,13.253-9.457,23.041-7.721,35.984,1.25,25.813,17.892,16.115,53.5,13.485,79.5" transform="translate(660.806 225.472)" fill="none" stroke="#a6a6a6" stroke-miterlimit="10" stroke-width="0.703"/><path d="M1060.049,494.742c-7.8.1-24.118-6.406-27.807-13.6-5-9.754-5.33-24.505-3.363-35.016,3.151-16.836,20.481,7.929,22.87,11.576,3.547,5.415,8.05,9.98,8.147,16.54C1059.922,475.939,1060.234,494.738,1060.049,494.742Z" transform="translate(584.132 248.905)" fill="none" stroke="#a6a6a6" stroke-miterlimit="10" stroke-width="0.703"/><path d="M1136.523,462.5c-3.006.039-7.211-3.023-9.992-3.97a163.967,163.967,0,0,1-17.689-6.678c-9.588-4.555-20.13-8.93-29.3-14.107-4.508-2.544-7.523-8.976-9.983-13.3-1.561-2.74-7.157-9.63-7.2-12.627-.08-6.055,8.1-22.919,13.365-26.1,3.371-2.036,8.245-1.7,10.869-4.973,3.47-4.328,4.491-9.961,6.1-15.118,3.329-10.678,7.164-23.827,14.108-32.714,6.834-8.747,10.532-19.68,16.773-28.946,3.451-5.128,7.035-10.166,10.475-15.3,1.307-1.881,11.633-2.781,14.079-3.266,12.251-2.427,22.951.629,34.982,2.515,3.376.456,9.629,7,12.458,9.068,4.937,3.6,9.79,7.31,14.734,10.9,7.565,5.49,15.546,16.629,18.725,25.41,3.922,10.838-1.554,24.212-4.91,34.621-3.79,11.757-8.213,23.357-12.364,34.991-3.983,11.165-12.514,19.589-20.033,28.681C1178.274,447.842,1158.337,462.214,1136.523,462.5Z" transform="translate(603.811 160.303)" fill="none" stroke="#a6a6a6" stroke-miterlimit="10" stroke-width="0.703"/><path d="M901.276,268.818c-7.037.091-16.968-7.821-22.223-12.041-8.427-6.769-11.245-13.826-9.495-24.561.767-4.709,2.077-9.3,3.216-13.929,1.109-4.5,8.582-7.228,12.143-9.329,9.327-5.5,18.755-8.339,29.644-6.671,18.125,2.776,33.628,16.69,30.021,36.538C941.372,256.484,917.731,268.6,901.276,268.818Z" transform="translate(493.895 113.284)" fill="none" stroke="#a6a6a6" stroke-miterlimit="10" stroke-width="0.703"/><path d="M1069.184,188.747c-4.618,3.02-13.144-4.259-15.86-6.918-1.275-1.245-11.4-9.627-8.89-17.542,1.165-3.669,20.754-3.925,26.414-.383C1075.586,166.868,1077.632,183.222,1069.184,188.747Z" transform="translate(593.388 90.298)" fill="none" stroke="rgba(73,61,124,0.53)" stroke-miterlimit="10" stroke-width="0.703"/><path d="M1174.193,502.766c-.933-12.289,6.006-26.285,11.383-37.01,6.85-13.66,15.551-23.407,26.331-34.155,3.948-3.937,5.967-7.054,11.606-8.262,6.86-1.47,13.969-2.452,20.972-1.481,9.421,1.305,13.774,23.638,14.8,30.913,1.84,13.018-1.227,27.507-.921,40.753" transform="translate(667.35 238.187)" fill="none" stroke="#a6a6a6" stroke-miterlimit="10" stroke-width="0.703"/><path d="M1100.045,431.5c-13.718-5.154-20.077-26.53-15.64-39.569,5.562-16.351,12.237-32.267,18.516-48.342a183.816,183.816,0,0,1,10.364-22.271c2.268-4.1,4.631-8.147,6.941-12.221,2.676-4.718,4.385-5.007,9.437-7.145,14.535-6.152,34.872-8.281,47.562,3.363,6.566,6.03,13.016,12.19,19.143,18.665,5.785,6.107,4.466,15.023,3.948,22.957-.527,8.085-3.361,13.523-6.726,20.811-4.3,9.319-7.588,18.881-11.313,28.425-3.213,8.224-8.645,13.346-14.221,20-4.993,5.956-11.455,16.235-19.1,19.023-7.762,2.833-16,5.358-24.369,4.725-8.77-.662-16.477-5.391-24.541-8.42Z" transform="translate(615.548 167.383)" fill="none" stroke="#a6a6a6" stroke-miterlimit="10" stroke-width="0.703"/><path d="M897.913,253.54c-9.744-1.82-25.073-7.551-23.016-20.168,2-12.249,13.338-24.985,25.929-25.244,7.076-.147,14.058,1.291,20.963,2.656,6.257,1.231,8.246,15.343,8.971,20.5,2.259,16.08-19.071,24.827-32.847,22.259Z" transform="translate(497.106 116.871)" fill="none" stroke="#a6a6a6" stroke-miterlimit="10" stroke-width="0.703"/><path d="M1198.3,499.9c-3-2.366-10.416-6.519-10.474-10.91-.063-4.875,3.608-10.351,5.614-14.61,3.752-7.962,7.548-17.933,12.6-25.153,6.246-8.925,14.423-1.222,17.721,5.763,4.54,9.62,6.267,19.465,4.488,30.028" transform="translate(675.151 251.681)" fill="none" stroke="#a6a6a6" stroke-miterlimit="10" stroke-width="0.703"/><path d="M1117.791,414.992c-9.453-2.8-20.891-10.8-22.871-21.169-2-10.453,4.664-25.859,7.854-35.725,1.9-5.875,3.917-11.725,6.129-17.492,1.346-3.506,4.469-16.983,7.678-18.7,10.734-5.782,19.707-16.188,32.853-10.223,4.721,2.143,8.849,5.346,13.316,7.937,5.457,3.167,6.808,9.064,9.087,14.816,5.628,14.2-.659,23.58-5,36.9-6.389,19.592-23.193,51.311-49.046,43.655C1108.655,412.287,1125.715,417.338,1117.791,414.992Z" transform="translate(622.114 174.743)" fill="none" stroke="#a6a6a6" stroke-miterlimit="10" stroke-width="0.703"/><path d="M889.813,229.389c.758-.009,12.1,1.713,7.969-2.246-1.437-1.377-4.159-1.3-5.961-1.305C889.488,225.827,887.165,229.424,889.813,229.389Z" transform="translate(505.025 126.947)" fill="none" stroke="#a6a6a6" stroke-miterlimit="10" stroke-width="0.703"/></g></g></svg>