<svg xmlns="http://www.w3.org/2000/svg" width="777.593" height="2361.498"><g fill="none" stroke-miterlimit="10"><path d="M222.664 1738.595c-4.253 8.235-13.611 25.926.373 29.659 10.828 2.891 25.543 7.99 36.26 2.758 25.815-12.6-30.99-43.363-36.634-32.417-3.88 7.51 1.149-2.228.001 0zm-203.233-61.528c19.228 6.6 39.2 12.279 59.686 12.023 6.833-.085 24.7-7.509 30.132-2.681 7.991 7.1-7.487 19.942-12.118 24.4-7.04 6.773-15.266 11.766-23.078 17.586-8.587 6.4-15.269 10.935-25.691 13.124" stroke="#a6a6a6" stroke-width="1.874"/><path d="M343.928 71.276c-2.256 13.884-2.428 28.028-4.477 41.973a73.934 73.934 0 007.628 44.24c12.9 24.864 35.9 46.426 56.952 64.765 10.929 9.522 22.649 17.785 34.434 26.086 5.271 3.713 10.488 7.769 16.662 9.879 7.871 2.684 16.328 1.735 24.474 2.427 30.243 2.554 60.957 3.048 90.764-3.332 13.885-2.973 28.138-3.57 40.958-10.188 13.412-6.919 27.689-14.836 42.4-18.486 28.654-7.112 59.808-9.117 87.606 2.056 14.883 5.983 18.185 16.044 23.11 30.64 4.935 14.64 9.404 29.286 11.854 44.568 2.121 13.222-5.358 26.624-8.905 39.237-4.118 14.648-9.032 30.245-9.617 45.537-.579 15.112 2.033 30.3.858 45.4s-5.349 29.067-10.856 43.068c-4.979 12.66-15.012 22.83-19.462 35.639-1.976 5.689-5.727 10.729-7.2 16.584-1.962 7.8 1.021 16.387 2.874 23.912 6.869 27.893 18.376 57.722 8.482 86.53a175.812 175.812 0 01-17.048 36.293c-8.107 13.147-19.661 24.37-29.575 36.161-37.06 44.074-62.477 106.04-45.645 163.348 4.1 13.976 8.679 26.877 19.021 37.474 10.359 10.61 23.78 18.593 36.955 25.107 5.282 2.61 11.832 4.8 16.638 8.157 3.8 2.653.874 15.391.267 19.162-1.487 9.225-3.087 8.938-12.315 9.176-8.491.218-15.509.681-22.9-3.588-12.091-6.985-26.154-14.139-35.771-24.47-9.231-9.918-24.372-17.852-37.454-21.667-14.762-4.311-27.739-5.923-43.1-3.953-17.206 2.2-28.019 9.934-40.583 21.115-6.4 5.693-9.467 6.2-6.6 14.474 2.427 7.005 4.461 14.362 7.71 21.045 6.649 13.677 12.373 22.179 5.048 37.322-5.879 12.151-16.492 19.507-26.207 28.7-10.445 9.885-24.624 20.944-37.946 26.6-11.881 5.046-22.881 11.129-35.388 14.69-14.935 4.251-30.11 7.578-45.355 10.508-6.125 1.178-13.11 1.009-17.145 6.1-3.784 4.776-7.992 9.228-11.388 14.3-8.525 12.742-6.809 29.087-2.362 43.089 4.334 13.645 11.691 26.252 19.889 37.923 8.822 12.546 16.6 25.313 28.532 35.151 10.273 8.467 20 16.439 31.685 22.819 13.175 7.189 23.829 11.307 29.686 25.939 4.121 10.294 8.535 26.745 2.638 37.11-6.146 10.806-25.934 12.718-36.619 15.158-6.541 1.492-10.869 4.293-16.044 8.35-4.742 3.718-10.59 5.82-15.065 9.9-11.492 10.469-18.863 21.586-20.549 37.459-1.515 14.273 2.841 28.276 10.21 40.373 3.241 5.319 6.6 10.4 9.074 16.121 2.4 5.561 10.535 9.749 15.568 12.657 12.748 7.363 26.391 4.8 38.767-2.265 12.982-7.407 21.686-17.238 28.663-30.158 6.588-12.2 10.925-27.6 9.154-41.545-.9-7.1-2.4-13.779-1.8-20.984.493-5.914.935-19.255 5.851-23.363 4.254-3.556 15.139-1.1 20.16-.562 6.722.723 9.854 2.809 15.835 5.788 12.775 6.364 25.233 16.542 38.445 21.521 12.105 4.562 24.045 13.943 34.652 21.264 13.023 8.985 27.132 15.978 41.183 23.169 12.587 6.439 24.532 11.711 34.75 21.788 11.261 11.1 18.9 22.7 27.939 35.525 17.209 24.4 35.079 49.1 26.207 80.47-3.663 12.952-11.965 25.385-14.27 38.43-1.23 6.96-2.764 13.91-2.98 21-.253 8.207 2.125 16.216 2.063 24.416-.11 14.654-.529 25.288-11.018 36.422-9.636 10.231-19.611 20.314-31.5 27.981-10.968 7.071-25.462 10.39-37.622 15.038-15.009 5.736-31.016 3.059-45.722-2.863-10.728-4.32-24.921-13.109-26.9-25.7-2.315-14.78 5.313-32.441 8.66-46.674 1.236-5.288-5.216-11.379-8.061-15.489-3.482-5.027-7.374-12.1-13.939-13.049-15.041-2.169-29.468-5.379-44.8-4.561a87.207 87.207 0 00-20.946 4.02c-8 2.443-10.706 3.141-15.868 9.734-9.208 11.758-15.862 23.644-28.889 31.173-12.891 7.451-22.027 2.776-33.264-5.023-6.008-4.17-9.3-6.267-13.1-12.689-3.865-6.536-8.046-13.776-6.936-21.688.927-6.609 4.786-12.326 7.468-18.295 3-6.668 5.045-13.76 7.716-20.56 3.4-8.657 7.23-35.281-5.278-37.226a64.971 64.971 0 00-21.005.028c-4.634.8-9.978 8.072-13.289 11.057-5.506 4.969-10.962 9.972-16.59 14.8-5.827 5-9.3 10.991-14.2 16.725-7.8 9.123-23.962 12.977-35.456 13.374-15.863.549-30.29.852-45.44 6.808-13.978 5.5-27.5 11.919-41.6 17.181-13.631 5.087-25.9 13.1-39.841 17.672-27.943 9.161-42.089-28.709-56.839-44.251-22.947-24.179-58.484-4.6-81.219 8.943" stroke="rgba(73,61,124,0.4)" stroke-width="1.874"/><path d="M5.347 42.794c8 .471 15.175 2.773 22.47 5.967 2.905 1.272 16.3 4.2 10.565 8.014-10.1 6.718-18.293 29.142-32.155 20.505" stroke="#a6a6a6" stroke-width="1.874"/><path d="M464.939 1491.002c2.154-4.943 10.267-10.086 14.056-13.947 4.886-4.979 9.82-9.917 14.278-15.289 4.326-5.214 9.2-9.954 13.729-14.986 4.546-5.048 7.189-12.707 12.242-17.016 5.493-4.678 12.058-7.79 18.309-11.283 5.934-3.316 7.617-2.976 14.431-1.944 15.383 2.336 26.858 6.673 40.607 14.162 11.849 6.455 22.452 15.328 33.873 22.519 12.511 7.875 25.3 15.531 37.341 24.115 11.079 7.9 20.817 19.476 29.576 29.818 8.478 10.013 6.814 29.958.111 40.21-7.672 11.735-15.757 23.259-23.569 34.923-6.527 9.746-13.945 25.184-6.238 36.488 14.205 20.834-3.324 57.626-32.717 49.237-3.812-1.087-8.944-5.748-11.421-8.869-2.536-3.2-.163-12.1.248-15.94 1.057-9.814 13.936-30.223 3.165-36.908-5.3-3.288-6.389-8.983-8.907-14.307-2.767-5.851-8-9.49-13.708-12.2a86.553 86.553 0 00-44.32-8.1c-23.932 1.958-53.085.151-73.75-12.67-11.9-7.382-17.343-16.237-21.805-29.346-4.762-13.994-1.225-25.609 4.469-38.671z" stroke="rgba(73,61,124,0.38)" stroke-width="1.874"/><path d="M150.556 1421.753c-1.642 8.085-3.8 16.18-3.738 24.494.061 8.3 2.413 16.328 4.086 24.39 2.816 13.531 21.167 25.865 33.019 31.307 14.188 6.515 31.176 10.232 45.84 2.408 13.213-7.049 23.057-24.4 23.484-39.113.474-16.37-1.785-32.306-5.038-48.295-2.772-13.62-7.261-33.724-20.536-41.419-11.432-6.627-32.066 6.8-42.21 12.276a65.313 65.313 0 00-18.756 14.541c-4.351 4.792-14.834 12.924-16.151 19.412-1.644 8.092.243-1.199 0-.001zM187.935 22.138c1.23 9.41 9.293 18.119 17.405 22.431 10.184 5.415 22.993.576 34.027 1.448 13.912 1.1 25.6-.7 38.445-6.351a85.219 85.219 0 0015.416-9.1c3.5-2.505 9.465-4.718 12.168-8.078" stroke="#a6a6a6" stroke-width="1.874"/><path d="M91.261 204.357c14.605.205 27.97 1.667 42.027 5.859 15.35 4.577 29.113 10.442 44.956 13.409 13.366 2.5 24.1 12.364 35 20.35 13.536 9.914 26.188 9.922 40.494 1.774 9.7-5.526 28.215.235 34.656 8.613 4.19 5.449 7.613 11.487 12.29 16.56 5.271 5.711 14.995 8.461 21.97 11.368 13.28 5.531 27.744 12.783 42.2 13.826 6.952.5 13.945.838 20.618 3.042 7.325 2.417 14.028 6.4 21.412 8.66 13.446 4.113 27.525 6.146 41.076 10.077 13.867 4.031 28.056-.264 41.7 5.256 28.05 11.343 57.049 8.725 85.06-1.74a172.686 172.686 0 0036.957-18.951c13.168-9.084 24.16-19.544 36.168-30.044 10.182-8.9 24.583-11.581 37.757-12.472 11.674-.791 34.37-1.489 42.05 8.447 9.394 12.154 17.964 23.281 22.6 38.135 4.256 13.647-8 26.781-13.081 38.9-5.776 13.776-8.238 27.275-8.665 42.16-.46 16.295 2.739 32.539 1.531 48.87a113.7 113.7 0 01-4.216 21.476c-1.724 6.22-8.585 12.161-12.725 16.9-10.494 12.027-21.652 20.916-34.757 30.1-4.615 3.231-7.884 3.147-10.814 8.505-3.09 5.647-6.4 11.906-6.193 18.541.334 10.889 14.847 19.539 21.26 27.31 5.053 6.128 10.318 12.088 15.501 18.115 4.994 5.81 6.425 9.821 8.53 17.142 4.089 14.221 5.357 29.965 1.9 44.483-1.263 5.293-2.391 13.5-5.975 17.779-4.66 5.556-9.608 10.864-14.547 16.171-10.543 11.326-20.012 23.666-29.283 36.053-16.844 22.508-34.7 42.93-47.5 68.108-6.569 12.921-15.777 24.117-21.645 37.462-4.861 11.054-16.1 22.389-26.47 28.891-24.262 15.209-55.735-2.855-70.557-23.3-8.416-11.608-12.693-24.889-17.809-38.2-2.34-6.092-5.44-11.874-7.533-18.066-2.706-8.011-1.816-15.467-1.319-23.719.743-12.386-4.014-28.48-13.956-36.069-10.273-7.842-26.87-18.6-40.15-19.714-15.082-1.25-30.326-2.935-45.432-3.664-14.453-.7-29.954-.784-40.742 9.824-9.895 9.73-18.014 20.889-27.882 30.656-10.571 10.461-18.232 23.84-26.951 35.906-7.885 10.911-13.83 23.027-21.672 33.979-9.349 13.059-21.413 23.805-31.01 36.756-8.08 10.888-7.694 27.859-13.473 40.263-6.905 14.823-13.718 26.215-25.885 37.424-4.772 4.4-11.959 6.389-17.656 9.7-5.97 3.468-11.852 7.084-17.725 10.715-10.93 6.759-23.369 16.925-28.913 28.9-5.438 11.746-3.3 29.079 3.875 39.548 8.434 12.317 25.377 14.957 39.275 15.115 13.824.159 25.085-3.923 38.337-6.384 10.93-2.03 29.812-8.234 39.713.066 7.937 6.652 4.427 27.416 4.961 36.753.869 15.162 6.754 28.139 14.321 41.281 3.487 6.058 7.515 11.8 10.662 18.052 3.089 6.133 3.747 12.474 5.172 19.084 3.275 15.209 10.656 28.778 16.58 43.17 11.035 26.8 24.4 53.259 43.41 75.287 9.335 10.819 17.879 20.129 29.317 28.782 9.495 7.184 23.09 20.438 20.712 33.943-2.173 12.34-12.695 23.452-20.59 32.477-9.918 11.341-17.979 22.872-20.138 38.35-4.1 29.335 10.638 57.7 8.695 86.741-1.89 28.234-18.139 55.448-41.965 70.588-24.508 15.575-56.564 16.455-82.309 29.625-13.147 6.725-23.579 13.321-38.535 15.763-15.843 2.587-28.861-7.555-40.378-17.015-11.6-9.528-21.777-16.849-36.867-20-6.96-1.453-14.215-.88-21.148.428-7.909 1.49-12.769 5.247-19.821 8.521-13.052 6.055-26.249 11.569-39.175 18.055" stroke="rgba(73,61,124,0.4)" stroke-width="1.874"/><path d="M277.124 442.339c-.061-4.7 6.444-6.613 9.162-9.407 3.82-3.92 8.758-6.616 12.281-10.844 4-4.792 4.006-10.67 3.231-16.56a61.847 61.847 0 01.971-23.042c.916-4 1.865-15.115 7.1-15.476 6.979-.488 13.97.036 20.954-.155 7.075-.193 13.909-1.765 20.9-2.676 8.345-1.089 16.234.3 24.47 1.506 7.749 1.139 15.493.894 23.3.714 6.083-.141 14.626-1.914 19.578 2.4 4.094 3.561 6.736 8.5 11.013 11.875 5.675 4.472 13.622 5.683 20.485 7.131 6.893 1.453 23.38.941 10.152 9.738-9.943 6.612-19.705 14.726-20.637 27.31-.417 5.655.177 12.836 3.493 17.656 3.126 4.546 8.488 6.819 12.342 10.623 4.417 4.359 4.5 12.494 6.471 18.2 2.767 8 5.376 15.823 5.611 24.369.191 7-.621 14.008-.116 21.005.5 6.93 1.954 14.067.158 20.936-1.288 4.929-8.267 8.485-11.655 11.962-5.694 5.843-11.329 11.727-17.28 17.31-9.452 8.867-13.87 24.489-20.4 35.655-3.55 6.064-4.56 10.6-11.918 10.963-8.681.425-18.038 1.01-26.613-.679-14.18-2.794-25.151-9.117-36.9-17.314-6.736-4.7-9.471-5.634-9.683-14.223-.2-8.129.035-16.354.26-24.482.392-14.075-3.106-24.811-6.231-38.27-2.441-10.519 4.082-23.47-3.774-32.411-7.054-8.028-16.792-14.646-24.525-22.18l-12.792-12.464c-2.794-2.728-9.346-4.474-9.408-9.17z" stroke="rgba(73,61,124,0.51)" stroke-width="1.874"/><path d="M13.886 644.917c13.311 3.5 27-.041 39.109 7.727 5.238 3.36 10.2 7.5 16.273 9.28 7.978 2.336 16.336.083 24.456.919 3.851.4 8.184 10.922 9.976 13.859 3.642 5.97 7.247 11.991 10.519 18.174 2.853 5.393 4.343 10.709 6.527 16.274 2.45 6.249 10.216 12.27 15.081 16.671 4.566 4.132 7.669 6.976 13.746 7.794 5.095.685 7.617 9.209 9.073 13.349 5.434 15.44-3.479 23.369-7.628 37.233-3.9 13.054-3.123 27.74-8.994 40.055-6.276 13.167-13.879 27.937-24.052 38.408-10.773 11.089-21.051 21.42-33.506 30.6-13.529 9.969-23.534 21.269-32.329 35.672-7.142 11.7-6.968 30.7-6.927 44.042.052 16.673-.146 33.41.232 50.073.226 9.973 2.442 26.539 10.016 33.639 11.9 11.161 24.419 15.7 40.124 18.87 12.861 2.6 25.335 6.922 38.555 5.82 16.251-1.355 31.183 4.02 45.2 12.092 5.384 3.1 14.034 6.748 17.945 11.669a188.731 188.731 0 0112.268 17.462 153.171 153.171 0 0117.746 41.208c3.7 13.41 4.173 28.259 9.906 40.983 5.769 12.808 13.332 28.309 7.813 42.629-4.609 11.972-16.414 19.57-23.137 30.249-8.707 13.827-17.878 24.742-29.159 36.488-9.438 9.826-19.887 18.648-30.147 27.6-11.074 9.664-27.023 18.477-35.147 30.982-7.884 12.149-15.448 23.4-20.859 36.928-2.551 6.373-6.273 10.927-7.746 17.707-1.821 8.376-3.493 16.572-6.26 24.71-2.069 6.086-4.151 14.764-8.616 19.572-4.483 4.827-10.138 8.948-15.15 13.214-5.333 4.543-10.176 9.1-16.584 12-8.07 3.66-16.259 7.084-24.016 11.393M.188 274.828c13.667 2.8 25.517 4.778 39.644 3.249 6.22-.674 12.011-3.493 18.172-4.56 8.659-1.5 17.82-1.139 26.574-.99 11.933.2 22.513 15.3 30.29 23.564 3.247 3.451 1.242 14.7 1.184 19.129-.105 8.11-.733 16.518-.118 24.6 1 13.112 10.914 23 16.952 34.05 7.213 13.2 9.1 25.871 13.441 39.924 3.454 11.178 14.46 18.427 23.617 24.814 4.921 3.432 4.052 8.7-.489 12.278-5.947 4.689-14.37 1.209-20.521-1.2-5.343-2.093-13.932-2.293-18.452-5.44-4.144-2.886-6.2-7.8-9.55-11.434-8.968-9.738-27.365 2.409-36.213 7.387-5.94 3.343-12.448 4.223-18.243 7.217a198.189 198.189 0 00-18.384 10.831c-11.807 7.818-18.938 20.121-29.99 28.781-3.755 2.944-8.491 4.091-12.649 6.295" stroke="#a6a6a6" stroke-width="1.874"/><path d="M131.642 1314.708c37.131-19.173 78.444-49.24 61.443-95.748-6.944-19 1.487-37.28-3.507-56.207-7.311-27.708-43.683-22.745-63.877-22.482" stroke="#a6a6a6" stroke-width=".703"/><path d="M117.508 1287.338c28-16.185 38.8-21.126 39.7-54.707.205-7.584 8.558-74.778-19-56.7" stroke="#a6a6a6" stroke-width=".703"/><path d="M20.519 903.114c12.819.756 5.707 25.07 5.429 32.836-.292 8.143.317 16.29-.08 24.433-.365 7.417-4.137 12.486-7.421 18.85-5.966 11.558-1.544 28.053-2.133 40.655-.312 6.668-.373 13.531 2.9 19.554 3.4 6.259 7.329 11.371 8.323 18.641 1.812 13.283-1.481 23.129 9.377 33.413 9.191 8.7 20.921 13.081 28.711 22.913 9.871 12.455 20.023 8.24 34.075 8.058 7-.091 14 .82 20.988.154 7.934-.754 14.212-5.076 21.551-7.659 12.387-4.359 28.924 1.173 39.263 8.392 12.869 8.988 20.212 17.958 23.791 33.584 3.178 13.878 4.345 28.187 8.365 41.895 1.826 6.226 5.258 11.285 8.205 16.979 3.669 7.085 3.391 15.144 3.515 22.933.116 7.4.911 11.539-4.216 16.773-4.933 5.037-10 9.942-14.882 15.027-9.716 10.119-14.069 24.3-24.165 34.354-10.027 9.987-19.562 19.831-30.789 28.469-12.833 9.868-25.393 19.449-36.891 30.872-4.557 4.527-10.116 9.02-10.783 15.708-.654 6.546-5.495 13.608-8.571 19.288-7.33 13.54-16.35 21.959-14.949 38.478.764 9.012.469 12.242-5.867 18.875-5.316 5.566-10.783 10.985-16.229 16.422-5.245 5.223-13.564 8.784-19.909 12.528a213.926 213.926 0 01-23.355 12.466M26.887 709.1c6.169-.108 12.358-2.684 18.533-1.25 4.284.994 7.865 7.66 10.855 10.572 9.145 8.907 23.892 16.626 22.151 30.613-1.939 15.581 3.26 20.033 14.637 29.5 3.032 2.522 9.216 5.782 10.267 9.821 2.075 7.986 1.087 16.344.317 24.428a135.668 135.668 0 01-4.078 21.04c-2.094 8.08-6.034 8.577-13.856 10.48-5.823 1.415-14.38 3.429-19.147-1.426-5.517-5.619-3.007-13.749-2.369-20.615 1.294-13.914-11.713-19.443-20.314-27.82-10.817-10.535-24.514-20.809-33.267-33.131m22.018-403.559c4.595 4.474 11.747 8.88 15.471 14.023 4.56 6.3 2.889 19.385 1.263 26.39-1.107 4.765-10.028 10.284-13.286 13.628-5.327 5.462-10.634 13.826-16.742 18.243" stroke="#a6a6a6" stroke-width=".703"/><path d="M15.027 615.85c4.427 6 7.848 6.353 15.321 7.2a91.682 91.682 0 0124.643 5.929c13.242 5.34 30.039 9.258 41.664 17.454a160.135 160.135 0 0133.859 31.548c8.8 10.858 15.332 21.768 25.722 31.343a37.706 37.706 0 0017.8 9.724c6.3 1.606 16.034 2.732 20.11 8.536 3.128 4.458 3.705 10.955-.036 14.971-4.056 4.358-4.943 11.965-7.161 17.351-5.959 14.467-15.757 26.063-20.549 41.19-4.4 13.878-7.192 28.535-13.377 41.764-6.747 14.43-15.421 23.772-26.524 35.076-18.946 19.288-46.29 35.238-57.507 60.888a122.85 122.85 0 00-4.5 87.51c4.348 13.468 10.621 20.748 22.908 27.727 11.3 6.419 26.431 13.917 39.482 15.374 14.389 1.608 27.892.725 42.106 4.78 6.471 1.846 11.192 6.533 16.751 10.168a114.636 114.636 0 0119.139 15.035c20.914 21.114 29.477 50.2 37.741 78.025 4.187 14.088 7.867 27.73 12.747 41.6 5.189 14.743 6.223 30.331-1.818 44.1-14.993 25.683-37.2 49-59.452 68.607-7.565 6.667-14.91 14.119-23.244 19.808-8.311 5.672-17.045 10.927-24.574 17.652-13.15 11.749-22.886 29.2-30.688 44.787-8.624 17.233-7.553 37.2-12.016 55.655-1.82 7.525-13.106 15.361-18.453 20.59-7.037 6.88-14.365 10.571-23.063 15.068" stroke="#a6a6a6" stroke-width=".703"/><path d="M8.126 262.792c13.688 2.933 28.21 3.634 42 1.115 14.99-2.739 30.768-3.55 45.528.977 6.681 2.05 13.139 5.34 19.994 6.754 6.231 1.286 10.074 2.664 14.023 7.962a95.074 95.074 0 019.813 16.381c3.194 6.946.678 16.8 1 24.227 2.234 51.214 54.53 125.639 110.472 85.651 3.932-2.811 10.976-6.116 13.319-10.488 3.225-6.025 5.758-12.381 8.722-18.533 6.467-13.426 11.912-20.688 27.241-23.521 29.52-5.457 60.284.028 89.807 2.853 13.829 1.324 28.409 1.511 41.965 4.626 7.479 1.719 14.536 4.808 21.619 7.683 6.736 2.733 13.431 4.955 20.652 7.12 7.586 2.273 22.536 5.925 27.2 12.894 6.483 9.689-8.58 18.689-13.805 24.547-4.42 4.955-4.43 10.436-5.882 16.579-1.5 6.376-3.755 11.153-1.562 17.736 1.965 5.9 1.917 12.886 4.591 18.441 3.235 6.715 8.342 12.256 12.168 18.608 7.128 11.843 7.382 27.17 8.715 40.587 1.66 16.688-8.6 26.187-17.931 38.489-7.81 10.309-23.347 14.345-31.286 24.838-9.294 12.29-16.657 24.265-28.93 33.691-12 9.217-22.3 12.227-37.412 10.515-15.336-1.74-30.561-6.571-45.562-10.19-13.31-3.213-24.621-5.355-33.587-16.1-4.063-4.867-8.753-9.666-10.638-15.89-2.409-7.958-.212-16.321-.317-24.427-.2-15.7-.038-27.228-6.72-41.891-2.595-5.7-3.456-11.1-8.911-14.518-6.759-4.235-13.879-8.207-21.707-10.055-6.907-1.631-13.991.085-20.941.334-6.98.249-14.119-.831-21.013-1.807-14.224-2.011-27.758-6.707-42.092-8.135-14.458-1.44-23.34-8.444-35.7-15-11.729-6.224-28.249-7.793-41.3-7.473-11.683.286-27.79 2.315-37.7 8.85a121.322 121.322 0 00-31.106 28.943c-7.769 10.428-13.987 21.509-21.47 32.07" stroke="rgba(73,61,124,0.51)" stroke-width=".703"/><path d="M517.175 1515.905c-.111-8.55 11.948-8.3 15.362-2.034 3.647 6.695-15.288 7.675-15.362 2.034z" stroke="rgba(73,61,124,0.38)" stroke-width=".703"/><path d="M594.678 684.248c-.1-7.432 12.943-10.119 14.568-18.5 2.422-12.478-3.1-24.513 2.693-36.483 4.207-8.689 11.675-22.858 22.31-23.252 7.026-.259 14.03.621 20.972 1.6 4.358.61 7.876 10.924 9.567 14.356 10.066 20.433-14.322 41.6-27.928 54.5-7.553 7.156-16.507 4.814-22.179 14.111-5.903 9.676-19.851 5.32-20.003-6.332zM631.2 415.034c3.747-11.645 16.279-25.233 29.724-21.65 16.257 4.333 22.976 15.415 23.686 31.426.282 6.389.9 16-4.866 20.347-5.611 4.234-16.329 5.206-23.087 4.776-15.151-.965-30.444-19.41-25.457-34.9z" stroke="rgba(73,61,124,0.4)" stroke-width=".703"/><path d="M7.998 248.977c13.517 2.511 27.724 4.147 41.319 2.158 15.214-2.224 31.339-1.958 46.11 2.69 13.718 4.318 28.838 6.935 42.028 12.538 12.618 5.358 20.351 19.871 23.644 32.629 1.769 6.856.413 13.975.27 20.924-.138 6.745 1.793 14.063 2.827 20.743 1.9 12.317 11.583 29.49 21.421 37.316 8.886 7.07 21.148 17.024 33.231 13.608 11.558-3.267 27.073-12.819 33.333-23.3 3.523-5.9 5.482-12.538 8.579-18.645 2.555-5.023 9.459-7.418 14.416-9.727 14.483-6.748 31.173-2.718 46.552-1.928 30.019 1.544 59.488 6.088 89.176 10.182 15.062 2.077 27.6 6.132 41.979 10.765 14 4.514 28.808 2.513 41.685 10.715 11.832 7.537 24.193 15.2 37.518 19.929 6.4 2.27-2.11 5.682-4.275 7.74-5.678 5.4-11.471 10.707-16.536 16.7-3.89 4.6-3.851 9.608-6.4 14.841-3.282 6.754-5.3 11.7-3.942 19.355 2.587 14.529 9.153 28.488 15.787 41.6 3.136 6.2 6.853 12.078 10.257 18.13 3.211 5.707 4.2 12.066 7.958 17.4 3.319 4.712 7.421 9.661 6.008 15.848-1.531 6.7-7.429 11.267-9.416 17.761-1.82 5.948-9.107 8-14.281 10.325a79.706 79.706 0 00-17.071 10.4 297.253 297.253 0 00-30.974 27.915c-9.551 9.983-18.875 20.381-28.991 29.794-4.26 3.961-12.943 4.808-18.4 6.091a90.423 90.423 0 01-24.519 2.231c-14.391-.584-27.989-5.109-42.274-6.215-15.14-1.17-30.706-3.078-45.267-7.578-7.139-2.205-14.083-4.982-20.98-7.841-4.839-2.006-10.279-2.676-14.761-5.518-10.453-6.627-8.541-27.586-8.315-38.227.122-5.741 1.884-15.343-2.2-20.124a140.126 140.126 0 00-15.65-15.647c-4.328-3.693-9.774-4.58-14.574-7.81-6.31-4.248-12.321-9-19.129-12.46-11.829-6-26.166-7.732-38.623-12.4-14.828-5.551-29.365-11.719-44.251-17.076-13.923-5.005-24.67-8.063-39.8-5.548-13.12 2.176-26.069 10.82-35.079 20.063-9.628 9.876-13.391 20.271-19.256 32.494-5.8 12.08-15.749 23.316-9.484 37.233 5.749 12.77 13.294 20.8 25.333 27.573 6 3.376 12.475 6.907 19.211 8.552 7.951 1.942 16.91.946 23.819 5.755 11.128 7.743 21.943 16.127 30.583 26.588 9.565 11.583 18.525 22.671 30.229 32.194a36.341 36.341 0 0037.86 5.034c12.99-5.606 21.791-15.407 37.005-16 13.736-.541 14.825 12.37 13.454 23.143-1.887 14.83-9.471 27.528-17.223 39.92-7.34 11.73-16.367 22.227-23.626 33.914-8.083 13.015-15.955 26.439-23.484 39.783-6.706 11.885-10.115 25.261-15.068 37.915a219.923 219.923 0 01-9.051 20.877c-2.722 5.274-7.437 18.333-12.721 21.244-12.9 7.133-24.188 12.342-34.943 22.689-9.545 9.183-21.667 17.471-27.338 29.854-5.395 11.783-6.6 24.591-9.955 36.922-3.564 13.118-1.286 29.634 5.352 41.316s12.811 20.333 24.527 27.241c14.4 8.488 26.535 11.7 43.026 13.366 14.48 1.464 26.737 1.3 38.993 10.187 11.885 8.621 22.24 18.569 32.692 28.858 9.884 9.729 14.444 23.7 20.235 36.154a268.619 268.619 0 0116.754 45.164c3.633 13.7 6.5 26.394 12.187 39.452 5.862 13.451 9.013 29.158 3.589 43.2-9.431 24.413-31.9 43.454-49.76 61.785-8.9 9.128-17.412 20.14-28 27.384-12.38 8.458-25.052 15.849-37.15 24.911-8.918 6.686-19.206 20.075-23.7 30.262-2.483 5.627-5.975 10.667-8.474 16.248-2.78 6.2-3.429 13.545-4.259 20.218-1.759 14.144-.874 28.356-6.894 41.59-2.7 5.941-4.66 13.341-11.062 15.81-6.51 2.513-13.228 4.5-19.558 7.468" stroke="rgba(73,61,124,0.51)" stroke-width=".703"/><path d="M296.049 1421.056c.169-2.159-.648-9.142 2.965-9.189 3.975-.052 3.338 10.229 3.512 12.587.8 10.715.464 21.631.762 32.369.071 2.568-.067 6.816-3.6 6.863-4.387.057-3.859-6.289-3.7-9.117.618-11.187-.817-22.311.064-33.512.248-3.207-.644 8.118-.003-.001z" stroke="#a6a6a6" stroke-width=".703"/><path d="M494.222 1516.203c-.077-5.909 7.333-14.463 10.516-19.148 4.882-7.189 10.612-12.183 17.754-17.007 5.926-4 11.82-8.461 18.753-10.573 9.288-2.828 18.546.446 27.449 3.084 16.226 4.816 31.956 14 46.564 22.328 11.352 6.469 35.9 7.685 39.608 22.6 1.7 6.849 2.37 17.471-1.983 23.572-5.059 7.09-15.961 7.75-23.823 7.529-17.151-.486-29.852-9.909-45.488-14.459-7.639-2.223-14.941-3.5-21.841 1.184-8.094 5.495-15.024 6.314-24.729 6.552-10.678.264-18.1 1.224-26.183-6.152-4.718-4.29-16.511-12.548-16.597-19.51z" stroke="rgba(73,61,124,0.38)" stroke-width=".703"/><path d="M554.482 733.632c4.077-9.885 5.341-21.341 8.731-31.584a168.275 168.275 0 0115.518-34.042c2.7-4.525 5.438-6.944 5.485-12.119.061-6.789-.411-13.57-.427-20.358-.028-11.357.173-22.621.521-33.97.833-27.187 25.738-25.474 46.106-21.678 12.9 2.4 23.675 6.264 33.959 14.315 5.194 4.066 10.311 8.234 15.28 12.572 3.333 2.908 1.92 11.387 1.97 15.272.064 4.9 1.107 11-1.572 15.319-3.211 5.181-6.431 10.358-9.776 15.456-6.191 9.443-12.783 18.323-20.878 26.223-7.9 7.708-14.025 16.96-21.932 24.66s-13.278 18.577-21.989 25.336c-8.762 6.8-14.908 17.393-24.565 22.93-4.524 2.593-10.224 3.758-14.171 7.266-3.156 2.8-4.861 4.869-9.308 4.913-6 .058-17.034.314-16.4-8.359.654-8.891 10.212-14.318 13.441-22.152zm51.089-342.695c5.032-10.629 15.751-22.386 27.852-24.536 11.967-2.125 26.747 1.769 37.487 6.951 20.1 9.692 39.946 46.7 28.654 68.075-4.6 8.7-15.628 23.1-25.812 23.932-14.322 1.178-27.278.841-40.3-5.831-10.419-5.34-15.131-20.927-21.285-30.384-6.889-10.588-12.428-25.89-6.6-38.207z" stroke="rgba(73,61,124,0.4)" stroke-width=".703"/><path d="M4.35 237.769c29.233 5.766 58.294-1.76 87.438 4.833 13.385 3.027 26.406 6.579 39.956 8.929 6.674 1.159 12.618 5.573 18.133 9.277 5.2 3.493 14.5 7.816 17.423 13.672a106.228 106.228 0 0111.318 41.716c.869 12.56 1.159 29.68 10.8 38.645 6.935 6.452 14.361 17.9 25.343 16.016 9.718-1.663 20.734-13.838 24.834-22.19 4.626-9.418 16.61-21.89 26.95-24.436 14.392-3.542 28.278-1.92 42.779.047 29.112 3.948 58.473 7.63 87.469 12.292 13.835 2.223 28.307 3.194 41.609 7.678 7.118 2.4 13.863 5.738 21.4 6.714 8.121 1.051 16.271.568 24.171 3.081 12.82 4.078 25.674 9.1 38.394 13.545 10.453 3.649 20.6 16.292 32.166 15.241 11.774-1.067 16.711-14.612 27.746-17.09 7.02-1.576 14.367-2.445 20.844-5.794 6.907-3.57 12.627-8.932 18.491-13.94 10.078-8.609 21.6-16.219 32.783-23.3 12.6-7.978 20.136-19.622 34-26.1 5.746-2.684 9.278-5.771 15.244-3.26 6.147 2.59 12.643 4.557 18.282 8.215 14.93 9.685 6.833 24.282-5.594 31.073-2.5 1.366-15.407 6.071-15.575 8.979-.331 5.74-4.769 11.548-6.337 17.082-1.857 6.554-.532 9.536 3.95 14.127 5.161 5.289 4.334 13.562 5.945 20.329 3.293 13.841 6.613 27.468 5.319 41.845-.646 7.18-3.144 13.7-6.024 20.246-3.346 7.6-9.481 11.087-16.518 15.148-20.328 11.73-61.324 15.793-76.988-6.213-3.467-4.874-3.97-11.076-4.817-16.8-1.1-7.435-4.025-10.9-8.882-16.632-4.409-5.2-10.756-10.775-13.633-17.012-2.973-6.444-9.034-9.426-15.3-12.533-24.067-11.944-50.968 21.186-51.906 43.27-.6 14.075 5.816 27.037 12.643 38.861 3.346 5.8 6.955 9.484 11.755 14.238 3.319 3.288 12.48 15.689 17.081 16 5.256.361 12.784 5.181 17.495 7.558 6.262 3.159 10.422 7.192 15.068 12.309 4.715 5.194 10.712 5.633 15.89 9.719 6.113 4.825 11.01 10.94 16.61 16.307 10.074 9.656 26.665 9.878 38.623 16.863 13.178 7.7 22.819 15.275 27.821 30.27 10.274 30.786-12.987 54.8-30.527 76.834-9 11.288-18.747 22.312-28.2 33.225-9.619 11.111-18.643 23.057-29.15 33.313-9.409 9.186-15.645 20.1-26.033 28.35-4.452 3.534-7.114 7.683-10.922 11.728-4.853 5.151-14.925 4.725-21.357 4.066-12.8-1.31-24.412-6.232-27.325-19.838-3.247-15.164 4.232-25.259 11.5-37.576 6.988-11.84 10.376-25.062 17.95-36.544 3.874-5.873 8.546-11.841 10.878-18.549 2.234-6.419 6.5-14.682 7.255-21.365 1.514-13.465.248-28.343-.1-41.909-.378-14.718-7.258-22.71-20.918-28.336-25.321-10.427-52.163 23.681-67.291 39.435-19.815 20.637-48.6 29.758-76.889 27.239-28.908-2.574-58.277-13.026-87.462-6.017a109.438 109.438 0 00-20.745 7.515c-5.22 2.444-8.511 10.14-11.324 14.772-7.851 12.929-12.58 27.159-20.179 40.124-14.431 24.626-32.05 47.625-48.284 71.079-7.829 11.31-16.116 22.077-22.158 34.466-3.347 6.859-6.711 13.788-9.042 21.073-2.334 7.3-2.882 16.888-7.092 23.373-7.034 10.833-12.678 22.671-23.074 30.783-11.252 8.779-24.07 14.3-34.759 23.857-5.388 4.817-10.772 9.642-16.08 14.552-4.4 4.068-6.491 11.245-8.792 16.662a91.528 91.528 0 00-6.781 45.854c3.2 29.056 32.82 43.94 58.845 48.107 13.958 2.234 28.459 1.084 41.223 7.947 14.323 7.7 24.351 17.975 35.915 29.236 10.212 9.925 16.248 25.194 22.052 38.056 6.205 13.754 13.214 27.28 17.95 41.63 4.549 13.784 7.826 27.9 11.983 41.793 4.364 14.612 14.853 25.807 17.005 41.57 1.743 12.775-5.763 26.246-13.79 35.48-10.417 11.977-20.623 23.817-31.706 35.187-8.042 8.248-16.108 16.471-24.038 24.83-8.874 9.355-17.576 15.429-28.772 21.73-22.193 12.488-40.922 27.517-52.866 50.316-12.4 23.661-5.034 49.328-11.74 74.169-3.277 12.14-10.425 20.287-22.339 24.624-5.711 2.078-11.765 2.914-17.576 4.635-6.7 1.983-12.042 6.328-18.332 9.183-11.132 5.052-20.529 12.262-30.569 19.135" stroke="rgba(73,61,124,0.4)" stroke-width=".703"/><path d="M58.39 544.635c2.055-8.914 5.053-23.063 14.515-25.6 12.078-3.238 24.052-7.711 36.161-10.59 21.409-5.089 41.415 14.529 59.691 22.075 10.663 4.4 22.535 6.6 31.266 14.568 8.267 7.544 16.886 15.592 24.056 24.154 6.093 7.275 14.787 14.762 15.2 24.985.408 10.063-5.868 21.969-10.02 30.892-7.931 17.048-24.215 37.123-43.724 41.3-22.96 4.916-34.48-17.073-48.615-30.85-7.951-7.752-15.837-15.481-24.183-22.787-7.747-6.783-15.591-15.142-26.083-17.3-5.465-1.126-11.1-1.015-16.562-2.137-3.481-.715-6.982-9.266-8.693-12.187-7.037-12.016-6.033-23.4-3.01-36.522zm227.817 852.118c4.756-8.768 10.009-16.18 20.77-10.619 10.055 5.2 13.478 14.428 13.053 25.175-.951 24.1 6.966 51.852-8.278 72.4-5.663 7.634-8.38 15.973-18.911 13.973-11.052-2.1-11.556-18.841-13.024-27.556-1.923-11.405-.988-23.38-1.685-34.914a71.674 71.674 0 018.075-38.463z" stroke="#a6a6a6" stroke-width=".703"/><path d="M493.156 1491.788c1.14-2.772 5.636-5.5 7.729-7.446q6.654-6.2 13.333-12.375c6.149-5.7 11.867-11.76 17.895-17.578 15.881-15.332 35.915-3.93 51.846 5.98 17.437 10.847 33.871 21.2 52.657 29.554 10.061 4.474 18.668 12.216 27.3 18.969 5.2 4.067 5.708 5.2 6.136 11.994a127.976 127.976 0 01-.058 17.463c-.392 5.429-14.7 14.75-18.927 17.7-8.739 6.11-18.563 7.123-28.9 5.305-9.481-1.667-16.478-7.472-25.212-10.943-10.3-4.093-23.462-4.933-34.315-3.048-22.671 3.939-40.939 4.314-62.927-3.467-8.287-2.93-12-13.024-14.3-21.231-3.2-11.443 3.58-20.775 7.732-30.88.454-1.062-3.282 8.031.011.003z" stroke="rgba(73,61,124,0.38)" stroke-width=".703"/><path d="M42.684 228.529a202.866 202.866 0 0145.441 3.551c14.209 2.609 27.675 5.059 42.063 6.452a71.574 71.574 0 0142.387 19.616c5 4.888 9.752 10.414 15.256 14.732 3.909 3.07 5.018 14.031 6.26 18.668 3.464 12.927 4.662 28.861 12.445 40.147 6.914 10.028 17.633-5.511 23.321-9.165 11.109-7.118 23.819-17.17 37.139-19.137 15.413-2.276 27.707 3.438 42.149 7.291 14.983 4 30.641 8.458 45.965 10.814 13.838 2.125 27.714 4.014 41.557 6.111 15.291 2.317 30.941 3.264 45.506 8.775 6.878 2.6 13.576 4.849 20.966 5.374 6.8.485 14.168-.51 20.616 1.9 15.336 5.762 29.634 10.827 45.986 13.016 15 2.013 27.6 2.449 42.031-2.946 13.978-5.224 28.6-13.581 39.625-23.6 10.894-9.895 21.765-17.719 33.895-26.008 11.44-7.816 19.125-19.189 33.553-22.3 14.5-3.129 28.519-.46 42.149 4.773 8.877 3.407 18.729 22.779 16.745 32.31-1.272 6.108-5.424 11.134-8.751 16.23-3.443 5.275-5.6 10.8-9.383 15.948-10.066 13.71-8.9 25.774-6.486 41.964 4.077 27.38 11.071 63.375-16.62 81.148a175.979 175.979 0 01-18.43 10.274c-5.8 2.8-12.347 3.241-18.23 6.165-11.986 5.958-26.278 5.46-36.979 14.188-9.631 7.854-5.953 25.87 1.026 34.668 8.019 10.113 24.673 16.549 35.165 23.848 12.11 8.425 22.949 14.789 30.477 27.849 7.664 13.3 12 27.467 8.514 42.858-3.071 13.554-11.385 24.161-20.158 34.359-9.719 11.3-17.92 23.838-28.058 34.715-9.31 9.986-17.219 21.744-25.707 32.455-9.793 12.357-19.669 24.633-29.235 37.157-8.527 11.164-15.931 21.495-26.041 31.449-5.462 5.379-7.683 8.165-15.652 9.15-7.109.878-16.082 1.681-22.654-1.741-11.158-5.812-21.28-10.836-27.685-22.229-7.6-13.523-8.442-30.183-3.755-44.743 3.942-12.246 10.615-24.422 18.058-34.932 8.536-12.047 18.083-20.434 21.415-35.1 2.9-12.775 5.233-28.031 1.481-40.863-3.649-12.478-19.943-16.1-31.316-12.441-5.326 1.711-8.242 7.1-11.388 11.291-3.493 4.653-8.071 7.2-12.775 10.419-13.721 9.4-25.016 17.456-41.2 21.954-28.273 7.864-59.537-.536-87.764-4.151-28.5-3.647-62.051 6.538-74.469 34.458-12.822 28.828-31.929 53.309-49.631 79.294-15.2 22.312-36.688 41.264-43.292 68.567-7.125 29.46-25.35 53.284-51.512 68.779-11.525 6.823-24.229 14.122-31.7 25.67a79.127 79.127 0 00-13.06 39.369 70.074 70.074 0 002.287 21.018c1.959 7.973 2.756 11.029 9.335 15.906 13.12 9.724 24.017 14.505 40.279 16.6 12.466 1.6 24.976 2.483 37.446 4.173 15.978 2.163 21.661 10.494 32.478 21.034 9.388 9.14 13.829 19.623 19.962 31.143 7.868 14.776 14.736 29.8 21.52 45.088 12.362 27.873 18.991 58.425 34.726 84.629 3.631 6.047 5.123 11.9 7.856 18.21 2.271 5.25 6.786 11.843 4.825 17.851-1.832 5.617-5.884 10.213-7.779 16-2.475 7.564-8.9 12.982-14.527 18.289-10.936 10.317-20.927 21.782-31.437 32.563-10.943 11.224-21.343 24.241-34.107 33.372-23.97 17.15-51.887 28.58-68.85 53.717-8.151 12.078-11.766 22.911-12.259 37.532-.511 15.175 2.133 30.237 1.313 45.451-.828 15.382-6.365 21.533-20.685 26.857-14.26 5.3-29.525 5.038-43.231 11.691-12.638 6.133-23.172 16.085-35.906 21.658" stroke="rgba(73,61,124,0.4)" stroke-width=".703"/><path d="M88.122 544.247c.441-3.294 10.478-6.207 12.927-7.4 7.192-3.514 14.381-5.992 22.5-5.038 16.836 1.973 28.82 10.993 42.07 20.643 5.87 4.281 12.024 8.169 17.741 12.659 5.341 4.191 8.62 10.6 12.946 15.823 10.019 12.105 10.618 29.147 3.829 43.112-5.863 12.06-20.789 17.8-33.419 12.823-11.782-4.64-17.758-19.007-27.8-26.364-12.492-9.153-24.488-17.393-35.517-28.312-2.689-2.662-5.38-5.321-8.114-7.936-.773-.742-6.637-4.286-6.846-5.583a83.75 83.75 0 01-.317-24.425zM283.519 12.884c-10.13 4.747-23.327 2.32-34.165 2.715-11.545.422-19.288.067-24.913-10.6m45.27 1391.969c1.416-6.96 6.907-12.436 11.722-17.288 4.108-4.138 10.79-12.86 16.979-13.691 8.168-1.1 16.486-.06 24.469 1.776 1.791.414 3.293 15.895 3.678 17.962 3.136 16.778 2.913 34.166 4.169 51.162 1.336 18.075 1.547 33.189-6.3 49.822-4.966 10.53-18.477 26-29.816 29.448-5.9 1.791-14.871 4.819-21.038 3.983-4.631-.626-5.986-18.154-6.356-21.868-.83-8.332.811-16.25 1.586-24.5.869-9.245.229-18.667-.082-27.928-.557-16.519-2.347-32.456.991-48.875z" stroke="#a6a6a6" stroke-width=".703"/><path d="M483.204 1491.919c4.894-8.77 15.614-15.443 22.808-22.251 8.466-8.011 15.277-17.313 24.218-24.93 9.612-8.19 14.4-11.427 27.583-8.458 12.455 2.806 21.424 8.5 32.019 15.429 10.254 6.708 20.347 14.207 31.206 19.893 10.924 5.719 21.994 10.869 32.031 18.108 8 5.769 17.38 11.94 23.7 19.634 7.046 8.582 7.181 24.847 1.915 34.254-9.217 16.471-29.895 33.249-49.36 30.637-11.341-1.522-20.325-6.276-30.124-11.862-9.776-5.57-25.427-6.91-36.409-5.424-23.678 3.2-46.977 4.152-69.032-7.054-22.874-11.622-21.332-38.665-10.554-57.976 2.849-5.105-4.218 7.556-.001 0z" stroke="rgba(73,61,124,0.38)" stroke-width=".703"/><path d="M529.329 440.787c-.06-4.549 11.815-11.922 15.286-14.328 6.935-4.8 14.21-5.442 21.787-1.655 6.238 3.12 17.007 8.2 19.357 15.252a81.267 81.267 0 014.169 31.473c-.463 6.505-.6 20.376-9.54 20.492-4.287.056-8.182-2.008-12.292-2.875-3.991-.844-8.667.169-12.22-2.3a95.343 95.343 0 01-20.163-18.933c-5.309-6.69-6.274-18.682-6.384-27.126z" stroke="rgba(73,61,124,0.4)" stroke-width=".703"/><path d="M18.072 216.755c15.139.958 30.321-.762 45.41.188 15.744.984 30.124 5.809 45.454 8.692 6.951 1.308 13.991.869 21 .511 7.161-.364 11.032 1.443 17.713 4.149a217.591 217.591 0 0120.103 9.176c5.543 2.933 14.132 5.973 18.607 10.333 8.3 8.064 15.272 21.928 27.352 24.892 6.1 1.5 12.444-.507 18.529-1.085 6.885-.656 14.172 2.558 20.825 4.089 13.6 3.128 27.4 1.609 39.805 8.9 5.5 3.231 10.583 7.111 16.1 10.317 5.434 3.143 14.957 3.358 21.1 4.869 27.774 6.831 55.84 15.867 84.321 19.344 6.941.847 13.986 1.573 20.7 3.63 7.031 2.154 13.71 5.5 21 6.767 6.957 1.213 14.006-.207 21 .345 7.8.618 14.613 4.516 21.794 7.239 12.753 4.836 27.743 3.98 41.184 4.209a101 101 0 0044.574-9.914c26.486-12.39 45.564-34.858 69.289-51.124 12.37-8.48 23.355-14.337 38.787-13.17 12.908.976 30.11 2.353 37.877 14.221 5.661 8.649 15.788 21.722 15.3 32.489-.257 5.675-3.74 10.472-6.927 14.91a63.528 63.528 0 00-9.522 20.08c-3.628 12.389-7.346 25.619-7.614 38.615-.311 15.169 4.584 30.053 3.321 45.368-2.6 31.558-25.045 47.449-49.926 62.3-6 3.581-12.154 6.9-18.241 10.334-6.722 3.788-8.78 3.943-10.913 11.975-1.25 4.707-4.064 14.941-.505 19.244 1.285 1.554 3.476 2.2 5.253 2.941 3.474 1.451 5.755 4.151 8.193 6.94 17.123 19.606 45.278 35.674 46.307 65.065.533 15.253-.573 25.546-7.449 39.211-6.5 12.911-18.93 22.025-27.457 33.623-9.187 12.494-18.456 24.709-28.1 36.862-8.968 11.308-18.812 22.3-27.252 33.992-3.388 4.693-4.834 10.406-8.394 15.035-4 5.2-7.983 10.017-11.379 15.664-3.682 6.127-7.109 12.4-10.736 18.56-3.18 4.9-9.627 9.824-13.942 13.845-20.086 18.706-52.966 11.591-68.285-10.033-7.39-10.431-14.141-21.768-18.152-33.876-5.305-16.019-3.936-28.966-1.649-45.4 1.683-12.11 5.233-25.862 4.394-38.116-1.005-14.657-19.587-11.307-29.774-11.92-29.181-1.758-58.354-4.649-87.41-8.351-14.251-1.815-28.528-3.406-42.16 2.091-14.93 6.02-24.329 13.514-33.761 26.477-8.172 11.233-14.176 24.275-21.692 36.045-8.281 12.982-18.213 24.645-26.139 37.937-7.6 12.742-18.031 22.041-28.152 32.751-9.051 9.581-15.608 25.934-19.416 38.345-8.166 26.613-19.907 49.917-44.434 65.25-23.245 14.53-51.917 30.248-52.315 61.667-.149 11.757 3.686 28.883 12.77 37.228 10.053 9.236 30.347 10.6 43.28 11.114 13.346.527 28.8-3.741 41.659-.078 6.444 1.835 12.276 5.227 18.31 8.044 6.231 2.908 6.888 12.8 9.107 19.027 4.979 13.951 11.983 27.647 19.137 40.608 3.38 6.119 7.442 11.623 9.964 18.205 3.051 7.962 5.161 16.24 8.369 24.149 11.016 27.161 21.107 55.457 35.865 80.826 13.583 23.354 26.023 53.887 47.915 70.831 7.736 5.991 19.561 10.348 13.012 22.238-5.412 9.827-15.225 18.93-22.111 27.932-10.041 13.125-8.093 22.858-6.993 38.351 1.155 16.246 2.991 32.632 4.969 48.8 3.686 30.172 7.457 59.851-14.781 84.676-10.609 11.843-19.832 19.353-35.446 23.109-14.833 3.567-30.466.064-44.226 7.424-20.726 11.084-52.044 34.158-75.164 18.7-9.821-6.565-19.187-13.92-29.324-20.014-13.064-7.856-28.941-6.679-43.6-5.393-14.835 1.3-25.42 8.6-38.085 15.543" stroke="rgba(73,61,124,0.4)" stroke-width=".703"/><path d="M210.138 23.057c12.066 21.783 39.357 6.138 57.579 5.311 11.691-.53 20.649-5.172 29.856-12.129M143.63 1423.042c7.829-25.228 38.166-42.309 60.119-53.022 12.886-6.289 25-12.154 36.027-21.518 11.3-9.606 20.27-21.986 30.95-32.234 6.209-5.958 17.278-18.249 26.828-16.483 10.649 1.967 23.7 11.368 23.849 23.223.124 9.564-11.305 14.629-17.874 19.33-10.488 7.506-20.014 16.764-31.771 23.081-11.909 6.4-14.494 15.31-15.675 28.58-1.322 14.847 2.547 30.208 4.078 44.968 1.451 13.989 2.144 28.166-.8 42-1.363 6.409-3.128 12.731-4.6 19.114-1.7 7.362-8.527 11.194-14.833 14.486-13.514 7.053-26.129 5.989-40.822 5.145-15.715-.9-29.551-4.877-42.725-13.713-9.343-6.266-12.154-26.976-14.108-37.532-2.766-14.925-3.181-30.779 1.357-45.424 1.671-5.389-2.437 7.864 0-.001z" stroke="#a6a6a6" stroke-width=".703"/><path d="M466.019 1516.571c-.295-25.873 25.978-42.808 41.27-60.227a198.808 198.808 0 0123.7-23.379c12.152-9.986 22.991-8.061 37.139-3.5 24.438 7.878 43.288 27.261 65.617 39.209 19.054 10.2 45.134 25.023 55.614 45 2.673 5.1 2.307 11.076 2.212 16.637-.13 7.617.356 7.666-4.268 14-7.7 10.544-14.347 24.844-25.285 32.119-4.963 3.3-10.22 6.121-15.3 9.23-4.905 3-7.813 1.2-14.067.413-14.359-1.813-22.806-9.385-35.377-15.244-25.849-12.047-55.739.99-82.66-6.019-12.783-3.322-21.683-6.582-32.1-15.117-4.624-3.788-10.022-6.427-11.688-12.223-1.97-6.85-4.723-13.661-4.808-20.891-.073-6.463.099 8.332.001-.008z" stroke="rgba(73,61,124,0.38)" stroke-width=".703"/><path d="M3.716 191.624c15.192 3.107 30.245-.791 45.481-1.757 6.8-.431 13.58-1.023 20.038-3.324 5.965-2.127 11.8-5.117 18.226-5.57 15.969-1.123 27.8 5.434 40.695 13.617 12.522 7.95 26.729 3.78 40.637 5.912 15.559 2.387 30.273 6.53 44.315 13.893 5.972 3.133 11.58 6.891 17.332 10.4 5.515 3.369 7.18 3 13.911.728 6.822-2.309 14.039-2.877 20.819-5.421s13.953-5.931 21.377-4.342c13.383 2.869 22.911 12.165 30.416 22.874a57.121 57.121 0 019.04 19.708c2.146 8.823 1.97 13.6 10.6 16.86 13.992 5.278 27.735 8.334 42.135 12.045 14.42 3.716 27.622 11.959 42.006 16.331 13.377 4.066 27.928 9.365 42.066 9.032 7.114-.166 14.091-.993 21.114.649 8.257 1.931 15.958 6.238 24.387 7.219 30.271 3.522 60.411-5.319 87.156-19.515 11.053-5.865 24.463-12.14 33.851-20.38 5.258-4.615 9.556-10.408 15.526-14.183 6.759-4.273 15.521-6.281 23.2-8.2 13.8-3.448 28.017-4.927 42.15-2.943 16.292 2.289 23.435 10.375 32.522 23.4 7.3 10.461 13.438 23.9 13.2 37.034-.246 13.6-10.406 27.561-15.681 39.722-12.187 28.1-2.3 57.159-5.871 86.249-1.725 14.061-4.659 24.722-13.929 35.478-9.129 10.591-16.257 21.106-28.008 28.911-9.22 6.124-13.917 17.89-17.329 28.136-1.42 4.264 5.371 9.22 7.636 12.562 4.508 6.648 8.761 13.426 14.268 19.313 19.046 20.361 21.459 56.182 13.912 81.9-4.464 15.212-14.35 23.562-24.8 35.1-10.626 11.719-19.617 24.907-29.426 37.293a379.216 379.216 0 00-46.216 74.917c-6.1 12.957-13.661 25.015-19.01 38.48-5.613 14.122-12.653 22.586-27.514 27.857-25.352 8.991-59.662-1.482-79.2-19.256-10.207-9.288-15.184-24.6-18.085-37.722-1.529-6.919-2.047-14.008-3.457-20.947-1.495-7.36-7.153-13.926-9.4-21.139-3.931-12.6 2.927-23.805-5.442-35.65a88.892 88.892 0 00-30.321-27.427c-12.163-6.654-27.647-4.489-41.062-5.373-12.861-.846-33.129-.82-42.852 9.15-9.126 9.363-17.724 19.28-26.991 28.582-10.345 10.386-17.738 23.934-26.132 35.9-8.51 12.13-16.447 24.514-24.5 36.943-8.017 12.368-18.513 24.376-24.63 37.708a297.637 297.637 0 00-15.154 42.237c-4.1 14.339-3.507 26.882-19.023 33.7-12.8 5.628-26.754 5.267-39.581 11.581-11.562 5.694-23.584 13.705-31.437 24.26-21.126 28.4 16.582 48.9 41.285 45.175 26.609-4.016 49.468-25.35 63.306-47.278 5.6-8.869 12.3-15.832 22.533-7.705 4.571 3.63 7.954 8.489 11.677 12.922 3.652 4.348 3.462 13.156 5.247 18.521 2.18 6.557-.267 11.112-1.6 17.454-1.384 6.587-2.439 13.249-3.666 19.867-2.546 13.737-9.907 31.294-7.286 45.156 2.292 12.125 9.3 23.35 15.14 34.015 7.512 13.714 5.609 28.728 11.457 42.881 11.735 28.4 25.8 54.688 41.495 81.043 6.9 11.586 16.659 21.065 25.9 30.789 9.655 10.161 21.92 17.6 30.329 28.906 7.774 10.448 15.239 20.1 8.32 33.2-6.643 12.585-16.765 20.248-26.387 30.276-19.545 20.372-18.643 48.466-14.762 74.273 2.107 14.01 6.659 27.4 8.337 41.515 1.7 14.267-4.514 26.5-11.606 38.528-6.656 11.266-13.506 25.832-24.376 33.526-12.428 8.794-24.64 14.6-38.853 19.719-13.74 4.946-27.94 7.965-40.957 14.783a296.688 296.688 0 01-42.226 18.044c-17.664 6.036-38.234 6.729-52.138-8.094-5.338-5.691-11.451-12-18.075-16.174-5.616-3.537-17.846-10.778-24.582-10.69-20.342.264-37.628 5.087-55.779 14.256" stroke="rgba(73,61,124,0.4)" stroke-width=".703"/><path d="M171.02 30.121c.207 12.077-3.868 25.175 7.612 33.54 9.689 7.06 25.322 5.47 36.569 4.157 5.8-.678 11.567-1.823 17.426-1.9 7.084-.094 13.923 2.464 21.018 2.162 11.953-.5 21.26-9.045 30.627-15 9.526-6.058 20.921-8.819 26.326-19.587 5.464-10.888 12.721-20.833 18.979-31.256m-171.232 1420.61c5.76-11.148 16.07-20.427 27.976-23.962 6.494-1.929 11.177-6.155 18.13-6.974a71.725 71.725 0 0120.977.392c4.206.75 7.721 12.185 9.277 15.4a95.314 95.314 0 017.561 20.914c2.916 13.186 6.754 32.326.629 44.949-2.867 5.911-7.212 10.944-11.65 15.72-5.081 5.467-7.11 5.194-14 6.868-6.475 1.575-13.7 4.5-19.879.808-5.252-3.134-11.523-3.936-16.944-6.745-23.543-12.205-34.461-43.426-22.081-67.371 4.178-8.076-3.817 7.391.004.001zm120.06 731.368c7.969-10.905 16.778 6.4 20.383 12.853 5.779 10.345.9 25.084-11.371 28.183-9.169 2.315-20.568-5.465-23.532-13.992-3.889-11.181 8.865-19.302 14.52-27.044z" stroke="#a6a6a6" stroke-width=".703"/><path d="M457.098 1492.257c2.761-4.9 7.7-7.954 11.854-11.528a156.142 156.142 0 0015.327-15.721c9.592-10.982 19.405-21.512 27.179-33.882 6.808-10.834 16.116-20.031 28.9-23.953 13.341-4.091 29.945 4.863 41.859 10.163 12.75 5.669 23.338 14.094 34.921 21.758 12.188 8.072 24.654 15.82 36.772 24.075 20.257 13.8 47.492 34.656 51.239 60.665 2.074 14.386-4.282 23.976-10.932 35.945-6.409 11.54-17.071 20.605-19.465 34.119a63.856 63.856 0 00-.223 21.213c1.208 7.012 4.483 13.636 4.577 20.842a71.205 71.205 0 01-3.277 21.09c-2.339 7.884-8.96 10.758-15.589 14.877-11.294 7.018-24.29 10.223-37.178 5.452-15.311-5.667-15.7-19.833-12.579-33.513 3.013-13.222 5.821-28.222-2.125-40.122-3.663-5.486-8.311-10.215-12.154-15.566-2.929-4.091-17.7-6.907-22.527-8.042-14.406-3.392-30.693-.56-45.534-2.13-15.534-1.642-30.133-1.692-44.607-8.288-7.009-3.2-10.913-4.952-15.445-11.2a123.577 123.577 0 01-12.6-20.7c-7.374-15.958-7.1-30.1 1.6-45.547z" stroke="rgba(73,61,124,0.38)" stroke-width=".703"/><path d="M7.503 181.162c16 4.7 28.861-8.756 38.968-19.123 9.456-9.7 15.231-20.265 26.922-27.655 3.652-2.309 11.385-9.73 15.884-7.046 6.546 3.906 13.191 7.9 19.407 12.314 10.775 7.655 20.732 18.758 29.719 28.427 12.207 13.132 22.651 14.444 39.907 14.4 13.871-.039 29.39 5.79 40.518 13.873 4.038 2.933 8.8 8.107 13.427 9.987 6.678 2.717 15.653-4.334 21.744-6.274 12.554-3.989 28.292-1.719 40.8 1.253 12.343 2.935 30.2 12.671 36.378 24.505a177.516 177.516 0 0024 35.082c4.187 4.761 7.893 9.987 13.964 12.439 7.578 3.06 15.776 4.99 23.507 7.705 12.392 4.353 23.454 12.892 35.89 16.477 14.585 4.2 29.612 4.916 44.649 5.31 14.166.372 27.805 5.186 41.95 6.348 15.964 1.311 30.033-3.762 45.35-7.3 13.41-3.095 25.791-7.983 38.472-13.242 13.713-5.688 24.544-16.058 36.944-23.716 22.408-13.838 58.836-24.089 84.734-15.138 10.858 3.754 22.886 15.65 28.047 25.779 6.042 11.846 13.382 29.777 11.145 43.244-1.945 11.708-7.849 25.656-13.211 36.226-6.849 13.5-9.1 29.606-8.3 44.635 1.451 27.484 5.385 61.129-14.882 83.333-4.776 5.233-8.949 10.922-13.271 16.529-4.058 5.266-9.683 9.537-13.142 14.969-7.7 12.1-14.085 21.713-3.912 34.623 8.232 10.447 14.237 19.824 18.837 32.51 5.224 14.376 8 29.879 7.123 45.189-.756 13.209-4.143 28.906-12.215 39.663-8.6 11.456-19.368 21.325-28.334 32.558-8.674 10.874-18.009 21.852-25.874 33.311-8.872 12.918-15.583 26.2-23.394 39.592-7.161 12.276-15.478 26.14-18.618 40.115-1.493 6.643-4.585 12.367-7.051 18.654-3.18 8.129-5.184 16.714-9.1 24.55-13.085 26.2-50.881 22.483-75.473 20.623-12.877-.974-28.853.187-38.5-9.865-8.615-8.98-20.659-21.507-24.806-33.385-4.642-13.308-5.986-27.915-8.049-41.788-2.311-15.536-7.275-29.374-6.645-45.288.26-6.568.42-11.089-4.2-15.917-5.283-5.526-10.7-10.93-16.332-16.1-11.043-10.141-29.136-8.334-43.369-7.58-12.69.671-28.1 3.349-38.229 11.791-10.754 8.961-20.318 20.246-28.245 31.736-7.8 11.313-15.788 22.5-23.583 33.816-8.5 12.332-13.824 26.632-22.3 39.1-12.267 18.048-35.786 54.718-8.605 70.533 10.019 5.829 20.555 10.886 27.451 20.549 9 12.615 14.034 24.331 16.014 39.8a85.025 85.025 0 01-4.743 41.7c-4.99 13.162-4.61 28.317-10.872 40.812-6.731 13.432-10.27 21.418-5.393 36.536 4.885 15.14 11.314 29.085 12.394 45.126.916 13.647 7.311 25.819 12.726 38.263a259.63 259.63 0 0022.737 42.06c7.906 11.763 14.632 23.975 24.241 34.436 10.616 11.556 21.788 22.149 33.04 33.06 4.781 4.635 7.779 8.938 11.327 14.351 3.1 4.723 8.165 7.862 10.919 12.836 2.817 5.089.8 10.538-2.193 15.012-2.852 4.264-6.124 11.063-9.616 14.573-10.177 10.206-21.744 18.6-29.633 30.753-9.212 14.185-12.483 26.172-11.915 43.079.485 14.467 4.568 28.077 8.94 41.74 4.762 14.883 9.4 29.189 2.336 44.048-5.65 11.882-14.892 20.071-21.617 31.23-8.1 13.441-17.8 22.19-31.062 30.107-12.031 7.188-24.98 11.177-38.243 15.557-14.5 4.791-28.036 10.527-42.026 16.612-24.427 10.626-56.535 29.39-81.413 9.606-9.658-7.678-17.3-16.721-27.583-23.73-13.26-9.037-25.236-11.589-41.124-8.755-14.287 2.552-27.856 10.083-40.436 16.98" stroke="rgba(73,61,124,0.4)" stroke-width=".703"/><path d="M155.006 26.837c-2.281 15.423-8.124 30.064-10.734 45.567a91.726 91.726 0 01-6.052 20.262c-1 2.367-1.954 6.063-4.113 7.7-1.159.877-3.6 1.733-3.58 3.578.157 12.064 32.1.464 37.3-1.867 28.63-12.848 58.855-12.935 89.497-16.786 6.988-.88 14.045-1.282 20.968-2.642 6.74-1.324 10.621-5.42 15.438-10.052 10.992-10.568 16.673-22.521 24.752-35.265 7.625-12.044 12.881-24.608 19.78-36.936M140.94 958.887c-.565 8.271 1.6 16.394 3.4 24.384.786 3.484 16.966 3.371 19.918 3.509 17.175.8 22.409-15.18 34.994-23.683 14.772-9.98-11.175-21.669-19.175-22.436-7.956-.761-15.145 1.282-22 5.266-3.846 2.235-16.8 7.84-17.145 12.96-.55 8.188.179-2.596.008 0zm25.495 463.855c-4.185 9.711-6.841 20.4-3.969 30.856 2.321 8.453 6.9 20.77 15.194 25.023 10.13 5.192 19.962 10.538 31.747 8.98 10.491-1.385 22.356-5.768 25.489-16.886 3.134-11.139 2.482-23.743.409-35.016-1.732-9.423-3.305-22.8-12.423-27.835-17.472-9.655-47.63-5.58-56.447 14.878zm83.973 731.837a76.344 76.344 0 019.151-16.783c3.652-4.789 9.707-7.812 14.281-11.66 9.429-7.937 27.854-13.813 39.181-6.361 9.942 6.538 14.1 18.917 23.645 25.382 4.764 3.226 8.213 5.474 8.05 11.772-.124 4.736-3 19.79-7.682 22.118-10.488 5.213-24 10.528-31.744 19.707-8.9 10.543-21.719 19.024-35.451 21.453-12.936 2.287-23.819-8.1-27.3-19.948-4.563-15.51 1.929-31.6 7.873-45.68zM412.397 979.787c3.2-5.308 18.394-6.932 24.038-7.244 7.544-.417 14.008 8 20.392 11.683 6.8 3.925 16.944 10.828 18.5 19.175 1.479 7.948-.045 24.141-7.4 29.106-14 9.454-46.4 13.539-59.683 1.189-7.082-6.588-10.493-19.973-8.979-29.306 1.522-9.409 8.373-16.712 13.129-24.6.698-1.152-4.796 7.958.003-.003z" stroke="#a6a6a6" stroke-width=".703"/><path d="M441.317 1516.892c-.078-6.039 3.718-11.187 5.511-16.734 2.166-6.714 4.025-10 9.3-15.073 10.958-10.536 21.371-20.668 31.259-32.273a256.635 256.635 0 0024.761-34.565c2.56-4.26 2.376-10.586 6.772-13.648a46.039 46.039 0 0121.131-7.772c14.152-1.565 29.529 5.879 41.931 11.95 13.853 6.78 24.577 17.285 37.917 24.753 11.8 6.605 22.952 12.985 34.16 20.643 13.776 9.411 25.238 21.044 37.045 32.817 8.434 8.446 17.281 21.5 19.9 33.189 3.771 16.817-3.89 27.837-10.9 42.211-5.821 11.948-14.391 21.766-16.822 34.981-1.222 6.646-1.842 13.689.045 20.268 2.135 7.446 5.3 13.843 4.88 21.8-.794 15.189-7.059 26.127-19.118 35.021-12.547 9.253-25.214 13.121-40.571 13.254-8.463.074-10.938-.493-16.491-6.6-4.034-4.439-8.289-8.859-11.106-14.215-6.32-12.013 2.279-27.666 3.18-40.469.651-9.277-.282-17.267-7.1-24.058-6.287-6.263-17.685-15.239-26.839-16.061-9.3-.838-18.656-.058-27.959-.964-10.541-1.026-20.861-2.643-31.478-2.794-15.681-.223-42.48-2.334-52.179-17.016-4.828-7.3-5.983-16.205-8.841-24.317-2.581-7.346-8.288-16.56-8.388-24.328z" stroke="rgba(73,61,124,0.38)" stroke-width=".703"/><path d="M7.52 151.574c12.116-1.471 28.343-7.293 34.976-18.21 6.751-11.115 21.081-19.9 31.83-26.761 12.158-7.758 27.3-11.793 38.494-20.957 9.143-7.485 14.436-22.775 18.558-33.518 5.525-14.4 9.619-26.866 7.793-42.561" stroke="#a6a6a6" stroke-width=".703"/><path d="M346.095.173c-7.164 12.634-10.356 27.547-17.92 39.808-8.1 13.12-15.965 27-19.656 42.128-2.467 10.111-24.665 15.451-33.449 16.707-6.925.991-14.041.863-20.869 2.5-7.587 1.818-13.7 7.589-20.976 10.292-13.923 5.172-27.285 6.354-41.888 7.522-14.889 1.191-22.827 8.671-21.813 24.157.944 14.439 11.274 10.105 21.683 14.7 13.013 5.74 23.567 13.484 35.217 21.39 24.577 16.679 58.436-1.547 84.243 10.478 12.816 5.972 22.75 16.188 30.994 27.333 3.873 5.236 7.523 10.674 11.476 15.845 4.529 5.926 10.6 8.7 16.709 12.612 5.572 3.569 9.547 9.093 14.737 13.178q8.471 6.664 17.474 12.607c4.933 3.244 11.311 5.476 16.524 8.751a70.924 70.924 0 0022.784 9.746c14.047 3.1 28.174 3.189 42.441 4.205 15.054 1.074 33.7 5.095 48.423.858 13.633-3.923 28.207-4.638 42.044-7.807a172.391 172.391 0 0021-6.171c8.165-3.005 14.21-7.948 21.539-12.373 24.737-14.94 50.106-25.39 79.168-27.915 13.154-1.142 26.092 1.206 36.328 9.225 5.561 4.358 10.943 8.94 16.224 13.631 4.171 3.7 6.566 15.374 8.507 20.588 4.806 12.9 10.006 27.153 5.431 40.786-4.4 13.12-11.158 26.252-14.311 39.7-3.371 14.343-5.6 27.145-4.689 41.935.932 15.181 1.624 30.516-1.065 45.562-2.114 11.838-7.89 26.234-15.4 35.772-9.007 11.424-19.382 20.361-22.425 35.124-.8 3.906-6.676 11.967-4.251 15.405 4.069 5.768 5.026 11.776 6.9 18.555 4.274 15.482 12.108 29.153 14.841 45.228a98.339 98.339 0 01-1.609 42.207c-4.216 15.58-12.292 26.51-22.643 38.466-19.358 22.348-39 45.766-54.359 71.1-6.356 10.483-10.008 22.618-15.542 33.583a178.722 178.722 0 00-15.175 43.009c-2.863 12.93-4.583 24.707-9.2 37.234-1.917 5.2-4.441 12.594-10.287 14.447-6.883 2.18-14.547 3.4-21.631 4.827-13.965 2.8-28.215-.089-41.983 3.338-13.845 3.446-30.679 10.783-45.034 6.93-12.866-3.454-22.734-11.3-31.716-20.623-4.6-4.776-9.133-9.667-14.348-13.793-5-3.959-10.684-1.038-12.387-8.814-1.525-6.963.215-14.1.025-21.121-.22-8.14-.185-16.284-.317-24.425s-.579-16.281-.475-24.425 2.009-16.276 1.087-24.445c-1.482-13.114-4.424-27-17.064-33.09-14.856-7.159-25.035-7.636-39.962-.568-11.788 5.583-24.51 7.131-32.075 18.679-3.529 5.385-6.455 11.168-10.408 16.271-5.065 6.544-11.636 10.775-15.664 18.257-13.115 24.364-37.451 54.2-31.36 83.708 1.5 7.267 4.732 14.017 7.846 20.7 2 4.282 12.685 8.461 16.64 10.925 5.529 3.445 11.034 7.454 17.344 9.278 7.31 2.113 9.365 8.557 11.067 15.441 2.973 12.028 6.221 27.962 1.7 39.914-2.18 5.762-6.2 10.557-8.91 16.044-3.76 7.608-2.279 15.012-1.667 23.1.607 8-3.192 11.355-5.639 18.337-2.344 6.681-2.242 12.588-6.3 18.758-8.707 13.225-15.4 23.463-15.478 39.989-.064 14.085 5.573 27.666 6.276 41.888.753 15.25 6.411 30.339 13.035 43.975 6.257 12.877 13.823 24.375 21.79 36.246 8.8 13.121 16.409 26.381 27.539 37.741 10.467 10.684 20.274 22.447 31.918 31.91a67.324 67.324 0 0112.775 14.143c2.271 3.222 10.985 12.149 11.034 15.9.044 3.352-5.642 10.458-7.266 13.54-2.781 5.275-5.743 11.269-11.016 14.443-11.457 6.894-23.506 17.57-31.032 28.758-8.458 12.6-13.161 22.742-13.412 38.266-.259 16.056 3.923 30.554 9.879 45.291 2.53 6.26 3.269 13.126 5.991 19.238 2.791 6.264 5.506 11.307 2.985 18.229-1.923 5.278-3.7 11.131-6.019 16.224-3.18 6.984-11.234 12.682-16.626 17.922-10.333 10.038-18.9 22.59-28.257 33.631-3.473 4.1-11.269 7.049-15.959 9.671a118.424 118.424 0 01-23.087 9.685c-14.006 4.331-28.35 8.378-41.876 14.052-13.752 5.77-27.42 14.726-41.59 19.137-14.66 4.56-26.408 8.615-41.945 5.366-12.778-2.671-24.7-15.677-33.6-25.02-9.134-9.584-19.594-16.822-33.071-18.019-15.36-1.365-31.2 3.977-44.458 11.522" stroke="rgba(73,61,124,0.4)" stroke-width=".703"/><path d="M174.526 1422.637c-2.311 7.991-6.049 15.987-5.468 24.5.505 7.429 5.409 18.907 12.543 22.215 7.445 3.454 15.6 8.078 24.028 7.032 7.013-.87 18.833-3.253 20.745-11.225 3.225-13.453 4.016-35.344-7.591-45.336-6.765-5.824-14.714-10.37-23.881-7.94-4.461 1.183-18.972 5.9-20.376 10.753-2.325 8.042.326-1.128 0 .001zm53.887 756.658c1.751-13.067 8.894-25.658 15.416-36.827 6.557-11.225 10.347-28.345 22.7-34.1 5.854-2.728 8.339-7.1 12.5-11.7 4.337-4.8 12-6.317 18.158-6.986 13.862-1.511 29.266 5.386 39.06 14.924 5.233 5.094 10.322 10.333 15.589 15.39 4.284 4.114 9.762 6.823 13.211 11.594 9.208 12.736 16.072 26.847 25.11 39.673 4.263 6.052 8.268 12.27 12.442 18.383 3.672 5.379 8.557 9.346 12.2 14.646 8.409 12.229 17.614 24.607 22.29 38.751 9.142 27.65 3.517 58.645-.234 86.586-1.893 14.1-16.836-3.249-21.667-6.171-11.456-6.924-21.514-17.275-26.93-30.091-2.289-5.418-5.738-12.42-6.138-18.34-.472-6.976.077-13.969-.265-20.947-.69-14.069-1.592-26.831-11.57-37.667-22.521-24.45-50.921.41-73.15 10.856-7.856 3.694-17.368 5.785-25.761 7.925-9.9 2.524-16.758.08-24.965-5.452-16.444-11.084-20.529-31.539-18-50.439.992-7.402-1.075 8.06.004-.008zM379.252 931.357c1.44-4.766 6.682-13.564 12.987-11.1 5.318 2.08 7.46 9.765 12.69 12.789 8.118 4.695 16.665 5.663 25.678 7.308 9.2 1.68 13.018 5.986 19.065 12.518 5.682 6.136 13.6 8.251 17.936 15.876a209.2 209.2 0 0014.718 22.809c1.973 2.627 7.945 8.2 7.991 11.647.05 3.972-1.427 8.16-1.765 12.149-.828 9.787-4.792 16.143-12.16 22.58-13 11.361-28.684 17.181-45.8 18.522-8.924.7-17.837.922-26-3.274-7.305-3.763-13.569-9.848-19.97-14.932-14.7-11.677-10.83-34.31-9.267-51.019.878-9.391 2.824-18.579 3.887-27.932 1.055-9.194-2.693-18.987.01-27.941z" stroke="#a6a6a6" stroke-width=".703"/><path d="M437.165 1492.516c1.732-3.906 9.186-6.019 12.347-8.9 5.655-5.159 10.9-10.75 16.558-15.906 10.467-9.536 20.94-19.489 27.377-32.366 3.02-6.041 7.7-11.057 10.908-16.994 3.694-6.836 6.621-14.044 9.9-21.079 3.165-6.792 3.479-8.2 11.341-9.6 7.76-1.382 16.067-1.922 23.738.232 14.038 3.942 26.872 10.152 39.5 17.366 12.951 7.4 23.947 17.485 37.277 24.215 25.267 12.755 45.774 28.71 64.889 49.579 9.12 9.953 17.625 22.532 24.234 34.273 2.626 4.66 1.906 15.443 2.26 20.817.5 7.587-3.928 14.787-6.979 21.55-5.3 11.749-15.972 24.084-17.307 37.1-.629 6.14-2.974 12.439-2.894 18.582.091 7.038 4.5 14.251 5.511 21.3 3.976 27.785-20.969 49.085-44.2 58.034-12.3 4.742-27.761 6.615-40.116 1.266-13.136-5.685-22.387-18.979-20.988-33.966 1.053-11.278 4.726-22.138 5.49-33.559.819-12.25-7.495-20.364-17.507-26.047-12.08-6.858-23.495-5.3-36.739-7.049a324.13 324.13 0 00-40.828-2.527 154.078 154.078 0 01-34.974-3.832c-5.31-1.275-10.649-2.826-15.405-5.588-5.826-3.382-5.286-7.758-6.549-13.689-2.651-12.469-3.478-24.414-7.965-36.477a48.411 48.411 0 011.121-36.735z" stroke="rgba(73,61,124,0.38)" stroke-width=".703"/><path d="M24.024 119.03c5.271-1.2 11.732-2.806 16.166-6.042 4.872-3.556 8.605-8.194 13.7-11.6 10.9-7.28 23.073-12.22 34.492-18.58 8.392-4.674 23.048-18.012 25.793-27.517 3.41-11.849 7.841-23.034 2.248-35.03-5.36-11.493-17-11.5-28.075-10.772-12.878.847-24.993 5.285-37.942 6.05-13.879.82-28.566.7-42.182-2.376" stroke="#a6a6a6" stroke-width=".703"/><path d="M29.165 1586.602c14.254-7.021 27.269-15.211 42.3-20.572 10.58-3.774 30.179-3.953 39.037 4.025 11.738 10.576 22.9 21.91 34.321 32.823 22.094 21.11 59.033-.025 81.234-10.809 27.065-13.147 56.753-18.5 84.235-30.612 12.831-5.658 22.336-12.665 30.867-23.878 8.229-10.812 18.649-18.771 27.94-28.61 6.566-6.954 21.216-8.593 23.336-18.744 2.675-12.8-5.8-28.852-11.437-39.827-6.853-13.346-13.46-25.683-16.038-40.637-2.143-12.441-2.715-32.288 5.184-43.04 8.141-11.076 17.368-22.64 28.55-30.776 5.793-4.215 11.851-8.042 17.722-12.141 4.905-3.42 8.6-9.743 12.293-14.53 8.088-10.469 4.642-17.958-4.041-26.29-4.077-3.914-6.842-8.729-10.987-12.541-6.2-5.7-12.706-11.054-18.952-16.7-21.761-19.694-36.513-43.214-53.352-66.836-7.677-10.769-17.534-24.6-20.42-37.674-3.41-15.448-5.385-30.15-4.98-46.041.179-7.01.753-14 1.522-20.969.835-7.565 8.973-8.733 15.349-11.257 14.279-5.647 30.067-11.043 45.488-7.693 13.5 2.932 28.044 7.474 41.984 6.025 15.278-1.594 31.016-7.114 45.179-12.858 11.081-4.494 19.427-17.452 28.845-24.635 11.445-8.731 9.071-30.285 3.068-41.173-5.647-10.238-40.682-60.026-18.367-64.9 12.98-2.841 24.737-8.96 36.761-14.6 6.061-2.846 12.072-6.188 18.3-8.643 6.993-2.758 16.321-.706 23.67-.864 13.542-.3 26.914-3.445 40.467-4.136 14.565-.744 20.938-11.005 20.463-25.013-.493-14.417-1.325-27.594 1.315-41.968 2.813-15.346 9.366-27.821 14.449-42.229 4.893-13.86 9.65-28.321 18.422-40.266 8.74-11.9 16.563-24.1 25.845-35.694 18.809-23.495 41.532-44.295 47.648-75.046 6.158-30.969-6.568-58.415-16.094-87.038-4.685-14.077-1.365-28.966 6.946-41.2 3.453-5.079 8.183-9.095 11.6-14.237 4.144-6.238 7.416-13.154 10.681-19.882 6.249-12.883 9.106-26.748 9.47-41.041.417-16.442-4.042-34.983.282-51.012 3.87-14.356 7.155-28.575 11.644-42.807 4.9-15.531 9.813-25.462 5.048-42.026a305.574 305.574 0 00-14.3-40.486c-6.1-13.6-21.2-18.695-34.847-20.877-30.246-4.841-60.53 4.268-87.146 17.922-12.652 6.491-24.378 13.915-38.147 17.564-14.94 3.958-29.994 7.616-45.256 10.1a210.049 210.049 0 01-45.4 2.347c-7-.383-13.965-1.233-20.968-1.58-8.143-.4-16.369.772-24.452-.69-31.013-5.6-50.07-29.907-73.959-48.1-6.812-5.187-14.5-9.079-20.676-15.1-7.038-6.852-11.542-15.741-18.069-23.045-7.371-8.248-15.545-13.081-25.283-18.006a25.507 25.507 0 01-8.505-6.413c-2.769-3.1-11.826-1.9-15.569-1.895-15.507.036-46.718 2.609-51.132-18.43-1.664-7.943 3.57-20.721 9.109-26.461 6.535-6.765 19.074-3.669 27.4-4.354 8.312-.685 17.462-2.709 25.005-6.312 8.538-4.08 11.3-14.745 14.122-23.084 6.773-19.975 13.436-40.203 21.375-59.746" stroke="rgba(73,61,124,0.4)" stroke-width=".703"/><path d="M179.238 1447.209c-.458-4.05 1.675-14.309 4.05-17.468 2.918-3.881 9.776-5.329 14.263-7.518 9.4-4.585 19.6 16.985 21.394 23.859 2.082 7.977-8.318 16.486-18.118 16.887-4.758.194-11.3-2.778-15.043-5.457-1.995-1.432-6.119-6.536-6.546-10.303zm124.304 606.849c-3.06-.59-6.6 2.973-15.506 6.068-7.6 2.64-11.82 10.077-16.278 16.254-10.48 14.521-22.916 23.951-29.087 41.534-5.874 16.732-17.831 30.124-22.39 47.3-5.035 18.965-2.835 38.38 5.081 56.221a47.875 47.875 0 0032.312 26.963c12.991 3.343 29.412-4.709 41.626-8.8 12.237-4.1 27.979-13.126 40.787-7.565 11.128 4.831 23.151 13.084 24.254 25.722 1.3 14.96 2.869 31.52 11.843 44.29 7.642 10.878 18.372 20.494 27.289 30.352 5.208 5.757 11.2 10.21 16.891 15.415 3.631 3.327 5.2 8.484 9.184 11.465 9.622 7.2 22.478-9.518 23.863-17.591 2.547-14.84.747-32.191.682-47.245-.064-14.76.656-30.1-.99-44.778-.924-8.246-3.357-16.215-4.792-24.37-1.227-6.974-.842-14.179-2.684-21.054-1.727-6.445-5.851-11.493-10.174-16.4-2.877-3.266-8.758-7.219-10.588-11.1-3.216-6.808-4.058-14.406-6.758-21.4-2.21-5.726-6.284-9.71-10.108-14.347-4.061-4.922-6.256-10.794-10.668-15.508-5.012-5.355-10.5-10.229-15.909-15.173-11.813-10.787-23.936-21.106-35.106-32.684-4.632-4.8-8.976-9.967-14.389-13.932-4.831-3.539-10.7-5.136-16.036-7.7-3.304-2.305-9.287-1.347-12.349-1.937zm6.098-1219.52c.451-11.241 17.892-20.841 23.45-29.941 3.369-5.518 6.162-10.767 11.178-14.99 5.868-4.938 7.456-12.82 9.718-19.818 4.1-12.673 15.128-22.2 28.452-25.216 13.752-3.107 25.147 12.246 20.954 24.775-4.017 12-10.074 27.976-19.8 36.243-10.1 8.58-9.4 25.981-18.654 36.133q-7.868 8.643-16.314 16.734c-6.339 6.086-9.143 7.368-18.4 5.6-3.054-.585-14.9-1.581-15.8-5.153-2.033-8-5.115-15.984-4.783-24.37.163-4.099-.331 8.275-.001.003z" stroke="#a6a6a6" stroke-width=".703"/><path d="M423.094 1492.699c5.214-9.567 18.411-10.734 25.947-17.879 11.274-10.687 24.853-18.64 33.7-31.758a156.4 156.4 0 0017.707-35.2c3.256-9.373 7.543-27.227 16.025-33.456 9.271-6.806 27.923 2.413 37.245 5.868 13.478 5 26.329 12.635 38.483 20.287 11.848 7.465 22.618 15.817 35.259 21.914 12.886 6.213 28.13 13.47 38.662 23.387 10.2 9.6 20.891 20.045 29.462 31.12 8.769 11.327 22.282 25.421 25.169 39.725 3.186 15.8.557 26.593-4.281 41.561-4.469 13.815-14.64 24-17.321 38.844-2.712 15.013 3.9 27.492 3.139 42.08a91.418 91.418 0 01-3.948 20.941c-1.733 5.9-11.084 12.5-15.269 16.792-20.135 20.634-52.927 31.661-80.282 19.307-4.968-2.243-12.946-4.682-15.28-10.228a65.3 65.3 0 01-4.745-24.37c-.122-8.375 3.964-16.127 4.028-24.483.061-8.19-.047-16.839-3.664-24.381-6.477-13.507-28.386-13.071-40.736-15.216-17.776-3.087-34.585-2.116-52.475-2.656-6.43-.194-13.7-.755-19.733 1.961-5.553 2.5-9.6 7.363-15.049 10.031-12.609 6.169-26.243-10.88-26.347-22.425-.067-7.449 2.489-14.554 2.3-22.078a159.592 159.592 0 00-2.176-24.419c-1.449-7.983-3.169-15.995-4.8-23.942-1.384-6.727-4.61-14.742-1.016-21.332 4.497-8.252-3.908 7.165-.004.005z" stroke="rgba(73,61,124,0.38)" stroke-width=".703"/><path d="M33.079 27.556c12.986.813 25.989 1.37 38.964 2.37 3.412.264 12.215-.485 13.5 3.849 1.757 5.958 3.707 11.922 4.373 18.127.985 9.172-15.666 17.663-22.165 22.924a150.977 150.977 0 01-27.223 17.9c-10.7 5.357-22.482 10.445-34.66 8.141" stroke="#a6a6a6" stroke-width=".703"/><path d="M74.447 1571.721c31.419-10.744 44.337 23.239 64.588 38.047 3.263 2.384 12.045 11.368 16.033 11.347 7.043-.042 13.981-1.393 20.925-2.414 14.144-2.082 28.773-8.761 41.769-14.571 13.641-6.1 26.983-13.762 41.575-17.271 14.143-3.4 31.893-3.584 44.8-10.419 11.724-6.207 23.239-13.782 32.7-23.032 10.9-10.657 21.311-22.077 34.017-30.7 5.36-3.637 10.492-3.244 16.4-5.114 4.361-1.379 10.34-7.619 14.041-2.061 7.661 11.5 17.085 21.851 17.227 36.445.135 13.791-3.338 28.64-8.648 41.342-5.666 13.551-11.3 22.505 1.186 34.663 11.175 10.885 22.394 8.626 34.615.982 5.451-3.41 7.318-7.585 11.052-12.543 4.549-6.038 12.049-10.657 19.275-12.554 28.3-7.427 60.108-3.209 87.537 5.446 8.863 2.8 9.409 5.208 12.339 13.887 2.32 6.872 3.87 13.813 2.673 21.073-2 12.136-9.015 30.008-3 41.887 5.457 10.781 19.51 17.95 30.729 20.786 15.735 3.978 30.794.306 45.877-4.508 25.576-8.163 55.209-31.111 56.389-59.762.59-14.332-4.274-27.717-2.347-42.1 2.088-15.59 10.932-27.316 15.921-41.918 4.918-14.388 7.244-27.02 3.462-42.055-3.445-13.694-13.6-25.674-21.961-36.733a371.46 371.46 0 00-28.265-33.841c-10.367-10.817-23.211-18.69-36.576-25.482-24.809-12.607-46.993-29.048-71.324-42.295-10.841-5.9-22.612-10.165-33.636-15.755-12.29-6.234-27.419-5.943-35.492 7.063-3.352 5.405-2.323 12.187-2.149 18.2.18 6.191-2.121 11.385-3.318 17.385a98.688 98.688 0 01-18.263 40.351c-7.462 9.551-20.938 18.1-31.448 23.771-12.169 6.571-20.453 13.454-33.212 3.969-3.106-2.309-10.334-4.483-12.455-7.411-4.135-5.721-7.122-12.143-10.354-18.386-3.547-6.853-7.319-13.591-10.914-20.419-4.025-7.642-5.177-14.867-6.34-23.467-1.683-12.439.976-28.329 9.016-38.147a157.849 157.849 0 0132.053-29.713c5.794-4.093 11.434-7.31 18.278-9.247 5.015-1.418 12.4-2.965 13.9-8.817 1.437-5.6 3.158-11.575 4.19-17.244 1.192-6.538-4.944-13.685-7.849-19.307-6.218-12.037-19.054-15.97-28.709-24.847-11.321-10.408-22.841-19.951-32.908-31.683-9.451-11.013-17.264-24.077-25.07-36.284-7.893-12.342-15.139-25.435-18.433-39.874-3.423-15-1.507-27.846 3.912-42.081 4.54-11.925 21.01-20.32 33.217-22.455 13.65-2.384 28.161-.554 41.992-2.121 13.868-1.57 28.9-7.84 41.89-12.844 13.14-5.064 24.267-12.947 34.452-22.541 10.845-10.21 22.132-15.457 23.079-31.94.333-5.768 1.453-10.314-.342-15.714-2.235-6.726-4.323-13.506-6.885-20.119-5.137-13.253-15.327-21.189-6.419-35.807 2.4-3.937 6.8-12.63 11.1-14.555 5.873-2.628 11.5-5.726 17.341-8.431 13.821-6.4 29.267-6.3 44.18-7.73 6.993-.67 14.027-1.194 20.993-.016 6.861 1.161 13.192 2.508 20.125.991 15.346-3.36 19.6-12.621 17.857-27.532-1.606-13.732-5.12-27.25-4.742-41.139.389-14.287 3.821-28.549 8.621-41.97 10.069-28.158 20.676-55.147 39.645-78.666 17.772-22.036 43.694-44.353 51.775-72.406 3.8-13.189 6.124-24.784 5.631-38.651-.511-14.419-4.348-28.227-9.106-41.721-4.419-12.533-11.173-27.865-7.245-41.217 4.383-14.9 14.637-26.075 22.025-39.405 7.318-13.2 11.231-26.4 14.282-40.968 3.446-16.452 1.555-33.2 1.043-49.879-.441-14.332 3.263-28.3 7.126-42 3.793-13.415 12.102-28.126 13.067-42.005.94-13.567-5.343-29.277-9.9-41.845q-3.847-10.6-8.6-20.83c-4.547-9.849-6.576-11.658-16.623-15.652-27.948-11.109-59.066-7.688-87.416.634-12.662 3.719-24.714 11.592-36.271 17.8-13.832 7.426-28.4 8.778-43.562 11.732-14.028 2.733-27.6 5.4-41.925 6.21-16.48.927-32.5-.844-48.906-1.341-8.149-.246-16.292.569-24.439.177-5.151-.253-11.672-5.178-16.118-7.556-12.229-6.541-22.637-16.7-33.2-25.6-22.016-18.561-42.274-39.146-62.737-59.349-4.958-4.9-6.952-9.7-10.074-15.707-2.726-5.244-8.331-7.048-11.834-11.514-9.437-12.033-4.253-30.541 2.4-42.179 8.933-15.631 10.077-33.863 14.292-51.132 4.323-17.753 11.221-33.886 18.748-50.43" stroke="rgba(73,61,124,0.38)" stroke-width=".703"/><path d="M40.961 1720.443c5.032-2.538.171-8.341-2.242-10.822-3.9-4.01-5.453-7.439-7.58-12.51-2.333-5.562-8.5-6.438-13.75-7.612m26.534-17.246c12.809 3.1 29.542 2.767 41.209-4.146 10.162-6.022 25.761-11.7 32.133-22.336 6.649-11.1 1.741-28.24-4.546-38.293-3.365-5.382-6.166-11.548-11.967-14.385-6.187-3.028-12.442-6.7-19.478-7.181-13.314-.9-28.15 6.347-39.034 13.324a292.648 292.648 0 01-19.984 11.714m325.192-19.543c.325-3.787 7.846-9.17 10.309-11.721q6.355-6.586 12.872-13.012c9.614-9.5 5.74 19.525 5.421 24.361-.546 8.355-16.105 19.126-21.769 24.716-9.859 9.738-7.272-19.238-6.833-24.344zm41.275-220.417c-12.7 28.991-5.032 56.542 18.773 76.665 24.723 20.9 49.943 1.023 64.368-21.482 6.773-10.566 8.24-26.817 6.3-38.971-2.074-12.982-3.954-27.478-16.045-34.485-4.562-2.646-10.26-6.331-15.383-7.639-5.925-1.512-17.021.168-23.208.969-10.475 1.352-30.488 15.093-34.8 24.943-3.42 7.793 1.507-3.452-.005 0zM28.401 1796.803c14.287 5.33 30.426 4.264 45.412 4.866 13.981.563 19.063 11.36 29.735 18.676 11.5 7.884 19.567 22.557 32.988 27.3 12.455 4.4 25.824 4.271 31.644 18.174 5.873 14.034 10.207 28.761 16.08 42.888 1.839 4.419-2.373 11.645-3.7 15.94-1.843 5.97-4.328 11.253-8.979 15.556-9.385 8.681-23.7 13.706-31.332 23.943-7.326 9.827-25.125 11.03-36.472 10.582-15.38-.606-30.2-6.483-45.473-6.526" stroke="#a6a6a6" stroke-width=".703"/><path d="M40.135 1658.89c21.231 4.082 46.847-5.22 58.993-23.012 5.227-7.656 7.9-15.9 1.965-24-2.663-3.636-15.245-17.605-19.711-17.547-10.987.143-24.21 5.683-33.641 10.932-5.04 2.8-9.918 5.889-14.994 8.631-3.733 2.017-9.206 2.24-11.649 6.185-4.5 7.258 2.314-3.738 0 0m108.233 145.179c-.027-2.094 2.548-2.949 3.1-4.8a79.439 79.439 0 002.039-9.889 85.58 85.58 0 016.362-20.518c6.163-14.127 14.943-27.193 20.437-41.559 4.894-12.8 8.11-22.654 18.7-31.8 5.114-4.416 10.45-8.569 15.926-12.525 6.734-4.863 14.373-6.2 22.295-8.207 6.442-1.631 12.275-3.534 17.645-7.526 4.232-3.148 8.824-7.5 14.4-7.794 10.618-.559 21.725 15.278 19.143 25.17-2.375 9.1-13.032 17.253-3.835 26.212 3.788 3.689 8.739 5.9 12.527 9.592 5.266 5.122 10.216 9.876 16.348 14.019 11.235 7.6 26.1 14.042 39.845 13.868a137.914 137.914 0 0020.982-2.031c7.653-1.3 15.558-4.339 23.355-2.185 4.008 1.107 10.792 4.533 8.515 9.849-1.9 4.444-7.724 5.787-10.711 9.319-4.424 5.238-8.587 10.347-11.336 16.692-3.394 7.83-5.049 16.6-9.311 24.025-7.079 12.337-11.97 25.212-19.929 37.181-8.179 12.3-16.731 25.294-27.412 35.633-7.5 7.258-20.737 17.585-31.589 17.651-7.3.046-14.022-3.432-21-5.048-8.251-1.912-16.565-3.714-24.53-6.644-5.234-1.926-9.329-5.95-14.612-7.911-5.409-2.006-10.838-3.894-16.218-5.984-10.961-4.263-18.53-8.367-26.883-16.5a328.938 328.938 0 00-25.556-22.165c-4.184-3.329-7.142-8.4-9.964-12.853-1.853-2.922-8.687-9.785-8.733-13.272zm266.479-394.36c-3.454 10.627-9.1 19.989-7.283 31.591 2.118 13.551 6.434 22.659 16.583 31.694 4.268 3.8 8.772 7.337 12.98 11.2 4.24 3.892 12.4 1.878 17.587 1.269 3.776-.442 10.113.059 12.736-3.144 4.008-4.884 8.489-9.358 12.478-14.26 14.031-17.237 12.265-47.76-2.888-64.225-8.682-9.435-21.534-13.217-34.094-10.82a37.745 37.745 0 00-14.649 6.654c-2.668 1.876-12.481 7.115-13.451 10.042-2.648 8.149.072-.212.001-.001z" stroke="#a6a6a6" stroke-width=".703"/><path d="M469.235 1663.114c.293-3.312 4.194-6.847 5.647-9.774 2.507-5.051 4.6-10.406 8.182-14.838 6.726-8.324 13.8-13.085 24.659-14.18 18.227-1.839 39.045 7.623 34.458 28.7-2.121 9.746-6.616 17.857-12.422 25.857-1.388 1.914-5.448 8.311-10.356 9.644-5.653 1.536-8.369 1.4-14.205 1.937-10.61.985-20.965-.543-31.476-1.8-6.949-.827-4.976-20.017-4.486-25.539z" stroke="rgba(73,61,124,0.53)" stroke-width=".703"/><path d="M49.611 1823.579c13.281 1.093 24.315 8.486 35.219 15.548 12.351 8.074 26.792 15.194 36.615 26.438 8.348 9.556 16.974 19.131 24.309 29.41 9.457 13.253 7.721 23.041-1.25 35.984-17.892 25.813-53.5 16.115-79.5 13.485m-31.986-300.09c-.1-7.8 6.406-24.118 13.6-27.807 9.754-5 24.505-5.33 35.016-3.363 16.836 3.151-7.929 20.481-11.576 22.87-5.415 3.547-9.98 8.05-16.54 8.147-1.697.026-20.496.338-20.5.153zm120.844 96.153c-.039-3.006 3.023-7.211 3.97-9.992a163.967 163.967 0 016.678-17.689c4.555-9.588 8.93-20.13 14.107-29.3 2.544-4.508 8.976-7.523 13.3-9.983 2.74-1.561 9.63-7.157 12.627-7.2 6.055-.08 22.919 8.1 26.1 13.365 2.036 3.371 1.7 8.245 4.973 10.869 4.328 3.47 9.961 4.491 15.118 6.1 10.678 3.329 23.827 7.164 32.714 14.108 8.747 6.834 19.68 10.532 28.946 16.773 5.128 3.451 10.166 7.035 15.3 10.475 1.881 1.307 2.781 11.633 3.266 14.079 2.427 12.251-.629 22.951-2.515 34.982-.456 3.376-7 9.629-9.068 12.458-3.6 4.937-7.31 9.79-10.9 14.734-5.49 7.565-16.629 15.546-25.41 18.725-10.838 3.922-24.212-1.554-34.621-4.91-11.757-3.79-23.357-8.213-34.991-12.364-11.165-3.983-19.589-12.514-28.681-20.033-16.255-13.446-30.627-33.383-30.913-55.197zm240.701-345.163c-.091-7.037 7.821-16.968 12.041-22.223 6.769-8.427 13.826-11.245 24.561-9.495 4.709.767 9.3 2.077 13.929 3.216 4.5 1.109 7.228 8.582 9.329 12.143 5.5 9.327 8.339 18.755 6.671 29.644-2.776 18.125-16.69 33.628-36.538 30.021-17.659-3.21-29.775-26.851-29.993-43.306z" stroke="#a6a6a6" stroke-width=".703"/><path d="M497.62 1662.745c-3.02-4.618 4.259-13.144 6.918-15.86 1.245-1.275 9.627-11.4 17.542-8.89 3.669 1.165 3.925 20.754.383 26.414-2.964 4.738-19.318 6.784-24.843-1.664z" stroke="rgba(73,61,124,0.53)" stroke-width=".703"/><path d="M35.712 1841.716c12.289-.933 26.285 6.006 37.01 11.383 13.66 6.85 23.407 15.551 34.155 26.331 3.937 3.948 7.054 5.967 8.262 11.606 1.47 6.86 2.452 13.969 1.481 20.972-1.305 9.421-23.638 13.774-30.913 14.8-13.018 1.84-27.507-1.227-40.753-.921m132.828-210.121c5.154-13.718 26.53-20.077 39.569-15.64 16.351 5.562 32.267 12.237 48.342 18.516a183.816 183.816 0 0122.271 10.364c4.1 2.268 8.147 4.631 12.221 6.941 4.718 2.676 5.007 4.385 7.145 9.437 6.152 14.535 8.281 34.872-3.363 47.562-6.03 6.566-12.19 13.016-18.665 19.143-6.107 5.785-15.023 4.466-22.957 3.948-8.085-.527-13.523-3.361-20.811-6.726-9.319-4.3-18.881-7.588-28.425-11.313-8.224-3.213-13.346-8.645-20-14.221-5.956-4.993-16.235-11.455-19.023-19.1-2.833-7.762-5.358-16-4.725-24.369.662-8.77 5.391-16.477 8.42-24.541zm228.472-320.574c1.82-9.744 7.551-25.073 20.168-23.016 12.249 2 24.985 13.338 25.244 25.929.147 7.076-1.291 14.058-2.656 20.963-1.231 6.257-15.343 8.246-20.5 8.971-16.08 2.259-24.827-19.071-22.259-32.847z" stroke="#a6a6a6" stroke-width=".703"/><path d="M25.084 1873.624c2.366-3 6.519-10.416 10.91-10.474 4.875-.063 10.351 3.608 14.61 5.614 7.962 3.752 17.933 7.548 25.153 12.6 8.925 6.246 1.222 14.423-5.763 17.721-9.62 4.54-19.465 6.267-30.028 4.488m146.964-163.495c2.8-9.453 10.8-20.891 21.169-22.871 10.453-2 25.859 4.664 35.725 7.854 5.875 1.9 11.725 3.917 17.492 6.129 3.506 1.346 16.983 4.469 18.7 7.678 5.782 10.734 16.188 19.707 10.223 32.853-2.143 4.721-5.346 8.849-7.937 13.316-3.167 5.457-9.064 6.808-14.816 9.087-14.2 5.628-23.58-.659-36.9-5-19.592-6.389-51.311-23.193-43.655-49.046 2.704-9.136-2.347 7.924-.001 0zm233.399-345.067c.009.758-1.713 12.1 2.246 7.969 1.377-1.437 1.3-4.159 1.305-5.961.011-2.333-3.586-4.656-3.551-2.008z" stroke="#a6a6a6" stroke-width=".703"/></g></svg>