<svg xmlns="http://www.w3.org/2000/svg" viewBox="-5656 2550 1924 29">
  <path d="M-5656 2550v23.749c19.151 1 33.712 2.335 51.08 3.466 26.7 1.738 99.141 2.01 135.1-.052 53.022-3.04 101.61-3.868 155.916-2.2 43.745 1.344 87.263 3.185 139.178 2.953 61.533-.275 115.764.335 175.785.509 54.965.159 106.626-.34 162.763-1.246 122.036-1.968 241.991-3.894 364.174-5.249 60.471-.672 121.278-.136 177.207.607 26.593.354 51.463.47 79.548.39 28.056-.079 39.281.792 59.459 1.713 35.752 1.631 77.615 5.084 127.421 4.389 55.283-.771 153.951-4.282 159.431-4.46s18.976-.218 28.132-.506c38.789-1.8 79.061-3.475 108.8-6.062V2550.001z"/>
</svg>