<?xml version="1.0" encoding="UTF-8"?><svg id="a" xmlns="http://www.w3.org/2000/svg" width="208" height="105.19" xmlns:xlink="http://www.w3.org/1999/xlink" viewBox="0 0 208 105.19"><defs><linearGradient id="b" x1="91.24" y1="4.16" x2="67.15" y2="36.91" gradientUnits="userSpaceOnUse"><stop offset="0" stop-color="#fff"/><stop offset=".67" stop-color="#fff" stop-opacity=".45"/><stop offset="1" stop-color="#fff" stop-opacity=".2"/></linearGradient><linearGradient id="c" x1="69.25" y1="29.04" x2="128.45" y2="13.23" gradientUnits="userSpaceOnUse"><stop offset=".26" stop-color="#fff"/><stop offset=".35" stop-color="#fff" stop-opacity=".98"/><stop offset=".44" stop-color="#fff" stop-opacity=".94"/><stop offset=".53" stop-color="#fff" stop-opacity=".86"/><stop offset=".61" stop-color="#fff" stop-opacity=".75"/><stop offset=".7" stop-color="#fff" stop-opacity=".61"/><stop offset=".79" stop-color="#fff" stop-opacity=".44"/><stop offset=".88" stop-color="#fff" stop-opacity=".24"/><stop offset=".89" stop-color="#fff" stop-opacity=".2"/></linearGradient></defs><polygon points="15.57 75.66 15.57 69.5 13.34 69.5 13.34 75.66 11.32 75.66 11.32 77.77 13.34 77.77 13.34 94.85 15.57 94.85 15.57 77.77 18.79 77.77 18.79 75.66 15.57 75.66" fill="#fff" stroke-width="0"/><path d="m33.8,76.49c-.99-1.28-2.6-1.93-4.78-1.93-1.23,0-2.34.31-3.31.91-.79.49-1.46,1.13-1.99,1.92v-11.02h-2.23v28.49h2.23v-10.62c0-5.09,1.68-7.57,5.14-7.57,1.51,0,2.59.41,3.22,1.23.64.83.97,2.28.97,4.32v12.65h2.23v-12.61c0-2.55-.5-4.49-1.48-5.76Z" fill="#fff" stroke-width="0"/><path d="m57.04,85.21c0-2.88-.84-5.28-2.5-7.14-1.67-1.87-3.87-2.82-6.54-2.82-1.68,0-3.24.43-4.64,1.28-1.41.85-2.52,2.04-3.3,3.52-.78,1.48-1.18,3.15-1.18,4.95s.4,3.51,1.18,5.01c.78,1.5,1.89,2.69,3.28,3.54,1.39.85,2.96,1.28,4.67,1.28,1.89,0,3.56-.45,4.98-1.32,1.42-.88,2.57-2.14,3.44-3.76l.1-.19-1.89-1.1-.11.2c-.69,1.31-1.6,2.33-2.68,3.02-1.09.69-2.3,1.04-3.6,1.04-2.1,0-3.83-.69-5.15-2.06-1.32-1.37-1.99-3.13-1.99-5.23l15.94-.02v-.22Zm-2.26-1.89h-13.65c.11-.96.47-1.9,1.07-2.8.65-.97,1.51-1.75,2.54-2.31,1.04-.56,2.13-.85,3.25-.85,1.71,0,3.23.6,4.52,1.77,1.23,1.12,1.99,2.53,2.26,4.19Z" fill="#fff" stroke-width="0"/><path d="m69.23,76.11c-.71-.3-1.4-.45-2.03-.45-1.68,0-2.97.75-3.83,2.24v-2.24h-2.23v19.2h2.23v-10.35c0-2.52.29-4.3.86-5.29.56-.97,1.44-1.44,2.69-1.44.38,0,.78.11,1.16.33l.19.1,1.19-1.99-.23-.1Z" fill="#fff" stroke-width="0"/><path d="m86.25,75.66v2.83c-.72-.93-1.65-1.68-2.76-2.25-1.28-.65-2.69-.98-4.17-.98-2.73,0-4.97.92-6.66,2.73-1.69,1.81-2.54,4.15-2.54,6.95,0,1.86.4,3.57,1.18,5.09.78,1.53,1.9,2.73,3.3,3.57,1.41.84,3.02,1.26,4.8,1.26,1.49,0,2.9-.35,4.2-1.04,1.11-.59,2-1.35,2.66-2.26v2.9h2.23v-18.8h-2.23Zm-10.47,2.71c1.04-.66,2.2-1,3.42-1,2.07,0,3.81.69,5.15,2.06,1.34,1.37,2.02,3.15,2.02,5.31,0,2.37-.66,4.32-1.95,5.8-1.29,1.47-2.99,2.21-5.06,2.21-1.3,0-2.5-.34-3.56-1.02-1.06-.68-1.91-1.62-2.53-2.82-.62-1.19-.93-2.53-.93-3.97,0-1.34.31-2.61.93-3.79.61-1.18,1.46-2.11,2.51-2.78Z" fill="#fff" stroke-width="0"/><path d="m110.68,80.13c-.77-1.53-1.88-2.73-3.3-3.59-1.42-.85-3.04-1.28-4.82-1.28-1.46,0-2.87.35-4.19,1.04-1.12.58-2.01,1.34-2.66,2.25v-2.89h-2.23v29.53h2.23v-13.54c.7.92,1.6,1.67,2.7,2.23,1.27.65,2.69.98,4.23.98,1.78,0,3.39-.41,4.8-1.22,1.41-.81,2.51-1.97,3.27-3.45.75-1.47,1.14-3.14,1.14-4.97s-.39-3.57-1.16-5.09Zm-1.07,5.13c0,2.11-.67,3.9-1.99,5.34-1.31,1.43-2.98,2.15-4.94,2.15-2.07,0-3.79-.68-5.11-2.02-1.32-1.34-1.98-3.11-1.98-5.27,0-2.4.66-4.37,1.97-5.86,1.3-1.48,2.98-2.23,5-2.23,1.33,0,2.55.35,3.64,1.04,1.09.69,1.94,1.64,2.52,2.83.59,1.2.89,2.55.89,4.02Z" fill="#fff" stroke-width="0"/><path d="m132.3,85.21c0-2.88-.84-5.28-2.5-7.14-1.67-1.87-3.87-2.82-6.54-2.82-1.68,0-3.24.43-4.64,1.28-1.41.85-2.52,2.04-3.3,3.52-.78,1.48-1.18,3.15-1.18,4.95s.4,3.51,1.18,5.01c.78,1.5,1.89,2.69,3.28,3.54,1.39.85,2.96,1.28,4.67,1.28,1.89,0,3.56-.45,4.98-1.32,1.42-.88,2.57-2.14,3.44-3.76l.1-.19-1.89-1.1-.11.2c-.69,1.31-1.6,2.33-2.68,3.02-1.09.69-2.3,1.04-3.6,1.04-2.1,0-3.83-.69-5.15-2.06-1.32-1.37-1.99-3.13-1.99-5.23l15.94-.02v-.22Zm-2.26-1.89h-13.65c.11-.96.47-1.9,1.07-2.8.65-.97,1.51-1.75,2.54-2.31,1.04-.56,2.13-.85,3.25-.85,1.71,0,3.23.6,4.52,1.77,1.23,1.12,1.99,2.53,2.26,4.19Z" fill="#fff" stroke-width="0"/><path d="m147.52,75.66v10.83c0,2.35-.36,4-1.08,4.91-.71.89-1.89,1.35-3.5,1.35-1.17,0-2.08-.22-2.72-.66-.63-.44-1.11-1.06-1.41-1.84-.31-.81-.46-2.12-.46-3.92v-10.67h-2.23v11.51c0,1.33.07,2.3.22,2.97.15.67.4,1.3.74,1.87.35.58.84,1.09,1.45,1.52.61.42,1.29.75,2.03.98.73.23,1.53.35,2.37.35,1.44,0,2.74-.33,3.87-.98,1.14-.66,1.92-1.5,2.34-2.49.22-.49.38-1.02.47-1.56.09-.54.14-1.43.14-2.66v-11.51h-2.23Z" fill="#fff" stroke-width="0"/><polygon points="157.77 75.66 157.77 69.5 155.54 69.5 155.54 75.66 153.52 75.66 153.52 77.77 155.54 77.77 155.54 94.85 157.77 94.85 157.77 77.77 160.99 77.77 160.99 75.66 157.77 75.66" fill="#fff" stroke-width="0"/><rect x="164.56" y="75.66" width="2.23" height="19.2" fill="#fff" stroke-width="0"/><path d="m166.82,69.92c-.27-.27-.61-.41-.99-.41s-.72.14-1,.41c-.27.27-.41.61-.41,1s.14.72.41,1c.27.27.61.41,1,.41s.72-.14.99-.41c.27-.27.41-.61.41-1s-.14-.72-.41-1Z" fill="#fff" stroke-width="0"/><path d="m186.42,89.52c-.93,1.08-1.97,1.9-3.1,2.43-1.13.53-2.3.79-3.48.79-1.28,0-2.5-.35-3.62-1.04-1.13-.69-2.04-1.65-2.7-2.84-.67-1.19-1.01-2.49-1.01-3.85s.34-2.62,1.01-3.81c.67-1.19,1.58-2.14,2.7-2.82,1.13-.68,2.36-1.02,3.66-1.02,2.39,0,4.51.98,6.32,2.91l.38.41v-3.05l-.08-.07c-1.86-1.54-4.06-2.32-6.54-2.32-1.75,0-3.39.43-4.88,1.28-1.48.85-2.67,2.04-3.52,3.54-.85,1.5-1.28,3.16-1.28,4.94s.42,3.45,1.26,4.95c.84,1.51,2.01,2.72,3.48,3.58,1.47.86,3.12,1.3,4.9,1.3,1.24,0,2.48-.24,3.7-.71,1.21-.47,2.26-1.11,3.13-1.89l.07-.07v-3.12l-.39.45Z" fill="#fff" stroke-width="0"/><path d="m201.45,86.5c-.33-.63-.76-1.17-1.29-1.6-.52-.42-1.1-.77-1.72-1.03-.62-.25-1.25-.5-1.88-.74-1.14-.41-1.93-.77-2.33-1.05-.4-.27-.71-.57-.91-.89-.2-.31-.3-.71-.3-1.19,0-.71.29-1.31.88-1.84.6-.54,1.27-.8,2.04-.8.67,0,1.28.18,1.81.52.53.35.94.82,1.21,1.42l.1.21,1.94-.99-.08-.19c-.39-.89-1.07-1.63-2.01-2.21-.94-.57-1.91-.87-2.88-.87-1.48,0-2.74.47-3.73,1.41-1,.94-1.5,2.1-1.5,3.46,0,1.11.37,2.08,1.11,2.89.73.8,2.03,1.54,3.96,2.24l1.36.52c1.69.61,2.52,1.61,2.52,3.05,0,1.1-.39,2.04-1.15,2.78-.76.75-1.69,1.13-2.77,1.13-2.16,0-3.59-1.17-4.36-3.58l-.07-.21-2.16.69.05.2c.38,1.53,1.16,2.76,2.32,3.66,1.16.9,2.58,1.36,4.21,1.36,1.72,0,3.19-.57,4.36-1.69,1.18-1.12,1.78-2.55,1.78-4.25,0-.96-.17-1.77-.5-2.41Z" fill="#fff" stroke-width="0"/><path d="m16.01,55.84l-.05.13c-.34.84-.81,1.59-1.39,2.21-.87.94-1.95,1.58-3.21,1.91-2.03.53-3.87.3-5.48-.69-1.61-.99-2.7-2.52-3.23-4.55v-.02s15.37-4.02,15.37-4.02l-.06-.21c-.73-2.78-2.14-4.88-4.21-6.26-2.08-1.38-4.44-1.74-7.02-1.07-1.62.42-3.02,1.23-4.16,2.41-1.14,1.18-1.91,2.6-2.3,4.23-.38,1.63-.34,3.33.11,5.08.46,1.77,1.27,3.29,2.4,4.54,1.13,1.25,2.5,2.12,4.06,2.59.82.25,1.65.37,2.5.37.77,0,1.55-.1,2.33-.31,1.82-.48,3.33-1.33,4.48-2.53.97-1.02,1.66-2.2,2.11-3.59l.1-.3-2.33.07Zm-.72-6.48l-13.17,3.44c-.13-.95-.02-1.95.33-2.97.38-1.1,1.01-2.07,1.87-2.87.86-.8,1.84-1.35,2.92-1.64.57-.15,1.14-.22,1.7-.22,1.06,0,2.1.26,3.11.79,1.47.77,2.56,1.94,3.23,3.47Z" fill="#fff" stroke-width="0"/><rect x="21.48" y="26.19" width="2.23" height="36.3" fill="#fff" stroke-width="0"/><polygon points="61.45 43.35 55.1 57.18 48.63 43.35 46.32 43.35 55.06 62.5 63.76 43.35 61.45 43.35" fill="#fff" stroke-width="0"/><path d="m80.76,43.35v2.81c-.72-.93-1.64-1.68-2.75-2.24-1.28-.65-2.68-.98-4.16-.98-2.72,0-4.95.92-6.64,2.73-1.68,1.8-2.54,4.14-2.54,6.93,0,1.85.39,3.56,1.17,5.07.78,1.52,1.89,2.72,3.29,3.56,1.4.84,3.01,1.26,4.79,1.26,1.48,0,2.89-.35,4.19-1.04,1.1-.58,1.99-1.34,2.65-2.25v3.29h2.23v-19.15h-2.23Zm.12,9.06c0,2.36-.65,4.31-1.95,5.78-1.28,1.46-2.98,2.2-5.04,2.2-1.3,0-2.49-.34-3.55-1.02-1.06-.67-1.9-1.62-2.52-2.81-.61-1.19-.93-2.52-.93-3.96,0-1.33.31-2.6.93-3.78.61-1.17,1.45-2.11,2.5-2.77,1.04-.66,2.19-1,3.41-1,2.07,0,3.79.69,5.13,2.05,1.34,1.36,2.02,3.14,2.02,5.29Z" fill="#fff" stroke-width="0"/><path d="m95.83,43.4c-.71-.3-1.39-.45-2.03-.45-1.67,0-2.95.75-3.82,2.23v-1.83h-2.23v19.15h2.23v-10.72c0-2.51.29-4.29.86-5.28.56-.97,1.43-1.43,2.68-1.43.38,0,.77.11,1.16.33l.19.11,1.19-1.99-.23-.1Z" fill="#fff" stroke-width="0"/><path d="m42.85,55.84l-.05.13c-.34.84-.81,1.59-1.39,2.21-.87.94-1.95,1.58-3.21,1.91-2.03.53-3.87.3-5.48-.69-1.61-.99-2.7-2.52-3.23-4.55v-.02s15.37-4.02,15.37-4.02l-.06-.21c-.72-2.78-2.14-4.88-4.21-6.26-2.08-1.38-4.44-1.74-7.02-1.07-1.62.42-3.02,1.23-4.16,2.41-1.14,1.18-1.91,2.6-2.3,4.23-.38,1.63-.34,3.33.11,5.08.46,1.77,1.27,3.29,2.4,4.54,1.13,1.25,2.5,2.12,4.06,2.59.82.25,1.65.37,2.5.37.77,0,1.55-.1,2.33-.31,1.82-.48,3.33-1.33,4.48-2.53.97-1.02,1.67-2.2,2.11-3.59l.1-.3-2.33.07Zm-.72-6.48l-13.17,3.44c-.13-.95-.02-1.95.33-2.97.38-1.1,1.01-2.07,1.87-2.87.86-.8,1.84-1.35,2.92-1.64.57-.15,1.14-.22,1.7-.22,1.06,0,2.1.26,3.11.79,1.47.77,2.55,1.94,3.23,3.47Z" fill="#fff" stroke-width="0"/><path d="m81.91,0s4.3,10.22-3.67,19.6c-2.82,3.32-7.1,7.41-13.81,9.15,15.69-2.92,19.36-5.74,28.21-9.67.23-.67.42-1.46.51-2.35.4-4.02-1.28-10.1-11.24-16.74Z" fill="url(#b)" stroke-width="0"/><path d="m98.68,16.59c-2.31.88-4.27,1.71-6.03,2.49-8.85,3.93-12.52,6.75-28.21,9.67-.67.12-1.36.25-2.07.37,0,0,5.67,4.29,22.82.42,17.15-3.88,21.44-11.76,32.54-15.78-8.83-.05-14.2.99-19.04,2.83Z" fill="url(#c)" stroke-width="0"/><text transform="translate(201.52 80.17) scale(.58)" fill="#fff" font-family="CenturyGothicPro-Bold, &apos;Century Gothic Pro&apos;" font-size="11.58" font-weight="700" letter-spacing="-.04em"><tspan x="0" y="0">™</tspan></text></svg>