<?xml version="1.0" encoding="UTF-8"?><svg id="a" xmlns="http://www.w3.org/2000/svg" width="41.9" height="41.9" viewBox="0 0 41.9 41.9"><g id="b"><path d="m9.7,13.5H1.3c-.4,0-.7.3-.7.7v27c0,.4.3.7.7.7h8.4c.4,0,.7-.3.7-.7V14.2c0-.4-.3-.7-.7-.7Z" fill="#fff" stroke-width="0"/><path d="m5.5,0C2.5,0,0,2.5,0,5.6s2.5,5.5,5.5,5.5,5.5-2.5,5.5-5.5c.1-3.1-2.4-5.6-5.5-5.6Z" fill="#fff" stroke-width="0"/><path d="m31.1,12.8c-3.4,0-5.9,1.5-7.4,3.1v-1.8c0-.4-.3-.7-.7-.7h-8.1c-.4,0-.7.3-.7.7v27c0,.4.3.7.7.7h8.4c.4,0,.7-.3.7-.7v-13.3c0-4.5,1.2-6.3,4.4-6.3,3.4,0,3.7,2.8,3.7,6.5v13.1c0,.4.3.7.7.7h8.4c.4,0,.7-.3.7-.7v-14.8c0-6.7-1.3-13.5-10.8-13.5Z" fill="#fff" stroke-width="0"/></g></svg>