<?xml version="1.0" encoding="UTF-8"?><svg id="a" xmlns="http://www.w3.org/2000/svg" width="73" height="60" viewBox="0 0 73 60"><path d="M67.02,0H5.98C2.69,0,0,2.73,0,6.07v47.86c0,3.34,2.69,6.07,5.98,6.07h61.03c3.29,0,5.98-2.73,5.98-6.07V6.07c0-3.44-2.69-6.07-5.98-6.07ZM62.73,6.07l-26.23,26.61L10.27,6.07h52.46ZM5.98,10.32l19.35,19.63L5.98,49.58V10.32ZM10.27,53.83l19.25-19.63,4.79,4.86,2.09,2.12,6.98-7.08,19.35,19.63-52.46.1h0ZM67.02,49.58l-19.35-19.63,19.35-19.63v39.26Z" fill="#fff" stroke-width="0"/></svg>