<?xml version="1.0" encoding="UTF-8"?><svg id="a" xmlns="http://www.w3.org/2000/svg" width="430" height="154.18" xmlns:xlink="http://www.w3.org/1999/xlink" viewBox="0 0 430 154.18"><defs><clipPath id="b"><rect width="430" height="154.18" fill="none" stroke-width="0"/></clipPath><linearGradient id="d" x1="-39.41" y1="332.85" x2="-39.41" y2="331.85" gradientTransform="translate(17160 51317.45) scale(430 -154.18)" gradientUnits="userSpaceOnUse"><stop offset="0" stop-color="#525d66"/><stop offset="1" stop-color="#080124"/></linearGradient></defs><g clip-path="url(#b)"><g id="c"><path id="e" d="m0,5.75c4.28,1,7.53,2.33,11.42,3.47,5.97,1.74,22.16,2.01,30.19-.05,11.35-3.08,23.2-3.83,34.85-2.2,9.78,1.34,19.5,3.19,31.11,2.95,13.75-.27,25.87.34,39.29.51,12.28.16,23.83-.34,36.38-1.25,27.27-1.97,54.08-3.89,81.39-5.25,13.2-.51,26.42-.31,39.6.61,5.94.35,11.5.47,17.78.39s8.78.79,13.29,1.71c7.99,1.63,17.35,5.08,28.48,4.39,12.36-.77,34.41-4.28,35.63-4.46s4.24-.22,6.29-.51c8.67-1.8,17.68-3.48,24.32-6.06v154.18H0V5.75Z" fill="url(#d)" stroke-width="0"/></g></g></svg>