<?xml version="1.0" encoding="utf-8"?>
<!-- Generator: Adobe Illustrator 27.8.1, SVG Export Plug-In . SVG Version: 6.00 Build 0)  -->
<svg version="1.1" id="Layer_1" xmlns="http://www.w3.org/2000/svg" xmlns:xlink="http://www.w3.org/1999/xlink" x="0px" y="0px"
	 width="433px" height="298px" viewBox="0 0 433 298" enable-background="new 0 0 433 298" xml:space="preserve">
<g id="Group_515" transform="translate(-1041 -307)" display="none">
	<g display="inline" enable-background="new    ">
		<path fill="#493D7C" d="M1061.28,467.23c-6.66,0-11.7-1.6-15.13-4.81c-3.43-3.21-5.14-7.87-5.14-13.99v-12.65
			c0-6.17,1.71-10.84,5.14-14.02c3.43-3.18,8.47-4.77,15.13-4.77c6.71,0,11.78,1.59,15.21,4.77c3.43,3.18,5.14,7.86,5.14,14.02
			v12.65c0,6.12-1.71,10.78-5.14,13.99C1073.05,465.62,1067.98,467.23,1061.28,467.23z M1061.28,458.05c3.3,0,5.76-0.88,7.36-2.63
			c1.6-1.75,2.41-4.28,2.41-7.58v-11.47c0-3.3-0.8-5.83-2.41-7.58c-1.6-1.75-4.06-2.63-7.36-2.63c-3.21,0-5.62,0.88-7.25,2.63
			s-2.44,4.28-2.44,7.58v11.47c0,3.31,0.81,5.83,2.44,7.58C1055.65,457.18,1058.07,458.05,1061.28,458.05z"/>
		<path fill="#493D7C" d="M1095.17,466.34c-0.64,0-0.96-0.32-0.96-0.96v-46.55c0-0.64,0.32-0.96,0.96-0.96h29.53
			c0.64,0,0.96,0.32,0.96,0.96v7.33c0,0.59-0.32,0.89-0.96,0.89h-19.91v11.17h17.09c0.64,0,0.96,0.32,0.96,0.96v7.03
			c0,0.64-0.32,0.96-0.96,0.96h-17.09v18.2c0,0.64-0.32,0.96-0.96,0.96H1095.17z"/>
		<path fill="#493D7C" d="M1155.99,466.34c-0.64,0-0.96-0.32-0.96-0.96v-46.55c0-0.64,0.32-0.96,0.96-0.96h14.65
			c6.71,0,11.59,1.38,14.65,4.14c3.06,2.76,4.59,6.81,4.59,12.14c0,5.13-1.59,9.1-4.77,11.91c-3.18,2.81-7.98,4.22-14.39,4.22h-5.11
			v15.1c0,0.64-0.32,0.96-0.96,0.96H1155.99z M1165.61,441.33h4.96c2.91,0,5.09-0.56,6.55-1.67c1.45-1.11,2.18-2.92,2.18-5.44
			c0-2.61-0.72-4.49-2.15-5.62c-1.43-1.13-3.63-1.7-6.59-1.7h-4.96V441.33z"/>
		<path fill="#493D7C" d="M1201.65,466.34c-0.64,0-0.96-0.32-0.96-0.96v-46.55c0-0.64,0.32-0.96,0.96-0.96h29.53
			c0.64,0,0.96,0.32,0.96,0.96v7.33c0,0.59-0.32,0.89-0.96,0.89h-19.91v10.51h18.13c0.64,0,0.96,0.32,0.96,0.96v6.81
			c0,0.59-0.32,0.89-0.96,0.89h-18.13v10.95h19.91c0.64,0,0.96,0.3,0.96,0.89v7.33c0,0.64-0.32,0.96-0.96,0.96H1201.65z"/>
		<path fill="#493D7C" d="M1240.43,466.34c-0.69,0-0.94-0.34-0.74-1.04l15.69-46.69c0.2-0.49,0.57-0.74,1.11-0.74h11.32
			c0.54,0,0.89,0.25,1.04,0.74l15.84,46.69c0.2,0.69-0.05,1.04-0.74,1.04h-9.55c-0.54,0-0.89-0.25-1.04-0.74l-8.51-28.64
			c-0.49-1.68-0.96-3.37-1.41-5.07s-0.89-3.39-1.33-5.07h-0.15c-0.44,1.68-0.89,3.37-1.33,5.07c-0.44,1.7-0.91,3.39-1.41,5.07
			l-8.36,28.56c-0.15,0.54-0.49,0.81-1.04,0.81H1240.43z M1251.82,456.94l1.78-8.44h16.65l1.92,8.44H1251.82z"/>
		<path fill="#493D7C" d="M1294.08,466.34c-0.64,0-0.96-0.32-0.96-0.96v-46.55c0-0.64,0.32-0.96,0.96-0.96h8.66
			c0.64,0,0.96,0.32,0.96,0.96v11.69c0,1.48-0.01,2.95-0.04,4.4c-0.03,1.46-0.11,2.9-0.26,4.33h0.22c0.89-1.33,1.81-2.69,2.78-4.07
			c0.96-1.38,1.99-2.76,3.07-4.14l10.43-12.65c0.25-0.34,0.62-0.52,1.11-0.52h10.58c0.39,0,0.67,0.11,0.81,0.33
			c0.15,0.22,0.07,0.48-0.22,0.78l-15.54,18.5l17.17,27.75c0.2,0.3,0.23,0.56,0.11,0.78c-0.12,0.22-0.36,0.33-0.7,0.33h-10.58
			c-0.54,0-0.94-0.22-1.18-0.67l-12.06-19.83l-5.7,6.51v13.02c0,0.64-0.32,0.96-0.96,0.96H1294.08z"/>
		<path fill="#493D7C" d="M1381.1,467.23c-6.66,0-11.71-1.6-15.13-4.81c-3.43-3.21-5.14-7.87-5.14-13.99v-12.65
			c0-6.17,1.71-10.84,5.14-14.02s8.47-4.77,15.13-4.77c6.71,0,11.78,1.59,15.21,4.77s5.14,7.86,5.14,14.02v12.65
			c0,6.12-1.71,10.78-5.14,13.99C1392.88,465.62,1387.81,467.23,1381.1,467.23z M1381.1,458.05c3.3,0,5.76-0.88,7.36-2.63
			c1.6-1.75,2.41-4.28,2.41-7.58v-11.47c0-3.3-0.8-5.83-2.41-7.58c-1.6-1.75-4.06-2.63-7.36-2.63c-3.21,0-5.62,0.88-7.25,2.63
			c-1.63,1.75-2.44,4.28-2.44,7.58v11.47c0,3.31,0.81,5.83,2.44,7.58C1375.47,457.18,1377.89,458.05,1381.1,458.05z"/>
	</g>
	<g display="inline" enable-background="new    ">
		<path fill="#493D7C" d="M1429.86,467.23c-6.51,0-11.24-1.26-14.17-3.77c-2.94-2.52-4.18-6.19-3.74-11.03
			c0.05-0.84,0.39-1.26,1.04-1.26h8.44c0.64,0,0.96,0.37,0.96,1.11c-0.05,1.97,0.57,3.47,1.85,4.48c1.28,1.01,3.28,1.52,5.99,1.52
			c2.66,0,4.62-0.39,5.88-1.18c1.26-0.79,1.89-2,1.89-3.63c0-0.79-0.15-1.48-0.44-2.07s-0.81-1.13-1.55-1.63
			c-0.74-0.49-1.75-0.99-3.03-1.48l-10.66-4.66c-2.47-1.04-4.42-2.18-5.85-3.44c-1.43-1.26-2.44-2.7-3.03-4.33s-0.89-3.5-0.89-5.62
			c0.05-4.24,1.49-7.51,4.33-9.8c2.84-2.29,7.07-3.44,12.69-3.44c4.09,0,7.54,0.54,10.32,1.63c2.79,1.09,4.83,2.69,6.14,4.81
			c1.31,2.12,1.81,4.79,1.52,7.99c-0.05,0.84-0.37,1.26-0.96,1.26h-8.51c-0.3,0-0.53-0.11-0.7-0.33c-0.17-0.22-0.24-0.53-0.19-0.92
			c0.15-1.68-0.44-3.03-1.78-4.07s-3.23-1.55-5.7-1.55c-2.17,0-3.81,0.38-4.92,1.15c-1.11,0.77-1.69,1.89-1.74,3.37
			c0,0.74,0.16,1.41,0.48,2c0.32,0.59,0.86,1.15,1.63,1.67c0.76,0.52,1.79,1.05,3.07,1.59l10.58,4.51c2.47,1.08,4.42,2.25,5.85,3.48
			c1.43,1.23,2.44,2.66,3.03,4.29c0.59,1.63,0.89,3.55,0.89,5.77c-0.05,4.44-1.55,7.82-4.51,10.14
			C1441.11,466.07,1436.38,467.23,1429.86,467.23z"/>
	</g>
	<g display="inline" enable-background="new    ">
		<path fill="#493D7C" d="M1454.51,476.03c-0.59,0-0.81-0.32-0.67-0.96l3.7-16.58c0.1-0.44,0.37-0.67,0.81-0.67h6.44
			c0.69,0,0.89,0.35,0.59,1.04l-5.55,16.65c-0.15,0.34-0.4,0.52-0.74,0.52H1454.51z"/>
	</g>
	<g display="inline" enable-background="new    ">
		<path fill="#493D7C" d="M1044.19,402.34c-0.46,0-0.69-0.23-0.69-0.69v-33.34c0-0.46,0.23-0.69,0.69-0.69h6.2
			c0.46,0,0.69,0.23,0.69,0.69v33.34c0,0.46-0.23,0.69-0.69,0.69H1044.19z"/>
		<path fill="#493D7C" d="M1061.42,402.34c-0.46,0-0.69-0.23-0.69-0.69v-33.34c0-0.46,0.23-0.69,0.69-0.69h8.43
			c0.35,0,0.62,0.16,0.8,0.48l7.58,15.26c0.53,1.1,1.06,2.2,1.59,3.31c0.53,1.11,1.02,2.18,1.46,3.21c0.44,1.03,0.8,1.98,1.09,2.86
			h0.16c-0.07-0.95-0.13-2-0.19-3.15c-0.05-1.15-0.1-2.3-0.13-3.45c-0.04-1.15-0.05-2.18-0.05-3.1v-14.73
			c0-0.46,0.21-0.69,0.64-0.69h5.99c0.46,0,0.69,0.23,0.69,0.69v33.34c0,0.46-0.23,0.69-0.69,0.69h-8.32
			c-0.39,0-0.65-0.16-0.79-0.48l-7.37-14.63c-0.5-1.02-0.99-2.11-1.48-3.26c-0.5-1.15-0.98-2.28-1.46-3.39
			c-0.48-1.11-0.91-2.15-1.3-3.1h-0.16c0.07,1.03,0.11,2.12,0.13,3.29c0.02,1.17,0.03,2.33,0.03,3.5s0,2.28,0,3.34v14.04
			c0,0.46-0.23,0.69-0.69,0.69H1061.42z"/>
		<path fill="#493D7C" d="M1120.3,402.34c-0.42,0-0.64-0.23-0.64-0.69V374.2h-8.96c-0.42,0-0.64-0.21-0.64-0.64v-5.25
			c0-0.46,0.21-0.69,0.64-0.69h25.39c0.42,0,0.64,0.23,0.64,0.69v5.25c0,0.42-0.21,0.64-0.64,0.64h-8.9v27.45
			c0,0.46-0.23,0.69-0.69,0.69H1120.3z"/>
		<path fill="#493D7C" d="M1144.84,402.34c-0.46,0-0.69-0.23-0.69-0.69v-33.34c0-0.46,0.23-0.69,0.69-0.69h6.2
			c0.46,0,0.69,0.23,0.69,0.69v13.2h13.51v-13.2c0-0.46,0.23-0.69,0.69-0.69h6.15c0.46,0,0.69,0.23,0.69,0.69v33.34
			c0,0.46-0.23,0.69-0.69,0.69h-6.15c-0.46,0-0.69-0.23-0.69-0.69v-13.62h-13.51v13.62c0,0.46-0.23,0.69-0.69,0.69H1144.84z"/>
		<path fill="#493D7C" d="M1183.1,402.34c-0.46,0-0.69-0.23-0.69-0.69v-33.34c0-0.46,0.23-0.69,0.69-0.69h21.15
			c0.46,0,0.69,0.23,0.69,0.69v5.25c0,0.42-0.23,0.64-0.69,0.64h-14.26v7.53h12.98c0.46,0,0.69,0.23,0.69,0.69v4.88
			c0,0.42-0.23,0.64-0.69,0.64h-12.98v7.84h14.26c0.46,0,0.69,0.21,0.69,0.64v5.25c0,0.46-0.23,0.69-0.69,0.69H1183.1z"/>
		<path fill="#493D7C" d="M1227.78,402.34c-0.46,0-0.69-0.23-0.69-0.69v-33.34c0-0.46,0.23-0.69,0.69-0.69h10.49
			c4.8,0,8.3,0.99,10.49,2.97c2.19,1.98,3.29,4.88,3.29,8.69c0,3.67-1.14,6.52-3.42,8.53c-2.28,2.01-5.72,3.02-10.31,3.02h-3.66
			v10.81c0,0.46-0.23,0.69-0.69,0.69H1227.78z M1234.67,384.43h3.55c2.08,0,3.65-0.4,4.69-1.19c1.04-0.79,1.56-2.09,1.56-3.9
			c0-1.87-0.51-3.21-1.54-4.03c-1.03-0.81-2.6-1.22-4.72-1.22h-3.55V384.43z"/>
		<path fill="#493D7C" d="M1273.68,402.98c-4.63,0-8.14-1.1-10.55-3.31c-2.4-2.21-3.6-5.57-3.6-10.1v-21.25
			c0-0.46,0.23-0.69,0.69-0.69h6.2c0.46,0,0.69,0.23,0.69,0.69v20.99c0,2.26,0.53,4.02,1.59,5.27c1.06,1.25,2.72,1.88,4.98,1.88
			c2.3,0,3.97-0.63,5.01-1.88c1.04-1.25,1.56-3.01,1.56-5.27v-20.99c0-0.46,0.23-0.69,0.69-0.69h6.2c0.46,0,0.69,0.23,0.69,0.69
			v21.31c0,4.42-1.21,7.75-3.63,9.99C1281.78,401.85,1278.27,402.98,1273.68,402.98z"/>
		<path fill="#493D7C" d="M1297.9,402.34c-0.46,0-0.69-0.23-0.69-0.69v-33.34c0-0.46,0.23-0.69,0.69-0.69h11.66
			c4.77,0,8.23,0.92,10.39,2.76c2.15,1.84,3.23,4.5,3.23,8c0,2.4-0.53,4.43-1.59,6.09c-1.06,1.66-2.69,2.83-4.88,3.5v0.05
			l8.37,13.51c0.14,0.21,0.17,0.4,0.08,0.56s-0.27,0.24-0.56,0.24h-7c-0.35,0-0.64-0.16-0.85-0.48l-7.58-12.77h-4.4v12.56
			c0,0.46-0.23,0.69-0.69,0.69H1297.9z M1304.79,383.15h4.66c2.12,0,3.67-0.37,4.66-1.11c0.99-0.74,1.48-1.93,1.48-3.55
			c0-1.59-0.45-2.73-1.35-3.42c-0.9-0.69-2.43-1.03-4.58-1.03h-4.88V383.15z"/>
		<path fill="#493D7C" d="M1343.69,402.98c-4.66,0-8.05-0.9-10.15-2.7c-2.1-1.8-2.99-4.43-2.68-7.9c0.04-0.6,0.28-0.9,0.74-0.9h6.04
			c0.46,0,0.69,0.27,0.69,0.79c-0.04,1.41,0.41,2.48,1.32,3.21c0.92,0.72,2.35,1.09,4.29,1.09c1.91,0,3.31-0.28,4.21-0.85
			c0.9-0.56,1.35-1.43,1.35-2.6c0-0.57-0.11-1.06-0.32-1.48c-0.21-0.42-0.58-0.81-1.11-1.17c-0.53-0.35-1.25-0.71-2.17-1.06
			l-7.63-3.34c-1.77-0.74-3.16-1.56-4.19-2.46c-1.03-0.9-1.75-1.93-2.17-3.1s-0.64-2.51-0.64-4.03c0.03-3.04,1.07-5.38,3.1-7.02
			c2.03-1.64,5.06-2.46,9.09-2.46c2.93,0,5.4,0.39,7.39,1.17c2,0.78,3.46,1.93,4.4,3.44c0.94,1.52,1.3,3.43,1.09,5.72
			c-0.04,0.6-0.26,0.9-0.69,0.9h-6.1c-0.21,0-0.38-0.08-0.5-0.24c-0.12-0.16-0.17-0.38-0.13-0.66c0.11-1.2-0.32-2.17-1.27-2.92
			c-0.95-0.74-2.32-1.11-4.08-1.11c-1.56,0-2.73,0.27-3.52,0.82c-0.8,0.55-1.21,1.35-1.25,2.41c0,0.53,0.11,1.01,0.34,1.43
			c0.23,0.42,0.62,0.82,1.17,1.19c0.55,0.37,1.28,0.75,2.2,1.14l7.58,3.23c1.77,0.78,3.16,1.61,4.19,2.49
			c1.02,0.88,1.75,1.91,2.17,3.07s0.64,2.54,0.64,4.13c-0.04,3.18-1.11,5.6-3.23,7.26C1351.75,402.15,1348.35,402.98,1343.69,402.98
			z"/>
		<path fill="#493D7C" d="M1379.31,402.98c-4.63,0-8.14-1.1-10.55-3.31c-2.4-2.21-3.6-5.57-3.6-10.1v-21.25
			c0-0.46,0.23-0.69,0.69-0.69h6.2c0.46,0,0.69,0.23,0.69,0.69v20.99c0,2.26,0.53,4.02,1.59,5.27c1.06,1.25,2.72,1.88,4.98,1.88
			c2.3,0,3.97-0.63,5.01-1.88c1.04-1.25,1.56-3.01,1.56-5.27v-20.99c0-0.46,0.23-0.69,0.69-0.69h6.2c0.46,0,0.69,0.23,0.69,0.69
			v21.31c0,4.42-1.21,7.75-3.63,9.99C1387.41,401.85,1383.9,402.98,1379.31,402.98z"/>
		<path fill="#493D7C" d="M1403.53,402.34c-0.46,0-0.69-0.23-0.69-0.69v-33.34c0-0.46,0.23-0.69,0.69-0.69h6.2
			c0.46,0,0.69,0.23,0.69,0.69v33.34c0,0.46-0.23,0.69-0.69,0.69H1403.53z"/>
		<path fill="#493D7C" d="M1428.07,402.34c-0.42,0-0.64-0.23-0.64-0.69V374.2h-8.96c-0.42,0-0.64-0.21-0.64-0.64v-5.25
			c0-0.46,0.21-0.69,0.64-0.69h25.39c0.42,0,0.64,0.23,0.64,0.69v5.25c0,0.42-0.21,0.64-0.64,0.64h-8.9v27.45
			c0,0.46-0.23,0.69-0.69,0.69H1428.07z"/>
	</g>
	<g display="inline" enable-background="new    ">
		<path fill="#493D7C" d="M1045.95,518.34c-0.43,0-0.65-0.22-0.65-0.65v-31.45c0-0.43,0.22-0.65,0.65-0.65h19.95
			c0.43,0,0.65,0.22,0.65,0.65v4.95c0,0.4-0.22,0.6-0.65,0.6h-13.45v7.1h12.25c0.43,0,0.65,0.22,0.65,0.65v4.6
			c0,0.4-0.22,0.6-0.65,0.6h-12.25v7.4h13.45c0.43,0,0.65,0.2,0.65,0.6v4.95c0,0.43-0.22,0.65-0.65,0.65H1045.95z"/>
		<path fill="#493D7C" d="M1083.3,518.34c-0.4,0-0.65-0.17-0.75-0.5l-10.35-31.55c-0.13-0.47,0.05-0.7,0.55-0.7h6.35
			c0.4,0,0.65,0.17,0.75,0.5l5.45,18.8c0.33,1.2,0.65,2.41,0.95,3.62c0.3,1.22,0.58,2.44,0.85,3.67h0.15
			c0.27-1.23,0.56-2.46,0.88-3.67c0.32-1.22,0.66-2.44,1.03-3.67l5.5-18.7c0.1-0.37,0.33-0.55,0.7-0.55h6.35
			c0.5,0,0.68,0.23,0.55,0.7l-10.45,31.55c-0.13,0.33-0.38,0.5-0.75,0.5H1083.3z"/>
		<path fill="#493D7C" d="M1109.2,518.34c-0.43,0-0.65-0.22-0.65-0.65v-31.45c0-0.43,0.22-0.65,0.65-0.65h19.95
			c0.43,0,0.65,0.22,0.65,0.65v4.95c0,0.4-0.22,0.6-0.65,0.6h-13.45v7.1h12.25c0.43,0,0.65,0.22,0.65,0.65v4.6
			c0,0.4-0.22,0.6-0.65,0.6h-12.25v7.4h13.45c0.43,0,0.65,0.2,0.65,0.6v4.95c0,0.43-0.22,0.65-0.65,0.65H1109.2z"/>
		<path fill="#493D7C" d="M1138.9,518.34c-0.43,0-0.65-0.22-0.65-0.65v-31.45c0-0.43,0.22-0.65,0.65-0.65h11
			c4.5,0,7.77,0.87,9.8,2.6c2.03,1.73,3.05,4.25,3.05,7.55c0,2.27-0.5,4.18-1.5,5.75s-2.53,2.67-4.6,3.3v0.05l7.9,12.75
			c0.13,0.2,0.16,0.38,0.07,0.53c-0.08,0.15-0.26,0.22-0.52,0.22h-6.6c-0.33,0-0.6-0.15-0.8-0.45l-7.15-12.05h-4.15v11.85
			c0,0.43-0.22,0.65-0.65,0.65H1138.9z M1145.4,500.24h4.4c2,0,3.47-0.35,4.4-1.05c0.93-0.7,1.4-1.82,1.4-3.35
			c0-1.5-0.42-2.58-1.27-3.22c-0.85-0.65-2.29-0.98-4.33-0.98h-4.6V500.24z"/>
		<path fill="#493D7C" d="M1178.25,518.34c-0.43,0-0.65-0.22-0.65-0.65v-10.65l-10.65-20.7c-0.1-0.2-0.11-0.38-0.02-0.53
			c0.08-0.15,0.24-0.22,0.48-0.22h6.6c0.37,0,0.62,0.15,0.75,0.45l3.8,8.25c0.47,1.07,0.93,2.13,1.38,3.2
			c0.45,1.07,0.88,2.12,1.27,3.15h0.05c0.43-1.07,0.87-2.12,1.3-3.15c0.43-1.03,0.9-2.1,1.4-3.2l3.75-8.25
			c0.13-0.3,0.38-0.45,0.75-0.45h6.5c0.23,0,0.39,0.08,0.48,0.22c0.08,0.15,0.08,0.33-0.02,0.53l-10.65,20.7v10.65
			c0,0.43-0.22,0.65-0.65,0.65H1178.25z"/>
		<path fill="#493D7C" d="M1213.95,518.34c-0.43,0-0.65-0.22-0.65-0.65l0.65-31.45c0-0.43,0.22-0.65,0.65-0.65h7.2
			c0.33,0,0.57,0.17,0.7,0.5l8.1,17.3l8-17.3c0.17-0.33,0.42-0.5,0.75-0.5h7.15c0.4,0,0.6,0.22,0.6,0.65l0.7,31.45
			c0,0.43-0.22,0.65-0.65,0.65h-5.7c-0.43,0-0.65-0.22-0.65-0.65l-0.3-13.65c-0.03-1.37-0.02-2.78,0.02-4.23
			c0.05-1.45,0.11-2.86,0.17-4.22h-0.15c-0.57,1.33-1.17,2.7-1.8,4.1c-0.63,1.4-1.28,2.75-1.95,4.05l-5.4,10.95
			c-0.13,0.27-0.38,0.4-0.75,0.4h-0.25c-0.33,0-0.57-0.13-0.7-0.4l-5.45-11.05c-0.63-1.3-1.27-2.64-1.9-4.02
			c-0.63-1.38-1.22-2.73-1.75-4.03h-0.15c0.07,1.37,0.12,2.77,0.15,4.2c0.03,1.43,0.03,2.82,0,4.15l-0.3,13.75
			c0,0.43-0.22,0.65-0.65,0.65H1213.95z"/>
		<path fill="#493D7C" d="M1256.9,518.34c-0.43,0-0.65-0.22-0.65-0.65v-31.45c0-0.43,0.22-0.65,0.65-0.65h19.95
			c0.43,0,0.65,0.22,0.65,0.65v4.95c0,0.4-0.22,0.6-0.65,0.6h-13.45v7.1h12.25c0.43,0,0.65,0.22,0.65,0.65v4.6
			c0,0.4-0.22,0.6-0.65,0.6h-12.25v7.4h13.45c0.43,0,0.65,0.2,0.65,0.6v4.95c0,0.43-0.22,0.65-0.65,0.65H1256.9z"/>
		<path fill="#493D7C" d="M1283.1,518.34c-0.47,0-0.63-0.23-0.5-0.7l10.6-31.55c0.13-0.33,0.38-0.5,0.75-0.5h7.65
			c0.37,0,0.6,0.17,0.7,0.5l10.7,31.55c0.13,0.47-0.03,0.7-0.5,0.7h-6.45c-0.37,0-0.6-0.17-0.7-0.5l-5.75-19.35
			c-0.33-1.13-0.65-2.28-0.95-3.43c-0.3-1.15-0.6-2.29-0.9-3.42h-0.1c-0.3,1.13-0.6,2.28-0.9,3.42c-0.3,1.15-0.62,2.29-0.95,3.43
			l-5.65,19.3c-0.1,0.37-0.33,0.55-0.7,0.55H1283.1z M1290.8,511.99l1.2-5.7h11.25l1.3,5.7H1290.8z"/>
		<path fill="#493D7C" d="M1329.4,518.94c-4.4,0-7.59-0.85-9.58-2.55s-2.83-4.18-2.52-7.45c0.03-0.57,0.27-0.85,0.7-0.85h5.7
			c0.43,0,0.65,0.25,0.65,0.75c-0.03,1.33,0.38,2.34,1.25,3.03c0.87,0.68,2.22,1.02,4.05,1.02c1.8,0,3.12-0.27,3.97-0.8
			c0.85-0.53,1.28-1.35,1.28-2.45c0-0.53-0.1-1-0.3-1.4c-0.2-0.4-0.55-0.77-1.05-1.1c-0.5-0.33-1.18-0.67-2.05-1l-7.2-3.15
			c-1.67-0.7-2.98-1.48-3.95-2.33c-0.97-0.85-1.65-1.83-2.05-2.92c-0.4-1.1-0.6-2.37-0.6-3.8c0.03-2.87,1.01-5.07,2.92-6.62
			c1.92-1.55,4.78-2.32,8.58-2.32c2.77,0,5.09,0.37,6.98,1.1c1.88,0.73,3.27,1.82,4.15,3.25c0.88,1.43,1.23,3.23,1.03,5.4
			c-0.03,0.57-0.25,0.85-0.65,0.85h-5.75c-0.2,0-0.36-0.08-0.47-0.22c-0.12-0.15-0.16-0.36-0.12-0.62c0.1-1.13-0.3-2.05-1.2-2.75
			c-0.9-0.7-2.18-1.05-3.85-1.05c-1.47,0-2.58,0.26-3.33,0.78c-0.75,0.52-1.14,1.28-1.17,2.28c0,0.5,0.11,0.95,0.32,1.35
			s0.58,0.78,1.1,1.12c0.52,0.35,1.21,0.71,2.08,1.08l7.15,3.05c1.67,0.73,2.98,1.52,3.95,2.35c0.97,0.83,1.65,1.8,2.05,2.9
			c0.4,1.1,0.6,2.4,0.6,3.9c-0.03,3-1.05,5.28-3.05,6.85C1337,518.16,1333.8,518.94,1329.4,518.94z"/>
		<path fill="#493D7C" d="M1363,518.94c-4.37,0-7.68-1.04-9.95-3.12c-2.27-2.08-3.4-5.26-3.4-9.52v-20.05
			c0-0.43,0.22-0.65,0.65-0.65h5.85c0.43,0,0.65,0.22,0.65,0.65v19.8c0,2.13,0.5,3.79,1.5,4.97c1,1.18,2.57,1.78,4.7,1.78
			c2.17,0,3.74-0.59,4.72-1.78c0.98-1.18,1.47-2.84,1.47-4.97v-19.8c0-0.43,0.22-0.65,0.65-0.65h5.85c0.43,0,0.65,0.22,0.65,0.65
			v20.1c0,4.17-1.14,7.31-3.42,9.42C1370.64,517.88,1367.33,518.94,1363,518.94z"/>
		<path fill="#493D7C" d="M1385.85,518.34c-0.43,0-0.65-0.22-0.65-0.65v-31.45c0-0.43,0.22-0.65,0.65-0.65h11
			c4.5,0,7.77,0.87,9.8,2.6c2.03,1.73,3.05,4.25,3.05,7.55c0,2.27-0.5,4.18-1.5,5.75s-2.53,2.67-4.6,3.3v0.05l7.9,12.75
			c0.13,0.2,0.16,0.38,0.08,0.53c-0.08,0.15-0.26,0.22-0.52,0.22h-6.6c-0.33,0-0.6-0.15-0.8-0.45l-7.15-12.05h-4.15v11.85
			c0,0.43-0.22,0.65-0.65,0.65H1385.85z M1392.35,500.24h4.4c2,0,3.47-0.35,4.4-1.05c0.93-0.7,1.4-1.82,1.4-3.35
			c0-1.5-0.43-2.58-1.28-3.22c-0.85-0.65-2.29-0.98-4.33-0.98h-4.6V500.24z"/>
		<path fill="#493D7C" d="M1419.25,518.34c-0.43,0-0.65-0.22-0.65-0.65v-31.45c0-0.43,0.22-0.65,0.65-0.65h19.95
			c0.43,0,0.65,0.22,0.65,0.65v4.95c0,0.4-0.22,0.6-0.65,0.6h-13.45v7.1H1438c0.43,0,0.65,0.22,0.65,0.65v4.6
			c0,0.4-0.22,0.6-0.65,0.6h-12.25v7.4h13.45c0.43,0,0.65,0.2,0.65,0.6v4.95c0,0.43-0.22,0.65-0.65,0.65H1419.25z"/>
	</g>
	<g display="inline" enable-background="new    ">
		<path fill="#493D7C" d="M1046.08,597.34c-0.8,0-1.2-0.4-1.2-1.2l1.2-57.87c0-0.8,0.4-1.2,1.2-1.2h13.25
			c0.61,0,1.04,0.31,1.29,0.92l14.9,31.83l14.72-31.83c0.31-0.61,0.77-0.92,1.38-0.92h13.16c0.74,0,1.1,0.4,1.1,1.2l1.29,57.87
			c0,0.8-0.4,1.2-1.2,1.2h-10.49c-0.8,0-1.2-0.4-1.2-1.2l-0.55-25.12c-0.06-2.51-0.05-5.11,0.05-7.77c0.09-2.67,0.2-5.26,0.32-7.77
			h-0.28c-1.04,2.45-2.15,4.97-3.31,7.54c-1.17,2.58-2.36,5.06-3.59,7.45l-9.94,20.15c-0.25,0.49-0.71,0.74-1.38,0.74h-0.46
			c-0.61,0-1.04-0.24-1.29-0.74l-10.03-20.33c-1.17-2.39-2.33-4.86-3.5-7.41c-1.17-2.54-2.24-5.01-3.22-7.41h-0.28
			c0.12,2.52,0.21,5.09,0.28,7.73c0.06,2.64,0.06,5.18,0,7.64l-0.55,25.3c0,0.8-0.4,1.2-1.2,1.2H1046.08z"/>
		<path fill="#493D7C" d="M1118.57,597.34c-0.86,0-1.16-0.43-0.92-1.29l19.5-58.05c0.24-0.61,0.7-0.92,1.38-0.92h14.08
			c0.67,0,1.1,0.31,1.29,0.92l19.69,58.05c0.24,0.86-0.06,1.29-0.92,1.29h-11.87c-0.68,0-1.1-0.31-1.29-0.92l-10.58-35.6
			c-0.61-2.08-1.2-4.19-1.75-6.3c-0.55-2.12-1.1-4.22-1.66-6.3h-0.18c-0.55,2.09-1.1,4.19-1.66,6.3c-0.55,2.12-1.14,4.22-1.75,6.3
			l-10.4,35.51c-0.18,0.68-0.61,1.01-1.29,1.01H1118.57z M1132.74,585.66l2.21-10.49h20.7l2.39,10.49H1132.74z"/>
		<path fill="#493D7C" d="M1192.63,597.34c-0.74,0-1.1-0.4-1.1-1.2v-47.66h-15.55c-0.74,0-1.1-0.37-1.1-1.1v-9.11
			c0-0.8,0.37-1.2,1.1-1.2h44.07c0.74,0,1.1,0.4,1.1,1.2v9.11c0,0.74-0.37,1.1-1.1,1.1h-15.46v47.66c0,0.8-0.4,1.2-1.2,1.2H1192.63z
			"/>
		<path fill="#493D7C" d="M1248.66,597.34c-0.74,0-1.1-0.4-1.1-1.2v-47.66h-15.55c-0.74,0-1.1-0.37-1.1-1.1v-9.11
			c0-0.8,0.37-1.2,1.1-1.2h44.07c0.74,0,1.1,0.4,1.1,1.2v9.11c0,0.74-0.37,1.1-1.1,1.1h-15.46v47.66c0,0.8-0.4,1.2-1.2,1.2H1248.66z
			"/>
		<path fill="#493D7C" d="M1291.25,597.34c-0.8,0-1.2-0.4-1.2-1.2v-57.87c0-0.8,0.4-1.2,1.2-1.2h36.71c0.8,0,1.2,0.4,1.2,1.2v9.11
			c0,0.74-0.4,1.1-1.2,1.1h-24.75v13.06h22.54c0.8,0,1.2,0.4,1.2,1.2v8.46c0,0.74-0.4,1.1-1.2,1.1h-22.54v13.62h24.75
			c0.8,0,1.2,0.37,1.2,1.1v9.11c0,0.8-0.4,1.2-1.2,1.2H1291.25z"/>
		<path fill="#493D7C" d="M1345.9,597.34c-0.8,0-1.2-0.4-1.2-1.2v-57.87c0-0.8,0.4-1.2,1.2-1.2h20.24c8.28,0,14.29,1.6,18.03,4.78
			c3.74,3.19,5.61,7.82,5.61,13.89c0,4.17-0.92,7.7-2.76,10.58c-1.84,2.88-4.66,4.91-8.46,6.07v0.09l14.54,23.46
			c0.24,0.37,0.29,0.69,0.14,0.97c-0.15,0.28-0.48,0.41-0.97,0.41h-12.14c-0.61,0-1.1-0.28-1.47-0.83l-13.16-22.17h-7.64v21.8
			c0,0.8-0.4,1.2-1.2,1.2H1345.9z M1357.86,564.04h8.1c3.68,0,6.38-0.64,8.1-1.93c1.72-1.29,2.58-3.34,2.58-6.16
			c0-2.76-0.78-4.74-2.35-5.93c-1.56-1.2-4.22-1.79-7.96-1.79h-8.46V564.04z"/>
		<path fill="#493D7C" d="M1425.39,598.44c-8.1,0-13.97-1.56-17.62-4.69c-3.65-3.13-5.2-7.7-4.65-13.71
			c0.06-1.04,0.49-1.56,1.29-1.56h10.49c0.8,0,1.2,0.46,1.2,1.38c-0.06,2.45,0.71,4.31,2.3,5.57c1.59,1.26,4.08,1.89,7.45,1.89
			c3.31,0,5.75-0.49,7.31-1.47c1.56-0.98,2.35-2.48,2.35-4.51c0-0.98-0.18-1.84-0.55-2.58s-1.01-1.41-1.93-2.02
			c-0.92-0.61-2.18-1.23-3.77-1.84l-13.25-5.8c-3.07-1.29-5.49-2.71-7.27-4.28c-1.78-1.56-3.04-3.36-3.77-5.38
			c-0.74-2.02-1.1-4.35-1.1-6.99c0.06-5.27,1.85-9.34,5.38-12.19c3.53-2.85,8.79-4.28,15.78-4.28c5.09,0,9.37,0.68,12.83,2.02
			c3.46,1.35,6.01,3.34,7.64,5.98c1.62,2.64,2.25,5.95,1.89,9.94c-0.06,1.04-0.46,1.56-1.2,1.56h-10.58c-0.37,0-0.66-0.14-0.87-0.41
			c-0.21-0.28-0.29-0.66-0.23-1.15c0.18-2.08-0.55-3.77-2.21-5.06s-4.02-1.93-7.08-1.93c-2.7,0-4.74,0.48-6.12,1.43
			c-1.38,0.95-2.1,2.35-2.16,4.19c0,0.92,0.2,1.75,0.6,2.48c0.4,0.74,1.07,1.43,2.02,2.07c0.95,0.64,2.22,1.3,3.82,1.98l13.16,5.61
			c3.07,1.35,5.49,2.79,7.27,4.32c1.78,1.53,3.04,3.31,3.77,5.34c0.74,2.02,1.1,4.42,1.1,7.18c-0.06,5.52-1.93,9.72-5.61,12.6
			C1439.37,597,1433.49,598.44,1425.39,598.44z"/>
	</g>
	<g transform="matrix(1, 0, 0, 1, 1041, 307)" display="inline">
		<g enable-background="new    ">
			<path d="M5.14,13.34c-0.13,0-0.22-0.07-0.26-0.2L1.34,0.5C1.29,0.33,1.36,0.24,1.56,0.24H3.5c0.15,0,0.23,0.07,0.26,0.2L5.68,7.6
				c0.11,0.35,0.2,0.71,0.27,1.1C6.03,9.09,6.1,9.46,6.17,9.83c0.07,0.37,0.14,0.71,0.21,1.03h0.04c0.13-0.47,0.27-0.93,0.4-1.39
				S7.1,8.55,7.24,8.08L8.76,3.2L8.02,0.76C8,0.68,8.01,0.62,8.05,0.57S8.16,0.5,8.22,0.5h1.96c0.13,0,0.21,0.07,0.24,0.2l2,7.42
				c0.13,0.45,0.25,0.91,0.36,1.37c0.11,0.46,0.21,0.92,0.32,1.37h0.02c0.07-0.32,0.14-0.67,0.21-1.06
				c0.07-0.39,0.15-0.78,0.23-1.17s0.16-0.76,0.24-1.11l1.84-7.08c0.03-0.13,0.11-0.2,0.26-0.2h2c0.19,0,0.25,0.09,0.2,0.26
				l-3.44,12.64c-0.04,0.13-0.13,0.2-0.26,0.2H12c-0.15,0-0.24-0.07-0.28-0.2l-1.16-4.12c-0.13-0.47-0.26-0.93-0.39-1.4
				C10.05,7.15,9.93,6.7,9.82,6.26H9.78C9.65,6.7,9.52,7.15,9.39,7.6C9.27,8.05,9.13,8.51,8.98,8.98l-1.26,4.18
				c-0.05,0.12-0.14,0.18-0.26,0.18H5.14z"/>
			<path d="M22.14,13.34c-0.15,0-0.22-0.08-0.22-0.24V0.48c0-0.16,0.07-0.24,0.22-0.24h1.94c0.16,0,0.24,0.08,0.24,0.24v5.14h5.6
				V0.48c0-0.16,0.08-0.24,0.24-0.24h1.94c0.15,0,0.22,0.08,0.22,0.24V13.1c0,0.16-0.07,0.24-0.22,0.24h-1.94
				c-0.16,0-0.24-0.08-0.24-0.24V7.7h-5.6v5.4c0,0.16-0.08,0.24-0.24,0.24H22.14z"/>
			<path d="M37.5,13.34c-0.15,0-0.22-0.08-0.22-0.24V0.48c0-0.16,0.07-0.24,0.22-0.24h7.66c0.15,0,0.22,0.08,0.22,0.24v1.64
				c0,0.16-0.07,0.24-0.22,0.24h-5.48V5.7h5c0.15,0,0.22,0.08,0.22,0.24v1.54c0,0.16-0.07,0.24-0.22,0.24h-5v3.5h5.48
				c0.15,0,0.22,0.08,0.22,0.24v1.64c0,0.16-0.07,0.24-0.22,0.24H37.5z"/>
			<path d="M50.3,13.34c-0.15,0-0.22-0.08-0.22-0.24V0.48c0-0.16,0.07-0.24,0.22-0.24h2.84c0.13,0,0.23,0.05,0.28,0.16l3.22,6.5
				c0.23,0.44,0.44,0.87,0.63,1.28c0.19,0.41,0.37,0.81,0.53,1.18c0.16,0.37,0.3,0.72,0.42,1.04h0.06
				c-0.03-0.36-0.05-0.75-0.06-1.17c-0.01-0.42-0.02-0.84-0.03-1.27s-0.01-0.81-0.01-1.16V0.48c0-0.16,0.07-0.24,0.22-0.24h1.88
				c0.16,0,0.24,0.08,0.24,0.24V13.1c0,0.16-0.08,0.24-0.24,0.24h-2.8c-0.13,0-0.23-0.05-0.28-0.16L54.08,6.9
				c-0.2-0.4-0.4-0.81-0.59-1.23c-0.19-0.42-0.38-0.84-0.56-1.25c-0.18-0.41-0.35-0.81-0.51-1.18h-0.06
				c0.01,0.41,0.03,0.83,0.04,1.26s0.02,0.85,0.02,1.28s0,0.85,0,1.28v6.04c0,0.16-0.08,0.24-0.24,0.24H50.3z"/>
			<path d="M74.52,13.34c-0.16,0-0.24-0.08-0.24-0.24V2.36h-3.44c-0.16,0-0.24-0.08-0.24-0.24V0.48c0-0.16,0.08-0.24,0.24-0.24h9.3
				c0.16,0,0.24,0.08,0.24,0.24v1.64c0,0.16-0.08,0.24-0.24,0.24H76.7V13.1c0,0.16-0.08,0.24-0.24,0.24H74.52z"/>
			<path d="M84.64,13.34c-0.15,0-0.22-0.08-0.22-0.24V0.48c0-0.16,0.07-0.24,0.22-0.24h4.2c1.72,0,2.97,0.33,3.76,0.99
				c0.79,0.66,1.18,1.62,1.18,2.89c0,0.92-0.21,1.7-0.63,2.33c-0.42,0.63-1.04,1.07-1.87,1.31V7.8l3.22,5.26
				c0.05,0.08,0.06,0.15,0.03,0.2c-0.03,0.05-0.1,0.08-0.19,0.08h-2.22c-0.12,0-0.21-0.05-0.28-0.16l-3.02-5.06h-2v4.98
				c0,0.16-0.08,0.24-0.24,0.24H84.64z M86.82,6.22h1.92c0.92,0,1.59-0.16,2.01-0.48c0.42-0.32,0.63-0.83,0.63-1.54
				c0-0.69-0.19-1.19-0.58-1.48c-0.39-0.29-1.04-0.44-1.96-0.44h-2.02V6.22z"/>
			<path d="M98.9,13.34c-0.15,0-0.22-0.08-0.22-0.24V0.48c0-0.16,0.07-0.24,0.22-0.24h7.66c0.15,0,0.22,0.08,0.22,0.24v1.64
				c0,0.16-0.07,0.24-0.22,0.24h-5.48V5.7h5c0.15,0,0.22,0.08,0.22,0.24v1.54c0,0.16-0.07,0.24-0.22,0.24h-5v3.5h5.48
				c0.15,0,0.22,0.08,0.22,0.24v1.64c0,0.16-0.07,0.24-0.22,0.24H98.9z"/>
			<path d="M110.12,13.34c-0.17,0-0.24-0.09-0.2-0.26l4.32-12.66c0.04-0.12,0.13-0.18,0.26-0.18h2.56c0.15,0,0.24,0.06,0.28,0.18
				l4.34,12.66c0.05,0.17-0.01,0.26-0.18,0.26h-2.12c-0.13,0-0.22-0.06-0.26-0.18l-2.58-8.22c-0.13-0.44-0.26-0.88-0.39-1.31
				c-0.13-0.43-0.25-0.87-0.37-1.31h-0.04c-0.12,0.43-0.24,0.86-0.37,1.29c-0.13,0.43-0.26,0.86-0.39,1.29l-2.52,8.24
				c-0.04,0.13-0.13,0.2-0.28,0.2H110.12z M112.86,10.6l0.46-1.96h4.86l0.48,1.96H112.86z"/>
			<path d="M127.06,13.34c-0.16,0-0.24-0.08-0.24-0.24V2.36h-3.44c-0.16,0-0.24-0.08-0.24-0.24V0.48c0-0.16,0.08-0.24,0.24-0.24h9.3
				c0.16,0,0.24,0.08,0.24,0.24v1.64c0,0.16-0.08,0.24-0.24,0.24h-3.44V13.1c0,0.16-0.08,0.24-0.24,0.24H127.06z"/>
			<path d="M137.18,13.34c-0.15,0-0.22-0.08-0.22-0.24V0.48c0-0.16,0.07-0.24,0.22-0.24h1.94c0.16,0,0.24,0.08,0.24,0.24V13.1
				c0,0.16-0.08,0.24-0.24,0.24H137.18z"/>
			<path d="M144.52,13.34c-0.15,0-0.22-0.08-0.22-0.24V0.48c0-0.16,0.07-0.24,0.22-0.24h2.84c0.13,0,0.23,0.05,0.28,0.16l3.22,6.5
				c0.23,0.44,0.44,0.87,0.63,1.28c0.19,0.41,0.37,0.81,0.53,1.18c0.16,0.37,0.3,0.72,0.42,1.04h0.06
				c-0.03-0.36-0.05-0.75-0.06-1.17c-0.01-0.42-0.02-0.84-0.03-1.27s-0.01-0.81-0.01-1.16V0.48c0-0.16,0.07-0.24,0.22-0.24h1.88
				c0.16,0,0.24,0.08,0.24,0.24V13.1c0,0.16-0.08,0.24-0.24,0.24h-2.8c-0.13,0-0.23-0.05-0.28-0.16L148.3,6.9
				c-0.2-0.4-0.4-0.81-0.59-1.23c-0.19-0.42-0.38-0.84-0.56-1.25c-0.18-0.41-0.35-0.81-0.51-1.18h-0.06
				c0.01,0.41,0.03,0.83,0.04,1.26s0.02,0.85,0.02,1.28s0,0.85,0,1.28v6.04c0,0.16-0.08,0.24-0.24,0.24H144.52z"/>
			<path d="M164.3,13.58c-0.97,0-1.83-0.19-2.56-0.57c-0.73-0.38-1.3-0.94-1.7-1.67c-0.4-0.73-0.6-1.63-0.6-2.7v-3.7
				c0-1.6,0.47-2.82,1.41-3.67c0.94-0.85,2.23-1.27,3.87-1.27c1.17,0,2.16,0.19,2.97,0.56c0.81,0.37,1.4,0.89,1.78,1.55
				c0.38,0.66,0.51,1.42,0.39,2.27c-0.01,0.16-0.09,0.24-0.24,0.24l-1.94-0.02c-0.16,0-0.23-0.08-0.22-0.24
				c0.03-0.48-0.06-0.89-0.25-1.23s-0.49-0.6-0.89-0.77c-0.4-0.17-0.91-0.26-1.54-0.26c-0.97,0-1.71,0.24-2.2,0.71
				c-0.49,0.47-0.74,1.2-0.74,2.19v3.58c0,1,0.24,1.73,0.73,2.2c0.49,0.47,1.21,0.7,2.17,0.7c0.93,0,1.65-0.22,2.14-0.65
				c0.49-0.43,0.74-1.06,0.74-1.89V8.3h-2.7c-0.16,0-0.24-0.08-0.24-0.24V6.72c0-0.15,0.08-0.22,0.24-0.22h4.76
				c0.15,0,0.22,0.07,0.22,0.22v3.68c0,0.45,0.01,0.91,0.03,1.38s0.06,0.9,0.13,1.3c0.03,0.08,0.02,0.14-0.03,0.19
				c-0.05,0.05-0.1,0.07-0.17,0.07h-1.56c-0.07,0-0.12-0.02-0.16-0.05s-0.07-0.08-0.1-0.15c-0.03-0.16-0.05-0.35-0.07-0.58
				c-0.02-0.23-0.04-0.45-0.05-0.66h-0.04c-0.23,0.35-0.51,0.65-0.85,0.9c-0.34,0.25-0.74,0.45-1.19,0.58
				C165.39,13.51,164.88,13.58,164.3,13.58z"/>
			<path d="M185.98,13.58c-1.67,0-2.94-0.41-3.82-1.24c-0.88-0.83-1.32-2.06-1.32-3.7V0.48c0-0.16,0.07-0.24,0.22-0.24H183
				c0.16,0,0.24,0.08,0.24,0.24V8.6c0,0.92,0.23,1.63,0.68,2.13c0.45,0.5,1.14,0.75,2.06,0.75s1.61-0.25,2.06-0.75
				c0.45-0.5,0.68-1.21,0.68-2.13V0.48c0-0.16,0.07-0.24,0.22-0.24h1.94c0.16,0,0.24,0.08,0.24,0.24v8.2c0,1.59-0.45,2.8-1.34,3.64
				C188.89,13.16,187.62,13.58,185.98,13.58z"/>
			<path d="M196.18,13.34c-0.15,0-0.22-0.08-0.22-0.24V0.48c0-0.16,0.07-0.24,0.22-0.24h2.84c0.13,0,0.23,0.05,0.28,0.16l3.22,6.5
				c0.23,0.44,0.44,0.87,0.63,1.28c0.19,0.41,0.37,0.81,0.53,1.18c0.16,0.37,0.3,0.72,0.42,1.04h0.06
				c-0.03-0.36-0.05-0.75-0.06-1.17s-0.02-0.84-0.03-1.27c-0.01-0.43-0.01-0.81-0.01-1.16V0.48c0-0.16,0.07-0.24,0.22-0.24h1.88
				c0.16,0,0.24,0.08,0.24,0.24V13.1c0,0.16-0.08,0.24-0.24,0.24h-2.8c-0.13,0-0.23-0.05-0.28-0.16l-3.12-6.28
				c-0.2-0.4-0.4-0.81-0.59-1.23c-0.19-0.42-0.38-0.84-0.56-1.25c-0.18-0.41-0.35-0.81-0.51-1.18h-0.06
				c0.01,0.41,0.03,0.83,0.04,1.26s0.02,0.85,0.02,1.28s0,0.85,0,1.28v6.04c0,0.16-0.08,0.24-0.24,0.24H196.18z"/>
			<path d="M211.56,13.34c-0.15,0-0.22-0.08-0.22-0.24V0.48c0-0.16,0.07-0.24,0.22-0.24h4.2c1.72,0,2.97,0.33,3.76,0.99
				c0.79,0.66,1.18,1.62,1.18,2.89c0,0.92-0.21,1.7-0.63,2.33c-0.42,0.63-1.04,1.07-1.87,1.31V7.8l3.22,5.26
				c0.05,0.08,0.06,0.15,0.03,0.2c-0.03,0.05-0.1,0.08-0.19,0.08h-2.22c-0.12,0-0.21-0.05-0.28-0.16l-3.02-5.06h-2v4.98
				c0,0.16-0.08,0.24-0.24,0.24H211.56z M213.74,6.22h1.92c0.92,0,1.59-0.16,2.01-0.48c0.42-0.32,0.63-0.83,0.63-1.54
				c0-0.69-0.19-1.19-0.58-1.48c-0.39-0.29-1.04-0.44-1.96-0.44h-2.02V6.22z"/>
			<path d="M225.82,13.34c-0.15,0-0.22-0.08-0.22-0.24V0.48c0-0.16,0.07-0.24,0.22-0.24h7.66c0.15,0,0.22,0.08,0.22,0.24v1.64
				c0,0.16-0.07,0.24-0.22,0.24H228V5.7h5c0.15,0,0.22,0.08,0.22,0.24v1.54c0,0.16-0.07,0.24-0.22,0.24h-5v3.5h5.48
				c0.15,0,0.22,0.08,0.22,0.24v1.64c0,0.16-0.07,0.24-0.22,0.24H225.82z"/>
			<path d="M242.5,13.58c-1.69,0-2.93-0.34-3.7-1.03s-1.11-1.64-1.02-2.87c0.03-0.23,0.12-0.34,0.28-0.34h1.88
				c0.17,0,0.25,0.1,0.24,0.3c0,0.65,0.2,1.13,0.6,1.43c0.4,0.3,1.01,0.45,1.84,0.45c0.81,0,1.42-0.13,1.81-0.39
				c0.39-0.26,0.59-0.66,0.59-1.21c0-0.25-0.05-0.48-0.14-0.67c-0.09-0.19-0.25-0.37-0.48-0.52c-0.23-0.15-0.53-0.31-0.92-0.47
				l-2.9-1.24c-0.64-0.28-1.15-0.58-1.54-0.91c-0.39-0.33-0.66-0.7-0.82-1.13c-0.16-0.43-0.24-0.91-0.24-1.46
				c0.01-1.13,0.39-2,1.14-2.6c0.75-0.6,1.86-0.9,3.34-0.9c1.04,0,1.92,0.14,2.65,0.43c0.73,0.29,1.27,0.71,1.63,1.26
				s0.5,1.24,0.42,2.07c-0.03,0.24-0.11,0.36-0.24,0.36h-1.9c-0.08,0-0.14-0.03-0.18-0.08c-0.04-0.05-0.05-0.15-0.04-0.28
				c0.04-0.53-0.15-0.96-0.57-1.27s-1.02-0.47-1.79-0.47c-0.68,0-1.19,0.12-1.54,0.36c-0.35,0.24-0.52,0.6-0.52,1.08
				c0,0.25,0.05,0.48,0.14,0.67c0.09,0.19,0.26,0.37,0.49,0.53c0.23,0.16,0.55,0.33,0.95,0.5l2.86,1.22
				c0.65,0.27,1.17,0.56,1.55,0.89c0.38,0.33,0.65,0.7,0.82,1.13c0.17,0.43,0.24,0.93,0.23,1.52c0,1.16-0.39,2.06-1.18,2.69
				C245.46,13.26,244.21,13.58,242.5,13.58z"/>
			<path d="M252.06,13.34c-0.15,0-0.22-0.08-0.22-0.24V0.48c0-0.16,0.07-0.24,0.22-0.24h7.66c0.15,0,0.22,0.08,0.22,0.24v1.64
				c0,0.16-0.07,0.24-0.22,0.24h-5.48V5.7h5c0.15,0,0.22,0.08,0.22,0.24v1.54c0,0.16-0.07,0.24-0.22,0.24h-5v3.5h5.48
				c0.15,0,0.22,0.08,0.22,0.24v1.64c0,0.16-0.07,0.24-0.22,0.24H252.06z"/>
			<path d="M269.44,13.58c-1.69,0-2.99-0.42-3.89-1.25c-0.9-0.83-1.35-2.06-1.35-3.69V4.96c0-1.64,0.45-2.88,1.36-3.71
				c0.91-0.83,2.2-1.25,3.88-1.25c1.15,0,2.13,0.19,2.96,0.56c0.83,0.37,1.44,0.91,1.84,1.6c0.4,0.69,0.53,1.51,0.4,2.46
				c-0.01,0.07-0.04,0.13-0.07,0.19c-0.03,0.06-0.09,0.09-0.17,0.09h-1.94c-0.16,0-0.23-0.08-0.22-0.24
				c0.03-0.81-0.19-1.44-0.65-1.89c-0.46-0.45-1.16-0.67-2.11-0.67c-0.92,0-1.63,0.24-2.13,0.72c-0.5,0.48-0.75,1.21-0.75,2.18v3.58
				c0,0.97,0.25,1.7,0.75,2.18c0.5,0.48,1.21,0.72,2.13,0.72c0.97,0,1.69-0.23,2.16-0.69s0.67-1.08,0.6-1.87
				c-0.01-0.16,0.06-0.24,0.22-0.24h1.92c0.15,0,0.23,0.09,0.26,0.28c0.09,0.93-0.06,1.75-0.47,2.44c-0.41,0.69-1.01,1.23-1.82,1.61
				S270.57,13.58,269.44,13.58z"/>
			<path d="M282.24,13.34c-0.16,0-0.24-0.08-0.24-0.24V2.36h-3.44c-0.16,0-0.24-0.08-0.24-0.24V0.48c0-0.16,0.08-0.24,0.24-0.24h9.3
				c0.16,0,0.24,0.08,0.24,0.24v1.64c0,0.16-0.08,0.24-0.24,0.24h-3.44V13.1c0,0.16-0.08,0.24-0.24,0.24H282.24z"/>
			<path d="M289.74,13.34c-0.17,0-0.24-0.09-0.2-0.26l4.32-12.66c0.04-0.12,0.13-0.18,0.26-0.18h2.56c0.15,0,0.24,0.06,0.28,0.18
				l4.34,12.66c0.05,0.17-0.01,0.26-0.18,0.26H299c-0.13,0-0.22-0.06-0.26-0.18l-2.58-8.22c-0.13-0.44-0.26-0.88-0.39-1.31
				s-0.25-0.87-0.37-1.31h-0.04c-0.12,0.43-0.24,0.86-0.37,1.29c-0.13,0.43-0.26,0.86-0.39,1.29l-2.52,8.24
				c-0.04,0.13-0.13,0.2-0.28,0.2H289.74z M292.48,10.6l0.46-1.96h4.86l0.48,1.96H292.48z"/>
			<path d="M305,13.34c-0.15,0-0.22-0.08-0.22-0.24V0.48c0-0.16,0.07-0.24,0.22-0.24h3.98c1.57,0,2.76,0.27,3.55,0.8
				c0.79,0.53,1.19,1.35,1.19,2.44c0,0.76-0.17,1.37-0.51,1.82s-0.89,0.81-1.65,1.08v0.06c0.89,0.16,1.57,0.5,2.03,1.03
				c0.46,0.53,0.69,1.24,0.69,2.13c0,1.31-0.42,2.26-1.26,2.85c-0.84,0.59-2.19,0.89-4.04,0.89H305z M307.18,5.72h1.74
				c0.84,0,1.45-0.15,1.83-0.44c0.38-0.29,0.57-0.75,0.57-1.36c0-0.6-0.2-1.03-0.6-1.3s-1.05-0.4-1.96-0.4h-1.58V5.72z
				 M307.18,11.34h1.86c1.01,0,1.74-0.14,2.18-0.43c0.44-0.29,0.66-0.77,0.66-1.45c0-0.67-0.22-1.15-0.67-1.46
				c-0.45-0.31-1.16-0.46-2.15-0.46h-1.88V11.34z"/>
			<path d="M318.76,13.34c-0.15,0-0.22-0.08-0.22-0.24V0.48c0-0.16,0.07-0.24,0.22-0.24h1.96c0.15,0,0.22,0.08,0.22,0.24v10.74h5.26
				c0.16,0,0.24,0.08,0.24,0.24v1.64c0,0.16-0.08,0.24-0.24,0.24H318.76z"/>
			<path d="M330.5,13.34c-0.15,0-0.22-0.08-0.22-0.24V0.48c0-0.16,0.07-0.24,0.22-0.24h7.66c0.15,0,0.22,0.08,0.22,0.24v1.64
				c0,0.16-0.07,0.24-0.22,0.24h-5.48V5.7h5c0.15,0,0.22,0.08,0.22,0.24v1.54c0,0.16-0.07,0.24-0.22,0.24h-5v3.5h5.48
				c0.15,0,0.22,0.08,0.22,0.24v1.64c0,0.16-0.07,0.24-0.22,0.24H330.5z"/>
		</g>
		<g enable-background="new    ">
			<path d="M2.7,41.34c-0.15,0-0.22-0.08-0.22-0.24V28.48c0-0.16,0.07-0.24,0.22-0.24h1.94c0.16,0,0.24,0.08,0.24,0.24v5.14h5.6
				v-5.14c0-0.16,0.08-0.24,0.24-0.24h1.94c0.15,0,0.22,0.08,0.22,0.24V41.1c0,0.16-0.07,0.24-0.22,0.24h-1.94
				c-0.16,0-0.24-0.08-0.24-0.24v-5.4h-5.6v5.4c0,0.16-0.08,0.24-0.24,0.24H2.7z"/>
			<path d="M18.06,41.34c-0.15,0-0.22-0.08-0.22-0.24V28.48c0-0.16,0.07-0.24,0.22-0.24h7.66c0.15,0,0.22,0.08,0.22,0.24v1.64
				c0,0.16-0.07,0.24-0.22,0.24h-5.48v3.34h5c0.15,0,0.22,0.08,0.22,0.24v1.54c0,0.16-0.07,0.24-0.22,0.24h-5v3.5h5.48
				c0.15,0,0.22,0.08,0.22,0.24v1.64c0,0.16-0.07,0.24-0.22,0.24H18.06z"/>
			<path d="M30.86,41.34c-0.15,0-0.22-0.08-0.22-0.24V28.48c0-0.16,0.07-0.24,0.22-0.24h3.72c1.73,0,3.01,0.36,3.83,1.09
				s1.23,1.79,1.23,3.19c0,1.37-0.42,2.42-1.26,3.15c-0.84,0.73-2.1,1.09-3.78,1.09h-1.56v4.34c0,0.16-0.08,0.24-0.24,0.24H30.86z
				 M33.04,34.72h1.52c0.91,0,1.58-0.17,2.02-0.52s0.66-0.9,0.66-1.66c0-0.8-0.22-1.37-0.66-1.72s-1.12-0.52-2.04-0.52h-1.5V34.72z"
				/>
			<path d="M41.74,41.34c-0.17,0-0.24-0.09-0.2-0.26l4.32-12.66c0.04-0.12,0.13-0.18,0.26-0.18h2.56c0.15,0,0.24,0.06,0.28,0.18
				l4.34,12.66c0.05,0.17-0.01,0.26-0.18,0.26H51c-0.13,0-0.22-0.06-0.26-0.18l-2.58-8.22c-0.13-0.44-0.26-0.88-0.39-1.31
				c-0.13-0.43-0.25-0.87-0.37-1.31h-0.04c-0.12,0.43-0.24,0.86-0.37,1.29c-0.13,0.43-0.26,0.86-0.39,1.29l-2.52,8.24
				c-0.04,0.13-0.13,0.2-0.28,0.2H41.74z M44.48,38.6l0.46-1.96h4.86l0.48,1.96H44.48z"/>
			<path d="M58.68,41.34c-0.16,0-0.24-0.08-0.24-0.24V30.36H55c-0.16,0-0.24-0.08-0.24-0.24v-1.64c0-0.16,0.08-0.24,0.24-0.24h9.3
				c0.16,0,0.24,0.08,0.24,0.24v1.64c0,0.16-0.08,0.24-0.24,0.24h-3.44V41.1c0,0.16-0.08,0.24-0.24,0.24H58.68z"/>
			<path d="M73.28,41.58c-1.76,0-3.08-0.42-3.96-1.27S68,38.25,68,36.66v-3.74c0-1.6,0.44-2.82,1.32-3.66S71.52,28,73.28,28
				c1.75,0,3.06,0.42,3.94,1.26s1.32,2.06,1.32,3.66v3.74c0,1.59-0.44,2.8-1.32,3.65S75.03,41.58,73.28,41.58z M73.28,39.48
				c0.95,0,1.66-0.25,2.14-0.75s0.72-1.23,0.72-2.19v-3.5c0-0.96-0.24-1.69-0.72-2.19s-1.19-0.75-2.14-0.75s-1.66,0.25-2.15,0.75
				c-0.49,0.5-0.73,1.23-0.73,2.19v3.5c0,0.96,0.24,1.69,0.73,2.19C71.62,39.23,72.34,39.48,73.28,39.48z"/>
			<path d="M88.26,41.58c-1.69,0-2.99-0.42-3.89-1.25c-0.9-0.83-1.35-2.06-1.35-3.69v-3.68c0-1.64,0.45-2.88,1.36-3.71
				c0.91-0.83,2.2-1.25,3.88-1.25c1.15,0,2.13,0.19,2.96,0.56c0.83,0.37,1.44,0.91,1.84,1.6c0.4,0.69,0.53,1.51,0.4,2.46
				c-0.01,0.07-0.04,0.13-0.07,0.19c-0.03,0.06-0.09,0.09-0.17,0.09h-1.94c-0.16,0-0.23-0.08-0.22-0.24
				c0.03-0.81-0.19-1.44-0.65-1.89c-0.46-0.45-1.16-0.67-2.11-0.67c-0.92,0-1.63,0.24-2.13,0.72c-0.5,0.48-0.75,1.21-0.75,2.18v3.58
				c0,0.97,0.25,1.7,0.75,2.18c0.5,0.48,1.21,0.72,2.13,0.72c0.97,0,1.69-0.23,2.16-0.69c0.47-0.46,0.67-1.08,0.6-1.87
				c-0.01-0.16,0.06-0.24,0.22-0.24h1.92c0.15,0,0.23,0.09,0.26,0.28c0.09,0.93-0.06,1.75-0.47,2.44c-0.41,0.69-1.01,1.23-1.82,1.61
				C90.37,41.39,89.4,41.58,88.26,41.58z"/>
			<path d="M98.34,41.34c-0.15,0-0.22-0.08-0.22-0.24V28.48c0-0.16,0.07-0.24,0.22-0.24H106c0.15,0,0.22,0.08,0.22,0.24v1.64
				c0,0.16-0.07,0.24-0.22,0.24h-5.48v3.34h5c0.15,0,0.22,0.08,0.22,0.24v1.54c0,0.16-0.07,0.24-0.22,0.24h-5v3.5H106
				c0.15,0,0.22,0.08,0.22,0.24v1.64c0,0.16-0.07,0.24-0.22,0.24H98.34z"/>
			<path d="M111.14,41.34c-0.15,0-0.22-0.08-0.22-0.24V28.48c0-0.16,0.07-0.24,0.22-0.24h1.96c0.15,0,0.22,0.08,0.22,0.24v10.74
				h5.26c0.16,0,0.24,0.08,0.24,0.24v1.64c0,0.16-0.08,0.24-0.24,0.24H111.14z"/>
			<path d="M122.88,41.34c-0.15,0-0.22-0.08-0.22-0.24V28.48c0-0.16,0.07-0.24,0.22-0.24h1.96c0.15,0,0.22,0.08,0.22,0.24v10.74
				h5.26c0.16,0,0.24,0.08,0.24,0.24v1.64c0,0.16-0.08,0.24-0.24,0.24H122.88z"/>
			<path d="M139.14,41.58c-1.67,0-2.94-0.41-3.82-1.24c-0.88-0.83-1.32-2.06-1.32-3.7v-8.16c0-0.16,0.07-0.24,0.22-0.24h1.94
				c0.16,0,0.24,0.08,0.24,0.24v8.12c0,0.92,0.23,1.63,0.68,2.13c0.45,0.5,1.14,0.75,2.06,0.75s1.61-0.25,2.06-0.75
				c0.45-0.5,0.68-1.21,0.68-2.13v-8.12c0-0.16,0.07-0.24,0.22-0.24h1.94c0.16,0,0.24,0.08,0.24,0.24v8.2c0,1.59-0.45,2.8-1.34,3.64
				C142.05,41.16,140.78,41.58,139.14,41.58z"/>
			<path d="M149.34,41.34c-0.15,0-0.22-0.08-0.22-0.24V28.48c0-0.16,0.07-0.24,0.22-0.24h1.96c0.15,0,0.22,0.08,0.22,0.24v10.74
				h5.26c0.16,0,0.24,0.08,0.24,0.24v1.64c0,0.16-0.08,0.24-0.24,0.24H149.34z"/>
			<path d="M159.86,41.34c-0.17,0-0.24-0.09-0.2-0.26l4.32-12.66c0.04-0.12,0.13-0.18,0.26-0.18h2.56c0.15,0,0.24,0.06,0.28,0.18
				l4.34,12.66c0.05,0.17-0.01,0.26-0.18,0.26h-2.12c-0.13,0-0.22-0.06-0.26-0.18l-2.58-8.22c-0.13-0.44-0.26-0.88-0.39-1.31
				c-0.13-0.43-0.25-0.87-0.37-1.31h-0.04c-0.12,0.43-0.24,0.86-0.37,1.29c-0.13,0.43-0.26,0.86-0.39,1.29l-2.52,8.24
				c-0.04,0.13-0.13,0.2-0.28,0.2H159.86z M162.6,38.6l0.46-1.96h4.86l0.48,1.96H162.6z"/>
			<path d="M175.12,41.34c-0.15,0-0.22-0.08-0.22-0.24V28.48c0-0.16,0.07-0.24,0.22-0.24h4.2c1.72,0,2.97,0.33,3.76,0.99
				c0.79,0.66,1.18,1.62,1.18,2.89c0,0.92-0.21,1.7-0.63,2.33c-0.42,0.63-1.04,1.07-1.87,1.31v0.04l3.22,5.26
				c0.05,0.08,0.06,0.15,0.03,0.2c-0.03,0.05-0.1,0.08-0.19,0.08h-2.22c-0.12,0-0.21-0.05-0.28-0.16l-3.02-5.06h-2v4.98
				c0,0.16-0.08,0.24-0.24,0.24H175.12z M177.3,34.22h1.92c0.92,0,1.59-0.16,2.01-0.48c0.42-0.32,0.63-0.83,0.63-1.54
				c0-0.69-0.19-1.19-0.58-1.48c-0.39-0.29-1.04-0.44-1.96-0.44h-2.02V34.22z"/>
			<path d="M200.22,41.58c-1.69,0-2.99-0.42-3.89-1.25c-0.9-0.83-1.35-2.06-1.35-3.69v-3.68c0-1.64,0.45-2.88,1.36-3.71
				c0.91-0.83,2.2-1.25,3.88-1.25c1.15,0,2.13,0.19,2.96,0.56c0.83,0.37,1.44,0.91,1.84,1.6c0.4,0.69,0.53,1.51,0.4,2.46
				c-0.01,0.07-0.04,0.13-0.07,0.19c-0.03,0.06-0.09,0.09-0.17,0.09h-1.94c-0.16,0-0.23-0.08-0.22-0.24
				c0.03-0.81-0.19-1.44-0.65-1.89c-0.46-0.45-1.16-0.67-2.11-0.67c-0.92,0-1.63,0.24-2.13,0.72c-0.5,0.48-0.75,1.21-0.75,2.18v3.58
				c0,0.97,0.25,1.7,0.75,2.18c0.5,0.48,1.21,0.72,2.13,0.72c0.97,0,1.69-0.23,2.16-0.69s0.67-1.08,0.6-1.87
				c-0.01-0.16,0.06-0.24,0.22-0.24h1.92c0.15,0,0.23,0.09,0.26,0.28c0.09,0.93-0.06,1.75-0.47,2.44c-0.41,0.69-1.01,1.23-1.82,1.61
				C202.33,41.39,201.36,41.58,200.22,41.58z"/>
			<path d="M208.68,41.34c-0.17,0-0.24-0.09-0.2-0.26l4.32-12.66c0.04-0.12,0.13-0.18,0.26-0.18h2.56c0.15,0,0.24,0.06,0.28,0.18
				l4.34,12.66c0.05,0.17-0.01,0.26-0.18,0.26h-2.12c-0.13,0-0.22-0.06-0.26-0.18l-2.58-8.22c-0.13-0.44-0.26-0.88-0.39-1.31
				c-0.13-0.43-0.25-0.87-0.37-1.31h-0.04c-0.12,0.43-0.24,0.86-0.37,1.29c-0.13,0.43-0.26,0.86-0.39,1.29l-2.52,8.24
				c-0.04,0.13-0.13,0.2-0.28,0.2H208.68z M211.42,38.6l0.46-1.96h4.86l0.48,1.96H211.42z"/>
			<path d="M223.94,41.34c-0.15,0-0.22-0.08-0.22-0.24V28.48c0-0.16,0.07-0.24,0.22-0.24h4.2c1.72,0,2.97,0.33,3.76,0.99
				c0.79,0.66,1.18,1.62,1.18,2.89c0,0.92-0.21,1.7-0.63,2.33c-0.42,0.63-1.04,1.07-1.87,1.31v0.04l3.22,5.26
				c0.05,0.08,0.06,0.15,0.03,0.2c-0.03,0.05-0.1,0.08-0.19,0.08h-2.22c-0.12,0-0.21-0.05-0.28-0.16l-3.02-5.06h-2v4.98
				c0,0.16-0.08,0.24-0.24,0.24H223.94z M226.12,34.22h1.92c0.92,0,1.59-0.16,2.01-0.48c0.42-0.32,0.63-0.83,0.63-1.54
				c0-0.69-0.19-1.19-0.58-1.48c-0.39-0.29-1.04-0.44-1.96-0.44h-2.02V34.22z"/>
			<path d="M242.74,41.58c-1.69,0-2.99-0.42-3.89-1.25c-0.9-0.83-1.35-2.06-1.35-3.69v-3.68c0-1.64,0.45-2.88,1.36-3.71
				c0.91-0.83,2.2-1.25,3.88-1.25c1.15,0,2.13,0.19,2.96,0.56c0.83,0.37,1.44,0.91,1.84,1.6c0.4,0.69,0.53,1.51,0.4,2.46
				c-0.01,0.07-0.04,0.13-0.07,0.19c-0.03,0.06-0.09,0.09-0.17,0.09h-1.94c-0.16,0-0.23-0.08-0.22-0.24
				c0.03-0.81-0.19-1.44-0.65-1.89c-0.46-0.45-1.16-0.67-2.11-0.67c-0.92,0-1.63,0.24-2.13,0.72c-0.5,0.48-0.75,1.21-0.75,2.18v3.58
				c0,0.97,0.25,1.7,0.75,2.18c0.5,0.48,1.21,0.72,2.13,0.72c0.97,0,1.69-0.23,2.16-0.69c0.47-0.46,0.67-1.08,0.6-1.87
				c-0.01-0.16,0.06-0.24,0.22-0.24h1.92c0.15,0,0.23,0.09,0.26,0.28c0.09,0.93-0.06,1.75-0.47,2.44c-0.41,0.69-1.01,1.23-1.82,1.61
				S243.88,41.58,242.74,41.58z"/>
			<path d="M252.82,41.34c-0.15,0-0.22-0.08-0.22-0.24V28.48c0-0.16,0.07-0.24,0.22-0.24h1.94c0.16,0,0.24,0.08,0.24,0.24V41.1
				c0,0.16-0.08,0.24-0.24,0.24H252.82z"/>
			<path d="M260.16,41.34c-0.15,0-0.22-0.08-0.22-0.24V28.48c0-0.16,0.07-0.24,0.22-0.24H263c0.13,0,0.23,0.05,0.28,0.16l3.22,6.5
				c0.23,0.44,0.44,0.87,0.63,1.28c0.19,0.41,0.37,0.81,0.53,1.18c0.16,0.37,0.3,0.72,0.42,1.04h0.06
				c-0.03-0.36-0.05-0.75-0.06-1.17c-0.01-0.42-0.02-0.84-0.03-1.27s-0.01-0.81-0.01-1.16v-6.32c0-0.16,0.07-0.24,0.22-0.24h1.88
				c0.16,0,0.24,0.08,0.24,0.24V41.1c0,0.16-0.08,0.24-0.24,0.24h-2.8c-0.13,0-0.23-0.05-0.28-0.16l-3.12-6.28
				c-0.2-0.4-0.4-0.81-0.59-1.23s-0.38-0.84-0.56-1.25s-0.35-0.81-0.51-1.18h-0.06c0.01,0.41,0.03,0.83,0.04,1.26
				s0.02,0.85,0.02,1.28s0,0.85,0,1.28v6.04c0,0.16-0.08,0.24-0.24,0.24H260.16z"/>
			<path d="M280.36,41.58c-1.76,0-3.08-0.42-3.96-1.27c-0.88-0.85-1.32-2.06-1.32-3.65v-3.74c0-1.6,0.44-2.82,1.32-3.66
				c0.88-0.84,2.2-1.26,3.96-1.26c1.75,0,3.06,0.42,3.94,1.26s1.32,2.06,1.32,3.66v3.74c0,1.59-0.44,2.8-1.32,3.65
				S282.11,41.58,280.36,41.58z M280.36,39.48c0.95,0,1.66-0.25,2.14-0.75c0.48-0.5,0.72-1.23,0.72-2.19v-3.5
				c0-0.96-0.24-1.69-0.72-2.19c-0.48-0.5-1.19-0.75-2.14-0.75c-0.95,0-1.66,0.25-2.15,0.75c-0.49,0.5-0.73,1.23-0.73,2.19v3.5
				c0,0.96,0.24,1.69,0.73,2.19C278.7,39.23,279.42,39.48,280.36,39.48z"/>
			<path d="M290.28,41.34c-0.15,0-0.22-0.08-0.22-0.24l0.26-12.62c0-0.16,0.08-0.24,0.24-0.24h2.58c0.12,0,0.21,0.06,0.26,0.18
				l3.34,7.28l3.28-7.28c0.07-0.12,0.16-0.18,0.28-0.18h2.58c0.15,0,0.22,0.08,0.22,0.24l0.28,12.62c0,0.16-0.08,0.24-0.24,0.24
				h-1.88c-0.16,0-0.24-0.08-0.24-0.24l-0.16-6.46c-0.01-0.53-0.01-1.07,0.02-1.61c0.03-0.54,0.05-1.07,0.06-1.59h-0.06
				c-0.21,0.52-0.44,1.04-0.67,1.57c-0.23,0.53-0.48,1.04-0.73,1.55l-2.46,5.18c-0.05,0.11-0.15,0.16-0.28,0.16h-0.08
				c-0.12,0-0.21-0.05-0.26-0.16l-2.48-5.24c-0.25-0.49-0.49-1-0.72-1.53c-0.23-0.53-0.44-1.04-0.64-1.53h-0.06
				c0.03,0.51,0.05,1.03,0.06,1.57c0.01,0.54,0.01,1.07,0,1.59l-0.16,6.5c0,0.16-0.07,0.24-0.22,0.24H290.28z"/>
			<path d="M306.74,41.34c-0.17,0-0.24-0.09-0.2-0.26l4.32-12.66c0.04-0.12,0.13-0.18,0.26-0.18h2.56c0.15,0,0.24,0.06,0.28,0.18
				l4.34,12.66c0.05,0.17-0.01,0.26-0.18,0.26H316c-0.13,0-0.22-0.06-0.26-0.18l-2.58-8.22c-0.13-0.44-0.26-0.88-0.39-1.31
				s-0.25-0.87-0.37-1.31h-0.04c-0.12,0.43-0.24,0.86-0.37,1.29c-0.13,0.43-0.26,0.86-0.39,1.29l-2.52,8.24
				c-0.04,0.13-0.13,0.2-0.28,0.2H306.74z M309.48,38.6l0.46-1.96h4.86l0.48,1.96H309.48z"/>
			<path d="M329.72,44.54c-0.48-0.4-0.87-0.79-1.18-1.17s-0.53-0.82-0.68-1.31s-0.22-1.1-0.22-1.82v-8.9c0-0.73,0.08-1.34,0.24-1.82
				c0.16-0.48,0.39-0.91,0.7-1.29s0.69-0.78,1.14-1.19c0.04-0.05,0.1-0.08,0.19-0.09s0.15,0.02,0.19,0.07l1.12,1.08
				c0.12,0.12,0.11,0.24-0.02,0.36c-0.29,0.29-0.54,0.58-0.75,0.85c-0.21,0.27-0.36,0.58-0.45,0.91c-0.09,0.33-0.14,0.75-0.14,1.26
				v8.62c0,0.49,0.05,0.91,0.16,1.24c0.11,0.33,0.26,0.63,0.46,0.9c0.2,0.27,0.44,0.56,0.72,0.88c0.13,0.13,0.14,0.25,0.02,0.36
				l-1.12,1.08c-0.04,0.05-0.1,0.07-0.18,0.06C329.84,44.61,329.77,44.58,329.72,44.54z"/>
			<path d="M337.88,41.58c-0.88,0-1.55-0.28-2-0.83s-0.68-1.38-0.68-2.47v-6.54c0-0.16,0.07-0.24,0.22-0.24h1.9
				c0.16,0,0.24,0.08,0.24,0.24v6.16c0,0.56,0.1,0.97,0.29,1.24s0.5,0.4,0.91,0.4c0.44,0,0.88-0.14,1.33-0.43
				c0.45-0.29,0.95-0.72,1.51-1.29l0.08,1.76c-0.39,0.39-0.78,0.73-1.17,1.03c-0.39,0.3-0.81,0.54-1.24,0.71
				C338.84,41.49,338.37,41.58,337.88,41.58z M341.84,41.34c-0.16,0-0.25-0.07-0.28-0.22c-0.04-0.24-0.08-0.49-0.11-0.76
				c-0.03-0.27-0.06-0.53-0.07-0.8l-0.18-1.02v-6.8c0-0.16,0.08-0.24,0.24-0.24h1.9c0.15,0,0.22,0.08,0.22,0.24v7.1
				c0,0.39,0.01,0.77,0.03,1.15c0.02,0.38,0.06,0.75,0.11,1.11c0.03,0.16-0.05,0.24-0.24,0.24H341.84z"/>
			<path d="M348.54,41.34c-0.15,0-0.22-0.08-0.22-0.24V28.48c0-0.16,0.07-0.24,0.22-0.24h1.94c0.16,0,0.24,0.08,0.24,0.24v5.14h5.6
				v-5.14c0-0.16,0.08-0.24,0.24-0.24h1.94c0.15,0,0.22,0.08,0.22,0.24V41.1c0,0.16-0.07,0.24-0.22,0.24h-1.94
				c-0.16,0-0.24-0.08-0.24-0.24v-5.4h-5.6v5.4c0,0.16-0.08,0.24-0.24,0.24H348.54z"/>
			<path d="M368.68,41.58c-1.69,0-2.99-0.42-3.89-1.25c-0.9-0.83-1.35-2.06-1.35-3.69v-3.68c0-1.64,0.45-2.88,1.36-3.71
				c0.91-0.83,2.2-1.25,3.88-1.25c1.15,0,2.13,0.19,2.96,0.56c0.83,0.37,1.44,0.91,1.84,1.6c0.4,0.69,0.53,1.51,0.4,2.46
				c-0.01,0.07-0.04,0.13-0.07,0.19c-0.03,0.06-0.09,0.09-0.17,0.09h-1.94c-0.16,0-0.23-0.08-0.22-0.24
				c0.03-0.81-0.19-1.44-0.65-1.89c-0.46-0.45-1.16-0.67-2.11-0.67c-0.92,0-1.63,0.24-2.13,0.72c-0.5,0.48-0.75,1.21-0.75,2.18v3.58
				c0,0.97,0.25,1.7,0.75,2.18c0.5,0.48,1.21,0.72,2.13,0.72c0.97,0,1.69-0.23,2.16-0.69s0.67-1.08,0.6-1.87
				c-0.01-0.16,0.06-0.24,0.22-0.24h1.92c0.15,0,0.23,0.09,0.26,0.28c0.09,0.93-0.06,1.75-0.47,2.44c-0.41,0.69-1.01,1.23-1.82,1.61
				S369.81,41.58,368.68,41.58z"/>
			<path d="M383.4,41.58c-1.69,0-2.99-0.42-3.89-1.25c-0.9-0.83-1.35-2.06-1.35-3.69v-3.68c0-1.64,0.45-2.88,1.36-3.71
				c0.91-0.83,2.2-1.25,3.88-1.25c1.15,0,2.13,0.19,2.96,0.56c0.83,0.37,1.44,0.91,1.84,1.6c0.4,0.69,0.53,1.51,0.4,2.46
				c-0.01,0.07-0.04,0.13-0.07,0.19c-0.03,0.06-0.09,0.09-0.17,0.09h-1.94c-0.16,0-0.23-0.08-0.22-0.24
				c0.03-0.81-0.19-1.44-0.65-1.89c-0.46-0.45-1.16-0.67-2.11-0.67c-0.92,0-1.63,0.24-2.13,0.72c-0.5,0.48-0.75,1.21-0.75,2.18v3.58
				c0,0.97,0.25,1.7,0.75,2.18c0.5,0.48,1.21,0.72,2.13,0.72c0.97,0,1.69-0.23,2.16-0.69s0.67-1.08,0.6-1.87
				c-0.01-0.16,0.06-0.24,0.22-0.24h1.92c0.15,0,0.23,0.09,0.26,0.28c0.09,0.93-0.06,1.75-0.47,2.44c-0.41,0.69-1.01,1.23-1.82,1.61
				S384.53,41.58,383.4,41.58z"/>
			<path d="M393.6,44.56l-1.14-1.08c-0.11-0.11-0.09-0.23,0.04-0.36c0.31-0.31,0.56-0.59,0.75-0.86s0.34-0.57,0.44-0.91
				c0.1-0.34,0.15-0.76,0.15-1.25v-8.62c0-0.51-0.05-0.93-0.14-1.27c-0.09-0.34-0.24-0.64-0.44-0.91c-0.2-0.27-0.45-0.55-0.76-0.84
				c-0.13-0.12-0.15-0.24-0.04-0.36l1.14-1.08c0.04-0.05,0.1-0.08,0.19-0.07s0.15,0.04,0.19,0.09c0.48,0.4,0.87,0.79,1.17,1.18
				s0.53,0.82,0.68,1.3c0.15,0.48,0.23,1.09,0.23,1.82v8.9c0,0.72-0.07,1.33-0.21,1.82c-0.14,0.49-0.37,0.93-0.68,1.31
				s-0.71,0.77-1.19,1.17c-0.05,0.04-0.12,0.07-0.2,0.08C393.7,44.63,393.64,44.61,393.6,44.56z"/>
		</g>
	</g>
</g>
<g transform="translate(-1041 -307)">
	<g enable-background="new    ">
		<path fill="#493D7C" d="M1065.27,471.19c-6.66,0-11.7-1.6-15.13-4.81c-3.43-3.21-5.14-7.87-5.14-13.99v-12.65
			c0-6.17,1.71-10.84,5.14-14.02c3.43-3.18,8.47-4.77,15.13-4.77c6.71,0,11.78,1.59,15.21,4.77c3.43,3.18,5.14,7.86,5.14,14.02
			v12.65c0,6.12-1.71,10.78-5.14,13.99C1077.05,469.58,1071.98,471.19,1065.27,471.19z M1065.27,462.01c3.3,0,5.76-0.88,7.36-2.63
			c1.6-1.75,2.41-4.28,2.41-7.58v-11.47c0-3.3-0.8-5.83-2.41-7.58c-1.6-1.75-4.06-2.63-7.36-2.63c-3.21,0-5.62,0.88-7.25,2.63
			s-2.44,4.28-2.44,7.58v11.47c0,3.31,0.81,5.83,2.44,7.58C1059.65,461.14,1062.06,462.01,1065.27,462.01z"/>
		<path fill="#493D7C" d="M1099.16,470.3c-0.64,0-0.96-0.32-0.96-0.96v-46.55c0-0.64,0.32-0.96,0.96-0.96h29.53
			c0.64,0,0.96,0.32,0.96,0.96v7.33c0,0.59-0.32,0.89-0.96,0.89h-19.91v11.17h17.09c0.64,0,0.96,0.32,0.96,0.96v7.03
			c0,0.64-0.32,0.96-0.96,0.96h-17.09v18.2c0,0.64-0.32,0.96-0.96,0.96H1099.16z"/>
		<path fill="#493D7C" d="M1159.99,470.3c-0.64,0-0.96-0.32-0.96-0.96v-46.55c0-0.64,0.32-0.96,0.96-0.96h14.65
			c6.71,0,11.59,1.38,14.65,4.14c3.06,2.76,4.59,6.81,4.59,12.14c0,5.13-1.59,9.1-4.77,11.91c-3.18,2.81-7.98,4.22-14.39,4.22h-5.11
			v15.1c0,0.64-0.32,0.96-0.96,0.96H1159.99z M1169.61,445.29h4.96c2.91,0,5.09-0.56,6.55-1.67c1.45-1.11,2.18-2.92,2.18-5.44
			c0-2.61-0.72-4.49-2.15-5.62c-1.43-1.13-3.63-1.7-6.59-1.7h-4.96V445.29z"/>
		<path fill="#493D7C" d="M1205.65,470.3c-0.64,0-0.96-0.32-0.96-0.96v-46.55c0-0.64,0.32-0.96,0.96-0.96h29.53
			c0.64,0,0.96,0.32,0.96,0.96v7.33c0,0.59-0.32,0.89-0.96,0.89h-19.91v10.51h18.13c0.64,0,0.96,0.32,0.96,0.96v6.81
			c0,0.59-0.32,0.89-0.96,0.89h-18.13v10.95h19.91c0.64,0,0.96,0.3,0.96,0.89v7.33c0,0.64-0.32,0.96-0.96,0.96H1205.65z"/>
		<path fill="#493D7C" d="M1244.42,470.3c-0.69,0-0.94-0.34-0.74-1.04l15.69-46.69c0.2-0.49,0.57-0.74,1.11-0.74h11.32
			c0.54,0,0.89,0.25,1.04,0.74l15.84,46.69c0.2,0.69-0.05,1.04-0.74,1.04h-9.55c-0.54,0-0.89-0.25-1.04-0.74l-8.51-28.64
			c-0.49-1.68-0.96-3.37-1.41-5.07s-0.89-3.39-1.33-5.07h-0.15c-0.44,1.68-0.89,3.37-1.33,5.07s-0.91,3.39-1.41,5.07l-8.36,28.56
			c-0.15,0.54-0.49,0.81-1.04,0.81H1244.42z M1255.82,460.9l1.78-8.44h16.65l1.92,8.44H1255.82z"/>
		<path fill="#493D7C" d="M1298.07,470.3c-0.64,0-0.96-0.32-0.96-0.96v-46.55c0-0.64,0.32-0.96,0.96-0.96h8.66
			c0.64,0,0.96,0.32,0.96,0.96v11.69c0,1.48-0.01,2.95-0.04,4.4c-0.03,1.46-0.11,2.9-0.26,4.33h0.22c0.89-1.33,1.81-2.69,2.78-4.07
			c0.96-1.38,1.99-2.76,3.07-4.14l10.43-12.65c0.25-0.34,0.62-0.52,1.11-0.52h10.58c0.39,0,0.67,0.11,0.81,0.33
			c0.15,0.22,0.07,0.48-0.22,0.78l-15.54,18.5l17.17,27.75c0.2,0.3,0.23,0.56,0.11,0.78c-0.12,0.22-0.36,0.33-0.7,0.33h-10.58
			c-0.54,0-0.94-0.22-1.18-0.67l-12.06-19.83l-5.7,6.51v13.02c0,0.64-0.32,0.96-0.96,0.96H1298.07z"/>
		<path fill="#493D7C" d="M1385.09,471.19c-6.66,0-11.71-1.6-15.13-4.81c-3.43-3.21-5.14-7.87-5.14-13.99v-12.65
			c0-6.17,1.71-10.84,5.14-14.02s8.47-4.77,15.13-4.77c6.71,0,11.78,1.59,15.21,4.77s5.14,7.86,5.14,14.02v12.65
			c0,6.12-1.71,10.78-5.14,13.99C1396.87,469.58,1391.8,471.19,1385.09,471.19z M1385.09,462.01c3.3,0,5.76-0.88,7.36-2.63
			c1.6-1.75,2.41-4.28,2.41-7.58v-11.47c0-3.3-0.8-5.83-2.41-7.58c-1.6-1.75-4.06-2.63-7.36-2.63c-3.21,0-5.62,0.88-7.25,2.63
			c-1.63,1.75-2.44,4.28-2.44,7.58v11.47c0,3.31,0.81,5.83,2.44,7.58C1379.47,461.14,1381.89,462.01,1385.09,462.01z"/>
	</g>
	<g enable-background="new    ">
		<path fill="#493D7C" d="M1433.86,471.19c-6.51,0-11.24-1.26-14.17-3.77c-2.94-2.52-4.18-6.19-3.74-11.03
			c0.05-0.84,0.39-1.26,1.04-1.26h8.44c0.64,0,0.96,0.37,0.96,1.11c-0.05,1.97,0.57,3.47,1.85,4.48c1.28,1.01,3.28,1.52,5.99,1.52
			c2.66,0,4.62-0.39,5.88-1.18c1.26-0.79,1.89-2,1.89-3.63c0-0.79-0.15-1.48-0.44-2.07s-0.81-1.13-1.55-1.63
			c-0.74-0.49-1.75-0.99-3.03-1.48l-10.66-4.66c-2.47-1.04-4.42-2.18-5.85-3.44c-1.43-1.26-2.44-2.7-3.03-4.33s-0.89-3.5-0.89-5.62
			c0.05-4.24,1.49-7.51,4.33-9.8s7.07-3.44,12.69-3.44c4.09,0,7.54,0.54,10.32,1.63c2.79,1.09,4.83,2.69,6.14,4.81
			c1.31,2.12,1.81,4.79,1.52,7.99c-0.05,0.84-0.37,1.26-0.96,1.26h-8.51c-0.3,0-0.53-0.11-0.7-0.33s-0.23-0.53-0.18-0.92
			c0.15-1.68-0.44-3.03-1.78-4.07s-3.23-1.55-5.7-1.55c-2.17,0-3.81,0.38-4.92,1.15c-1.11,0.77-1.69,1.89-1.74,3.37
			c0,0.74,0.16,1.41,0.48,2c0.32,0.59,0.86,1.15,1.63,1.67c0.76,0.52,1.79,1.05,3.07,1.59l10.58,4.51c2.47,1.08,4.41,2.25,5.85,3.48
			c1.43,1.23,2.44,2.66,3.03,4.29s0.89,3.55,0.89,5.77c-0.05,4.44-1.55,7.82-4.51,10.14
			C1445.11,470.03,1440.37,471.19,1433.86,471.19z"/>
	</g>
	<g enable-background="new    ">
		<path fill="#493D7C" d="M1458.22,428.46l-2.89-2.2c-0.14-0.14-0.22-0.3-0.22-0.47s0.07-0.32,0.22-0.43l2.59-2.5l-3.71-0.6
			c-0.2-0.06-0.34-0.16-0.41-0.3c-0.07-0.14-0.09-0.3-0.06-0.47l1.12-3.32c0.06-0.2,0.18-0.33,0.37-0.39
			c0.19-0.06,0.37-0.04,0.54,0.04l3.24,1.86l-0.39-4.14c-0.06-0.34,0.1-0.52,0.47-0.52h3.37c0.34,0,0.49,0.17,0.43,0.52l-0.39,4.19
			l3.28-1.86c0.17-0.11,0.35-0.14,0.52-0.06c0.17,0.07,0.29,0.21,0.35,0.41l1.12,3.28c0.06,0.2,0.04,0.37-0.04,0.5
			c-0.09,0.13-0.22,0.21-0.39,0.24l-3.8,0.69l2.59,2.46c0.17,0.14,0.26,0.31,0.26,0.5c0,0.19-0.09,0.34-0.26,0.45l-2.94,2.03
			c-0.37,0.29-0.65,0.22-0.82-0.22l-1.64-3.15l-1.6,3.28c-0.12,0.17-0.25,0.29-0.41,0.35S1458.39,428.6,1458.22,428.46z"/>
	</g>
	<g enable-background="new    ">
		<path fill="#493D7C" d="M1459.55,479.99c-0.59,0-0.81-0.32-0.67-0.96l3.7-16.58c0.1-0.44,0.37-0.67,0.81-0.67h6.44
			c0.69,0,0.89,0.35,0.59,1.04l-5.55,16.65c-0.15,0.34-0.4,0.52-0.74,0.52H1459.55z"/>
	</g>
	<g enable-background="new    ">
		<path fill="#493D7C" d="M1048.19,406.3c-0.46,0-0.69-0.23-0.69-0.69v-33.34c0-0.46,0.23-0.69,0.69-0.69h6.2
			c0.46,0,0.69,0.23,0.69,0.69v33.34c0,0.46-0.23,0.69-0.69,0.69H1048.19z"/>
		<path fill="#493D7C" d="M1065.41,406.3c-0.46,0-0.69-0.23-0.69-0.69v-33.34c0-0.46,0.23-0.69,0.69-0.69h8.43
			c0.35,0,0.62,0.16,0.8,0.48l7.58,15.26c0.53,1.1,1.06,2.2,1.59,3.31c0.53,1.11,1.01,2.18,1.46,3.21c0.44,1.03,0.8,1.98,1.09,2.86
			h0.16c-0.07-0.95-0.13-2-0.19-3.15c-0.05-1.15-0.1-2.3-0.13-3.45c-0.04-1.15-0.05-2.18-0.05-3.1v-14.73
			c0-0.46,0.21-0.69,0.64-0.69h5.99c0.46,0,0.69,0.23,0.69,0.69v33.34c0,0.46-0.23,0.69-0.69,0.69h-8.32
			c-0.39,0-0.65-0.16-0.79-0.48l-7.37-14.63c-0.5-1.02-0.99-2.11-1.48-3.26c-0.5-1.15-0.98-2.28-1.46-3.39
			c-0.48-1.11-0.91-2.15-1.3-3.1h-0.16c0.07,1.03,0.11,2.12,0.13,3.29c0.02,1.17,0.03,2.33,0.03,3.5s0,2.28,0,3.34v14.04
			c0,0.46-0.23,0.69-0.69,0.69H1065.41z"/>
		<path fill="#493D7C" d="M1124.29,406.3c-0.42,0-0.64-0.23-0.64-0.69v-27.45h-8.96c-0.42,0-0.64-0.21-0.64-0.64v-5.25
			c0-0.46,0.21-0.69,0.64-0.69h25.39c0.42,0,0.64,0.23,0.64,0.69v5.25c0,0.42-0.21,0.64-0.64,0.64h-8.9v27.45
			c0,0.46-0.23,0.69-0.69,0.69H1124.29z"/>
		<path fill="#493D7C" d="M1148.83,406.3c-0.46,0-0.69-0.23-0.69-0.69v-33.34c0-0.46,0.23-0.69,0.69-0.69h6.2
			c0.46,0,0.69,0.23,0.69,0.69v13.2h13.51v-13.2c0-0.46,0.23-0.69,0.69-0.69h6.15c0.46,0,0.69,0.23,0.69,0.69v33.34
			c0,0.46-0.23,0.69-0.69,0.69h-6.15c-0.46,0-0.69-0.23-0.69-0.69v-13.62h-13.51v13.62c0,0.46-0.23,0.69-0.69,0.69H1148.83z"/>
		<path fill="#493D7C" d="M1187.1,406.3c-0.46,0-0.69-0.23-0.69-0.69v-33.34c0-0.46,0.23-0.69,0.69-0.69h21.15
			c0.46,0,0.69,0.23,0.69,0.69v5.25c0,0.42-0.23,0.64-0.69,0.64h-14.26v7.53h12.98c0.46,0,0.69,0.23,0.69,0.69v4.88
			c0,0.42-0.23,0.64-0.69,0.64h-12.98v7.84h14.26c0.46,0,0.69,0.21,0.69,0.64v5.25c0,0.46-0.23,0.69-0.69,0.69H1187.1z"/>
		<path fill="#493D7C" d="M1231.78,406.3c-0.46,0-0.69-0.23-0.69-0.69v-33.34c0-0.46,0.23-0.69,0.69-0.69h10.49
			c4.8,0,8.3,0.99,10.49,2.97c2.19,1.98,3.29,4.88,3.29,8.69c0,3.67-1.14,6.52-3.42,8.53c-2.28,2.01-5.72,3.02-10.31,3.02h-3.66
			v10.81c0,0.46-0.23,0.69-0.69,0.69H1231.78z M1238.67,388.39h3.55c2.08,0,3.65-0.4,4.69-1.19c1.04-0.79,1.56-2.09,1.56-3.9
			c0-1.87-0.51-3.21-1.54-4.03c-1.03-0.81-2.6-1.22-4.72-1.22h-3.55V388.39z"/>
		<path fill="#493D7C" d="M1277.67,406.94c-4.63,0-8.14-1.1-10.55-3.31c-2.4-2.21-3.6-5.57-3.6-10.1v-21.25
			c0-0.46,0.23-0.69,0.69-0.69h6.2c0.46,0,0.69,0.23,0.69,0.69v20.99c0,2.26,0.53,4.02,1.59,5.27c1.06,1.25,2.72,1.88,4.98,1.88
			c2.3,0,3.97-0.63,5.01-1.88c1.04-1.25,1.56-3.01,1.56-5.27v-20.99c0-0.46,0.23-0.69,0.69-0.69h6.2c0.46,0,0.69,0.23,0.69,0.69
			v21.31c0,4.42-1.21,7.75-3.63,9.99C1285.77,405.81,1282.27,406.94,1277.67,406.94z"/>
		<path fill="#493D7C" d="M1301.89,406.3c-0.46,0-0.69-0.23-0.69-0.69v-33.34c0-0.46,0.23-0.69,0.69-0.69h11.66
			c4.77,0,8.23,0.92,10.39,2.76c2.15,1.84,3.23,4.5,3.23,8c0,2.4-0.53,4.43-1.59,6.09c-1.06,1.66-2.69,2.83-4.88,3.5v0.05
			l8.37,13.51c0.14,0.21,0.17,0.4,0.08,0.56s-0.27,0.24-0.56,0.24h-7c-0.35,0-0.64-0.16-0.85-0.48l-7.58-12.77h-4.4v12.56
			c0,0.46-0.23,0.69-0.69,0.69H1301.89z M1308.78,387.11h4.66c2.12,0,3.67-0.37,4.66-1.11c0.99-0.74,1.48-1.93,1.48-3.55
			c0-1.59-0.45-2.73-1.35-3.42c-0.9-0.69-2.43-1.03-4.58-1.03h-4.88V387.11z"/>
		<path fill="#493D7C" d="M1347.69,406.94c-4.66,0-8.05-0.9-10.15-2.7c-2.1-1.8-2.99-4.43-2.68-7.9c0.04-0.6,0.28-0.9,0.74-0.9h6.04
			c0.46,0,0.69,0.27,0.69,0.79c-0.04,1.41,0.41,2.48,1.32,3.21c0.92,0.72,2.35,1.09,4.29,1.09c1.91,0,3.31-0.28,4.21-0.85
			c0.9-0.56,1.35-1.43,1.35-2.6c0-0.57-0.11-1.06-0.32-1.48c-0.21-0.42-0.58-0.81-1.11-1.17c-0.53-0.35-1.25-0.71-2.17-1.06
			l-7.63-3.34c-1.77-0.74-3.16-1.56-4.19-2.46c-1.03-0.9-1.75-1.93-2.17-3.1s-0.64-2.51-0.64-4.03c0.03-3.04,1.07-5.38,3.1-7.02
			c2.03-1.64,5.06-2.46,9.09-2.46c2.93,0,5.4,0.39,7.39,1.17c2,0.78,3.46,1.93,4.4,3.44c0.94,1.52,1.3,3.43,1.09,5.72
			c-0.04,0.6-0.26,0.9-0.69,0.9h-6.1c-0.21,0-0.38-0.08-0.5-0.24c-0.12-0.16-0.17-0.38-0.13-0.66c0.11-1.2-0.32-2.17-1.27-2.92
			c-0.95-0.74-2.32-1.11-4.08-1.11c-1.56,0-2.73,0.27-3.52,0.82c-0.8,0.55-1.21,1.35-1.25,2.41c0,0.53,0.11,1.01,0.34,1.43
			c0.23,0.42,0.62,0.82,1.17,1.19c0.55,0.37,1.28,0.75,2.2,1.14l7.58,3.23c1.77,0.78,3.16,1.61,4.19,2.49
			c1.02,0.88,1.75,1.91,2.17,3.07s0.64,2.54,0.64,4.13c-0.04,3.18-1.11,5.6-3.23,7.26C1355.74,406.11,1352.35,406.94,1347.69,406.94
			z"/>
		<path fill="#493D7C" d="M1383.3,406.94c-4.63,0-8.14-1.1-10.55-3.31c-2.4-2.21-3.6-5.57-3.6-10.1v-21.25
			c0-0.46,0.23-0.69,0.69-0.69h6.2c0.46,0,0.69,0.23,0.69,0.69v20.99c0,2.26,0.53,4.02,1.59,5.27c1.06,1.25,2.72,1.88,4.98,1.88
			c2.3,0,3.97-0.63,5.01-1.88c1.04-1.25,1.56-3.01,1.56-5.27v-20.99c0-0.46,0.23-0.69,0.69-0.69h6.2c0.46,0,0.69,0.23,0.69,0.69
			v21.31c0,4.42-1.21,7.75-3.63,9.99C1391.4,405.81,1387.89,406.94,1383.3,406.94z"/>
		<path fill="#493D7C" d="M1407.52,406.3c-0.46,0-0.69-0.23-0.69-0.69v-33.34c0-0.46,0.23-0.69,0.69-0.69h6.2
			c0.46,0,0.69,0.23,0.69,0.69v33.34c0,0.46-0.23,0.69-0.69,0.69H1407.52z"/>
		<path fill="#493D7C" d="M1432.06,406.3c-0.42,0-0.64-0.23-0.64-0.69v-27.45h-8.96c-0.42,0-0.64-0.21-0.64-0.64v-5.25
			c0-0.46,0.21-0.69,0.64-0.69h25.39c0.42,0,0.64,0.23,0.64,0.69v5.25c0,0.42-0.21,0.64-0.64,0.64h-8.9v27.45
			c0,0.46-0.23,0.69-0.69,0.69H1432.06z"/>
	</g>
	<g enable-background="new    ">
		<path fill="#493D7C" d="M1049.95,522.3c-0.43,0-0.65-0.22-0.65-0.65V490.2c0-0.43,0.22-0.65,0.65-0.65h19.95
			c0.43,0,0.65,0.22,0.65,0.65v4.95c0,0.4-0.22,0.6-0.65,0.6h-13.45v7.1h12.25c0.43,0,0.65,0.22,0.65,0.65v4.6
			c0,0.4-0.22,0.6-0.65,0.6h-12.25v7.4h13.45c0.43,0,0.65,0.2,0.65,0.6v4.95c0,0.43-0.22,0.65-0.65,0.65H1049.95z"/>
		<path fill="#493D7C" d="M1087.3,522.3c-0.4,0-0.65-0.17-0.75-0.5l-10.35-31.55c-0.13-0.47,0.05-0.7,0.55-0.7h6.35
			c0.4,0,0.65,0.17,0.75,0.5l5.45,18.8c0.33,1.2,0.65,2.41,0.95,3.62c0.3,1.22,0.58,2.44,0.85,3.67h0.15
			c0.27-1.23,0.56-2.46,0.88-3.67c0.32-1.22,0.66-2.44,1.03-3.67l5.5-18.7c0.1-0.37,0.33-0.55,0.7-0.55h6.35
			c0.5,0,0.68,0.23,0.55,0.7l-10.45,31.55c-0.13,0.33-0.38,0.5-0.75,0.5H1087.3z"/>
		<path fill="#493D7C" d="M1113.2,522.3c-0.43,0-0.65-0.22-0.65-0.65V490.2c0-0.43,0.22-0.65,0.65-0.65h19.95
			c0.43,0,0.65,0.22,0.65,0.65v4.95c0,0.4-0.22,0.6-0.65,0.6h-13.45v7.1h12.25c0.43,0,0.65,0.22,0.65,0.65v4.6
			c0,0.4-0.22,0.6-0.65,0.6h-12.25v7.4h13.45c0.43,0,0.65,0.2,0.65,0.6v4.95c0,0.43-0.22,0.65-0.65,0.65H1113.2z"/>
		<path fill="#493D7C" d="M1142.9,522.3c-0.43,0-0.65-0.22-0.65-0.65V490.2c0-0.43,0.22-0.65,0.65-0.65h11c4.5,0,7.77,0.87,9.8,2.6
			c2.03,1.73,3.05,4.25,3.05,7.55c0,2.27-0.5,4.18-1.5,5.75s-2.53,2.67-4.6,3.3v0.05l7.9,12.75c0.13,0.2,0.16,0.38,0.07,0.53
			c-0.08,0.15-0.26,0.22-0.52,0.22h-6.6c-0.33,0-0.6-0.15-0.8-0.45l-7.15-12.05h-4.15v11.85c0,0.43-0.22,0.65-0.65,0.65H1142.9z
			 M1149.4,504.2h4.4c2,0,3.47-0.35,4.4-1.05c0.93-0.7,1.4-1.82,1.4-3.35c0-1.5-0.42-2.58-1.27-3.22c-0.85-0.65-2.29-0.98-4.33-0.98
			h-4.6V504.2z"/>
		<path fill="#493D7C" d="M1182.25,522.3c-0.43,0-0.65-0.22-0.65-0.65V511l-10.65-20.7c-0.1-0.2-0.11-0.38-0.02-0.53
			c0.08-0.15,0.24-0.22,0.48-0.22h6.6c0.37,0,0.62,0.15,0.75,0.45l3.8,8.25c0.47,1.07,0.93,2.13,1.38,3.2
			c0.45,1.07,0.88,2.12,1.27,3.15h0.05c0.43-1.07,0.87-2.12,1.3-3.15c0.43-1.03,0.9-2.1,1.4-3.2l3.75-8.25
			c0.13-0.3,0.38-0.45,0.75-0.45h6.5c0.23,0,0.39,0.08,0.48,0.22c0.08,0.15,0.08,0.33-0.02,0.53l-10.65,20.7v10.65
			c0,0.43-0.22,0.65-0.65,0.65H1182.25z"/>
		<path fill="#493D7C" d="M1217.95,522.3c-0.43,0-0.65-0.22-0.65-0.65l0.65-31.45c0-0.43,0.22-0.65,0.65-0.65h7.2
			c0.33,0,0.57,0.17,0.7,0.5l8.1,17.3l8-17.3c0.17-0.33,0.42-0.5,0.75-0.5h7.15c0.4,0,0.6,0.22,0.6,0.65l0.7,31.45
			c0,0.43-0.22,0.65-0.65,0.65h-5.7c-0.43,0-0.65-0.22-0.65-0.65l-0.3-13.65c-0.03-1.37-0.02-2.78,0.02-4.23
			c0.05-1.45,0.11-2.86,0.17-4.22h-0.15c-0.57,1.33-1.17,2.7-1.8,4.1c-0.63,1.4-1.28,2.75-1.95,4.05l-5.4,10.95
			c-0.13,0.27-0.38,0.4-0.75,0.4h-0.25c-0.33,0-0.57-0.13-0.7-0.4l-5.45-11.05c-0.63-1.3-1.27-2.64-1.9-4.02
			c-0.63-1.38-1.22-2.73-1.75-4.03h-0.15c0.07,1.37,0.12,2.77,0.15,4.2c0.03,1.43,0.03,2.82,0,4.15l-0.3,13.75
			c0,0.43-0.22,0.65-0.65,0.65H1217.95z"/>
		<path fill="#493D7C" d="M1260.9,522.3c-0.43,0-0.65-0.22-0.65-0.65V490.2c0-0.43,0.22-0.65,0.65-0.65h19.95
			c0.43,0,0.65,0.22,0.65,0.65v4.95c0,0.4-0.22,0.6-0.65,0.6h-13.45v7.1h12.25c0.43,0,0.65,0.22,0.65,0.65v4.6
			c0,0.4-0.22,0.6-0.65,0.6h-12.25v7.4h13.45c0.43,0,0.65,0.2,0.65,0.6v4.95c0,0.43-0.22,0.65-0.65,0.65H1260.9z"/>
		<path fill="#493D7C" d="M1287.1,522.3c-0.47,0-0.63-0.23-0.5-0.7l10.6-31.55c0.13-0.33,0.38-0.5,0.75-0.5h7.65
			c0.37,0,0.6,0.17,0.7,0.5l10.7,31.55c0.13,0.47-0.03,0.7-0.5,0.7h-6.45c-0.37,0-0.6-0.17-0.7-0.5l-5.75-19.35
			c-0.33-1.13-0.65-2.28-0.95-3.43c-0.3-1.15-0.6-2.29-0.9-3.42h-0.1c-0.3,1.13-0.6,2.28-0.9,3.42c-0.3,1.15-0.62,2.29-0.95,3.43
			l-5.65,19.3c-0.1,0.37-0.33,0.55-0.7,0.55H1287.1z M1294.8,515.95l1.2-5.7h11.25l1.3,5.7H1294.8z"/>
		<path fill="#493D7C" d="M1333.39,522.9c-4.4,0-7.59-0.85-9.58-2.55s-2.83-4.18-2.52-7.45c0.03-0.57,0.27-0.85,0.7-0.85h5.7
			c0.43,0,0.65,0.25,0.65,0.75c-0.03,1.33,0.38,2.34,1.25,3.03c0.87,0.68,2.22,1.02,4.05,1.02c1.8,0,3.12-0.27,3.97-0.8
			c0.85-0.53,1.28-1.35,1.28-2.45c0-0.53-0.1-1-0.3-1.4c-0.2-0.4-0.55-0.77-1.05-1.1c-0.5-0.33-1.18-0.67-2.05-1l-7.2-3.15
			c-1.67-0.7-2.98-1.48-3.95-2.33c-0.97-0.85-1.65-1.83-2.05-2.92c-0.4-1.1-0.6-2.37-0.6-3.8c0.03-2.87,1.01-5.07,2.92-6.62
			c1.92-1.55,4.78-2.32,8.58-2.32c2.77,0,5.09,0.37,6.98,1.1c1.88,0.73,3.27,1.82,4.15,3.25c0.88,1.43,1.23,3.23,1.03,5.4
			c-0.03,0.57-0.25,0.85-0.65,0.85h-5.75c-0.2,0-0.36-0.08-0.47-0.22c-0.12-0.15-0.16-0.36-0.12-0.62c0.1-1.13-0.3-2.05-1.2-2.75
			c-0.9-0.7-2.18-1.05-3.85-1.05c-1.47,0-2.58,0.26-3.33,0.78c-0.75,0.52-1.14,1.28-1.17,2.28c0,0.5,0.11,0.95,0.32,1.35
			s0.58,0.78,1.1,1.12c0.52,0.35,1.21,0.71,2.08,1.08l7.15,3.05c1.67,0.73,2.98,1.52,3.95,2.35c0.97,0.83,1.65,1.8,2.05,2.9
			c0.4,1.1,0.6,2.4,0.6,3.9c-0.03,3-1.05,5.28-3.05,6.85C1340.99,522.12,1337.79,522.9,1333.39,522.9z"/>
		<path fill="#493D7C" d="M1366.99,522.9c-4.37,0-7.68-1.04-9.95-3.12c-2.27-2.08-3.4-5.26-3.4-9.52V490.2
			c0-0.43,0.22-0.65,0.65-0.65h5.85c0.43,0,0.65,0.22,0.65,0.65V510c0,2.13,0.5,3.79,1.5,4.97c1,1.18,2.57,1.78,4.7,1.78
			c2.17,0,3.74-0.59,4.72-1.78c0.98-1.18,1.47-2.84,1.47-4.97v-19.8c0-0.43,0.22-0.65,0.65-0.65h5.85c0.43,0,0.65,0.22,0.65,0.65
			v20.1c0,4.17-1.14,7.31-3.42,9.42C1374.63,521.84,1371.33,522.9,1366.99,522.9z"/>
		<path fill="#493D7C" d="M1389.84,522.3c-0.43,0-0.65-0.22-0.65-0.65V490.2c0-0.43,0.22-0.65,0.65-0.65h11c4.5,0,7.77,0.87,9.8,2.6
			c2.03,1.73,3.05,4.25,3.05,7.55c0,2.27-0.5,4.18-1.5,5.75s-2.53,2.67-4.6,3.3v0.05l7.9,12.75c0.13,0.2,0.16,0.38,0.08,0.53
			c-0.08,0.15-0.26,0.22-0.52,0.22h-6.6c-0.33,0-0.6-0.15-0.8-0.45l-7.15-12.05h-4.15v11.85c0,0.43-0.22,0.65-0.65,0.65H1389.84z
			 M1396.34,504.2h4.4c2,0,3.47-0.35,4.4-1.05c0.93-0.7,1.4-1.82,1.4-3.35c0-1.5-0.43-2.58-1.28-3.22
			c-0.85-0.65-2.29-0.98-4.33-0.98h-4.6V504.2z"/>
		<path fill="#493D7C" d="M1423.24,522.3c-0.43,0-0.65-0.22-0.65-0.65V490.2c0-0.43,0.22-0.65,0.65-0.65h19.95
			c0.43,0,0.65,0.22,0.65,0.65v4.95c0,0.4-0.22,0.6-0.65,0.6h-13.45v7.1h12.25c0.43,0,0.65,0.22,0.65,0.65v4.6
			c0,0.4-0.22,0.6-0.65,0.6h-12.25v7.4h13.45c0.43,0,0.65,0.2,0.65,0.6v4.95c0,0.43-0.22,0.65-0.65,0.65H1423.24z"/>
	</g>
	<g enable-background="new    ">
		<path fill="#493D7C" d="M1050.07,601.3c-0.8,0-1.2-0.4-1.2-1.2l1.2-57.87c0-0.8,0.4-1.2,1.2-1.2h13.25c0.61,0,1.04,0.31,1.29,0.92
			l14.9,31.83l14.72-31.83c0.31-0.61,0.77-0.92,1.38-0.92h13.16c0.74,0,1.1,0.4,1.1,1.2l1.29,57.87c0,0.8-0.4,1.2-1.2,1.2h-10.49
			c-0.8,0-1.2-0.4-1.2-1.2l-0.55-25.12c-0.06-2.51-0.05-5.11,0.05-7.77c0.09-2.67,0.2-5.26,0.32-7.77h-0.28
			c-1.04,2.45-2.15,4.97-3.31,7.54c-1.17,2.58-2.36,5.06-3.59,7.45l-9.94,20.15c-0.25,0.49-0.71,0.74-1.38,0.74h-0.46
			c-0.61,0-1.04-0.24-1.29-0.74l-10.03-20.33c-1.17-2.39-2.33-4.86-3.5-7.41c-1.17-2.54-2.24-5.01-3.22-7.41h-0.28
			c0.12,2.52,0.21,5.09,0.28,7.73c0.06,2.64,0.06,5.18,0,7.64l-0.55,25.3c0,0.8-0.4,1.2-1.2,1.2H1050.07z"/>
		<path fill="#493D7C" d="M1122.57,601.3c-0.86,0-1.16-0.43-0.92-1.29l19.5-58.05c0.24-0.61,0.7-0.92,1.38-0.92h14.08
			c0.67,0,1.1,0.31,1.29,0.92l19.69,58.05c0.24,0.86-0.06,1.29-0.92,1.29h-11.87c-0.68,0-1.1-0.31-1.29-0.92l-10.58-35.6
			c-0.61-2.08-1.2-4.19-1.75-6.3c-0.55-2.12-1.1-4.22-1.66-6.3h-0.18c-0.55,2.09-1.1,4.19-1.66,6.3c-0.55,2.12-1.14,4.22-1.75,6.3
			l-10.4,35.51c-0.18,0.68-0.61,1.01-1.29,1.01H1122.57z M1136.73,589.62l2.21-10.49h20.7l2.39,10.49H1136.73z"/>
		<path fill="#493D7C" d="M1196.63,601.3c-0.74,0-1.1-0.4-1.1-1.2v-47.66h-15.55c-0.74,0-1.1-0.37-1.1-1.1v-9.11
			c0-0.8,0.37-1.2,1.1-1.2h44.07c0.74,0,1.1,0.4,1.1,1.2v9.11c0,0.74-0.37,1.1-1.1,1.1h-15.46v47.66c0,0.8-0.4,1.2-1.2,1.2H1196.63z
			"/>
		<path fill="#493D7C" d="M1252.65,601.3c-0.74,0-1.1-0.4-1.1-1.2v-47.66H1236c-0.74,0-1.1-0.37-1.1-1.1v-9.11
			c0-0.8,0.37-1.2,1.1-1.2h44.07c0.74,0,1.1,0.4,1.1,1.2v9.11c0,0.74-0.37,1.1-1.1,1.1h-15.46v47.66c0,0.8-0.4,1.2-1.2,1.2H1252.65z
			"/>
		<path fill="#493D7C" d="M1295.25,601.3c-0.8,0-1.2-0.4-1.2-1.2v-57.87c0-0.8,0.4-1.2,1.2-1.2h36.71c0.8,0,1.2,0.4,1.2,1.2v9.11
			c0,0.74-0.4,1.1-1.2,1.1h-24.75v13.06h22.54c0.8,0,1.2,0.4,1.2,1.2v8.46c0,0.74-0.4,1.1-1.2,1.1h-22.54v13.62h24.75
			c0.8,0,1.2,0.37,1.2,1.1v9.11c0,0.8-0.4,1.2-1.2,1.2H1295.25z"/>
		<path fill="#493D7C" d="M1349.89,601.3c-0.8,0-1.2-0.4-1.2-1.2v-57.87c0-0.8,0.4-1.2,1.2-1.2h20.24c8.28,0,14.29,1.6,18.03,4.78
			c3.74,3.19,5.61,7.82,5.61,13.89c0,4.17-0.92,7.7-2.76,10.58c-1.84,2.88-4.66,4.91-8.46,6.07v0.09l14.54,23.46
			c0.24,0.37,0.29,0.69,0.14,0.97c-0.15,0.28-0.48,0.41-0.97,0.41h-12.14c-0.61,0-1.1-0.28-1.47-0.83l-13.16-22.17h-7.64v21.8
			c0,0.8-0.4,1.2-1.2,1.2H1349.89z M1361.85,568h8.1c3.68,0,6.38-0.64,8.1-1.93c1.72-1.29,2.58-3.34,2.58-6.16
			c0-2.76-0.78-4.74-2.35-5.93c-1.56-1.2-4.22-1.79-7.96-1.79h-8.46V568z"/>
		<path fill="#493D7C" d="M1429.38,602.4c-8.1,0-13.97-1.56-17.62-4.69c-3.65-3.13-5.2-7.7-4.65-13.71
			c0.06-1.04,0.49-1.56,1.29-1.56h10.49c0.8,0,1.2,0.46,1.2,1.38c-0.06,2.45,0.71,4.31,2.3,5.57c1.59,1.26,4.08,1.89,7.45,1.89
			c3.31,0,5.75-0.49,7.31-1.47c1.56-0.98,2.35-2.48,2.35-4.51c0-0.98-0.18-1.84-0.55-2.58s-1.01-1.41-1.93-2.02
			c-0.92-0.61-2.18-1.23-3.77-1.84l-13.25-5.8c-3.07-1.29-5.49-2.71-7.27-4.28c-1.78-1.56-3.04-3.36-3.77-5.38
			c-0.74-2.02-1.1-4.35-1.1-6.99c0.06-5.27,1.85-9.34,5.38-12.19c3.53-2.85,8.79-4.28,15.78-4.28c5.09,0,9.37,0.68,12.83,2.02
			c3.46,1.35,6.01,3.34,7.64,5.98c1.62,2.64,2.25,5.95,1.89,9.94c-0.06,1.04-0.46,1.56-1.2,1.56h-10.58c-0.37,0-0.66-0.14-0.87-0.41
			c-0.21-0.28-0.29-0.66-0.23-1.15c0.18-2.08-0.55-3.77-2.21-5.06s-4.02-1.93-7.08-1.93c-2.7,0-4.74,0.48-6.12,1.43
			c-1.38,0.95-2.1,2.35-2.16,4.19c0,0.92,0.2,1.75,0.6,2.48c0.4,0.74,1.07,1.43,2.02,2.07c0.95,0.64,2.22,1.3,3.82,1.98l13.16,5.61
			c3.07,1.35,5.49,2.79,7.27,4.32c1.78,1.53,3.04,3.31,3.77,5.34c0.74,2.02,1.1,4.42,1.1,7.18c-0.06,5.52-1.93,9.72-5.61,12.6
			C1443.37,600.96,1437.48,602.4,1429.38,602.4z"/>
	</g>
	<g transform="matrix(1, 0, 0, 1, 1041, 307)">
		<g enable-background="new    ">
			<path d="M9.14,17.3c-0.13,0-0.22-0.07-0.26-0.2L5.34,4.46C5.29,4.29,5.36,4.2,5.56,4.2H7.5c0.15,0,0.23,0.07,0.26,0.2l1.92,7.16
				c0.11,0.35,0.2,0.71,0.27,1.1c0.07,0.39,0.15,0.76,0.22,1.13c0.07,0.37,0.14,0.71,0.21,1.03h0.04c0.13-0.47,0.27-0.93,0.4-1.39
				s0.27-0.92,0.42-1.39l1.52-4.88l-0.74-2.44C11.99,4.64,12,4.58,12.05,4.53s0.1-0.07,0.17-0.07h1.96c0.13,0,0.21,0.07,0.24,0.2
				l2,7.42c0.13,0.45,0.25,0.91,0.36,1.37c0.11,0.46,0.21,0.92,0.32,1.37h0.02c0.07-0.32,0.14-0.67,0.21-1.06
				c0.07-0.39,0.15-0.78,0.23-1.17s0.16-0.76,0.24-1.11l1.84-7.08c0.03-0.13,0.11-0.2,0.26-0.2h2c0.19,0,0.25,0.09,0.2,0.26
				L18.66,17.1c-0.04,0.13-0.13,0.2-0.26,0.2H16c-0.15,0-0.24-0.07-0.28-0.2l-1.16-4.12c-0.13-0.47-0.26-0.93-0.39-1.4
				c-0.13-0.47-0.24-0.92-0.35-1.36h-0.04c-0.13,0.44-0.26,0.89-0.39,1.34c-0.13,0.45-0.26,0.91-0.41,1.38l-1.26,4.18
				c-0.05,0.12-0.14,0.18-0.26,0.18H9.14z"/>
			<path d="M26.14,17.3c-0.15,0-0.22-0.08-0.22-0.24V4.44c0-0.16,0.07-0.24,0.22-0.24h1.94c0.16,0,0.24,0.08,0.24,0.24v5.14h5.6
				V4.44c0-0.16,0.08-0.24,0.24-0.24h1.94c0.15,0,0.22,0.08,0.22,0.24v12.62c0,0.16-0.07,0.24-0.22,0.24h-1.94
				c-0.16,0-0.24-0.08-0.24-0.24v-5.4h-5.6v5.4c0,0.16-0.08,0.24-0.24,0.24H26.14z"/>
			<path d="M41.5,17.3c-0.15,0-0.22-0.08-0.22-0.24V4.44c0-0.16,0.07-0.24,0.22-0.24h7.66c0.15,0,0.22,0.08,0.22,0.24v1.64
				c0,0.16-0.07,0.24-0.22,0.24h-5.48v3.34h5c0.15,0,0.22,0.08,0.22,0.24v1.54c0,0.16-0.07,0.24-0.22,0.24h-5v3.5h5.48
				c0.15,0,0.22,0.08,0.22,0.24v1.64c0,0.16-0.07,0.24-0.22,0.24H41.5z"/>
			<path d="M54.3,17.3c-0.15,0-0.22-0.08-0.22-0.24V4.44c0-0.16,0.07-0.24,0.22-0.24h2.84c0.13,0,0.23,0.05,0.28,0.16l3.22,6.5
				c0.23,0.44,0.44,0.87,0.63,1.28c0.19,0.41,0.37,0.81,0.53,1.18c0.16,0.37,0.3,0.72,0.42,1.04h0.06
				c-0.03-0.36-0.05-0.75-0.06-1.17c-0.01-0.42-0.02-0.84-0.03-1.27s-0.01-0.81-0.01-1.16V4.44c0-0.16,0.07-0.24,0.22-0.24h1.88
				c0.16,0,0.24,0.08,0.24,0.24v12.62c0,0.16-0.08,0.24-0.24,0.24h-2.8c-0.13,0-0.23-0.05-0.28-0.16l-3.12-6.28
				c-0.2-0.4-0.4-0.81-0.59-1.23c-0.19-0.42-0.38-0.84-0.56-1.25c-0.18-0.41-0.35-0.81-0.51-1.18h-0.06
				c0.01,0.41,0.03,0.83,0.04,1.26s0.02,0.85,0.02,1.28s0,0.85,0,1.28v6.04c0,0.16-0.08,0.24-0.24,0.24H54.3z"/>
			<path d="M78.52,17.3c-0.16,0-0.24-0.08-0.24-0.24V6.32h-3.44c-0.16,0-0.24-0.08-0.24-0.24V4.44c0-0.16,0.08-0.24,0.24-0.24h9.3
				c0.16,0,0.24,0.08,0.24,0.24v1.64c0,0.16-0.08,0.24-0.24,0.24H80.7v10.74c0,0.16-0.08,0.24-0.24,0.24H78.52z"/>
			<path d="M88.64,17.3c-0.15,0-0.22-0.08-0.22-0.24V4.44c0-0.16,0.07-0.24,0.22-0.24h4.2c1.72,0,2.97,0.33,3.76,0.99
				c0.79,0.66,1.18,1.62,1.18,2.89c0,0.92-0.21,1.7-0.63,2.33c-0.42,0.63-1.04,1.07-1.87,1.31v0.04l3.22,5.26
				c0.05,0.08,0.06,0.15,0.03,0.2c-0.03,0.05-0.1,0.08-0.19,0.08h-2.22c-0.12,0-0.21-0.05-0.28-0.16l-3.02-5.06h-2v4.98
				c0,0.16-0.08,0.24-0.24,0.24H88.64z M90.82,10.18h1.92c0.92,0,1.59-0.16,2.01-0.48c0.42-0.32,0.63-0.83,0.63-1.54
				c0-0.69-0.19-1.19-0.58-1.48c-0.39-0.29-1.04-0.44-1.96-0.44h-2.02V10.18z"/>
			<path d="M102.9,17.3c-0.15,0-0.22-0.08-0.22-0.24V4.44c0-0.16,0.07-0.24,0.22-0.24h7.66c0.15,0,0.22,0.08,0.22,0.24v1.64
				c0,0.16-0.07,0.24-0.22,0.24h-5.48v3.34h5c0.15,0,0.22,0.08,0.22,0.24v1.54c0,0.16-0.07,0.24-0.22,0.24h-5v3.5h5.48
				c0.15,0,0.22,0.08,0.22,0.24v1.64c0,0.16-0.07,0.24-0.22,0.24H102.9z"/>
			<path d="M114.12,17.3c-0.17,0-0.24-0.09-0.2-0.26l4.32-12.66c0.04-0.12,0.13-0.18,0.26-0.18h2.56c0.15,0,0.24,0.06,0.28,0.18
				l4.34,12.66c0.05,0.17-0.01,0.26-0.18,0.26h-2.12c-0.13,0-0.22-0.06-0.26-0.18l-2.58-8.22c-0.13-0.44-0.26-0.88-0.39-1.31
				c-0.13-0.43-0.25-0.87-0.37-1.31h-0.04c-0.12,0.43-0.24,0.86-0.37,1.29c-0.13,0.43-0.26,0.86-0.39,1.29l-2.52,8.24
				c-0.04,0.13-0.13,0.2-0.28,0.2H114.12z M116.86,14.56l0.46-1.96h4.86l0.48,1.96H116.86z"/>
			<path d="M131.06,17.3c-0.16,0-0.24-0.08-0.24-0.24V6.32h-3.44c-0.16,0-0.24-0.08-0.24-0.24V4.44c0-0.16,0.08-0.24,0.24-0.24h9.3
				c0.16,0,0.24,0.08,0.24,0.24v1.64c0,0.16-0.08,0.24-0.24,0.24h-3.44v10.74c0,0.16-0.08,0.24-0.24,0.24H131.06z"/>
			<path d="M141.18,17.3c-0.15,0-0.22-0.08-0.22-0.24V4.44c0-0.16,0.07-0.24,0.22-0.24h1.94c0.16,0,0.24,0.08,0.24,0.24v12.62
				c0,0.16-0.08,0.24-0.24,0.24H141.18z"/>
			<path d="M148.52,17.3c-0.15,0-0.22-0.08-0.22-0.24V4.44c0-0.16,0.07-0.24,0.22-0.24h2.84c0.13,0,0.23,0.05,0.28,0.16l3.22,6.5
				c0.23,0.44,0.44,0.87,0.63,1.28c0.19,0.41,0.37,0.81,0.53,1.18c0.16,0.37,0.3,0.72,0.42,1.04h0.06
				c-0.03-0.36-0.05-0.75-0.06-1.17c-0.01-0.42-0.02-0.84-0.03-1.27s-0.01-0.81-0.01-1.16V4.44c0-0.16,0.07-0.24,0.22-0.24h1.88
				c0.16,0,0.24,0.08,0.24,0.24v12.62c0,0.16-0.08,0.24-0.24,0.24h-2.8c-0.13,0-0.23-0.05-0.28-0.16l-3.12-6.28
				c-0.2-0.4-0.4-0.81-0.59-1.23c-0.19-0.42-0.38-0.84-0.56-1.25c-0.18-0.41-0.35-0.81-0.51-1.18h-0.06
				c0.01,0.41,0.03,0.83,0.04,1.26s0.02,0.85,0.02,1.28s0,0.85,0,1.28v6.04c0,0.16-0.08,0.24-0.24,0.24H148.52z"/>
			<path d="M168.3,17.54c-0.97,0-1.83-0.19-2.56-0.57c-0.73-0.38-1.3-0.94-1.7-1.67c-0.4-0.73-0.6-1.63-0.6-2.7V8.9
				c0-1.6,0.47-2.82,1.41-3.67c0.94-0.85,2.23-1.27,3.87-1.27c1.17,0,2.16,0.19,2.97,0.56c0.81,0.37,1.4,0.89,1.78,1.55
				c0.38,0.66,0.51,1.42,0.39,2.27c-0.01,0.16-0.09,0.24-0.24,0.24l-1.94-0.02c-0.16,0-0.23-0.08-0.22-0.24
				c0.03-0.48-0.06-0.89-0.25-1.23s-0.49-0.6-0.89-0.77c-0.4-0.17-0.91-0.26-1.54-0.26c-0.97,0-1.71,0.24-2.2,0.71
				c-0.49,0.47-0.74,1.2-0.74,2.19v3.58c0,1,0.24,1.73,0.73,2.2c0.49,0.47,1.21,0.7,2.17,0.7c0.93,0,1.65-0.22,2.14-0.65
				c0.49-0.43,0.74-1.06,0.74-1.89v-0.64h-2.7c-0.16,0-0.24-0.08-0.24-0.24v-1.34c0-0.15,0.08-0.22,0.24-0.22h4.76
				c0.15,0,0.22,0.07,0.22,0.22v3.68c0,0.45,0.01,0.91,0.03,1.38s0.06,0.9,0.13,1.3c0.03,0.08,0.02,0.14-0.03,0.19
				c-0.05,0.05-0.1,0.07-0.17,0.07h-1.56c-0.07,0-0.12-0.02-0.16-0.05s-0.07-0.08-0.1-0.15c-0.03-0.16-0.05-0.35-0.07-0.58
				c-0.02-0.23-0.04-0.45-0.05-0.66h-0.04c-0.23,0.35-0.51,0.65-0.85,0.9c-0.34,0.25-0.74,0.45-1.19,0.58
				C169.38,17.47,168.87,17.54,168.3,17.54z"/>
			<path d="M189.98,17.54c-1.67,0-2.94-0.41-3.82-1.24c-0.88-0.83-1.32-2.06-1.32-3.7V4.44c0-0.16,0.07-0.24,0.22-0.24H187
				c0.16,0,0.24,0.08,0.24,0.24v8.12c0,0.92,0.23,1.63,0.68,2.13c0.45,0.5,1.14,0.75,2.06,0.75s1.61-0.25,2.06-0.75
				c0.45-0.5,0.68-1.21,0.68-2.13V4.44c0-0.16,0.07-0.24,0.22-0.24h1.94c0.16,0,0.24,0.08,0.24,0.24v8.2c0,1.59-0.45,2.8-1.34,3.64
				C192.88,17.12,191.62,17.54,189.98,17.54z"/>
			<path d="M200.18,17.3c-0.15,0-0.22-0.08-0.22-0.24V4.44c0-0.16,0.07-0.24,0.22-0.24h2.84c0.13,0,0.23,0.05,0.28,0.16l3.22,6.5
				c0.23,0.44,0.44,0.87,0.63,1.28c0.19,0.41,0.37,0.81,0.53,1.18c0.16,0.37,0.3,0.72,0.42,1.04h0.06
				c-0.03-0.36-0.05-0.75-0.06-1.17c-0.01-0.42-0.02-0.84-0.03-1.27s-0.01-0.81-0.01-1.16V4.44c0-0.16,0.07-0.24,0.22-0.24h1.88
				c0.16,0,0.24,0.08,0.24,0.24v12.62c0,0.16-0.08,0.24-0.24,0.24h-2.8c-0.13,0-0.23-0.05-0.28-0.16l-3.12-6.28
				c-0.2-0.4-0.4-0.81-0.59-1.23c-0.19-0.42-0.38-0.84-0.56-1.25c-0.18-0.41-0.35-0.81-0.51-1.18h-0.06
				c0.01,0.41,0.03,0.83,0.04,1.26s0.02,0.85,0.02,1.28s0,0.85,0,1.28v6.04c0,0.16-0.08,0.24-0.24,0.24H200.18z"/>
			<path d="M215.56,17.3c-0.15,0-0.22-0.08-0.22-0.24V4.44c0-0.16,0.07-0.24,0.22-0.24h4.2c1.72,0,2.97,0.33,3.76,0.99
				c0.79,0.66,1.18,1.62,1.18,2.89c0,0.92-0.21,1.7-0.63,2.33c-0.42,0.63-1.04,1.07-1.87,1.31v0.04l3.22,5.26
				c0.05,0.08,0.06,0.15,0.03,0.2c-0.03,0.05-0.1,0.08-0.19,0.08h-2.22c-0.12,0-0.21-0.05-0.28-0.16l-3.02-5.06h-2v4.98
				c0,0.16-0.08,0.24-0.24,0.24H215.56z M217.74,10.18h1.92c0.92,0,1.59-0.16,2.01-0.48c0.42-0.32,0.63-0.83,0.63-1.54
				c0-0.69-0.19-1.19-0.58-1.48c-0.39-0.29-1.04-0.44-1.96-0.44h-2.02V10.18z"/>
			<path d="M229.82,17.3c-0.15,0-0.22-0.08-0.22-0.24V4.44c0-0.16,0.07-0.24,0.22-0.24h7.66c0.15,0,0.22,0.08,0.22,0.24v1.64
				c0,0.16-0.07,0.24-0.22,0.24H232v3.34h5c0.15,0,0.22,0.08,0.22,0.24v1.54c0,0.16-0.07,0.24-0.22,0.24h-5v3.5h5.48
				c0.15,0,0.22,0.08,0.22,0.24v1.64c0,0.16-0.07,0.24-0.22,0.24H229.82z"/>
			<path d="M246.5,17.54c-1.69,0-2.93-0.34-3.7-1.03s-1.11-1.64-1.02-2.87c0.03-0.23,0.12-0.34,0.28-0.34h1.88
				c0.17,0,0.25,0.1,0.24,0.3c0,0.65,0.2,1.13,0.6,1.43c0.4,0.3,1.01,0.45,1.84,0.45c0.81,0,1.42-0.13,1.81-0.39
				c0.39-0.26,0.59-0.66,0.59-1.21c0-0.25-0.05-0.48-0.14-0.67s-0.25-0.37-0.48-0.52c-0.23-0.15-0.53-0.31-0.92-0.47l-2.9-1.24
				c-0.64-0.28-1.15-0.58-1.54-0.91c-0.39-0.33-0.66-0.7-0.82-1.13c-0.16-0.43-0.24-0.91-0.24-1.46c0.01-1.13,0.39-2,1.14-2.6
				c0.75-0.6,1.86-0.9,3.34-0.9c1.04,0,1.92,0.14,2.65,0.43c0.73,0.29,1.27,0.71,1.63,1.26c0.36,0.55,0.5,1.24,0.42,2.07
				c-0.03,0.24-0.11,0.36-0.24,0.36h-1.9c-0.08,0-0.14-0.03-0.18-0.08c-0.04-0.05-0.05-0.15-0.04-0.28
				c0.04-0.53-0.15-0.96-0.57-1.27S247.21,6,246.44,6c-0.68,0-1.19,0.12-1.54,0.36c-0.35,0.24-0.52,0.6-0.52,1.08
				c0,0.25,0.05,0.48,0.14,0.67c0.09,0.19,0.26,0.37,0.49,0.53s0.55,0.33,0.95,0.5l2.86,1.22c0.65,0.27,1.17,0.56,1.55,0.89
				c0.38,0.33,0.65,0.7,0.82,1.13c0.17,0.43,0.24,0.93,0.23,1.52c0,1.16-0.39,2.06-1.18,2.69C249.45,17.22,248.2,17.54,246.5,17.54z
				"/>
			<path d="M256.06,17.3c-0.15,0-0.22-0.08-0.22-0.24V4.44c0-0.16,0.07-0.24,0.22-0.24h7.66c0.15,0,0.22,0.08,0.22,0.24v1.64
				c0,0.16-0.07,0.24-0.22,0.24h-5.48v3.34h5c0.15,0,0.22,0.08,0.22,0.24v1.54c0,0.16-0.07,0.24-0.22,0.24h-5v3.5h5.48
				c0.15,0,0.22,0.08,0.22,0.24v1.64c0,0.16-0.07,0.24-0.22,0.24H256.06z"/>
			<path d="M273.44,17.54c-1.69,0-2.99-0.42-3.89-1.25c-0.9-0.83-1.35-2.06-1.35-3.69V8.92c0-1.64,0.45-2.88,1.36-3.71
				c0.91-0.83,2.2-1.25,3.88-1.25c1.15,0,2.13,0.19,2.96,0.56c0.83,0.37,1.44,0.91,1.84,1.6c0.4,0.69,0.53,1.51,0.4,2.46
				c-0.01,0.07-0.04,0.13-0.07,0.19c-0.03,0.06-0.09,0.09-0.17,0.09h-1.94c-0.16,0-0.23-0.08-0.22-0.24
				c0.03-0.81-0.19-1.44-0.65-1.89c-0.46-0.45-1.16-0.67-2.11-0.67c-0.92,0-1.63,0.24-2.13,0.72c-0.5,0.48-0.75,1.21-0.75,2.18v3.58
				c0,0.97,0.25,1.7,0.75,2.18c0.5,0.48,1.21,0.72,2.13,0.72c0.97,0,1.69-0.23,2.16-0.69s0.67-1.08,0.6-1.87
				c-0.01-0.16,0.06-0.24,0.22-0.24h1.92c0.15,0,0.23,0.09,0.26,0.28c0.09,0.93-0.06,1.75-0.47,2.44c-0.41,0.69-1.01,1.23-1.82,1.61
				S274.57,17.54,273.44,17.54z"/>
			<path d="M286.24,17.3c-0.16,0-0.24-0.08-0.24-0.24V6.32h-3.44c-0.16,0-0.24-0.08-0.24-0.24V4.44c0-0.16,0.08-0.24,0.24-0.24h9.3
				c0.16,0,0.24,0.08,0.24,0.24v1.64c0,0.16-0.08,0.24-0.24,0.24h-3.44v10.74c0,0.16-0.08,0.24-0.24,0.24H286.24z"/>
			<path d="M293.74,17.3c-0.17,0-0.24-0.09-0.2-0.26l4.32-12.66c0.04-0.12,0.13-0.18,0.26-0.18h2.56c0.15,0,0.24,0.06,0.28,0.18
				l4.34,12.66c0.05,0.17-0.01,0.26-0.18,0.26H303c-0.13,0-0.22-0.06-0.26-0.18l-2.58-8.22c-0.13-0.44-0.26-0.88-0.39-1.31
				s-0.25-0.87-0.37-1.31h-0.04c-0.12,0.43-0.24,0.86-0.37,1.29c-0.13,0.43-0.26,0.86-0.39,1.29l-2.52,8.24
				c-0.04,0.13-0.13,0.2-0.28,0.2H293.74z M296.48,14.56l0.46-1.96h4.86l0.48,1.96H296.48z"/>
			<path d="M309,17.3c-0.15,0-0.22-0.08-0.22-0.24V4.44c0-0.16,0.07-0.24,0.22-0.24h3.98c1.57,0,2.76,0.27,3.55,0.8
				c0.79,0.53,1.19,1.35,1.19,2.44c0,0.76-0.17,1.37-0.51,1.82s-0.89,0.81-1.65,1.08v0.06c0.89,0.16,1.57,0.5,2.03,1.03
				c0.46,0.53,0.69,1.24,0.69,2.13c0,1.31-0.42,2.26-1.26,2.85c-0.84,0.59-2.19,0.89-4.04,0.89H309z M311.18,9.68h1.74
				c0.84,0,1.45-0.15,1.83-0.44c0.38-0.29,0.57-0.75,0.57-1.36c0-0.6-0.2-1.03-0.6-1.3s-1.05-0.4-1.96-0.4h-1.58V9.68z M311.18,15.3
				h1.86c1.01,0,1.74-0.14,2.18-0.43c0.44-0.29,0.66-0.77,0.66-1.45c0-0.67-0.22-1.15-0.67-1.46c-0.45-0.31-1.16-0.46-2.15-0.46
				h-1.88V15.3z"/>
			<path d="M322.76,17.3c-0.15,0-0.22-0.08-0.22-0.24V4.44c0-0.16,0.07-0.24,0.22-0.24h1.96c0.15,0,0.22,0.08,0.22,0.24v10.74h5.26
				c0.16,0,0.24,0.08,0.24,0.24v1.64c0,0.16-0.08,0.24-0.24,0.24H322.76z"/>
			<path d="M334.5,17.3c-0.15,0-0.22-0.08-0.22-0.24V4.44c0-0.16,0.07-0.24,0.22-0.24h7.66c0.15,0,0.22,0.08,0.22,0.24v1.64
				c0,0.16-0.07,0.24-0.22,0.24h-5.48v3.34h5c0.15,0,0.22,0.08,0.22,0.24v1.54c0,0.16-0.07,0.24-0.22,0.24h-5v3.5h5.48
				c0.15,0,0.22,0.08,0.22,0.24v1.64c0,0.16-0.07,0.24-0.22,0.24H334.5z"/>
		</g>
		<g enable-background="new    ">
			<path d="M6.7,45.3c-0.15,0-0.22-0.08-0.22-0.24V32.44c0-0.16,0.07-0.24,0.22-0.24h1.94c0.16,0,0.24,0.08,0.24,0.24v5.14h5.6
				v-5.14c0-0.16,0.08-0.24,0.24-0.24h1.94c0.15,0,0.22,0.08,0.22,0.24v12.62c0,0.16-0.07,0.24-0.22,0.24h-1.94
				c-0.16,0-0.24-0.08-0.24-0.24v-5.4h-5.6v5.4c0,0.16-0.08,0.24-0.24,0.24H6.7z"/>
			<path d="M22.06,45.3c-0.15,0-0.22-0.08-0.22-0.24V32.44c0-0.16,0.07-0.24,0.22-0.24h7.66c0.15,0,0.22,0.08,0.22,0.24v1.64
				c0,0.16-0.07,0.24-0.22,0.24h-5.48v3.34h5c0.15,0,0.22,0.08,0.22,0.24v1.54c0,0.16-0.07,0.24-0.22,0.24h-5v3.5h5.48
				c0.15,0,0.22,0.08,0.22,0.24v1.64c0,0.16-0.07,0.24-0.22,0.24H22.06z"/>
			<path d="M34.86,45.3c-0.15,0-0.22-0.08-0.22-0.24V32.44c0-0.16,0.07-0.24,0.22-0.24h3.72c1.73,0,3.01,0.36,3.83,1.09
				s1.23,1.79,1.23,3.19c0,1.37-0.42,2.42-1.26,3.15c-0.84,0.73-2.1,1.09-3.78,1.09h-1.56v4.34c0,0.16-0.08,0.24-0.24,0.24H34.86z
				 M37.04,38.68h1.52c0.91,0,1.58-0.17,2.02-0.52s0.66-0.9,0.66-1.66c0-0.8-0.22-1.37-0.66-1.72s-1.12-0.52-2.04-0.52h-1.5V38.68z"
				/>
			<path d="M45.74,45.3c-0.17,0-0.24-0.09-0.2-0.26l4.32-12.66c0.04-0.12,0.13-0.18,0.26-0.18h2.56c0.15,0,0.24,0.06,0.28,0.18
				l4.34,12.66c0.05,0.17-0.01,0.26-0.18,0.26H55c-0.13,0-0.22-0.06-0.26-0.18l-2.58-8.22c-0.13-0.44-0.26-0.88-0.39-1.31
				c-0.13-0.43-0.25-0.87-0.37-1.31h-0.04c-0.12,0.43-0.24,0.86-0.37,1.29c-0.13,0.43-0.26,0.86-0.39,1.29l-2.52,8.24
				c-0.04,0.13-0.13,0.2-0.28,0.2H45.74z M48.48,42.56l0.46-1.96h4.86l0.48,1.96H48.48z"/>
			<path d="M62.68,45.3c-0.16,0-0.24-0.08-0.24-0.24V34.32H59c-0.16,0-0.24-0.08-0.24-0.24v-1.64c0-0.16,0.08-0.24,0.24-0.24h9.3
				c0.16,0,0.24,0.08,0.24,0.24v1.64c0,0.16-0.08,0.24-0.24,0.24h-3.44v10.74c0,0.16-0.08,0.24-0.24,0.24H62.68z"/>
			<path d="M77.28,45.54c-1.76,0-3.08-0.42-3.96-1.27S72,42.21,72,40.62v-3.74c0-1.6,0.44-2.82,1.32-3.66s2.2-1.26,3.96-1.26
				c1.75,0,3.06,0.42,3.94,1.26s1.32,2.06,1.32,3.66v3.74c0,1.59-0.44,2.8-1.32,3.65S79.03,45.54,77.28,45.54z M77.28,43.44
				c0.95,0,1.66-0.25,2.14-0.75s0.72-1.23,0.72-2.19V37c0-0.96-0.24-1.69-0.72-2.19s-1.19-0.75-2.14-0.75s-1.66,0.25-2.15,0.75
				c-0.49,0.5-0.73,1.23-0.73,2.19v3.5c0,0.96,0.24,1.69,0.73,2.19C75.62,43.19,76.33,43.44,77.28,43.44z"/>
			<path d="M92.26,45.54c-1.69,0-2.99-0.42-3.89-1.25c-0.9-0.83-1.35-2.06-1.35-3.69v-3.68c0-1.64,0.45-2.88,1.36-3.71
				c0.91-0.83,2.2-1.25,3.88-1.25c1.15,0,2.13,0.19,2.96,0.56c0.83,0.37,1.44,0.91,1.84,1.6c0.4,0.69,0.53,1.51,0.4,2.46
				c-0.01,0.07-0.04,0.13-0.07,0.19c-0.03,0.06-0.09,0.09-0.17,0.09h-1.94c-0.16,0-0.23-0.08-0.22-0.24
				c0.03-0.81-0.19-1.44-0.65-1.89c-0.46-0.45-1.16-0.67-2.11-0.67c-0.92,0-1.63,0.24-2.13,0.72c-0.5,0.48-0.75,1.21-0.75,2.18v3.58
				c0,0.97,0.25,1.7,0.75,2.18c0.5,0.48,1.21,0.72,2.13,0.72c0.97,0,1.69-0.23,2.16-0.69c0.47-0.46,0.67-1.08,0.6-1.87
				c-0.01-0.16,0.06-0.24,0.22-0.24h1.92c0.15,0,0.23,0.09,0.26,0.28c0.09,0.93-0.06,1.75-0.47,2.44c-0.41,0.69-1.01,1.23-1.82,1.61
				C94.36,45.35,93.39,45.54,92.26,45.54z"/>
			<path d="M102.34,45.3c-0.15,0-0.22-0.08-0.22-0.24V32.44c0-0.16,0.07-0.24,0.22-0.24H110c0.15,0,0.22,0.08,0.22,0.24v1.64
				c0,0.16-0.07,0.24-0.22,0.24h-5.48v3.34h5c0.15,0,0.22,0.08,0.22,0.24v1.54c0,0.16-0.07,0.24-0.22,0.24h-5v3.5H110
				c0.15,0,0.22,0.08,0.22,0.24v1.64c0,0.16-0.07,0.24-0.22,0.24H102.34z"/>
			<path d="M115.14,45.3c-0.15,0-0.22-0.08-0.22-0.24V32.44c0-0.16,0.07-0.24,0.22-0.24h1.96c0.15,0,0.22,0.08,0.22,0.24v10.74h5.26
				c0.16,0,0.24,0.08,0.24,0.24v1.64c0,0.16-0.08,0.24-0.24,0.24H115.14z"/>
			<path d="M126.88,45.3c-0.15,0-0.22-0.08-0.22-0.24V32.44c0-0.16,0.07-0.24,0.22-0.24h1.96c0.15,0,0.22,0.08,0.22,0.24v10.74h5.26
				c0.16,0,0.24,0.08,0.24,0.24v1.64c0,0.16-0.08,0.24-0.24,0.24H126.88z"/>
			<path d="M143.14,45.54c-1.67,0-2.94-0.41-3.82-1.24c-0.88-0.83-1.32-2.06-1.32-3.7v-8.16c0-0.16,0.07-0.24,0.22-0.24h1.94
				c0.16,0,0.24,0.08,0.24,0.24v8.12c0,0.92,0.23,1.63,0.68,2.13c0.45,0.5,1.14,0.75,2.06,0.75s1.61-0.25,2.06-0.75
				c0.45-0.5,0.68-1.21,0.68-2.13v-8.12c0-0.16,0.07-0.24,0.22-0.24h1.94c0.16,0,0.24,0.08,0.24,0.24v8.2c0,1.59-0.45,2.8-1.34,3.64
				C146.05,45.12,144.78,45.54,143.14,45.54z"/>
			<path d="M153.34,45.3c-0.15,0-0.22-0.08-0.22-0.24V32.44c0-0.16,0.07-0.24,0.22-0.24h1.96c0.15,0,0.22,0.08,0.22,0.24v10.74h5.26
				c0.16,0,0.24,0.08,0.24,0.24v1.64c0,0.16-0.08,0.24-0.24,0.24H153.34z"/>
			<path d="M163.86,45.3c-0.17,0-0.24-0.09-0.2-0.26l4.32-12.66c0.04-0.12,0.13-0.18,0.26-0.18h2.56c0.15,0,0.24,0.06,0.28,0.18
				l4.34,12.66c0.05,0.17-0.01,0.26-0.18,0.26h-2.12c-0.13,0-0.22-0.06-0.26-0.18l-2.58-8.22c-0.13-0.44-0.26-0.88-0.39-1.31
				c-0.13-0.43-0.25-0.87-0.37-1.31h-0.04c-0.12,0.43-0.24,0.86-0.37,1.29c-0.13,0.43-0.26,0.86-0.39,1.29l-2.52,8.24
				c-0.04,0.13-0.13,0.2-0.28,0.2H163.86z M166.6,42.56l0.46-1.96h4.86l0.48,1.96H166.6z"/>
			<path d="M179.12,45.3c-0.15,0-0.22-0.08-0.22-0.24V32.44c0-0.16,0.07-0.24,0.22-0.24h4.2c1.72,0,2.97,0.33,3.76,0.99
				c0.79,0.66,1.18,1.62,1.18,2.89c0,0.92-0.21,1.7-0.63,2.33c-0.42,0.63-1.04,1.07-1.87,1.31v0.04l3.22,5.26
				c0.05,0.08,0.06,0.15,0.03,0.2c-0.03,0.05-0.1,0.08-0.19,0.08h-2.22c-0.12,0-0.21-0.05-0.28-0.16l-3.02-5.06h-2v4.98
				c0,0.16-0.08,0.24-0.24,0.24H179.12z M181.3,38.18h1.92c0.92,0,1.59-0.16,2.01-0.48c0.42-0.32,0.63-0.83,0.63-1.54
				c0-0.69-0.19-1.19-0.58-1.48c-0.39-0.29-1.04-0.44-1.96-0.44h-2.02V38.18z"/>
			<path d="M204.22,45.54c-1.69,0-2.99-0.42-3.89-1.25c-0.9-0.83-1.35-2.06-1.35-3.69v-3.68c0-1.64,0.45-2.88,1.36-3.71
				c0.91-0.83,2.2-1.25,3.88-1.25c1.15,0,2.13,0.19,2.96,0.56c0.83,0.37,1.44,0.91,1.84,1.6c0.4,0.69,0.53,1.51,0.4,2.46
				c-0.01,0.07-0.04,0.13-0.07,0.19c-0.03,0.06-0.09,0.09-0.17,0.09h-1.94c-0.16,0-0.23-0.08-0.22-0.24
				c0.03-0.81-0.19-1.44-0.65-1.89c-0.46-0.45-1.16-0.67-2.11-0.67c-0.92,0-1.63,0.24-2.13,0.72c-0.5,0.48-0.75,1.21-0.75,2.18v3.58
				c0,0.97,0.25,1.7,0.75,2.18c0.5,0.48,1.21,0.72,2.13,0.72c0.97,0,1.69-0.23,2.16-0.69c0.47-0.46,0.67-1.08,0.6-1.87
				c-0.01-0.16,0.06-0.24,0.22-0.24h1.92c0.15,0,0.23,0.09,0.26,0.28c0.09,0.93-0.06,1.75-0.47,2.44c-0.41,0.69-1.01,1.23-1.82,1.61
				C206.32,45.35,205.35,45.54,204.22,45.54z"/>
			<path d="M212.68,45.3c-0.17,0-0.24-0.09-0.2-0.26l4.32-12.66c0.04-0.12,0.13-0.18,0.26-0.18h2.56c0.15,0,0.24,0.06,0.28,0.18
				l4.34,12.66c0.05,0.17-0.01,0.26-0.18,0.26h-2.12c-0.13,0-0.22-0.06-0.26-0.18l-2.58-8.22c-0.13-0.44-0.26-0.88-0.39-1.31
				c-0.13-0.43-0.25-0.87-0.37-1.31h-0.04c-0.12,0.43-0.24,0.86-0.37,1.29c-0.13,0.43-0.26,0.86-0.39,1.29l-2.52,8.24
				c-0.04,0.13-0.13,0.2-0.28,0.2H212.68z M215.42,42.56l0.46-1.96h4.86l0.48,1.96H215.42z"/>
			<path d="M227.94,45.3c-0.15,0-0.22-0.08-0.22-0.24V32.44c0-0.16,0.07-0.24,0.22-0.24h4.2c1.72,0,2.97,0.33,3.76,0.99
				c0.79,0.66,1.18,1.62,1.18,2.89c0,0.92-0.21,1.7-0.63,2.33c-0.42,0.63-1.04,1.07-1.87,1.31v0.04l3.22,5.26
				c0.05,0.08,0.06,0.15,0.03,0.2c-0.03,0.05-0.1,0.08-0.19,0.08h-2.22c-0.12,0-0.21-0.05-0.28-0.16l-3.02-5.06h-2v4.98
				c0,0.16-0.08,0.24-0.24,0.24H227.94z M230.12,38.18h1.92c0.92,0,1.59-0.16,2.01-0.48c0.42-0.32,0.63-0.83,0.63-1.54
				c0-0.69-0.19-1.19-0.58-1.48c-0.39-0.29-1.04-0.44-1.96-0.44h-2.02V38.18z"/>
			<path d="M246.74,45.54c-1.69,0-2.99-0.42-3.89-1.25c-0.9-0.83-1.35-2.06-1.35-3.69v-3.68c0-1.64,0.45-2.88,1.36-3.71
				c0.91-0.83,2.2-1.25,3.88-1.25c1.15,0,2.13,0.19,2.96,0.56c0.83,0.37,1.44,0.91,1.84,1.6c0.4,0.69,0.53,1.51,0.4,2.46
				c-0.01,0.07-0.04,0.13-0.07,0.19c-0.03,0.06-0.09,0.09-0.17,0.09h-1.94c-0.16,0-0.23-0.08-0.22-0.24
				c0.03-0.81-0.19-1.44-0.65-1.89c-0.46-0.45-1.16-0.67-2.11-0.67c-0.92,0-1.63,0.24-2.13,0.72c-0.5,0.48-0.75,1.21-0.75,2.18v3.58
				c0,0.97,0.25,1.7,0.75,2.18c0.5,0.48,1.21,0.72,2.13,0.72c0.97,0,1.69-0.23,2.16-0.69c0.47-0.46,0.67-1.08,0.6-1.87
				c-0.01-0.16,0.06-0.24,0.22-0.24h1.92c0.15,0,0.23,0.09,0.26,0.28c0.09,0.93-0.06,1.75-0.47,2.44c-0.41,0.69-1.01,1.23-1.82,1.61
				C248.84,45.35,247.87,45.54,246.74,45.54z"/>
			<path d="M256.82,45.3c-0.15,0-0.22-0.08-0.22-0.24V32.44c0-0.16,0.07-0.24,0.22-0.24h1.94c0.16,0,0.24,0.08,0.24,0.24v12.62
				c0,0.16-0.08,0.24-0.24,0.24H256.82z"/>
			<path d="M264.16,45.3c-0.15,0-0.22-0.08-0.22-0.24V32.44c0-0.16,0.07-0.24,0.22-0.24H267c0.13,0,0.23,0.05,0.28,0.16l3.22,6.5
				c0.23,0.44,0.44,0.87,0.63,1.28c0.19,0.41,0.37,0.81,0.53,1.18c0.16,0.37,0.3,0.72,0.42,1.04h0.06
				c-0.03-0.36-0.05-0.75-0.06-1.17c-0.01-0.42-0.02-0.84-0.03-1.27s-0.01-0.81-0.01-1.16v-6.32c0-0.16,0.07-0.24,0.22-0.24h1.88
				c0.16,0,0.24,0.08,0.24,0.24v12.62c0,0.16-0.08,0.24-0.24,0.24h-2.8c-0.13,0-0.23-0.05-0.28-0.16l-3.12-6.28
				c-0.2-0.4-0.4-0.81-0.59-1.23s-0.38-0.84-0.56-1.25s-0.35-0.81-0.51-1.18h-0.06c0.01,0.41,0.03,0.83,0.04,1.26
				s0.02,0.85,0.02,1.28s0,0.85,0,1.28v6.04c0,0.16-0.08,0.24-0.24,0.24H264.16z"/>
			<path d="M284.36,45.54c-1.76,0-3.08-0.42-3.96-1.27c-0.88-0.85-1.32-2.06-1.32-3.65v-3.74c0-1.6,0.44-2.82,1.32-3.66
				c0.88-0.84,2.2-1.26,3.96-1.26c1.75,0,3.06,0.42,3.94,1.26s1.32,2.06,1.32,3.66v3.74c0,1.59-0.44,2.8-1.32,3.65
				S286.1,45.54,284.36,45.54z M284.36,43.44c0.95,0,1.66-0.25,2.14-0.75c0.48-0.5,0.72-1.23,0.72-2.19V37
				c0-0.96-0.24-1.69-0.72-2.19c-0.48-0.5-1.19-0.75-2.14-0.75c-0.95,0-1.66,0.25-2.15,0.75c-0.49,0.5-0.73,1.23-0.73,2.19v3.5
				c0,0.96,0.24,1.69,0.73,2.19C282.69,43.19,283.41,43.44,284.36,43.44z"/>
			<path d="M294.28,45.3c-0.15,0-0.22-0.08-0.22-0.24l0.26-12.62c0-0.16,0.08-0.24,0.24-0.24h2.58c0.12,0,0.21,0.06,0.26,0.18
				l3.34,7.28l3.28-7.28c0.07-0.12,0.16-0.18,0.28-0.18h2.58c0.15,0,0.22,0.08,0.22,0.24l0.28,12.62c0,0.16-0.08,0.24-0.24,0.24
				h-1.88c-0.16,0-0.24-0.08-0.24-0.24l-0.16-6.46c-0.01-0.53-0.01-1.07,0.02-1.61c0.03-0.54,0.05-1.07,0.06-1.59h-0.06
				c-0.21,0.52-0.44,1.04-0.67,1.57c-0.23,0.53-0.48,1.04-0.73,1.55l-2.46,5.18c-0.05,0.11-0.15,0.16-0.28,0.16h-0.08
				c-0.12,0-0.21-0.05-0.26-0.16l-2.48-5.24c-0.25-0.49-0.49-1-0.72-1.53c-0.23-0.53-0.44-1.04-0.64-1.53h-0.06
				c0.03,0.51,0.05,1.03,0.06,1.57c0.01,0.54,0.01,1.07,0,1.59l-0.16,6.5c0,0.16-0.07,0.24-0.22,0.24H294.28z"/>
			<path d="M310.74,45.3c-0.17,0-0.24-0.09-0.2-0.26l4.32-12.66c0.04-0.12,0.13-0.18,0.26-0.18h2.56c0.15,0,0.24,0.06,0.28,0.18
				l4.34,12.66c0.05,0.17-0.01,0.26-0.18,0.26H320c-0.13,0-0.22-0.06-0.26-0.18l-2.58-8.22c-0.13-0.44-0.26-0.88-0.39-1.31
				s-0.25-0.87-0.37-1.31h-0.04c-0.12,0.43-0.24,0.86-0.37,1.29c-0.13,0.43-0.26,0.86-0.39,1.29l-2.52,8.24
				c-0.04,0.13-0.13,0.2-0.28,0.2H310.74z M313.48,42.56l0.46-1.96h4.86l0.48,1.96H313.48z"/>
			<path d="M333.72,48.5c-0.48-0.4-0.87-0.79-1.18-1.17s-0.53-0.82-0.68-1.31s-0.22-1.1-0.22-1.82v-8.9c0-0.73,0.08-1.34,0.24-1.82
				c0.16-0.48,0.39-0.91,0.7-1.29s0.69-0.78,1.14-1.19c0.04-0.05,0.1-0.08,0.19-0.09s0.15,0.02,0.19,0.07l1.12,1.08
				c0.12,0.12,0.11,0.24-0.02,0.36c-0.29,0.29-0.54,0.58-0.75,0.85c-0.21,0.27-0.36,0.58-0.45,0.91c-0.09,0.33-0.14,0.75-0.14,1.26
				v8.62c0,0.49,0.05,0.91,0.16,1.24c0.11,0.33,0.26,0.63,0.46,0.9c0.2,0.27,0.44,0.56,0.72,0.88c0.13,0.13,0.14,0.25,0.02,0.36
				l-1.12,1.08c-0.04,0.05-0.1,0.07-0.18,0.06C333.84,48.57,333.77,48.54,333.72,48.5z"/>
			<path d="M341.88,45.54c-0.88,0-1.55-0.28-2-0.83s-0.68-1.38-0.68-2.47V35.7c0-0.16,0.07-0.24,0.22-0.24h1.9
				c0.16,0,0.24,0.08,0.24,0.24v6.16c0,0.56,0.1,0.97,0.29,1.24s0.5,0.4,0.91,0.4c0.44,0,0.88-0.14,1.33-0.43
				c0.45-0.29,0.95-0.72,1.51-1.29l0.08,1.76c-0.39,0.39-0.78,0.73-1.17,1.03c-0.39,0.3-0.81,0.54-1.24,0.71
				C342.83,45.45,342.37,45.54,341.88,45.54z M345.84,45.3c-0.16,0-0.25-0.07-0.28-0.22c-0.04-0.24-0.08-0.49-0.11-0.76
				c-0.03-0.27-0.06-0.53-0.07-0.8l-0.18-1.02v-6.8c0-0.16,0.08-0.24,0.24-0.24h1.9c0.15,0,0.22,0.08,0.22,0.24v7.1
				c0,0.39,0.01,0.77,0.03,1.15c0.02,0.38,0.06,0.75,0.11,1.11c0.03,0.16-0.05,0.24-0.24,0.24H345.84z"/>
			<path d="M352.54,45.3c-0.15,0-0.22-0.08-0.22-0.24V32.44c0-0.16,0.07-0.24,0.22-0.24h1.94c0.16,0,0.24,0.08,0.24,0.24v5.14h5.6
				v-5.14c0-0.16,0.08-0.24,0.24-0.24h1.94c0.15,0,0.22,0.08,0.22,0.24v12.62c0,0.16-0.07,0.24-0.22,0.24h-1.94
				c-0.16,0-0.24-0.08-0.24-0.24v-5.4h-5.6v5.4c0,0.16-0.08,0.24-0.24,0.24H352.54z"/>
			<path d="M372.68,45.54c-1.69,0-2.99-0.42-3.89-1.25c-0.9-0.83-1.35-2.06-1.35-3.69v-3.68c0-1.64,0.45-2.88,1.36-3.71
				c0.91-0.83,2.2-1.25,3.88-1.25c1.15,0,2.13,0.19,2.96,0.56c0.83,0.37,1.44,0.91,1.84,1.6c0.4,0.69,0.53,1.51,0.4,2.46
				c-0.01,0.07-0.04,0.13-0.07,0.19c-0.03,0.06-0.09,0.09-0.17,0.09h-1.94c-0.16,0-0.23-0.08-0.22-0.24
				c0.03-0.81-0.19-1.44-0.65-1.89c-0.46-0.45-1.16-0.67-2.11-0.67c-0.92,0-1.63,0.24-2.13,0.72c-0.5,0.48-0.75,1.21-0.75,2.18v3.58
				c0,0.97,0.25,1.7,0.75,2.18c0.5,0.48,1.21,0.72,2.13,0.72c0.97,0,1.69-0.23,2.16-0.69s0.67-1.08,0.6-1.87
				c-0.01-0.16,0.06-0.24,0.22-0.24h1.92c0.15,0,0.23,0.09,0.26,0.28c0.09,0.93-0.06,1.75-0.47,2.44c-0.41,0.69-1.01,1.23-1.82,1.61
				S373.81,45.54,372.68,45.54z"/>
			<path d="M387.4,45.54c-1.69,0-2.99-0.42-3.89-1.25c-0.9-0.83-1.35-2.06-1.35-3.69v-3.68c0-1.64,0.45-2.88,1.36-3.71
				c0.91-0.83,2.2-1.25,3.88-1.25c1.15,0,2.13,0.19,2.96,0.56c0.83,0.37,1.44,0.91,1.84,1.6c0.4,0.69,0.53,1.51,0.4,2.46
				c-0.01,0.07-0.04,0.13-0.07,0.19c-0.03,0.06-0.09,0.09-0.17,0.09h-1.94c-0.16,0-0.23-0.08-0.22-0.24
				c0.03-0.81-0.19-1.44-0.65-1.89c-0.46-0.45-1.16-0.67-2.11-0.67c-0.92,0-1.63,0.24-2.13,0.72c-0.5,0.48-0.75,1.21-0.75,2.18v3.58
				c0,0.97,0.25,1.7,0.75,2.18c0.5,0.48,1.21,0.72,2.13,0.72c0.97,0,1.69-0.23,2.16-0.69s0.67-1.08,0.6-1.87
				c-0.01-0.16,0.06-0.24,0.22-0.24h1.92c0.15,0,0.23,0.09,0.26,0.28c0.09,0.93-0.06,1.75-0.47,2.44c-0.41,0.69-1.01,1.23-1.82,1.61
				S388.53,45.54,387.4,45.54z"/>
			<path d="M397.6,48.52l-1.14-1.08c-0.11-0.11-0.09-0.23,0.04-0.36c0.31-0.31,0.56-0.59,0.75-0.86s0.34-0.57,0.44-0.91
				c0.1-0.34,0.15-0.76,0.15-1.25v-8.62c0-0.51-0.05-0.93-0.14-1.27c-0.09-0.34-0.24-0.64-0.44-0.91c-0.2-0.27-0.45-0.55-0.76-0.84
				c-0.13-0.12-0.15-0.24-0.04-0.36l1.14-1.08c0.04-0.05,0.1-0.08,0.19-0.07s0.15,0.04,0.19,0.09c0.48,0.4,0.87,0.79,1.17,1.18
				s0.53,0.82,0.68,1.3c0.15,0.48,0.23,1.09,0.23,1.82v8.9c0,0.72-0.07,1.33-0.21,1.82c-0.14,0.49-0.37,0.93-0.68,1.31
				s-0.71,0.77-1.19,1.17c-0.05,0.04-0.12,0.07-0.2,0.08C397.7,48.59,397.64,48.57,397.6,48.52z"/>
		</g>
	</g>
</g>
</svg>
