<?xml version="1.0" encoding="UTF-8"?><svg id="a" xmlns="http://www.w3.org/2000/svg" width="429.55" height="295.4" viewBox="0 0 429.55 295.4"><g isolation="isolate"><path d="m24.26,164.19c-6.66,0-11.7-1.6-15.13-4.81s-5.14-7.87-5.14-13.99v-12.65c0-6.17,1.71-10.84,5.14-14.02s8.47-4.77,15.13-4.77,11.78,1.59,15.21,4.77c3.43,3.18,5.14,7.86,5.14,14.02v12.65c0,6.12-1.71,10.78-5.14,13.99-3.43,3.2-8.5,4.81-15.21,4.81Zm0-9.18c3.3,0,5.76-.88,7.36-2.63s2.41-4.28,2.41-7.58v-11.47c0-3.3-.8-5.83-2.41-7.58-1.6-1.75-4.06-2.63-7.36-2.63s-5.62.88-7.25,2.63-2.44,4.28-2.44,7.58v11.47c0,3.31.81,5.83,2.44,7.58,1.63,1.76,4.04,2.63,7.25,2.63Z" fill="#493d7c" stroke-width="0"/><path d="m58.15,163.3c-.64,0-.96-.32-.96-.96v-46.55c0-.64.32-.96.96-.96h29.53c.64,0,.96.32.96.96v7.33c0,.59-.32.89-.96.89h-19.91v11.17h17.09c.64,0,.96.32.96.96v7.03c0,.64-.32.96-.96.96h-17.09v18.2c0,.64-.32.96-.96.96h-8.66Z" fill="#493d7c" stroke-width="0"/><path d="m118.98,163.3c-.64,0-.96-.32-.96-.96v-46.55c0-.64.32-.96.96-.96h14.65c6.71,0,11.59,1.38,14.65,4.14s4.59,6.81,4.59,12.14-1.59,9.1-4.77,11.91-7.98,4.22-14.39,4.22h-5.11v15.1c0,.64-.32.96-.96.96h-8.66Zm9.62-25.01h4.96c2.91,0,5.09-.56,6.55-1.67,1.45-1.11,2.18-2.92,2.18-5.44s-.72-4.49-2.15-5.62-3.63-1.7-6.59-1.7h-4.96v14.43h0Z" fill="#493d7c" stroke-width="0"/><path d="m164.64,163.3c-.64,0-.96-.32-.96-.96v-46.55c0-.64.32-.96.96-.96h29.53c.64,0,.96.32.96.96v7.33c0,.59-.32.89-.96.89h-19.91v10.51h18.13c.64,0,.96.32.96.96v6.81c0,.59-.32.89-.96.89h-18.13v10.95h19.91c.64,0,.96.3.96.89v7.33c0,.64-.32.96-.96.96h-29.53Z" fill="#493d7c" stroke-width="0"/><path d="m203.41,163.3c-.69,0-.94-.34-.74-1.04l15.69-46.69c.2-.49.57-.74,1.11-.74h11.32c.54,0,.89.25,1.04.74l15.84,46.69c.2.69-.05,1.04-.74,1.04h-9.55c-.54,0-.89-.25-1.04-.74l-8.51-28.64c-.49-1.68-.96-3.37-1.41-5.07s-.89-3.39-1.33-5.07h-.15c-.44,1.68-.89,3.37-1.33,5.07s-.91,3.39-1.41,5.07l-8.36,28.56c-.15.54-.49.81-1.04.81h-9.39Zm11.4-9.4l1.78-8.44h16.65l1.92,8.44h-20.35Z" fill="#493d7c" stroke-width="0"/><path d="m257.06,163.3c-.64,0-.96-.32-.96-.96v-46.55c0-.64.32-.96.96-.96h8.66c.64,0,.96.32.96.96v11.69c0,1.48-.01,2.95-.04,4.4-.03,1.46-.11,2.9-.26,4.33h.22c.89-1.33,1.81-2.69,2.78-4.07.96-1.38,1.99-2.76,3.07-4.14l10.43-12.65c.25-.34.62-.52,1.11-.52h10.58c.39,0,.67.11.81.33.15.22.07.48-.22.78l-15.54,18.5,17.17,27.75c.2.3.23.56.11.78s-.36.33-.7.33h-10.58c-.54,0-.94-.22-1.18-.67l-12.06-19.83-5.7,6.51v13.02c0,.64-.32.96-.96.96h-8.66Z" fill="#493d7c" stroke-width="0"/><path d="m344.08,164.19c-6.66,0-11.71-1.6-15.13-4.81-3.43-3.21-5.14-7.87-5.14-13.99v-12.65c0-6.17,1.71-10.84,5.14-14.02s8.47-4.77,15.13-4.77,11.78,1.59,15.21,4.77,5.14,7.86,5.14,14.02v12.65c0,6.12-1.71,10.78-5.14,13.99-3.43,3.2-8.5,4.81-15.21,4.81Zm0-9.18c3.3,0,5.76-.88,7.36-2.63s2.41-4.28,2.41-7.58v-11.47c0-3.3-.8-5.83-2.41-7.58-1.6-1.75-4.06-2.63-7.36-2.63s-5.62.88-7.25,2.63-2.44,4.28-2.44,7.58v11.47c0,3.31.81,5.83,2.44,7.58,1.63,1.76,4.05,2.63,7.25,2.63Z" fill="#493d7c" stroke-width="0"/></g><g isolation="isolate"><path d="m392.85,164.19c-6.51,0-11.24-1.26-14.17-3.77-2.94-2.52-4.18-6.19-3.74-11.03.05-.84.39-1.26,1.04-1.26h8.44c.64,0,.96.37.96,1.11-.05,1.97.57,3.47,1.85,4.48s3.28,1.52,5.99,1.52,4.62-.39,5.88-1.18c1.26-.79,1.89-2,1.89-3.63,0-.79-.15-1.48-.44-2.07s-.81-1.13-1.55-1.63c-.74-.49-1.75-.99-3.03-1.48l-10.66-4.66c-2.47-1.04-4.42-2.18-5.85-3.44-1.43-1.26-2.44-2.7-3.03-4.33s-.89-3.5-.89-5.62c.05-4.24,1.49-7.51,4.33-9.8s7.07-3.44,12.69-3.44c4.09,0,7.54.54,10.32,1.63,2.79,1.09,4.83,2.69,6.14,4.81s1.81,4.79,1.52,7.99c-.05.84-.37,1.26-.96,1.26h-8.51c-.3,0-.53-.11-.7-.33s-.23-.53-.18-.92c.15-1.68-.44-3.03-1.78-4.07s-3.23-1.55-5.7-1.55c-2.17,0-3.81.38-4.92,1.15s-1.69,1.89-1.74,3.37c0,.74.16,1.41.48,2s.86,1.15,1.63,1.67c.76.52,1.79,1.05,3.07,1.59l10.58,4.51c2.47,1.08,4.41,2.25,5.85,3.48,1.43,1.23,2.44,2.66,3.03,4.29s.89,3.55.89,5.77c-.05,4.44-1.55,7.82-4.51,10.14-2.97,2.28-7.71,3.44-14.22,3.44Z" fill="#493d7c" stroke-width="0"/></g><g isolation="isolate"><path d="m417.21,121.46l-2.89-2.2c-.14-.14-.22-.3-.22-.47s.07-.32.22-.43l2.59-2.5-3.71-.6c-.2-.06-.34-.16-.41-.3-.07-.14-.09-.3-.06-.47l1.12-3.32c.06-.2.18-.33.37-.39.19-.06.37-.04.54.04l3.24,1.86-.39-4.14c-.06-.34.1-.52.47-.52h3.37c.34,0,.49.17.43.52l-.39,4.19,3.28-1.86c.17-.11.35-.14.52-.06.17.07.29.21.35.41l1.12,3.28c.06.2.04.37-.04.5-.09.13-.22.21-.39.24l-3.8.69,2.59,2.46c.17.14.26.31.26.5s-.09.34-.26.45l-2.94,2.03c-.37.29-.65.22-.82-.22l-1.64-3.15-1.6,3.28c-.12.17-.25.29-.41.35s-.33-.03-.5-.17Z" fill="#493d7c" stroke-width="0"/></g><g isolation="isolate"><path d="m418.54,172.99c-.59,0-.81-.32-.67-.96l3.7-16.58c.1-.44.37-.67.81-.67h6.44c.69,0,.89.35.59,1.04l-5.55,16.65c-.15.34-.4.52-.74.52h-4.58Z" fill="#493d7c" stroke-width="0"/></g><g isolation="isolate"><path d="m7.18,99.3c-.46,0-.69-.23-.69-.69v-33.34c0-.46.23-.69.69-.69h6.2c.46,0,.69.23.69.69v33.34c0,.46-.23.69-.69.69h-6.2Z" fill="#493d7c" stroke-width="0"/><path d="m24.4,99.3c-.46,0-.69-.23-.69-.69v-33.34c0-.46.23-.69.69-.69h8.43c.35,0,.62.16.8.48l7.58,15.26c.53,1.1,1.06,2.2,1.59,3.31.53,1.11,1.01,2.18,1.46,3.21.44,1.03.8,1.98,1.09,2.86h.16c-.07-.95-.13-2-.19-3.15-.05-1.15-.1-2.3-.13-3.45-.04-1.15-.05-2.18-.05-3.1v-14.73c0-.46.21-.69.64-.69h5.99c.46,0,.69.23.69.69v33.34c0,.46-.23.69-.69.69h-8.32c-.39,0-.65-.16-.79-.48l-7.37-14.63c-.5-1.02-.99-2.11-1.48-3.26-.5-1.15-.98-2.28-1.46-3.39-.48-1.11-.91-2.15-1.3-3.1h-.16c.07,1.03.11,2.12.13,3.29s.03,2.33.03,3.5v17.38c0,.46-.23.69-.69.69h-5.96Z" fill="#493d7c" stroke-width="0"/><path d="m83.28,99.3c-.42,0-.64-.23-.64-.69v-27.45h-8.96c-.42,0-.64-.21-.64-.64v-5.25c0-.46.21-.69.64-.69h25.39c.42,0,.64.23.64.69v5.25c0,.42-.21.64-.64.64h-8.9v27.45c0,.46-.23.69-.69.69h-6.2Z" fill="#493d7c" stroke-width="0"/><path d="m107.82,99.3c-.46,0-.69-.23-.69-.69v-33.34c0-.46.23-.69.69-.69h6.2c.46,0,.69.23.69.69v13.2h13.51v-13.2c0-.46.23-.69.69-.69h6.15c.46,0,.69.23.69.69v33.34c0,.46-.23.69-.69.69h-6.15c-.46,0-.69-.23-.69-.69v-13.62h-13.51v13.62c0,.46-.23.69-.69.69h-6.2Z" fill="#493d7c" stroke-width="0"/><path d="m146.09,99.3c-.46,0-.69-.23-.69-.69v-33.34c0-.46.23-.69.69-.69h21.15c.46,0,.69.23.69.69v5.25c0,.42-.23.64-.69.64h-14.26v7.53h12.98c.46,0,.69.23.69.69v4.88c0,.42-.23.64-.69.64h-12.98v7.84h14.26c.46,0,.69.21.69.64v5.25c0,.46-.23.69-.69.69h-21.15v-.02Z" fill="#493d7c" stroke-width="0"/><path d="m190.77,99.3c-.46,0-.69-.23-.69-.69v-33.34c0-.46.23-.69.69-.69h10.49c4.8,0,8.3.99,10.49,2.97s3.29,4.88,3.29,8.69-1.14,6.52-3.42,8.53-5.72,3.02-10.31,3.02h-3.66v10.81c0,.46-.23.69-.69.69h-6.19Zm6.89-17.91h3.55c2.08,0,3.65-.4,4.69-1.19,1.04-.79,1.56-2.09,1.56-3.9s-.51-3.21-1.54-4.03c-1.03-.81-2.6-1.22-4.72-1.22h-3.55v10.34h.01Z" fill="#493d7c" stroke-width="0"/><path d="m236.66,99.94c-4.63,0-8.14-1.1-10.55-3.31-2.4-2.21-3.6-5.57-3.6-10.1v-21.25c0-.46.23-.69.69-.69h6.2c.46,0,.69.23.69.69v20.99c0,2.26.53,4.02,1.59,5.27,1.06,1.25,2.72,1.88,4.98,1.88s3.97-.63,5.01-1.88,1.56-3.01,1.56-5.27v-20.99c0-.46.23-.69.69-.69h6.2c.46,0,.69.23.69.69v21.31c0,4.42-1.21,7.75-3.63,9.99-2.42,2.23-5.92,3.36-10.52,3.36Z" fill="#493d7c" stroke-width="0"/><path d="m260.88,99.3c-.46,0-.69-.23-.69-.69v-33.34c0-.46.23-.69.69-.69h11.66c4.77,0,8.23.92,10.39,2.76,2.15,1.84,3.23,4.5,3.23,8,0,2.4-.53,4.43-1.59,6.09-1.06,1.66-2.69,2.83-4.88,3.5v.05l8.37,13.51c.14.21.17.4.08.56s-.27.24-.56.24h-7c-.35,0-.64-.16-.85-.48l-7.58-12.77h-4.4v12.56c0,.46-.23.69-.69.69h-6.18Zm6.89-19.19h4.66c2.12,0,3.67-.37,4.66-1.11s1.48-1.93,1.48-3.55-.45-2.73-1.35-3.42-2.43-1.03-4.58-1.03h-4.88v9.11h0Z" fill="#493d7c" stroke-width="0"/><path d="m306.68,99.94c-4.66,0-8.05-.9-10.15-2.7-2.1-1.8-2.99-4.43-2.68-7.9.04-.6.28-.9.74-.9h6.04c.46,0,.69.27.69.79-.04,1.41.41,2.48,1.32,3.21.92.72,2.35,1.09,4.29,1.09s3.31-.28,4.21-.85c.9-.56,1.35-1.43,1.35-2.6,0-.57-.11-1.06-.32-1.48s-.58-.81-1.11-1.17c-.53-.35-1.25-.71-2.17-1.06l-7.63-3.34c-1.77-.74-3.16-1.56-4.19-2.46-1.03-.9-1.75-1.93-2.17-3.1s-.64-2.51-.64-4.03c.03-3.04,1.07-5.38,3.1-7.02,2.03-1.64,5.06-2.46,9.09-2.46,2.93,0,5.4.39,7.39,1.17,2,.78,3.46,1.93,4.4,3.44.94,1.52,1.3,3.43,1.09,5.72-.04.6-.26.9-.69.9h-6.1c-.21,0-.38-.08-.5-.24s-.17-.38-.13-.66c.11-1.2-.32-2.17-1.27-2.92-.95-.74-2.32-1.11-4.08-1.11-1.56,0-2.73.27-3.52.82-.8.55-1.21,1.35-1.25,2.41,0,.53.11,1.01.34,1.43.23.42.62.82,1.17,1.19s1.28.75,2.2,1.14l7.58,3.23c1.77.78,3.16,1.61,4.19,2.49,1.02.88,1.75,1.91,2.17,3.07s.64,2.54.64,4.13c-.04,3.18-1.11,5.6-3.23,7.26-2.12,1.68-5.51,2.51-10.17,2.51Z" fill="#493d7c" stroke-width="0"/><path d="m342.29,99.94c-4.63,0-8.14-1.1-10.55-3.31-2.4-2.21-3.6-5.57-3.6-10.1v-21.25c0-.46.23-.69.69-.69h6.2c.46,0,.69.23.69.69v20.99c0,2.26.53,4.02,1.59,5.27,1.06,1.25,2.72,1.88,4.98,1.88s3.97-.63,5.01-1.88,1.56-3.01,1.56-5.27v-20.99c0-.46.23-.69.69-.69h6.2c.46,0,.69.23.69.69v21.31c0,4.42-1.21,7.75-3.63,9.99-2.42,2.23-5.93,3.36-10.52,3.36Z" fill="#493d7c" stroke-width="0"/><path d="m366.51,99.3c-.46,0-.69-.23-.69-.69v-33.34c0-.46.23-.69.69-.69h6.2c.46,0,.69.23.69.69v33.34c0,.46-.23.69-.69.69h-6.2Z" fill="#493d7c" stroke-width="0"/><path d="m391.05,99.3c-.42,0-.64-.23-.64-.69v-27.45h-8.96c-.42,0-.64-.21-.64-.64v-5.25c0-.46.21-.69.64-.69h25.39c.42,0,.64.23.64.69v5.25c0,.42-.21.64-.64.64h-8.9v27.45c0,.46-.23.69-.69.69h-6.2Z" fill="#493d7c" stroke-width="0"/></g><g isolation="isolate"><path d="m8.94,215.3c-.43,0-.65-.22-.65-.65v-31.45c0-.43.22-.65.65-.65h19.95c.43,0,.65.22.65.65v4.95c0,.4-.22.6-.65.6h-13.45v7.1h12.25c.43,0,.65.22.65.65v4.6c0,.4-.22.6-.65.6h-12.25v7.4h13.45c.43,0,.65.2.65.6v4.95c0,.43-.22.65-.65.65H8.94Z" fill="#493d7c" stroke-width="0"/><path d="m46.29,215.3c-.4,0-.65-.17-.75-.5l-10.35-31.55c-.13-.47.05-.7.55-.7h6.35c.4,0,.65.17.75.5l5.45,18.8c.33,1.2.65,2.41.95,3.62.3,1.22.58,2.44.85,3.67h.15c.27-1.23.56-2.46.88-3.67.32-1.22.66-2.44,1.03-3.67l5.5-18.7c.1-.37.33-.55.7-.55h6.35c.5,0,.68.23.55.7l-10.45,31.55c-.13.33-.38.5-.75.5h-7.76Z" fill="#493d7c" stroke-width="0"/><path d="m72.19,215.3c-.43,0-.65-.22-.65-.65v-31.45c0-.43.22-.65.65-.65h19.95c.43,0,.65.22.65.65v4.95c0,.4-.22.6-.65.6h-13.45v7.1h12.25c.43,0,.65.22.65.65v4.6c0,.4-.22.6-.65.6h-12.25v7.4h13.45c.43,0,.65.2.65.6v4.95c0,.43-.22.65-.65.65h-19.95Z" fill="#493d7c" stroke-width="0"/><path d="m101.89,215.3c-.43,0-.65-.22-.65-.65v-31.45c0-.43.22-.65.65-.65h11c4.5,0,7.77.87,9.8,2.6s3.05,4.25,3.05,7.55c0,2.27-.5,4.18-1.5,5.75s-2.53,2.67-4.6,3.3v.05l7.9,12.75c.13.2.16.38.07.53-.08.15-.26.22-.52.22h-6.6c-.33,0-.6-.15-.8-.45l-7.15-12.05h-4.15v11.85c0,.43-.22.65-.65.65h-5.85Zm6.5-18.1h4.4c2,0,3.47-.35,4.4-1.05.93-.7,1.4-1.82,1.4-3.35s-.42-2.58-1.27-3.22c-.85-.65-2.29-.98-4.33-.98h-4.6v8.6h0Z" fill="#493d7c" stroke-width="0"/><path d="m141.24,215.3c-.43,0-.65-.22-.65-.65v-10.65l-10.65-20.7c-.1-.2-.11-.38-.02-.53.08-.15.24-.22.48-.22h6.6c.37,0,.62.15.75.45l3.8,8.25c.47,1.07.93,2.13,1.38,3.2s.88,2.12,1.27,3.15h.05c.43-1.07.87-2.12,1.3-3.15s.9-2.1,1.4-3.2l3.75-8.25c.13-.3.38-.45.75-.45h6.5c.23,0,.39.08.48.22.08.15.08.33-.02.53l-10.65,20.7v10.65c0,.43-.22.65-.65.65h-5.87Z" fill="#493d7c" stroke-width="0"/><path d="m176.94,215.3c-.43,0-.65-.22-.65-.65l.65-31.45c0-.43.22-.65.65-.65h7.2c.33,0,.57.17.7.5l8.1,17.3,8-17.3c.17-.33.42-.5.75-.5h7.15c.4,0,.6.22.6.65l.7,31.45c0,.43-.22.65-.65.65h-5.7c-.43,0-.65-.22-.65-.65l-.3-13.65c-.03-1.37-.02-2.78.02-4.23.05-1.45.11-2.86.17-4.22h-.15c-.57,1.33-1.17,2.7-1.8,4.1s-1.28,2.75-1.95,4.05l-5.4,10.95c-.13.27-.38.4-.75.4h-.25c-.33,0-.57-.13-.7-.4l-5.45-11.05c-.63-1.3-1.27-2.64-1.9-4.02-.63-1.38-1.22-2.73-1.75-4.03h-.15c.07,1.37.12,2.77.15,4.2.03,1.43.03,2.82,0,4.15l-.3,13.75c0,.43-.22.65-.65.65h-5.69Z" fill="#493d7c" stroke-width="0"/><path d="m219.89,215.3c-.43,0-.65-.22-.65-.65v-31.45c0-.43.22-.65.65-.65h19.95c.43,0,.65.22.65.65v4.95c0,.4-.22.6-.65.6h-13.45v7.1h12.25c.43,0,.65.22.65.65v4.6c0,.4-.22.6-.65.6h-12.25v7.4h13.45c.43,0,.65.2.65.6v4.95c0,.43-.22.65-.65.65h-19.95Z" fill="#493d7c" stroke-width="0"/><path d="m246.09,215.3c-.47,0-.63-.23-.5-.7l10.6-31.55c.13-.33.38-.5.75-.5h7.65c.37,0,.6.17.7.5l10.7,31.55c.13.47-.03.7-.5.7h-6.45c-.37,0-.6-.17-.7-.5l-5.75-19.35c-.33-1.13-.65-2.28-.95-3.43-.3-1.15-.6-2.29-.9-3.42h-.1c-.3,1.13-.6,2.28-.9,3.42-.3,1.15-.62,2.29-.95,3.43l-5.65,19.3c-.1.37-.33.55-.7.55h-6.35Zm7.7-6.35l1.2-5.7h11.25l1.3,5.7h-13.75Z" fill="#493d7c" stroke-width="0"/><path d="m292.38,215.9c-4.4,0-7.59-.85-9.58-2.55s-2.83-4.18-2.52-7.45c.03-.57.27-.85.7-.85h5.7c.43,0,.65.25.65.75-.03,1.33.38,2.34,1.25,3.03.87.68,2.22,1.02,4.05,1.02s3.12-.27,3.97-.8c.85-.53,1.28-1.35,1.28-2.45,0-.53-.1-1-.3-1.4-.2-.4-.55-.77-1.05-1.1-.5-.33-1.18-.67-2.05-1l-7.2-3.15c-1.67-.7-2.98-1.48-3.95-2.33-.97-.85-1.65-1.83-2.05-2.92-.4-1.1-.6-2.37-.6-3.8.03-2.87,1.01-5.07,2.92-6.62,1.92-1.55,4.78-2.32,8.58-2.32,2.77,0,5.09.37,6.98,1.1,1.88.73,3.27,1.82,4.15,3.25s1.23,3.23,1.03,5.4c-.03.57-.25.85-.65.85h-5.75c-.2,0-.36-.08-.47-.22-.12-.15-.16-.36-.12-.62.1-1.13-.3-2.05-1.2-2.75-.9-.7-2.18-1.05-3.85-1.05-1.47,0-2.58.26-3.33.78s-1.14,1.28-1.17,2.28c0,.5.11.95.32,1.35s.58.78,1.1,1.12c.52.35,1.21.71,2.08,1.08l7.15,3.05c1.67.73,2.98,1.52,3.95,2.35.97.83,1.65,1.8,2.05,2.9s.6,2.4.6,3.9c-.03,3-1.05,5.28-3.05,6.85-2.02,1.54-5.22,2.32-9.62,2.32Z" fill="#493d7c" stroke-width="0"/><path d="m325.98,215.9c-4.37,0-7.68-1.04-9.95-3.12-2.27-2.08-3.4-5.26-3.4-9.52v-20.06c0-.43.22-.65.65-.65h5.85c.43,0,.65.22.65.65v19.8c0,2.13.5,3.79,1.5,4.97s2.57,1.78,4.7,1.78,3.74-.59,4.72-1.78c.98-1.18,1.47-2.84,1.47-4.97v-19.8c0-.43.22-.65.65-.65h5.85c.43,0,.65.22.65.65v20.1c0,4.17-1.14,7.31-3.42,9.42-2.28,2.12-5.58,3.18-9.92,3.18Z" fill="#493d7c" stroke-width="0"/><path d="m348.83,215.3c-.43,0-.65-.22-.65-.65v-31.45c0-.43.22-.65.65-.65h11c4.5,0,7.77.87,9.8,2.6s3.05,4.25,3.05,7.55c0,2.27-.5,4.18-1.5,5.75s-2.53,2.67-4.6,3.3v.05l7.9,12.75c.13.2.16.38.08.53-.08.15-.26.22-.52.22h-6.6c-.33,0-.6-.15-.8-.45l-7.15-12.05h-4.15v11.85c0,.43-.22.65-.65.65h-5.86Zm6.5-18.1h4.4c2,0,3.47-.35,4.4-1.05.93-.7,1.4-1.82,1.4-3.35s-.43-2.58-1.28-3.22c-.85-.65-2.29-.98-4.33-.98h-4.6v8.6h0Z" fill="#493d7c" stroke-width="0"/><path d="m382.23,215.3c-.43,0-.65-.22-.65-.65v-31.45c0-.43.22-.65.65-.65h19.95c.43,0,.65.22.65.65v4.95c0,.4-.22.6-.65.6h-13.45v7.1h12.25c.43,0,.65.22.65.65v4.6c0,.4-.22.6-.65.6h-12.25v7.4h13.45c.43,0,.65.2.65.6v4.95c0,.43-.22.65-.65.65h-19.95Z" fill="#493d7c" stroke-width="0"/></g><g isolation="isolate"><path d="m9.06,294.3c-.8,0-1.2-.4-1.2-1.2l1.2-57.87c0-.8.4-1.2,1.2-1.2h13.25c.61,0,1.04.31,1.29.92l14.9,31.83,14.72-31.83c.31-.61.77-.92,1.38-.92h13.16c.74,0,1.1.4,1.1,1.2l1.29,57.87c0,.8-.4,1.2-1.2,1.2h-10.49c-.8,0-1.2-.4-1.2-1.2l-.55-25.12c-.06-2.51-.05-5.11.05-7.77.09-2.67.2-5.26.32-7.77h-.28c-1.04,2.45-2.15,4.97-3.31,7.54-1.17,2.58-2.36,5.06-3.59,7.45l-9.94,20.15c-.25.49-.71.74-1.38.74h-.46c-.61,0-1.04-.24-1.29-.74l-10.03-20.33c-1.17-2.39-2.33-4.86-3.5-7.41-1.17-2.54-2.24-5.01-3.22-7.41h-.28c.12,2.52.21,5.09.28,7.73.06,2.64.06,5.18,0,7.64l-.55,25.3c0,.8-.4,1.2-1.2,1.2h-10.47Z" fill="#493d7c" stroke-width="0"/><path d="m81.56,294.3c-.86,0-1.16-.43-.92-1.29l19.5-58.05c.24-.61.7-.92,1.38-.92h14.08c.67,0,1.1.31,1.29.92l19.69,58.05c.24.86-.06,1.29-.92,1.29h-11.87c-.68,0-1.1-.31-1.29-.92l-10.58-35.6c-.61-2.08-1.2-4.19-1.75-6.3-.55-2.12-1.1-4.22-1.66-6.3h-.18c-.55,2.09-1.1,4.19-1.66,6.3-.55,2.12-1.14,4.22-1.75,6.3l-10.4,35.51c-.18.68-.61,1.01-1.29,1.01h-11.67Zm14.16-11.68l2.21-10.49h20.7l2.39,10.49h-25.3Z" fill="#493d7c" stroke-width="0"/><path d="m155.62,294.3c-.74,0-1.1-.4-1.1-1.2v-47.66h-15.55c-.74,0-1.1-.37-1.1-1.1v-9.11c0-.8.37-1.2,1.1-1.2h44.07c.74,0,1.1.4,1.1,1.2v9.11c0,.74-.37,1.1-1.1,1.1h-15.46v47.66c0,.8-.4,1.2-1.2,1.2h-10.76Z" fill="#493d7c" stroke-width="0"/><path d="m211.64,294.3c-.74,0-1.1-.4-1.1-1.2v-47.66h-15.55c-.74,0-1.1-.37-1.1-1.1v-9.11c0-.8.37-1.2,1.1-1.2h44.07c.74,0,1.1.4,1.1,1.2v9.11c0,.74-.37,1.1-1.1,1.1h-15.46v47.66c0,.8-.4,1.2-1.2,1.2h-10.76Z" fill="#493d7c" stroke-width="0"/><path d="m254.24,294.3c-.8,0-1.2-.4-1.2-1.2v-57.87c0-.8.4-1.2,1.2-1.2h36.71c.8,0,1.2.4,1.2,1.2v9.11c0,.74-.4,1.1-1.2,1.1h-24.75v13.06h22.54c.8,0,1.2.4,1.2,1.2v8.46c0,.74-.4,1.1-1.2,1.1h-22.54v13.62h24.75c.8,0,1.2.37,1.2,1.1v9.11c0,.8-.4,1.2-1.2,1.2h-36.71Z" fill="#493d7c" stroke-width="0"/><path d="m308.88,294.3c-.8,0-1.2-.4-1.2-1.2v-57.87c0-.8.4-1.2,1.2-1.2h20.24c8.28,0,14.29,1.6,18.03,4.78,3.74,3.19,5.61,7.82,5.61,13.89,0,4.17-.92,7.7-2.76,10.58s-4.66,4.91-8.46,6.07v.09l14.54,23.46c.24.37.29.69.14.97-.15.28-.48.41-.97.41h-12.14c-.61,0-1.1-.28-1.47-.83l-13.16-22.17h-7.64v21.8c0,.8-.4,1.2-1.2,1.2h-10.76v.02Zm11.96-33.3h8.1c3.68,0,6.38-.64,8.1-1.93s2.58-3.34,2.58-6.16-.78-4.74-2.35-5.93c-1.56-1.2-4.22-1.79-7.96-1.79h-8.46v15.81h-.01Z" fill="#493d7c" stroke-width="0"/><path d="m388.37,295.4c-8.1,0-13.97-1.56-17.62-4.69s-5.2-7.7-4.65-13.71c.06-1.04.49-1.56,1.29-1.56h10.49c.8,0,1.2.46,1.2,1.38-.06,2.45.71,4.31,2.3,5.57,1.59,1.26,4.08,1.89,7.45,1.89s5.75-.49,7.31-1.47,2.35-2.48,2.35-4.51c0-.98-.18-1.84-.55-2.58s-1.01-1.41-1.93-2.02c-.92-.61-2.18-1.23-3.77-1.84l-13.25-5.8c-3.07-1.29-5.49-2.71-7.27-4.28-1.78-1.56-3.04-3.36-3.77-5.38-.74-2.02-1.1-4.35-1.1-6.99.06-5.27,1.85-9.34,5.38-12.19s8.79-4.28,15.78-4.28c5.09,0,9.37.68,12.83,2.02,3.46,1.35,6.01,3.34,7.64,5.98,1.62,2.64,2.25,5.95,1.89,9.94-.06,1.04-.46,1.56-1.2,1.56h-10.58c-.37,0-.66-.14-.87-.41-.21-.28-.29-.66-.23-1.15.18-2.08-.55-3.77-2.21-5.06s-4.02-1.93-7.08-1.93c-2.7,0-4.74.48-6.12,1.43s-2.1,2.35-2.16,4.19c0,.92.2,1.75.6,2.48.4.74,1.07,1.43,2.02,2.07.95.64,2.22,1.3,3.82,1.98l13.16,5.61c3.07,1.35,5.49,2.79,7.27,4.32s3.04,3.31,3.77,5.34c.74,2.02,1.1,4.42,1.1,7.18-.06,5.52-1.93,9.72-5.61,12.6-3.69,2.87-9.58,4.31-17.68,4.31Z" fill="#493d7c" stroke-width="0"/></g><g isolation="isolate"><path d="m9.13,17.3c-.13,0-.22-.07-.26-.2l-3.54-12.64c-.05-.17.02-.26.22-.26h1.94c.15,0,.23.07.26.2l1.92,7.16c.11.35.2.71.27,1.1.07.39.15.76.22,1.13.07.37.14.71.21,1.03h.04c.13-.47.27-.93.4-1.39s.27-.92.42-1.39l1.52-4.88-.74-2.44c-.03-.08-.02-.14.03-.19s.1-.07.17-.07h1.96c.13,0,.21.07.24.2l2,7.42c.13.45.25.91.36,1.37s.21.92.32,1.37h.02c.07-.32.14-.67.21-1.06.07-.39.15-.78.23-1.17s.16-.76.24-1.11l1.84-7.08c.03-.13.11-.2.26-.2h2c.19,0,.25.09.2.26l-3.44,12.64c-.04.13-.13.2-.26.2h-2.4c-.15,0-.24-.07-.28-.2l-1.16-4.12c-.13-.47-.26-.93-.39-1.4-.13-.47-.24-.92-.35-1.36h-.04c-.13.44-.26.89-.39,1.34s-.26.91-.41,1.38l-1.26,4.18c-.05.12-.14.18-.26.18,0,0-2.32,0-2.32,0Z" stroke-width="0"/><path d="m26.13,17.3c-.15,0-.22-.08-.22-.24V4.44c0-.16.07-.24.22-.24h1.94c.16,0,.24.08.24.24v5.14h5.6v-5.14c0-.16.08-.24.24-.24h1.94c.15,0,.22.08.22.24v12.62c0,.16-.07.24-.22.24h-1.94c-.16,0-.24-.08-.24-.24v-5.4h-5.6v5.4c0,.16-.08.24-.24.24h-1.94Z" stroke-width="0"/><path d="m41.49,17.3c-.15,0-.22-.08-.22-.24V4.44c0-.16.07-.24.22-.24h7.66c.15,0,.22.08.22.24v1.64c0,.16-.07.24-.22.24h-5.48v3.34h5c.15,0,.22.08.22.24v1.54c0,.16-.07.24-.22.24h-5v3.5h5.48c.15,0,.22.08.22.24v1.64c0,.16-.07.24-.22.24h-7.66Z" stroke-width="0"/><path d="m54.29,17.3c-.15,0-.22-.08-.22-.24V4.44c0-.16.07-.24.22-.24h2.84c.13,0,.23.05.28.16l3.22,6.5c.23.44.44.87.63,1.28.19.41.37.81.53,1.18s.3.72.42,1.04h.06c-.03-.36-.05-.75-.06-1.17,0-.42-.02-.84-.03-1.27s0-.81,0-1.16v-6.32c0-.16.07-.24.22-.24h1.88c.16,0,.24.08.24.24v12.62c0,.16-.08.24-.24.24h-2.8c-.13,0-.23-.05-.28-.16l-3.12-6.28c-.2-.4-.4-.81-.59-1.23-.19-.42-.38-.84-.56-1.25s-.35-.81-.51-1.18h-.06c0,.41.03.83.04,1.26s.02.85.02,1.28v7.32c0,.16-.08.24-.24.24,0,0-1.88,0-1.88,0Z" stroke-width="0"/><path d="m78.51,17.3c-.16,0-.24-.08-.24-.24V6.32h-3.44c-.16,0-.24-.08-.24-.24v-1.64c0-.16.08-.24.24-.24h9.3c.16,0,.24.08.24.24v1.64c0,.16-.08.24-.24.24h-3.44v10.74c0,.16-.08.24-.24.24h-1.94Z" stroke-width="0"/><path d="m88.63,17.3c-.15,0-.22-.08-.22-.24V4.44c0-.16.07-.24.22-.24h4.2c1.72,0,2.97.33,3.76.99.79.66,1.18,1.62,1.18,2.89,0,.92-.21,1.7-.63,2.33s-1.04,1.07-1.87,1.31v.04l3.22,5.26c.05.08.06.15.03.2-.03.05-.1.08-.19.08h-2.22c-.12,0-.21-.05-.28-.16l-3.02-5.06h-2v4.98c0,.16-.08.24-.24.24,0,0-1.94,0-1.94,0Zm2.18-7.12h1.92c.92,0,1.59-.16,2.01-.48.42-.32.63-.83.63-1.54s-.19-1.19-.58-1.48-1.04-.44-1.96-.44h-2.02v3.94Z" stroke-width="0"/><path d="m102.89,17.3c-.15,0-.22-.08-.22-.24V4.44c0-.16.07-.24.22-.24h7.66c.15,0,.22.08.22.24v1.64c0,.16-.07.24-.22.24h-5.48v3.34h5c.15,0,.22.08.22.24v1.54c0,.16-.07.24-.22.24h-5v3.5h5.48c.15,0,.22.08.22.24v1.64c0,.16-.07.24-.22.24h-7.66Z" stroke-width="0"/><path d="m114.11,17.3c-.17,0-.24-.09-.2-.26l4.32-12.66c.04-.12.13-.18.26-.18h2.56c.15,0,.24.06.28.18l4.34,12.66c.05.17-.01.26-.18.26h-2.12c-.13,0-.22-.06-.26-.18l-2.58-8.22c-.13-.44-.26-.88-.39-1.31s-.25-.87-.37-1.31h-.04c-.12.43-.24.86-.37,1.29-.13.43-.26.86-.39,1.29l-2.52,8.24c-.04.13-.13.2-.28.2h-2.06Zm2.74-2.74l.46-1.96h4.86l.48,1.96h-5.8Z" stroke-width="0"/><path d="m131.05,17.3c-.16,0-.24-.08-.24-.24V6.32h-3.44c-.16,0-.24-.08-.24-.24v-1.64c0-.16.08-.24.24-.24h9.3c.16,0,.24.08.24.24v1.64c0,.16-.08.24-.24.24h-3.44v10.74c0,.16-.08.24-.24.24h-1.94Z" stroke-width="0"/><path d="m141.17,17.3c-.15,0-.22-.08-.22-.24V4.44c0-.16.07-.24.22-.24h1.94c.16,0,.24.08.24.24v12.62c0,.16-.08.24-.24.24h-1.94Z" stroke-width="0"/><path d="m148.51,17.3c-.15,0-.22-.08-.22-.24V4.44c0-.16.07-.24.22-.24h2.84c.13,0,.23.05.28.16l3.22,6.5c.23.44.44.87.63,1.28s.37.81.53,1.18.3.72.42,1.04h.06c-.03-.36-.05-.75-.06-1.17s-.02-.84-.03-1.27,0-.81,0-1.16v-6.32c0-.16.07-.24.22-.24h1.88c.16,0,.24.08.24.24v12.62c0,.16-.08.24-.24.24h-2.8c-.13,0-.23-.05-.28-.16l-3.12-6.28c-.2-.4-.4-.81-.59-1.23-.19-.42-.38-.84-.56-1.25s-.35-.81-.51-1.18h-.06c0,.41.03.83.04,1.26s.02.85.02,1.28v7.32c0,.16-.08.24-.24.24,0,0-1.88,0-1.88,0Z" stroke-width="0"/><path d="m168.29,17.54c-.97,0-1.83-.19-2.56-.57s-1.3-.94-1.7-1.67-.6-1.63-.6-2.7v-3.7c0-1.6.47-2.82,1.41-3.67.94-.85,2.23-1.27,3.87-1.27,1.17,0,2.16.19,2.97.56s1.4.89,1.78,1.55c.38.66.51,1.42.39,2.27,0,.16-.09.24-.24.24l-1.94-.02c-.16,0-.23-.08-.22-.24.03-.48-.06-.89-.25-1.23s-.49-.6-.89-.77-.91-.26-1.54-.26c-.97,0-1.71.24-2.2.71-.49.47-.74,1.2-.74,2.19v3.58c0,1,.24,1.73.73,2.2.49.47,1.21.7,2.17.7s1.65-.22,2.14-.65c.49-.43.74-1.06.74-1.89v-.64h-2.7c-.16,0-.24-.08-.24-.24v-1.34c0-.15.08-.22.24-.22h4.76c.15,0,.22.07.22.22v3.68c0,.45,0,.91.03,1.38s.06.9.13,1.3c.03.08.02.14-.03.19-.05.05-.1.07-.17.07h-1.56c-.07,0-.12-.02-.16-.05s-.07-.08-.1-.15c-.03-.16-.05-.35-.07-.58s-.04-.45-.05-.66h-.04c-.23.35-.51.65-.85.9-.34.25-.74.45-1.19.58-.46.13-.97.2-1.54.2Z" stroke-width="0"/><path d="m189.97,17.54c-1.67,0-2.94-.41-3.82-1.24s-1.32-2.06-1.32-3.7V4.44c0-.16.07-.24.22-.24h1.94c.16,0,.24.08.24.24v8.12c0,.92.23,1.63.68,2.13s1.14.75,2.06.75,1.61-.25,2.06-.75.68-1.21.68-2.13V4.44c0-.16.07-.24.22-.24h1.94c.16,0,.24.08.24.24v8.2c0,1.59-.45,2.8-1.34,3.64-.9.84-2.16,1.26-3.8,1.26Z" stroke-width="0"/><path d="m200.17,17.3c-.15,0-.22-.08-.22-.24V4.44c0-.16.07-.24.22-.24h2.84c.13,0,.23.05.28.16l3.22,6.5c.23.44.44.87.63,1.28s.37.81.53,1.18.3.72.42,1.04h.06c-.03-.36-.05-.75-.06-1.17s-.02-.84-.03-1.27,0-.81,0-1.16v-6.32c0-.16.07-.24.22-.24h1.88c.16,0,.24.08.24.24v12.62c0,.16-.08.24-.24.24h-2.8c-.13,0-.23-.05-.28-.16l-3.12-6.28c-.2-.4-.4-.81-.59-1.23-.19-.42-.38-.84-.56-1.25s-.35-.81-.51-1.18h-.06c0,.41.03.83.04,1.26s.02.85.02,1.28v7.32c0,.16-.08.24-.24.24,0,0-1.88,0-1.88,0Z" stroke-width="0"/><path d="m215.55,17.3c-.15,0-.22-.08-.22-.24V4.44c0-.16.07-.24.22-.24h4.2c1.72,0,2.97.33,3.76.99.79.66,1.18,1.62,1.18,2.89,0,.92-.21,1.7-.63,2.33s-1.04,1.07-1.87,1.31v.04l3.22,5.26c.05.08.06.15.03.2-.03.05-.1.08-.19.08h-2.22c-.12,0-.21-.05-.28-.16l-3.02-5.06h-2v4.98c0,.16-.08.24-.24.24,0,0-1.94,0-1.94,0Zm2.18-7.12h1.92c.92,0,1.59-.16,2.01-.48s.63-.83.63-1.54-.19-1.19-.58-1.48-1.04-.44-1.96-.44h-2.02v3.94h0Z" stroke-width="0"/><path d="m229.81,17.3c-.15,0-.22-.08-.22-.24V4.44c0-.16.07-.24.22-.24h7.66c.15,0,.22.08.22.24v1.64c0,.16-.07.24-.22.24h-5.48v3.34h5c.15,0,.22.08.22.24v1.54c0,.16-.07.24-.22.24h-5v3.5h5.48c.15,0,.22.08.22.24v1.64c0,.16-.07.24-.22.24h-7.66Z" stroke-width="0"/><path d="m246.49,17.54c-1.69,0-2.93-.34-3.7-1.03s-1.11-1.64-1.02-2.87c.03-.23.12-.34.28-.34h1.88c.17,0,.25.1.24.3,0,.65.2,1.13.6,1.43.4.3,1.01.45,1.84.45s1.42-.13,1.81-.39.59-.66.59-1.21c0-.25-.05-.48-.14-.67s-.25-.37-.48-.52-.53-.31-.92-.47l-2.9-1.24c-.64-.28-1.15-.58-1.54-.91s-.66-.7-.82-1.13-.24-.91-.24-1.46c0-1.13.39-2,1.14-2.6s1.86-.9,3.34-.9c1.04,0,1.92.14,2.65.43s1.27.71,1.63,1.26c.36.55.5,1.24.42,2.07-.03.24-.11.36-.24.36h-1.9c-.08,0-.14-.03-.18-.08s-.05-.15-.04-.28c.04-.53-.15-.96-.57-1.27s-1.02-.47-1.79-.47c-.68,0-1.19.12-1.54.36-.35.24-.52.6-.52,1.08,0,.25.05.48.14.67s.26.37.49.53.55.33.95.5l2.86,1.22c.65.27,1.17.56,1.55.89s.65.7.82,1.13c.17.43.24.93.23,1.52,0,1.16-.39,2.06-1.18,2.69-.79.63-2.04.95-3.74.95Z" stroke-width="0"/><path d="m256.05,17.3c-.15,0-.22-.08-.22-.24V4.44c0-.16.07-.24.22-.24h7.66c.15,0,.22.08.22.24v1.64c0,.16-.07.24-.22.24h-5.48v3.34h5c.15,0,.22.08.22.24v1.54c0,.16-.07.24-.22.24h-5v3.5h5.48c.15,0,.22.08.22.24v1.64c0,.16-.07.24-.22.24h-7.66Z" stroke-width="0"/><path d="m273.43,17.54c-1.69,0-2.99-.42-3.89-1.25-.9-.83-1.35-2.06-1.35-3.69v-3.68c0-1.64.45-2.88,1.36-3.71.91-.83,2.2-1.25,3.88-1.25,1.15,0,2.13.19,2.96.56s1.44.91,1.84,1.6.53,1.51.4,2.46c-.01.07-.04.13-.07.19-.03.06-.09.09-.17.09h-1.94c-.16,0-.23-.08-.22-.24.03-.81-.19-1.44-.65-1.89s-1.16-.67-2.11-.67-1.63.24-2.13.72-.75,1.21-.75,2.18v3.58c0,.97.25,1.7.75,2.18.5.48,1.21.72,2.13.72.97,0,1.69-.23,2.16-.69s.67-1.08.6-1.87c-.01-.16.06-.24.22-.24h1.92c.15,0,.23.09.26.28.09.93-.06,1.75-.47,2.44-.41.69-1.01,1.23-1.82,1.61s-1.78.57-2.91.57Z" stroke-width="0"/><path d="m286.23,17.3c-.16,0-.24-.08-.24-.24V6.32h-3.44c-.16,0-.24-.08-.24-.24v-1.64c0-.16.08-.24.24-.24h9.3c.16,0,.24.08.24.24v1.64c0,.16-.08.24-.24.24h-3.44v10.74c0,.16-.08.24-.24.24h-1.94Z" stroke-width="0"/><path d="m293.73,17.3c-.17,0-.24-.09-.2-.26l4.32-12.66c.04-.12.13-.18.26-.18h2.56c.15,0,.24.06.28.18l4.34,12.66c.05.17-.01.26-.18.26h-2.12c-.13,0-.22-.06-.26-.18l-2.58-8.22c-.13-.44-.26-.88-.39-1.31s-.25-.87-.37-1.31h-.04c-.12.43-.24.86-.37,1.29s-.26.86-.39,1.29l-2.52,8.24c-.04.13-.13.2-.28.2h-2.06Zm2.74-2.74l.46-1.96h4.86l.48,1.96h-5.8Z" stroke-width="0"/><path d="m308.99,17.3c-.15,0-.22-.08-.22-.24V4.44c0-.16.07-.24.22-.24h3.98c1.57,0,2.76.27,3.55.8.79.53,1.19,1.35,1.19,2.44,0,.76-.17,1.37-.51,1.82s-.89.81-1.65,1.08v.06c.89.16,1.57.5,2.03,1.03s.69,1.24.69,2.13c0,1.31-.42,2.26-1.26,2.85-.84.59-2.19.89-4.04.89h-3.98Zm2.18-7.62h1.74c.84,0,1.45-.15,1.83-.44.38-.29.57-.75.57-1.36s-.2-1.03-.6-1.3-1.05-.4-1.96-.4h-1.58v3.5Zm0,5.62h1.86c1.01,0,1.74-.14,2.18-.43s.66-.77.66-1.45-.22-1.15-.67-1.46-1.16-.46-2.15-.46h-1.88v3.8h0Z" stroke-width="0"/><path d="m322.75,17.3c-.15,0-.22-.08-.22-.24V4.44c0-.16.07-.24.22-.24h1.96c.15,0,.22.08.22.24v10.74h5.26c.16,0,.24.08.24.24v1.64c0,.16-.08.24-.24.24h-7.44Z" stroke-width="0"/><path d="m334.49,17.3c-.15,0-.22-.08-.22-.24V4.44c0-.16.07-.24.22-.24h7.66c.15,0,.22.08.22.24v1.64c0,.16-.07.24-.22.24h-5.48v3.34h5c.15,0,.22.08.22.24v1.54c0,.16-.07.24-.22.24h-5v3.5h5.48c.15,0,.22.08.22.24v1.64c0,.16-.07.24-.22.24h-7.66Z" stroke-width="0"/></g><g isolation="isolate"><path d="m6.69,45.3c-.15,0-.22-.08-.22-.24v-12.62c0-.16.07-.24.22-.24h1.94c.16,0,.24.08.24.24v5.14h5.6v-5.14c0-.16.08-.24.24-.24h1.94c.15,0,.22.08.22.24v12.62c0,.16-.07.24-.22.24h-1.94c-.16,0-.24-.08-.24-.24v-5.4h-5.6v5.4c0,.16-.08.24-.24.24h-1.94Z" stroke-width="0"/><path d="m22.05,45.3c-.15,0-.22-.08-.22-.24v-12.62c0-.16.07-.24.22-.24h7.66c.15,0,.22.08.22.24v1.64c0,.16-.07.24-.22.24h-5.48v3.34h5c.15,0,.22.08.22.24v1.54c0,.16-.07.24-.22.24h-5v3.5h5.48c.15,0,.22.08.22.24v1.64c0,.16-.07.24-.22.24,0,0-7.66,0-7.66,0Z" stroke-width="0"/><path d="m34.85,45.3c-.15,0-.22-.08-.22-.24v-12.62c0-.16.07-.24.22-.24h3.72c1.73,0,3.01.36,3.83,1.09s1.23,1.79,1.23,3.19-.42,2.42-1.26,3.15c-.84.73-2.1,1.09-3.78,1.09h-1.56v4.34c0,.16-.08.24-.24.24h-1.94Zm2.18-6.62h1.52c.91,0,1.58-.17,2.02-.52s.66-.9.66-1.66c0-.8-.22-1.37-.66-1.72s-1.12-.52-2.04-.52h-1.5v4.42Z" stroke-width="0"/><path d="m45.73,45.3c-.17,0-.24-.09-.2-.26l4.32-12.66c.04-.12.13-.18.26-.18h2.56c.15,0,.24.06.28.18l4.34,12.66c.05.17,0,.26-.18.26h-2.12c-.13,0-.22-.06-.26-.18l-2.58-8.22c-.13-.44-.26-.88-.39-1.31s-.25-.87-.37-1.31h-.04c-.12.43-.24.86-.37,1.29-.13.43-.26.86-.39,1.29l-2.52,8.24c-.04.13-.13.2-.28.2h-2.06Zm2.74-2.74l.46-1.96h4.86l.48,1.96h-5.8Z" stroke-width="0"/><path d="m62.67,45.3c-.16,0-.24-.08-.24-.24v-10.74h-3.44c-.16,0-.24-.08-.24-.24v-1.64c0-.16.08-.24.24-.24h9.3c.16,0,.24.08.24.24v1.64c0,.16-.08.24-.24.24h-3.44v10.74c0,.16-.08.24-.24.24h-1.94Z" stroke-width="0"/><path d="m77.27,45.54c-1.76,0-3.08-.42-3.96-1.27s-1.32-2.06-1.32-3.65v-3.74c0-1.6.44-2.82,1.32-3.66s2.2-1.26,3.96-1.26,3.06.42,3.94,1.26,1.32,2.06,1.32,3.66v3.74c0,1.59-.44,2.8-1.32,3.65s-2.19,1.27-3.94,1.27Zm0-2.1c.95,0,1.66-.25,2.14-.75s.72-1.23.72-2.19v-3.5c0-.96-.24-1.69-.72-2.19s-1.19-.75-2.14-.75-1.66.25-2.15.75-.73,1.23-.73,2.19v3.5c0,.96.24,1.69.73,2.19s1.2.75,2.15.75Z" stroke-width="0"/><path d="m92.25,45.54c-1.69,0-2.99-.42-3.89-1.25s-1.35-2.06-1.35-3.69v-3.68c0-1.64.45-2.88,1.36-3.71.91-.83,2.2-1.25,3.88-1.25,1.15,0,2.13.19,2.96.56.83.37,1.44.91,1.84,1.6.4.69.53,1.51.4,2.46-.01.07-.04.13-.07.19-.03.06-.09.09-.17.09h-1.94c-.16,0-.23-.08-.22-.24.03-.81-.19-1.44-.65-1.89s-1.16-.67-2.11-.67-1.63.24-2.13.72-.75,1.21-.75,2.18v3.58c0,.97.25,1.7.75,2.18s1.21.72,2.13.72c.97,0,1.69-.23,2.16-.69s.67-1.08.6-1.87c-.01-.16.06-.24.22-.24h1.92c.15,0,.23.09.26.28.09.93-.06,1.75-.47,2.44s-1.01,1.23-1.82,1.61c-.81.38-1.78.57-2.91.57Z" stroke-width="0"/><path d="m102.33,45.3c-.15,0-.22-.08-.22-.24v-12.62c0-.16.07-.24.22-.24h7.66c.15,0,.22.08.22.24v1.64c0,.16-.07.24-.22.24h-5.48v3.34h5c.15,0,.22.08.22.24v1.54c0,.16-.07.24-.22.24h-5v3.5h5.48c.15,0,.22.08.22.24v1.64c0,.16-.07.24-.22.24,0,0-7.66,0-7.66,0Z" stroke-width="0"/><path d="m115.13,45.3c-.15,0-.22-.08-.22-.24v-12.62c0-.16.07-.24.22-.24h1.96c.15,0,.22.08.22.24v10.74h5.26c.16,0,.24.08.24.24v1.64c0,.16-.08.24-.24.24,0,0-7.44,0-7.44,0Z" stroke-width="0"/><path d="m126.87,45.3c-.15,0-.22-.08-.22-.24v-12.62c0-.16.07-.24.22-.24h1.96c.15,0,.22.08.22.24v10.74h5.26c.16,0,.24.08.24.24v1.64c0,.16-.08.24-.24.24,0,0-7.44,0-7.44,0Z" stroke-width="0"/><path d="m143.13,45.54c-1.67,0-2.94-.41-3.82-1.24s-1.32-2.06-1.32-3.7v-8.16c0-.16.07-.24.22-.24h1.94c.16,0,.24.08.24.24v8.12c0,.92.23,1.63.68,2.13s1.14.75,2.06.75,1.61-.25,2.06-.75.68-1.21.68-2.13v-8.12c0-.16.07-.24.22-.24h1.94c.16,0,.24.08.24.24v8.2c0,1.59-.45,2.8-1.34,3.64-.89.84-2.16,1.26-3.8,1.26Z" stroke-width="0"/><path d="m153.33,45.3c-.15,0-.22-.08-.22-.24v-12.62c0-.16.07-.24.22-.24h1.96c.15,0,.22.08.22.24v10.74h5.26c.16,0,.24.08.24.24v1.64c0,.16-.08.24-.24.24,0,0-7.44,0-7.44,0Z" stroke-width="0"/><path d="m163.85,45.3c-.17,0-.24-.09-.2-.26l4.32-12.66c.04-.12.13-.18.26-.18h2.56c.15,0,.24.06.28.18l4.34,12.66c.05.17,0,.26-.18.26h-2.12c-.13,0-.22-.06-.26-.18l-2.58-8.22c-.13-.44-.26-.88-.39-1.31s-.25-.87-.37-1.31h-.04c-.12.43-.24.86-.37,1.29-.13.43-.26.86-.39,1.29l-2.52,8.24c-.04.13-.13.2-.28.2h-2.06Zm2.74-2.74l.46-1.96h4.86l.48,1.96h-5.8Z" stroke-width="0"/><path d="m179.11,45.3c-.15,0-.22-.08-.22-.24v-12.62c0-.16.07-.24.22-.24h4.2c1.72,0,2.97.33,3.76.99s1.18,1.62,1.18,2.89c0,.92-.21,1.7-.63,2.33-.42.63-1.04,1.07-1.87,1.31v.04l3.22,5.26c.05.08.06.15.03.2s-.1.08-.19.08h-2.22c-.12,0-.21-.05-.28-.16l-3.02-5.06h-2v4.98c0,.16-.08.24-.24.24h-1.94Zm2.18-7.12h1.92c.92,0,1.59-.16,2.01-.48s.63-.83.63-1.54-.19-1.19-.58-1.48-1.04-.44-1.96-.44h-2.02v3.94h0Z" stroke-width="0"/><path d="m204.21,45.54c-1.69,0-2.99-.42-3.89-1.25s-1.35-2.06-1.35-3.69v-3.68c0-1.64.45-2.88,1.36-3.71.91-.83,2.2-1.25,3.88-1.25,1.15,0,2.13.19,2.96.56.83.37,1.44.91,1.84,1.6s.53,1.51.4,2.46c0,.07-.04.13-.07.19-.03.06-.09.09-.17.09h-1.94c-.16,0-.23-.08-.22-.24.03-.81-.19-1.44-.65-1.89-.46-.45-1.16-.67-2.11-.67s-1.63.24-2.13.72-.75,1.21-.75,2.18v3.58c0,.97.25,1.7.75,2.18s1.21.72,2.13.72c.97,0,1.69-.23,2.16-.69s.67-1.08.6-1.87c0-.16.06-.24.22-.24h1.92c.15,0,.23.09.26.28.09.93-.06,1.75-.47,2.44s-1.01,1.23-1.82,1.61c-.81.38-1.78.57-2.91.57Z" stroke-width="0"/><path d="m212.67,45.3c-.17,0-.24-.09-.2-.26l4.32-12.66c.04-.12.13-.18.26-.18h2.56c.15,0,.24.06.28.18l4.34,12.66c.05.17,0,.26-.18.26h-2.12c-.13,0-.22-.06-.26-.18l-2.58-8.22c-.13-.44-.26-.88-.39-1.31s-.25-.87-.37-1.31h-.04c-.12.43-.24.86-.37,1.29-.13.43-.26.86-.39,1.29l-2.52,8.24c-.04.13-.13.2-.28.2h-2.06Zm2.74-2.74l.46-1.96h4.86l.48,1.96h-5.8Z" stroke-width="0"/><path d="m227.93,45.3c-.15,0-.22-.08-.22-.24v-12.62c0-.16.07-.24.22-.24h4.2c1.72,0,2.97.33,3.76.99s1.18,1.62,1.18,2.89c0,.92-.21,1.7-.63,2.33-.42.63-1.04,1.07-1.87,1.31v.04l3.22,5.26c.05.08.06.15.03.2s-.1.08-.19.08h-2.22c-.12,0-.21-.05-.28-.16l-3.02-5.06h-2v4.98c0,.16-.08.24-.24.24h-1.94Zm2.18-7.12h1.92c.92,0,1.59-.16,2.01-.48s.63-.83.63-1.54-.19-1.19-.58-1.48-1.04-.44-1.96-.44h-2.02v3.94h0Z" stroke-width="0"/><path d="m246.73,45.54c-1.69,0-2.99-.42-3.89-1.25s-1.35-2.06-1.35-3.69v-3.68c0-1.64.45-2.88,1.36-3.71.91-.83,2.2-1.25,3.88-1.25,1.15,0,2.13.19,2.96.56.83.37,1.44.91,1.84,1.6s.53,1.51.4,2.46c0,.07-.04.13-.07.19-.03.06-.09.09-.17.09h-1.94c-.16,0-.23-.08-.22-.24.03-.81-.19-1.44-.65-1.89-.46-.45-1.16-.67-2.11-.67s-1.63.24-2.13.72-.75,1.21-.75,2.18v3.58c0,.97.25,1.7.75,2.18s1.21.72,2.13.72c.97,0,1.69-.23,2.16-.69s.67-1.08.6-1.87c0-.16.06-.24.22-.24h1.92c.15,0,.23.09.26.28.09.93-.06,1.75-.47,2.44s-1.01,1.23-1.82,1.61c-.81.38-1.78.57-2.91.57Z" stroke-width="0"/><path d="m256.81,45.3c-.15,0-.22-.08-.22-.24v-12.62c0-.16.07-.24.22-.24h1.94c.16,0,.24.08.24.24v12.62c0,.16-.08.24-.24.24h-1.94Z" stroke-width="0"/><path d="m264.15,45.3c-.15,0-.22-.08-.22-.24v-12.62c0-.16.07-.24.22-.24h2.84c.13,0,.23.05.28.16l3.22,6.5c.23.44.44.87.63,1.28s.37.81.53,1.18.3.72.42,1.04h.06c-.03-.36-.05-.75-.06-1.17s-.02-.84-.03-1.27-.01-.81-.01-1.16v-6.32c0-.16.07-.24.22-.24h1.88c.16,0,.24.08.24.24v12.62c0,.16-.08.24-.24.24h-2.8c-.13,0-.23-.05-.28-.16l-3.12-6.28c-.2-.4-.4-.81-.59-1.23s-.38-.84-.56-1.25-.35-.81-.51-1.18h-.06c.01.41.03.83.04,1.26s.02.85.02,1.28v7.32c0,.16-.08.24-.24.24h-1.88Z" stroke-width="0"/><path d="m284.35,45.54c-1.76,0-3.08-.42-3.96-1.27-.88-.85-1.32-2.06-1.32-3.65v-3.74c0-1.6.44-2.82,1.32-3.66s2.2-1.26,3.96-1.26,3.06.42,3.94,1.26,1.32,2.06,1.32,3.66v3.74c0,1.59-.44,2.8-1.32,3.65s-2.2,1.27-3.94,1.27Zm0-2.1c.95,0,1.66-.25,2.14-.75s.72-1.23.72-2.19v-3.5c0-.96-.24-1.69-.72-2.19s-1.19-.75-2.14-.75-1.66.25-2.15.75-.73,1.23-.73,2.19v3.5c0,.96.24,1.69.73,2.19.48.5,1.2.75,2.15.75Z" stroke-width="0"/><path d="m294.27,45.3c-.15,0-.22-.08-.22-.24l.26-12.62c0-.16.08-.24.24-.24h2.58c.12,0,.21.06.26.18l3.34,7.28,3.28-7.28c.07-.12.16-.18.28-.18h2.58c.15,0,.22.08.22.24l.28,12.62c0,.16-.08.24-.24.24h-1.88c-.16,0-.24-.08-.24-.24l-.16-6.46c-.01-.53-.01-1.07.02-1.61s.05-1.07.06-1.59h-.06c-.21.52-.44,1.04-.67,1.57s-.48,1.04-.73,1.55l-2.46,5.18c-.05.11-.15.16-.28.16h-.08c-.12,0-.21-.05-.26-.16l-2.48-5.24c-.25-.49-.49-1-.72-1.53s-.44-1.04-.64-1.53h-.06c.03.51.05,1.03.06,1.57s.01,1.07,0,1.59l-.16,6.5c0,.16-.07.24-.22.24,0,0-1.9,0-1.9,0Z" stroke-width="0"/><path d="m310.73,45.3c-.17,0-.24-.09-.2-.26l4.32-12.66c.04-.12.13-.18.26-.18h2.56c.15,0,.24.06.28.18l4.34,12.66c.05.17-.01.26-.18.26h-2.12c-.13,0-.22-.06-.26-.18l-2.58-8.22c-.13-.44-.26-.88-.39-1.31s-.25-.87-.37-1.31h-.04c-.12.43-.24.86-.37,1.29l-.39,1.29-2.52,8.24c-.04.13-.13.2-.28.2h-2.06Zm2.74-2.74l.46-1.96h4.86l.48,1.96h-5.8Z" stroke-width="0"/><path d="m333.71,48.5c-.48-.4-.87-.79-1.18-1.17s-.53-.82-.68-1.31-.22-1.1-.22-1.82v-8.9c0-.73.08-1.34.24-1.82s.39-.91.7-1.29.69-.78,1.14-1.19c.04-.05.1-.08.19-.09s.15.02.19.07l1.12,1.08c.12.12.11.24-.02.36-.29.29-.54.58-.75.85-.21.27-.36.58-.45.91-.09.33-.14.75-.14,1.26v8.62c0,.49.05.91.16,1.24.11.33.26.63.46.9.2.27.44.56.72.88.13.13.14.25.02.36l-1.12,1.08s-.1.07-.18.06c-.08-.01-.15-.04-.2-.08Z" stroke-width="0"/><path d="m341.87,45.54c-.88,0-1.55-.28-2-.83s-.68-1.38-.68-2.47v-6.54c0-.16.07-.24.22-.24h1.9c.16,0,.24.08.24.24v6.16c0,.56.1.97.29,1.24s.5.4.91.4c.44,0,.88-.14,1.33-.43.45-.29.95-.72,1.51-1.29l.08,1.76c-.39.39-.78.73-1.17,1.03s-.81.54-1.24.71c-.44.17-.9.26-1.39.26Zm3.96-.24c-.16,0-.25-.07-.28-.22-.04-.24-.08-.49-.11-.76-.03-.27-.06-.53-.07-.8l-.18-1.02v-6.8c0-.16.08-.24.24-.24h1.9c.15,0,.22.08.22.24v7.1c0,.39.01.77.03,1.15s.06.75.11,1.11c.03.16-.05.24-.24.24,0,0-1.62,0-1.62,0Z" stroke-width="0"/><path d="m352.53,45.3c-.15,0-.22-.08-.22-.24v-12.62c0-.16.07-.24.22-.24h1.94c.16,0,.24.08.24.24v5.14h5.6v-5.14c0-.16.08-.24.24-.24h1.94c.15,0,.22.08.22.24v12.62c0,.16-.07.24-.22.24h-1.94c-.16,0-.24-.08-.24-.24v-5.4h-5.6v5.4c0,.16-.08.24-.24.24h-1.94Z" stroke-width="0"/><path d="m372.67,45.54c-1.69,0-2.99-.42-3.89-1.25-.9-.83-1.35-2.06-1.35-3.69v-3.68c0-1.64.45-2.88,1.36-3.71.91-.83,2.2-1.25,3.88-1.25,1.15,0,2.13.19,2.96.56.83.37,1.44.91,1.84,1.6s.53,1.51.4,2.46c-.01.07-.04.13-.07.19-.03.06-.09.09-.17.09h-1.94c-.16,0-.23-.08-.22-.24.03-.81-.19-1.44-.65-1.89s-1.16-.67-2.11-.67-1.63.24-2.13.72-.75,1.21-.75,2.18v3.58c0,.97.25,1.7.75,2.18s1.21.72,2.13.72c.97,0,1.69-.23,2.16-.69s.67-1.08.6-1.87c-.01-.16.06-.24.22-.24h1.92c.15,0,.23.09.26.28.09.93-.06,1.75-.47,2.44s-1.01,1.23-1.82,1.61-1.78.57-2.91.57Z" stroke-width="0"/><path d="m387.39,45.54c-1.69,0-2.99-.42-3.89-1.25-.9-.83-1.35-2.06-1.35-3.69v-3.68c0-1.64.45-2.88,1.36-3.71.91-.83,2.2-1.25,3.88-1.25,1.15,0,2.13.19,2.96.56.83.37,1.44.91,1.84,1.6s.53,1.51.4,2.46c-.01.07-.04.13-.07.19-.03.06-.09.09-.17.09h-1.94c-.16,0-.23-.08-.22-.24.03-.81-.19-1.44-.65-1.89s-1.16-.67-2.11-.67-1.63.24-2.13.72-.75,1.21-.75,2.18v3.58c0,.97.25,1.7.75,2.18s1.21.72,2.13.72c.97,0,1.69-.23,2.16-.69s.67-1.08.6-1.87c-.01-.16.06-.24.22-.24h1.92c.15,0,.23.09.26.28.09.93-.06,1.75-.47,2.44s-1.01,1.23-1.82,1.61-1.78.57-2.91.57Z" stroke-width="0"/><path d="m397.59,48.52l-1.14-1.08c-.11-.11-.09-.23.04-.36.31-.31.56-.59.75-.86s.34-.57.44-.91.15-.76.15-1.25v-8.62c0-.51-.05-.93-.14-1.27-.09-.34-.24-.64-.44-.91s-.45-.55-.76-.84c-.13-.12-.15-.24-.04-.36l1.14-1.08s.1-.08.19-.07.15.04.19.09c.48.4.87.79,1.17,1.18.3.39.53.82.68,1.3s.23,1.09.23,1.82v8.9c0,.72-.07,1.33-.21,1.82-.14.49-.37.93-.68,1.31s-.71.77-1.19,1.17c-.05.04-.12.07-.2.08-.08.01-.14,0-.18-.06Z" stroke-width="0"/></g></svg>