<?xml version="1.0" encoding="utf-8"?>
<!-- Generator: Adobe Illustrator 27.8.1, SVG Export Plug-In . SVG Version: 6.00 Build 0)  -->
<svg version="1.1" id="Layer_1" xmlns="http://www.w3.org/2000/svg" xmlns:xlink="http://www.w3.org/1999/xlink" x="0px" y="0px"
	 width="433px" height="298px" viewBox="0 0 433 298" enable-background="new 0 0 433 298" xml:space="preserve">
<g enable-background="new    ">
	<path fill="#493D7C" d="M24.27,164.19c-6.66,0-11.7-1.6-15.13-4.81S4,151.51,4,145.39v-12.65c0-6.17,1.71-10.84,5.14-14.02
		s8.47-4.77,15.13-4.77c6.71,0,11.78,1.59,15.21,4.77c3.43,3.18,5.14,7.86,5.14,14.02v12.65c0,6.12-1.71,10.78-5.14,13.99
		C36.05,162.58,30.98,164.19,24.27,164.19z M24.27,155.01c3.3,0,5.76-0.88,7.36-2.63s2.41-4.28,2.41-7.58v-11.47
		c0-3.3-0.8-5.83-2.41-7.58c-1.6-1.75-4.06-2.63-7.36-2.63c-3.21,0-5.62,0.88-7.25,2.63s-2.44,4.28-2.44,7.58v11.47
		c0,3.31,0.81,5.83,2.44,7.58C18.65,154.14,21.06,155.01,24.27,155.01z"/>
	<path fill="#493D7C" d="M58.16,163.3c-0.64,0-0.96-0.32-0.96-0.96v-46.55c0-0.64,0.32-0.96,0.96-0.96h29.53
		c0.64,0,0.96,0.32,0.96,0.96v7.33c0,0.59-0.32,0.89-0.96,0.89H67.78v11.17h17.09c0.64,0,0.96,0.32,0.96,0.96v7.03
		c0,0.64-0.32,0.96-0.96,0.96H67.78v18.2c0,0.64-0.32,0.96-0.96,0.96L58.16,163.3L58.16,163.3z"/>
	<path fill="#493D7C" d="M118.99,163.3c-0.64,0-0.96-0.32-0.96-0.96v-46.55c0-0.64,0.32-0.96,0.96-0.96h14.65
		c6.71,0,11.59,1.38,14.65,4.14s4.59,6.81,4.59,12.14c0,5.13-1.59,9.1-4.77,11.91s-7.98,4.22-14.39,4.22h-5.11v15.1
		c0,0.64-0.32,0.96-0.96,0.96L118.99,163.3L118.99,163.3z M128.61,138.29h4.96c2.91,0,5.09-0.56,6.55-1.67
		c1.45-1.11,2.18-2.92,2.18-5.44c0-2.61-0.72-4.49-2.15-5.62s-3.63-1.7-6.59-1.7h-4.96L128.61,138.29L128.61,138.29z"/>
	<path fill="#493D7C" d="M164.65,163.3c-0.64,0-0.96-0.32-0.96-0.96v-46.55c0-0.64,0.32-0.96,0.96-0.96h29.53
		c0.64,0,0.96,0.32,0.96,0.96v7.33c0,0.59-0.32,0.89-0.96,0.89h-19.91v10.51h18.13c0.64,0,0.96,0.32,0.96,0.96v6.81
		c0,0.59-0.32,0.89-0.96,0.89h-18.13v10.95h19.91c0.64,0,0.96,0.3,0.96,0.89v7.33c0,0.64-0.32,0.96-0.96,0.96h-29.53V163.3z"/>
	<path fill="#493D7C" d="M203.42,163.3c-0.69,0-0.94-0.34-0.74-1.04l15.69-46.69c0.2-0.49,0.57-0.74,1.11-0.74h11.32
		c0.54,0,0.89,0.25,1.04,0.74l15.84,46.69c0.2,0.69-0.05,1.04-0.74,1.04h-9.55c-0.54,0-0.89-0.25-1.04-0.74l-8.51-28.64
		c-0.49-1.68-0.96-3.37-1.41-5.07s-0.89-3.39-1.33-5.07h-0.15c-0.44,1.68-0.89,3.37-1.33,5.07s-0.91,3.39-1.41,5.07l-8.36,28.56
		c-0.15,0.54-0.49,0.81-1.04,0.81h-9.39V163.3z M214.82,153.9l1.78-8.44h16.65l1.92,8.44H214.82z"/>
	<path fill="#493D7C" d="M257.07,163.3c-0.64,0-0.96-0.32-0.96-0.96v-46.55c0-0.64,0.32-0.96,0.96-0.96h8.66
		c0.64,0,0.96,0.32,0.96,0.96v11.69c0,1.48-0.01,2.95-0.04,4.4c-0.03,1.46-0.11,2.9-0.26,4.33h0.22c0.89-1.33,1.81-2.69,2.78-4.07
		c0.96-1.38,1.99-2.76,3.07-4.14l10.43-12.65c0.25-0.34,0.62-0.52,1.11-0.52h10.58c0.39,0,0.67,0.11,0.81,0.33
		c0.15,0.22,0.07,0.48-0.22,0.78l-15.54,18.5l17.17,27.75c0.2,0.3,0.23,0.56,0.11,0.78s-0.36,0.33-0.7,0.33h-10.58
		c-0.54,0-0.94-0.22-1.18-0.67l-12.06-19.83l-5.7,6.51v13.02c0,0.64-0.32,0.96-0.96,0.96h-8.66V163.3z"/>
	<path fill="#493D7C" d="M344.09,164.19c-6.66,0-11.71-1.6-15.13-4.81c-3.43-3.21-5.14-7.87-5.14-13.99v-12.65
		c0-6.17,1.71-10.84,5.14-14.02s8.47-4.77,15.13-4.77c6.71,0,11.78,1.59,15.21,4.77s5.14,7.86,5.14,14.02v12.65
		c0,6.12-1.71,10.78-5.14,13.99C355.87,162.58,350.8,164.19,344.09,164.19z M344.09,155.01c3.3,0,5.76-0.88,7.36-2.63
		s2.41-4.28,2.41-7.58v-11.47c0-3.3-0.8-5.83-2.41-7.58c-1.6-1.75-4.06-2.63-7.36-2.63c-3.21,0-5.62,0.88-7.25,2.63
		s-2.44,4.28-2.44,7.58v11.47c0,3.31,0.81,5.83,2.44,7.58C338.47,154.14,340.89,155.01,344.09,155.01z"/>
</g>
<g enable-background="new    ">
	<path fill="#493D7C" d="M392.86,164.19c-6.51,0-11.24-1.26-14.17-3.77c-2.94-2.52-4.18-6.19-3.74-11.03
		c0.05-0.84,0.39-1.26,1.04-1.26h8.44c0.64,0,0.96,0.37,0.96,1.11c-0.05,1.97,0.57,3.47,1.85,4.48s3.28,1.52,5.99,1.52
		c2.66,0,4.62-0.39,5.88-1.18c1.26-0.79,1.89-2,1.89-3.63c0-0.79-0.15-1.48-0.44-2.07s-0.81-1.13-1.55-1.63
		c-0.74-0.49-1.75-0.99-3.03-1.48l-10.66-4.66c-2.47-1.04-4.42-2.18-5.85-3.44c-1.43-1.26-2.44-2.7-3.03-4.33s-0.89-3.5-0.89-5.62
		c0.05-4.24,1.49-7.51,4.33-9.8s7.07-3.44,12.69-3.44c4.09,0,7.54,0.54,10.32,1.63c2.79,1.09,4.83,2.69,6.14,4.81
		s1.81,4.79,1.52,7.99c-0.05,0.84-0.37,1.26-0.96,1.26h-8.51c-0.3,0-0.53-0.11-0.7-0.33s-0.23-0.53-0.18-0.92
		c0.15-1.68-0.44-3.03-1.78-4.07s-3.23-1.55-5.7-1.55c-2.17,0-3.81,0.38-4.92,1.15s-1.69,1.89-1.74,3.37c0,0.74,0.16,1.41,0.48,2
		s0.86,1.15,1.63,1.67c0.76,0.52,1.79,1.05,3.07,1.59l10.58,4.51c2.47,1.08,4.41,2.25,5.85,3.48c1.43,1.23,2.44,2.66,3.03,4.29
		s0.89,3.55,0.89,5.77c-0.05,4.44-1.55,7.82-4.51,10.14C404.11,163.03,399.37,164.19,392.86,164.19z"/>
</g>
<g enable-background="new    ">
	<path fill="#493D7C" d="M418.55,172.99c-0.59,0-0.81-0.32-0.67-0.96l3.7-16.58c0.1-0.44,0.37-0.67,0.81-0.67h6.44
		c0.69,0,0.89,0.35,0.59,1.04l-5.55,16.65c-0.15,0.34-0.4,0.52-0.74,0.52H418.55z"/>
</g>
<g enable-background="new    ">
	<path fill="#493D7C" d="M7.19,99.3c-0.46,0-0.69-0.23-0.69-0.69V65.27c0-0.46,0.23-0.69,0.69-0.69h6.2c0.46,0,0.69,0.23,0.69,0.69
		v33.34c0,0.46-0.23,0.69-0.69,0.69H7.19z"/>
	<path fill="#493D7C" d="M24.41,99.3c-0.46,0-0.69-0.23-0.69-0.69V65.27c0-0.46,0.23-0.69,0.69-0.69h8.43c0.35,0,0.62,0.16,0.8,0.48
		l7.58,15.26c0.53,1.1,1.06,2.2,1.59,3.31c0.53,1.11,1.01,2.18,1.46,3.21c0.44,1.03,0.8,1.98,1.09,2.86h0.16
		c-0.07-0.95-0.13-2-0.19-3.15c-0.05-1.15-0.1-2.3-0.13-3.45c-0.04-1.15-0.05-2.18-0.05-3.1V65.27c0-0.46,0.21-0.69,0.64-0.69h5.99
		c0.46,0,0.69,0.23,0.69,0.69v33.34c0,0.46-0.23,0.69-0.69,0.69h-8.32c-0.39,0-0.65-0.16-0.79-0.48L35.3,84.19
		c-0.5-1.02-0.99-2.11-1.48-3.26c-0.5-1.15-0.98-2.28-1.46-3.39c-0.48-1.11-0.91-2.15-1.3-3.1H30.9c0.07,1.03,0.11,2.12,0.13,3.29
		s0.03,2.33,0.03,3.5s0,2.28,0,3.34v14.04c0,0.46-0.23,0.69-0.69,0.69L24.41,99.3L24.41,99.3z"/>
	<path fill="#493D7C" d="M83.29,99.3c-0.42,0-0.64-0.23-0.64-0.69V71.16h-8.96c-0.42,0-0.64-0.21-0.64-0.64v-5.25
		c0-0.46,0.21-0.69,0.64-0.69h25.39c0.42,0,0.64,0.23,0.64,0.69v5.25c0,0.42-0.21,0.64-0.64,0.64h-8.9v27.45
		c0,0.46-0.23,0.69-0.69,0.69H83.29z"/>
	<path fill="#493D7C" d="M107.83,99.3c-0.46,0-0.69-0.23-0.69-0.69V65.27c0-0.46,0.23-0.69,0.69-0.69h6.2
		c0.46,0,0.69,0.23,0.69,0.69v13.2h13.51v-13.2c0-0.46,0.23-0.69,0.69-0.69h6.15c0.46,0,0.69,0.23,0.69,0.69v33.34
		c0,0.46-0.23,0.69-0.69,0.69h-6.15c-0.46,0-0.69-0.23-0.69-0.69V84.99h-13.51v13.62c0,0.46-0.23,0.69-0.69,0.69H107.83z"/>
	<path fill="#493D7C" d="M146.1,99.3c-0.46,0-0.69-0.23-0.69-0.69V65.27c0-0.46,0.23-0.69,0.69-0.69h21.15
		c0.46,0,0.69,0.23,0.69,0.69v5.25c0,0.42-0.23,0.64-0.69,0.64h-14.26v7.53h12.98c0.46,0,0.69,0.23,0.69,0.69v4.88
		c0,0.42-0.23,0.64-0.69,0.64h-12.98v7.84h14.26c0.46,0,0.69,0.21,0.69,0.64v5.25c0,0.46-0.23,0.69-0.69,0.69H146.1V99.3z"/>
	<path fill="#493D7C" d="M190.78,99.3c-0.46,0-0.69-0.23-0.69-0.69V65.27c0-0.46,0.23-0.69,0.69-0.69h10.49
		c4.8,0,8.3,0.99,10.49,2.97s3.29,4.88,3.29,8.69c0,3.67-1.14,6.52-3.42,8.53s-5.72,3.02-10.31,3.02h-3.66V98.6
		c0,0.46-0.23,0.69-0.69,0.69h-6.19V99.3z M197.67,81.39h3.55c2.08,0,3.65-0.4,4.69-1.19c1.04-0.79,1.56-2.09,1.56-3.9
		c0-1.87-0.51-3.21-1.54-4.03c-1.03-0.81-2.6-1.22-4.72-1.22h-3.55v10.34H197.67z"/>
	<path fill="#493D7C" d="M236.67,99.94c-4.63,0-8.14-1.1-10.55-3.31c-2.4-2.21-3.6-5.57-3.6-10.1V65.28c0-0.46,0.23-0.69,0.69-0.69
		h6.2c0.46,0,0.69,0.23,0.69,0.69v20.99c0,2.26,0.53,4.02,1.59,5.27c1.06,1.25,2.72,1.88,4.98,1.88c2.3,0,3.97-0.63,5.01-1.88
		s1.56-3.01,1.56-5.27V65.28c0-0.46,0.23-0.69,0.69-0.69h6.2c0.46,0,0.69,0.23,0.69,0.69v21.31c0,4.42-1.21,7.75-3.63,9.99
		C244.77,98.81,241.27,99.94,236.67,99.94z"/>
	<path fill="#493D7C" d="M260.89,99.3c-0.46,0-0.69-0.23-0.69-0.69V65.27c0-0.46,0.23-0.69,0.69-0.69h11.66
		c4.77,0,8.23,0.92,10.39,2.76c2.15,1.84,3.23,4.5,3.23,8c0,2.4-0.53,4.43-1.59,6.09c-1.06,1.66-2.69,2.83-4.88,3.5v0.05l8.37,13.51
		c0.14,0.21,0.17,0.4,0.08,0.56s-0.27,0.24-0.56,0.24h-7c-0.35,0-0.64-0.16-0.85-0.48l-7.58-12.77h-4.4V98.6
		c0,0.46-0.23,0.69-0.69,0.69h-6.18V99.3z M267.78,80.11h4.66c2.12,0,3.67-0.37,4.66-1.11s1.48-1.93,1.48-3.55
		c0-1.59-0.45-2.73-1.35-3.42S274.8,71,272.65,71h-4.88L267.78,80.11L267.78,80.11z"/>
	<path fill="#493D7C" d="M306.69,99.94c-4.66,0-8.05-0.9-10.15-2.7c-2.1-1.8-2.99-4.43-2.68-7.9c0.04-0.6,0.28-0.9,0.74-0.9h6.04
		c0.46,0,0.69,0.27,0.69,0.79c-0.04,1.41,0.41,2.48,1.32,3.21c0.92,0.72,2.35,1.09,4.29,1.09c1.91,0,3.31-0.28,4.21-0.85
		c0.9-0.56,1.35-1.43,1.35-2.6c0-0.57-0.11-1.06-0.32-1.48s-0.58-0.81-1.11-1.17c-0.53-0.35-1.25-0.71-2.17-1.06l-7.63-3.34
		c-1.77-0.74-3.16-1.56-4.19-2.46c-1.03-0.9-1.75-1.93-2.17-3.1s-0.64-2.51-0.64-4.03c0.03-3.04,1.07-5.38,3.1-7.02
		c2.03-1.64,5.06-2.46,9.09-2.46c2.93,0,5.4,0.39,7.39,1.17c2,0.78,3.46,1.93,4.4,3.44c0.94,1.52,1.3,3.43,1.09,5.72
		c-0.04,0.6-0.26,0.9-0.69,0.9h-6.1c-0.21,0-0.38-0.08-0.5-0.24s-0.17-0.38-0.13-0.66c0.11-1.2-0.32-2.17-1.27-2.92
		c-0.95-0.74-2.32-1.11-4.08-1.11c-1.56,0-2.73,0.27-3.52,0.82c-0.8,0.55-1.21,1.35-1.25,2.41c0,0.53,0.11,1.01,0.34,1.43
		c0.23,0.42,0.62,0.82,1.17,1.19s1.28,0.75,2.2,1.14l7.58,3.23c1.77,0.78,3.16,1.61,4.19,2.49c1.02,0.88,1.75,1.91,2.17,3.07
		s0.64,2.54,0.64,4.13c-0.04,3.18-1.11,5.6-3.23,7.26C314.74,99.11,311.35,99.94,306.69,99.94z"/>
	<path fill="#493D7C" d="M342.3,99.94c-4.63,0-8.14-1.1-10.55-3.31c-2.4-2.21-3.6-5.57-3.6-10.1V65.28c0-0.46,0.23-0.69,0.69-0.69
		h6.2c0.46,0,0.69,0.23,0.69,0.69v20.99c0,2.26,0.53,4.02,1.59,5.27c1.06,1.25,2.72,1.88,4.98,1.88c2.3,0,3.97-0.63,5.01-1.88
		s1.56-3.01,1.56-5.27V65.28c0-0.46,0.23-0.69,0.69-0.69h6.2c0.46,0,0.69,0.23,0.69,0.69v21.31c0,4.42-1.21,7.75-3.63,9.99
		C350.4,98.81,346.89,99.94,342.3,99.94z"/>
	<path fill="#493D7C" d="M366.52,99.3c-0.46,0-0.69-0.23-0.69-0.69V65.27c0-0.46,0.23-0.69,0.69-0.69h6.2
		c0.46,0,0.69,0.23,0.69,0.69v33.34c0,0.46-0.23,0.69-0.69,0.69H366.52z"/>
	<path fill="#493D7C" d="M391.06,99.3c-0.42,0-0.64-0.23-0.64-0.69V71.16h-8.96c-0.42,0-0.64-0.21-0.64-0.64v-5.25
		c0-0.46,0.21-0.69,0.64-0.69h25.39c0.42,0,0.64,0.23,0.64,0.69v5.25c0,0.42-0.21,0.64-0.64,0.64h-8.9v27.45
		c0,0.46-0.23,0.69-0.69,0.69H391.06z"/>
</g>
<g enable-background="new    ">
	<path fill="#493D7C" d="M8.95,215.3c-0.43,0-0.65-0.22-0.65-0.65V183.2c0-0.43,0.22-0.65,0.65-0.65H28.9
		c0.43,0,0.65,0.22,0.65,0.65v4.95c0,0.4-0.22,0.6-0.65,0.6H15.45v7.1H27.7c0.43,0,0.65,0.22,0.65,0.65v4.6c0,0.4-0.22,0.6-0.65,0.6
		H15.45v7.4H28.9c0.43,0,0.65,0.2,0.65,0.6v4.95c0,0.43-0.22,0.65-0.65,0.65L8.95,215.3L8.95,215.3z"/>
	<path fill="#493D7C" d="M46.3,215.3c-0.4,0-0.65-0.17-0.75-0.5L35.2,183.25c-0.13-0.47,0.05-0.7,0.55-0.7h6.35
		c0.4,0,0.65,0.17,0.75,0.5l5.45,18.8c0.33,1.2,0.65,2.41,0.95,3.62c0.3,1.22,0.58,2.44,0.85,3.67h0.15
		c0.27-1.23,0.56-2.46,0.88-3.67c0.32-1.22,0.66-2.44,1.03-3.67l5.5-18.7c0.1-0.37,0.33-0.55,0.7-0.55h6.35
		c0.5,0,0.68,0.23,0.55,0.7L54.81,214.8c-0.13,0.33-0.38,0.5-0.75,0.5H46.3z"/>
	<path fill="#493D7C" d="M72.2,215.3c-0.43,0-0.65-0.22-0.65-0.65V183.2c0-0.43,0.22-0.65,0.65-0.65h19.95
		c0.43,0,0.65,0.22,0.65,0.65v4.95c0,0.4-0.22,0.6-0.65,0.6H78.7v7.1h12.25c0.43,0,0.65,0.22,0.65,0.65v4.6c0,0.4-0.22,0.6-0.65,0.6
		H78.7v7.4h13.45c0.43,0,0.65,0.2,0.65,0.6v4.95c0,0.43-0.22,0.65-0.65,0.65L72.2,215.3L72.2,215.3z"/>
	<path fill="#493D7C" d="M101.9,215.3c-0.43,0-0.65-0.22-0.65-0.65V183.2c0-0.43,0.22-0.65,0.65-0.65h11c4.5,0,7.77,0.87,9.8,2.6
		s3.05,4.25,3.05,7.55c0,2.27-0.5,4.18-1.5,5.75s-2.53,2.67-4.6,3.3v0.05l7.9,12.75c0.13,0.2,0.16,0.38,0.07,0.53
		c-0.08,0.15-0.26,0.22-0.52,0.22h-6.6c-0.33,0-0.6-0.15-0.8-0.45l-7.15-12.05h-4.15v11.85c0,0.43-0.22,0.65-0.65,0.65H101.9z
		 M108.4,197.2h4.4c2,0,3.47-0.35,4.4-1.05c0.93-0.7,1.4-1.82,1.4-3.35c0-1.5-0.42-2.58-1.27-3.22c-0.85-0.65-2.29-0.98-4.33-0.98
		h-4.6L108.4,197.2L108.4,197.2z"/>
	<path fill="#493D7C" d="M141.25,215.3c-0.43,0-0.65-0.22-0.65-0.65V204l-10.65-20.7c-0.1-0.2-0.11-0.38-0.02-0.53
		c0.08-0.15,0.24-0.22,0.48-0.22h6.6c0.37,0,0.62,0.15,0.75,0.45l3.8,8.25c0.47,1.07,0.93,2.13,1.38,3.2s0.88,2.12,1.27,3.15h0.05
		c0.43-1.07,0.87-2.12,1.3-3.15s0.9-2.1,1.4-3.2l3.75-8.25c0.13-0.3,0.38-0.45,0.75-0.45h6.5c0.23,0,0.39,0.08,0.48,0.22
		c0.08,0.15,0.08,0.33-0.02,0.53L147.77,204v10.65c0,0.43-0.22,0.65-0.65,0.65L141.25,215.3L141.25,215.3z"/>
	<path fill="#493D7C" d="M176.95,215.3c-0.43,0-0.65-0.22-0.65-0.65l0.65-31.45c0-0.43,0.22-0.65,0.65-0.65h7.2
		c0.33,0,0.57,0.17,0.7,0.5l8.1,17.3l8-17.3c0.17-0.33,0.42-0.5,0.75-0.5h7.15c0.4,0,0.6,0.22,0.6,0.65l0.7,31.45
		c0,0.43-0.22,0.65-0.65,0.65h-5.7c-0.43,0-0.65-0.22-0.65-0.65L203.5,201c-0.03-1.37-0.02-2.78,0.02-4.23
		c0.05-1.45,0.11-2.86,0.17-4.22h-0.15c-0.57,1.33-1.17,2.7-1.8,4.1s-1.28,2.75-1.95,4.05l-5.4,10.95c-0.13,0.27-0.38,0.4-0.75,0.4
		h-0.25c-0.33,0-0.57-0.13-0.7-0.4l-5.45-11.05c-0.63-1.3-1.27-2.64-1.9-4.02c-0.63-1.38-1.22-2.73-1.75-4.03h-0.15
		c0.07,1.37,0.12,2.77,0.15,4.2c0.03,1.43,0.03,2.82,0,4.15l-0.3,13.75c0,0.43-0.22,0.65-0.65,0.65L176.95,215.3L176.95,215.3z"/>
	<path fill="#493D7C" d="M219.9,215.3c-0.43,0-0.65-0.22-0.65-0.65V183.2c0-0.43,0.22-0.65,0.65-0.65h19.95
		c0.43,0,0.65,0.22,0.65,0.65v4.95c0,0.4-0.22,0.6-0.65,0.6H226.4v7.1h12.25c0.43,0,0.65,0.22,0.65,0.65v4.6
		c0,0.4-0.22,0.6-0.65,0.6H226.4v7.4h13.45c0.43,0,0.65,0.2,0.65,0.6v4.95c0,0.43-0.22,0.65-0.65,0.65L219.9,215.3L219.9,215.3z"/>
	<path fill="#493D7C" d="M246.1,215.3c-0.47,0-0.63-0.23-0.5-0.7l10.6-31.55c0.13-0.33,0.38-0.5,0.75-0.5h7.65
		c0.37,0,0.6,0.17,0.7,0.5L276,214.6c0.13,0.47-0.03,0.7-0.5,0.7h-6.45c-0.37,0-0.6-0.17-0.7-0.5l-5.75-19.35
		c-0.33-1.13-0.65-2.28-0.95-3.43c-0.3-1.15-0.6-2.29-0.9-3.42h-0.1c-0.3,1.13-0.6,2.28-0.9,3.42c-0.3,1.15-0.62,2.29-0.95,3.43
		l-5.65,19.3c-0.1,0.37-0.33,0.55-0.7,0.55H246.1z M253.8,208.95l1.2-5.7h11.25l1.3,5.7H253.8z"/>
	<path fill="#493D7C" d="M292.39,215.9c-4.4,0-7.59-0.85-9.58-2.55s-2.83-4.18-2.52-7.45c0.03-0.57,0.27-0.85,0.7-0.85h5.7
		c0.43,0,0.65,0.25,0.65,0.75c-0.03,1.33,0.38,2.34,1.25,3.03c0.87,0.68,2.22,1.02,4.05,1.02c1.8,0,3.12-0.27,3.97-0.8
		c0.85-0.53,1.28-1.35,1.28-2.45c0-0.53-0.1-1-0.3-1.4c-0.2-0.4-0.55-0.77-1.05-1.1c-0.5-0.33-1.18-0.67-2.05-1l-7.2-3.15
		c-1.67-0.7-2.98-1.48-3.95-2.33c-0.97-0.85-1.65-1.83-2.05-2.92c-0.4-1.1-0.6-2.37-0.6-3.8c0.03-2.87,1.01-5.07,2.92-6.62
		c1.92-1.55,4.78-2.32,8.58-2.32c2.77,0,5.09,0.37,6.98,1.1c1.88,0.73,3.27,1.82,4.15,3.25s1.23,3.23,1.03,5.4
		c-0.03,0.57-0.25,0.85-0.65,0.85h-5.75c-0.2,0-0.36-0.08-0.47-0.22c-0.12-0.15-0.16-0.36-0.12-0.62c0.1-1.13-0.3-2.05-1.2-2.75
		c-0.9-0.7-2.18-1.05-3.85-1.05c-1.47,0-2.58,0.26-3.33,0.78s-1.14,1.28-1.17,2.28c0,0.5,0.11,0.95,0.32,1.35s0.58,0.78,1.1,1.12
		c0.52,0.35,1.21,0.71,2.08,1.08l7.15,3.05c1.67,0.73,2.98,1.52,3.95,2.35c0.97,0.83,1.65,1.8,2.05,2.9s0.6,2.4,0.6,3.9
		c-0.03,3-1.05,5.28-3.05,6.85C299.99,215.12,296.79,215.9,292.39,215.9z"/>
	<path fill="#493D7C" d="M325.99,215.9c-4.37,0-7.68-1.04-9.95-3.12c-2.27-2.08-3.4-5.26-3.4-9.52V183.2c0-0.43,0.22-0.65,0.65-0.65
		h5.85c0.43,0,0.65,0.22,0.65,0.65V203c0,2.13,0.5,3.79,1.5,4.97s2.57,1.78,4.7,1.78c2.17,0,3.74-0.59,4.72-1.78
		c0.98-1.18,1.47-2.84,1.47-4.97v-19.8c0-0.43,0.22-0.65,0.65-0.65h5.85c0.43,0,0.65,0.22,0.65,0.65v20.1
		c0,4.17-1.14,7.31-3.42,9.42C333.63,214.84,330.33,215.9,325.99,215.9z"/>
	<path fill="#493D7C" d="M348.84,215.3c-0.43,0-0.65-0.22-0.65-0.65V183.2c0-0.43,0.22-0.65,0.65-0.65h11c4.5,0,7.77,0.87,9.8,2.6
		s3.05,4.25,3.05,7.55c0,2.27-0.5,4.18-1.5,5.75s-2.53,2.67-4.6,3.3v0.05l7.9,12.75c0.13,0.2,0.16,0.38,0.08,0.53
		c-0.08,0.15-0.26,0.22-0.52,0.22h-6.6c-0.33,0-0.6-0.15-0.8-0.45l-7.15-12.05h-4.15v11.85c0,0.43-0.22,0.65-0.65,0.65H348.84z
		 M355.34,197.2h4.4c2,0,3.47-0.35,4.4-1.05c0.93-0.7,1.4-1.82,1.4-3.35c0-1.5-0.43-2.58-1.28-3.22c-0.85-0.65-2.29-0.98-4.33-0.98
		h-4.6L355.34,197.2L355.34,197.2z"/>
	<path fill="#493D7C" d="M382.24,215.3c-0.43,0-0.65-0.22-0.65-0.65V183.2c0-0.43,0.22-0.65,0.65-0.65h19.95
		c0.43,0,0.65,0.22,0.65,0.65v4.95c0,0.4-0.22,0.6-0.65,0.6h-13.45v7.1h12.25c0.43,0,0.65,0.22,0.65,0.65v4.6
		c0,0.4-0.22,0.6-0.65,0.6h-12.25v7.4h13.45c0.43,0,0.65,0.2,0.65,0.6v4.95c0,0.43-0.22,0.65-0.65,0.65L382.24,215.3L382.24,215.3z"
		/>
</g>
<g enable-background="new    ">
	<path fill="#493D7C" d="M9.07,294.3c-0.8,0-1.2-0.4-1.2-1.2l1.2-57.87c0-0.8,0.4-1.2,1.2-1.2h13.25c0.61,0,1.04,0.31,1.29,0.92
		l14.9,31.83l14.72-31.83c0.31-0.61,0.77-0.92,1.38-0.92h13.16c0.74,0,1.1,0.4,1.1,1.2l1.29,57.87c0,0.8-0.4,1.2-1.2,1.2H59.67
		c-0.8,0-1.2-0.4-1.2-1.2l-0.55-25.12c-0.06-2.51-0.05-5.11,0.05-7.77c0.09-2.67,0.2-5.26,0.32-7.77h-0.28
		c-1.04,2.45-2.15,4.97-3.31,7.54c-1.17,2.58-2.36,5.06-3.59,7.45l-9.94,20.15c-0.25,0.49-0.71,0.74-1.38,0.74h-0.46
		c-0.61,0-1.04-0.24-1.29-0.74l-10.03-20.33c-1.17-2.39-2.33-4.86-3.5-7.41c-1.17-2.54-2.24-5.01-3.22-7.41h-0.28
		c0.12,2.52,0.21,5.09,0.28,7.73c0.06,2.64,0.06,5.18,0,7.64l-0.55,25.3c0,0.8-0.4,1.2-1.2,1.2H9.07z"/>
	<path fill="#493D7C" d="M81.57,294.3c-0.86,0-1.16-0.43-0.92-1.29l19.5-58.05c0.24-0.61,0.7-0.92,1.38-0.92h14.08
		c0.67,0,1.1,0.31,1.29,0.92l19.69,58.05c0.24,0.86-0.06,1.29-0.92,1.29H123.8c-0.68,0-1.1-0.31-1.29-0.92l-10.58-35.6
		c-0.61-2.08-1.2-4.19-1.75-6.3c-0.55-2.12-1.1-4.22-1.66-6.3h-0.18c-0.55,2.09-1.1,4.19-1.66,6.3c-0.55,2.12-1.14,4.22-1.75,6.3
		l-10.4,35.51c-0.18,0.68-0.61,1.01-1.29,1.01L81.57,294.3L81.57,294.3z M95.73,282.62l2.21-10.49h20.7l2.39,10.49H95.73z"/>
	<path fill="#493D7C" d="M155.63,294.3c-0.74,0-1.1-0.4-1.1-1.2v-47.66h-15.55c-0.74,0-1.1-0.37-1.1-1.1v-9.11
		c0-0.8,0.37-1.2,1.1-1.2h44.07c0.74,0,1.1,0.4,1.1,1.2v9.11c0,0.74-0.37,1.1-1.1,1.1h-15.46v47.66c0,0.8-0.4,1.2-1.2,1.2H155.63z"
		/>
	<path fill="#493D7C" d="M211.65,294.3c-0.74,0-1.1-0.4-1.1-1.2v-47.66H195c-0.74,0-1.1-0.37-1.1-1.1v-9.11c0-0.8,0.37-1.2,1.1-1.2
		h44.07c0.74,0,1.1,0.4,1.1,1.2v9.11c0,0.74-0.37,1.1-1.1,1.1h-15.46v47.66c0,0.8-0.4,1.2-1.2,1.2H211.65z"/>
	<path fill="#493D7C" d="M254.25,294.3c-0.8,0-1.2-0.4-1.2-1.2v-57.87c0-0.8,0.4-1.2,1.2-1.2h36.71c0.8,0,1.2,0.4,1.2,1.2v9.11
		c0,0.74-0.4,1.1-1.2,1.1h-24.75v13.06h22.54c0.8,0,1.2,0.4,1.2,1.2v8.46c0,0.74-0.4,1.1-1.2,1.1h-22.54v13.62h24.75
		c0.8,0,1.2,0.37,1.2,1.1v9.11c0,0.8-0.4,1.2-1.2,1.2h-36.71V294.3z"/>
	<path fill="#493D7C" d="M308.89,294.3c-0.8,0-1.2-0.4-1.2-1.2v-57.87c0-0.8,0.4-1.2,1.2-1.2h20.24c8.28,0,14.29,1.6,18.03,4.78
		c3.74,3.19,5.61,7.82,5.61,13.89c0,4.17-0.92,7.7-2.76,10.58s-4.66,4.91-8.46,6.07v0.09l14.54,23.46c0.24,0.37,0.29,0.69,0.14,0.97
		c-0.15,0.28-0.48,0.41-0.97,0.41h-12.14c-0.61,0-1.1-0.28-1.47-0.83l-13.16-22.17h-7.64v21.8c0,0.8-0.4,1.2-1.2,1.2h-10.76V294.3z
		 M320.85,261h8.1c3.68,0,6.38-0.64,8.1-1.93s2.58-3.34,2.58-6.16c0-2.76-0.78-4.74-2.35-5.93c-1.56-1.2-4.22-1.79-7.96-1.79h-8.46
		V261H320.85z"/>
	<path fill="#493D7C" d="M388.38,295.4c-8.1,0-13.97-1.56-17.62-4.69s-5.2-7.7-4.65-13.71c0.06-1.04,0.49-1.56,1.29-1.56h10.49
		c0.8,0,1.2,0.46,1.2,1.38c-0.06,2.45,0.71,4.31,2.3,5.57c1.59,1.26,4.08,1.89,7.45,1.89c3.31,0,5.75-0.49,7.31-1.47
		s2.35-2.48,2.35-4.51c0-0.98-0.18-1.84-0.55-2.58s-1.01-1.41-1.93-2.02c-0.92-0.61-2.18-1.23-3.77-1.84l-13.25-5.8
		c-3.07-1.29-5.49-2.71-7.27-4.28c-1.78-1.56-3.04-3.36-3.77-5.38c-0.74-2.02-1.1-4.35-1.1-6.99c0.06-5.27,1.85-9.34,5.38-12.19
		s8.79-4.28,15.78-4.28c5.09,0,9.37,0.68,12.83,2.02c3.46,1.35,6.01,3.34,7.64,5.98c1.62,2.64,2.25,5.95,1.89,9.94
		c-0.06,1.04-0.46,1.56-1.2,1.56H398.6c-0.37,0-0.66-0.14-0.87-0.41c-0.21-0.28-0.29-0.66-0.23-1.15c0.18-2.08-0.55-3.77-2.21-5.06
		s-4.02-1.93-7.08-1.93c-2.7,0-4.74,0.48-6.12,1.43s-2.1,2.35-2.16,4.19c0,0.92,0.2,1.75,0.6,2.48c0.4,0.74,1.07,1.43,2.02,2.07
		c0.95,0.64,2.22,1.3,3.82,1.98l13.16,5.61c3.07,1.35,5.49,2.79,7.27,4.32s3.04,3.31,3.77,5.34c0.74,2.02,1.1,4.42,1.1,7.18
		c-0.06,5.52-1.93,9.72-5.61,12.6C402.37,293.96,396.48,295.4,388.38,295.4z"/>
</g>
<g transform="matrix(1, 0, 0, 1, 1041, 307)">
	<g enable-background="new    ">
		<path d="M-1031.86-289.7c-0.13,0-0.22-0.07-0.26-0.2l-3.54-12.64c-0.05-0.17,0.02-0.26,0.22-0.26h1.94c0.15,0,0.23,0.07,0.26,0.2
			l1.92,7.16c0.11,0.35,0.2,0.71,0.27,1.1c0.07,0.39,0.15,0.76,0.22,1.13c0.07,0.37,0.14,0.71,0.21,1.03h0.04
			c0.13-0.47,0.27-0.93,0.4-1.39c0.13-0.46,0.27-0.92,0.42-1.39l1.52-4.88l-0.74-2.44c-0.03-0.08-0.02-0.14,0.03-0.19
			c0.05-0.05,0.1-0.07,0.17-0.07h1.96c0.13,0,0.21,0.07,0.24,0.2l2,7.42c0.13,0.45,0.25,0.91,0.36,1.37
			c0.11,0.46,0.21,0.92,0.32,1.37h0.02c0.07-0.32,0.14-0.67,0.21-1.06c0.07-0.39,0.15-0.78,0.23-1.17c0.08-0.39,0.16-0.76,0.24-1.11
			l1.84-7.08c0.03-0.13,0.11-0.2,0.26-0.2h2c0.19,0,0.25,0.09,0.2,0.26l-3.44,12.64c-0.04,0.13-0.13,0.2-0.26,0.2h-2.4
			c-0.15,0-0.24-0.07-0.28-0.2l-1.16-4.12c-0.13-0.47-0.26-0.93-0.39-1.4s-0.24-0.92-0.35-1.36h-0.04
			c-0.13,0.44-0.26,0.89-0.39,1.34c-0.13,0.45-0.26,0.91-0.41,1.38l-1.26,4.18c-0.05,0.12-0.14,0.18-0.26,0.18
			C-1029.54-289.7-1031.86-289.7-1031.86-289.7z"/>
		<path d="M-1014.86-289.7c-0.15,0-0.22-0.08-0.22-0.24v-12.62c0-0.16,0.07-0.24,0.22-0.24h1.94c0.16,0,0.24,0.08,0.24,0.24v5.14
			h5.6v-5.14c0-0.16,0.08-0.24,0.24-0.24h1.94c0.15,0,0.22,0.08,0.22,0.24v12.62c0,0.16-0.07,0.24-0.22,0.24h-1.94
			c-0.16,0-0.24-0.08-0.24-0.24v-5.4h-5.6v5.4c0,0.16-0.08,0.24-0.24,0.24H-1014.86z"/>
		<path d="M-999.5-289.7c-0.15,0-0.22-0.08-0.22-0.24v-12.62c0-0.16,0.07-0.24,0.22-0.24h7.66c0.15,0,0.22,0.08,0.22,0.24v1.64
			c0,0.16-0.07,0.24-0.22,0.24h-5.48v3.34h5c0.15,0,0.22,0.08,0.22,0.24v1.54c0,0.16-0.07,0.24-0.22,0.24h-5v3.5h5.48
			c0.15,0,0.22,0.08,0.22,0.24v1.64c0,0.16-0.07,0.24-0.22,0.24H-999.5z"/>
		<path d="M-986.7-289.7c-0.15,0-0.22-0.08-0.22-0.24v-12.62c0-0.16,0.07-0.24,0.22-0.24h2.84c0.13,0,0.23,0.05,0.28,0.16l3.22,6.5
			c0.23,0.44,0.44,0.87,0.63,1.28c0.19,0.41,0.37,0.81,0.53,1.18c0.16,0.37,0.3,0.72,0.42,1.04h0.06c-0.03-0.36-0.05-0.75-0.06-1.17
			c-0.01-0.42-0.02-0.84-0.03-1.27c-0.01-0.43-0.01-0.81-0.01-1.16v-6.32c0-0.16,0.07-0.24,0.22-0.24h1.88
			c0.16,0,0.24,0.08,0.24,0.24v12.62c0,0.16-0.08,0.24-0.24,0.24h-2.8c-0.13,0-0.23-0.05-0.28-0.16l-3.12-6.28
			c-0.2-0.4-0.4-0.81-0.59-1.23c-0.19-0.42-0.38-0.84-0.56-1.25s-0.35-0.81-0.51-1.18h-0.06c0.01,0.41,0.03,0.83,0.04,1.26
			s0.02,0.85,0.02,1.28s0,0.85,0,1.28v6.04c0,0.16-0.08,0.24-0.24,0.24C-984.82-289.7-986.7-289.7-986.7-289.7z"/>
		<path d="M-962.48-289.7c-0.16,0-0.24-0.08-0.24-0.24v-10.74h-3.44c-0.16,0-0.24-0.08-0.24-0.24v-1.64c0-0.16,0.08-0.24,0.24-0.24
			h9.3c0.16,0,0.24,0.08,0.24,0.24v1.64c0,0.16-0.08,0.24-0.24,0.24h-3.44v10.74c0,0.16-0.08,0.24-0.24,0.24H-962.48z"/>
		<path d="M-952.36-289.7c-0.15,0-0.22-0.08-0.22-0.24v-12.62c0-0.16,0.07-0.24,0.22-0.24h4.2c1.72,0,2.97,0.33,3.76,0.99
			c0.79,0.66,1.18,1.62,1.18,2.89c0,0.92-0.21,1.7-0.63,2.33c-0.42,0.63-1.04,1.07-1.87,1.31v0.04l3.22,5.26
			c0.05,0.08,0.06,0.15,0.03,0.2c-0.03,0.05-0.1,0.08-0.19,0.08h-2.22c-0.12,0-0.21-0.05-0.28-0.16l-3.02-5.06h-2v4.98
			c0,0.16-0.08,0.24-0.24,0.24C-950.42-289.7-952.36-289.7-952.36-289.7z M-950.18-296.82h1.92c0.92,0,1.59-0.16,2.01-0.48
			c0.42-0.32,0.63-0.83,0.63-1.54c0-0.69-0.19-1.19-0.58-1.48c-0.39-0.29-1.04-0.44-1.96-0.44h-2.02V-296.82z"/>
		<path d="M-938.1-289.7c-0.15,0-0.22-0.08-0.22-0.24v-12.62c0-0.16,0.07-0.24,0.22-0.24h7.66c0.15,0,0.22,0.08,0.22,0.24v1.64
			c0,0.16-0.07,0.24-0.22,0.24h-5.48v3.34h5c0.15,0,0.22,0.08,0.22,0.24v1.54c0,0.16-0.07,0.24-0.22,0.24h-5v3.5h5.48
			c0.15,0,0.22,0.08,0.22,0.24v1.64c0,0.16-0.07,0.24-0.22,0.24H-938.1z"/>
		<path d="M-926.88-289.7c-0.17,0-0.24-0.09-0.2-0.26l4.32-12.66c0.04-0.12,0.13-0.18,0.26-0.18h2.56c0.15,0,0.24,0.06,0.28,0.18
			l4.34,12.66c0.05,0.17-0.01,0.26-0.18,0.26h-2.12c-0.13,0-0.22-0.06-0.26-0.18l-2.58-8.22c-0.13-0.44-0.26-0.88-0.39-1.31
			s-0.25-0.87-0.37-1.31h-0.04c-0.12,0.43-0.24,0.86-0.37,1.29c-0.13,0.43-0.26,0.86-0.39,1.29l-2.52,8.24
			c-0.04,0.13-0.13,0.2-0.28,0.2H-926.88z M-924.14-292.44l0.46-1.96h4.86l0.48,1.96H-924.14z"/>
		<path d="M-909.94-289.7c-0.16,0-0.24-0.08-0.24-0.24v-10.74h-3.44c-0.16,0-0.24-0.08-0.24-0.24v-1.64c0-0.16,0.08-0.24,0.24-0.24
			h9.3c0.16,0,0.24,0.08,0.24,0.24v1.64c0,0.16-0.08,0.24-0.24,0.24h-3.44v10.74c0,0.16-0.08,0.24-0.24,0.24H-909.94z"/>
		<path d="M-899.82-289.7c-0.15,0-0.22-0.08-0.22-0.24v-12.62c0-0.16,0.07-0.24,0.22-0.24h1.94c0.16,0,0.24,0.08,0.24,0.24v12.62
			c0,0.16-0.08,0.24-0.24,0.24H-899.82z"/>
		<path d="M-892.48-289.7c-0.15,0-0.22-0.08-0.22-0.24v-12.62c0-0.16,0.07-0.24,0.22-0.24h2.84c0.13,0,0.23,0.05,0.28,0.16l3.22,6.5
			c0.23,0.44,0.44,0.87,0.63,1.28c0.19,0.41,0.37,0.81,0.53,1.18c0.16,0.37,0.3,0.72,0.42,1.04h0.06c-0.03-0.36-0.05-0.75-0.06-1.17
			c-0.01-0.42-0.02-0.84-0.03-1.27c-0.01-0.43-0.01-0.81-0.01-1.16v-6.32c0-0.16,0.07-0.24,0.22-0.24h1.88
			c0.16,0,0.24,0.08,0.24,0.24v12.62c0,0.16-0.08,0.24-0.24,0.24h-2.8c-0.13,0-0.23-0.05-0.28-0.16l-3.12-6.28
			c-0.2-0.4-0.4-0.81-0.59-1.23c-0.19-0.42-0.38-0.84-0.56-1.25s-0.35-0.81-0.51-1.18h-0.06c0.01,0.41,0.03,0.83,0.04,1.26
			c0.01,0.43,0.02,0.85,0.02,1.28s0,0.85,0,1.28v6.04c0,0.16-0.08,0.24-0.24,0.24C-890.6-289.7-892.48-289.7-892.48-289.7z"/>
		<path d="M-872.7-289.46c-0.97,0-1.83-0.19-2.56-0.57s-1.3-0.94-1.7-1.67c-0.4-0.73-0.6-1.63-0.6-2.7v-3.7
			c0-1.6,0.47-2.82,1.41-3.67c0.94-0.85,2.23-1.27,3.87-1.27c1.17,0,2.16,0.19,2.97,0.56c0.81,0.37,1.4,0.89,1.78,1.55
			s0.51,1.42,0.39,2.27c-0.01,0.16-0.09,0.24-0.24,0.24l-1.94-0.02c-0.16,0-0.23-0.08-0.22-0.24c0.03-0.48-0.06-0.89-0.25-1.23
			c-0.19-0.34-0.49-0.6-0.89-0.77c-0.4-0.17-0.91-0.26-1.54-0.26c-0.97,0-1.71,0.24-2.2,0.71c-0.49,0.47-0.74,1.2-0.74,2.19v3.58
			c0,1,0.24,1.73,0.73,2.2s1.21,0.7,2.17,0.7c0.93,0,1.65-0.22,2.14-0.65c0.49-0.43,0.74-1.06,0.74-1.89v-0.64h-2.7
			c-0.16,0-0.24-0.08-0.24-0.24v-1.34c0-0.15,0.08-0.22,0.24-0.22h4.76c0.15,0,0.22,0.07,0.22,0.22v3.68c0,0.45,0.01,0.91,0.03,1.38
			s0.06,0.9,0.13,1.3c0.03,0.08,0.02,0.14-0.03,0.19c-0.05,0.05-0.1,0.07-0.17,0.07h-1.56c-0.07,0-0.12-0.02-0.16-0.05
			c-0.04-0.03-0.07-0.08-0.1-0.15c-0.03-0.16-0.05-0.35-0.07-0.58c-0.02-0.23-0.04-0.45-0.05-0.66h-0.04
			c-0.23,0.35-0.51,0.65-0.85,0.9c-0.34,0.25-0.74,0.45-1.19,0.58C-871.62-289.53-872.13-289.46-872.7-289.46z"/>
		<path d="M-851.02-289.46c-1.67,0-2.94-0.41-3.82-1.24c-0.88-0.83-1.32-2.06-1.32-3.7v-8.16c0-0.16,0.07-0.24,0.22-0.24h1.94
			c0.16,0,0.24,0.08,0.24,0.24v8.12c0,0.92,0.23,1.63,0.68,2.13s1.14,0.75,2.06,0.75c0.92,0,1.61-0.25,2.06-0.75
			s0.68-1.21,0.68-2.13v-8.12c0-0.16,0.07-0.24,0.22-0.24h1.94c0.16,0,0.24,0.08,0.24,0.24v8.2c0,1.59-0.45,2.8-1.34,3.64
			C-848.12-289.88-849.38-289.46-851.02-289.46z"/>
		<path d="M-840.82-289.7c-0.15,0-0.22-0.08-0.22-0.24v-12.62c0-0.16,0.07-0.24,0.22-0.24h2.84c0.13,0,0.23,0.05,0.28,0.16l3.22,6.5
			c0.23,0.44,0.44,0.87,0.63,1.28c0.19,0.41,0.37,0.81,0.53,1.18s0.3,0.72,0.42,1.04h0.06c-0.03-0.36-0.05-0.75-0.06-1.17
			c-0.01-0.42-0.02-0.84-0.03-1.27c-0.01-0.43-0.01-0.81-0.01-1.16v-6.32c0-0.16,0.07-0.24,0.22-0.24h1.88
			c0.16,0,0.24,0.08,0.24,0.24v12.62c0,0.16-0.08,0.24-0.24,0.24h-2.8c-0.13,0-0.23-0.05-0.28-0.16l-3.12-6.28
			c-0.2-0.4-0.4-0.81-0.59-1.23c-0.19-0.42-0.38-0.84-0.56-1.25s-0.35-0.81-0.51-1.18h-0.06c0.01,0.41,0.03,0.83,0.04,1.26
			s0.02,0.85,0.02,1.28s0,0.85,0,1.28v6.04c0,0.16-0.08,0.24-0.24,0.24C-838.94-289.7-840.82-289.7-840.82-289.7z"/>
		<path d="M-825.44-289.7c-0.15,0-0.22-0.08-0.22-0.24v-12.62c0-0.16,0.07-0.24,0.22-0.24h4.2c1.72,0,2.97,0.33,3.76,0.99
			c0.79,0.66,1.18,1.62,1.18,2.89c0,0.92-0.21,1.7-0.63,2.33c-0.42,0.63-1.04,1.07-1.87,1.31v0.04l3.22,5.26
			c0.05,0.08,0.06,0.15,0.03,0.2c-0.03,0.05-0.1,0.08-0.19,0.08h-2.22c-0.12,0-0.21-0.05-0.28-0.16l-3.02-5.06h-2v4.98
			c0,0.16-0.08,0.24-0.24,0.24C-823.5-289.7-825.44-289.7-825.44-289.7z M-823.26-296.82h1.92c0.92,0,1.59-0.16,2.01-0.48
			c0.42-0.32,0.63-0.83,0.63-1.54c0-0.69-0.19-1.19-0.58-1.48c-0.39-0.29-1.04-0.44-1.96-0.44h-2.02V-296.82L-823.26-296.82z"/>
		<path d="M-811.18-289.7c-0.15,0-0.22-0.08-0.22-0.24v-12.62c0-0.16,0.07-0.24,0.22-0.24h7.66c0.15,0,0.22,0.08,0.22,0.24v1.64
			c0,0.16-0.07,0.24-0.22,0.24H-809v3.34h5c0.15,0,0.22,0.08,0.22,0.24v1.54c0,0.16-0.07,0.24-0.22,0.24h-5v3.5h5.48
			c0.15,0,0.22,0.08,0.22,0.24v1.64c0,0.16-0.07,0.24-0.22,0.24H-811.18z"/>
		<path d="M-794.5-289.46c-1.69,0-2.93-0.34-3.7-1.03c-0.77-0.69-1.11-1.64-1.02-2.87c0.03-0.23,0.12-0.34,0.28-0.34h1.88
			c0.17,0,0.25,0.1,0.24,0.3c0,0.65,0.2,1.13,0.6,1.43c0.4,0.3,1.01,0.45,1.84,0.45c0.81,0,1.42-0.13,1.81-0.39
			c0.39-0.26,0.59-0.66,0.59-1.21c0-0.25-0.05-0.48-0.14-0.67s-0.25-0.37-0.48-0.52s-0.53-0.31-0.92-0.47l-2.9-1.24
			c-0.64-0.28-1.15-0.58-1.54-0.91c-0.39-0.33-0.66-0.7-0.82-1.13c-0.16-0.43-0.24-0.91-0.24-1.46c0.01-1.13,0.39-2,1.14-2.6
			s1.86-0.9,3.34-0.9c1.04,0,1.92,0.14,2.65,0.43s1.27,0.71,1.63,1.26c0.36,0.55,0.5,1.24,0.42,2.07c-0.03,0.24-0.11,0.36-0.24,0.36
			h-1.9c-0.08,0-0.14-0.03-0.18-0.08c-0.04-0.05-0.05-0.15-0.04-0.28c0.04-0.53-0.15-0.96-0.57-1.27c-0.42-0.31-1.02-0.47-1.79-0.47
			c-0.68,0-1.19,0.12-1.54,0.36c-0.35,0.24-0.52,0.6-0.52,1.08c0,0.25,0.05,0.48,0.14,0.67c0.09,0.19,0.26,0.37,0.49,0.53
			c0.23,0.16,0.55,0.33,0.95,0.5l2.86,1.22c0.65,0.27,1.17,0.56,1.55,0.89s0.65,0.7,0.82,1.13s0.24,0.93,0.23,1.52
			c0,1.16-0.39,2.06-1.18,2.69C-791.55-289.78-792.8-289.46-794.5-289.46z"/>
		<path d="M-784.94-289.7c-0.15,0-0.22-0.08-0.22-0.24v-12.62c0-0.16,0.07-0.24,0.22-0.24h7.66c0.15,0,0.22,0.08,0.22,0.24v1.64
			c0,0.16-0.07,0.24-0.22,0.24h-5.48v3.34h5c0.15,0,0.22,0.08,0.22,0.24v1.54c0,0.16-0.07,0.24-0.22,0.24h-5v3.5h5.48
			c0.15,0,0.22,0.08,0.22,0.24v1.64c0,0.16-0.07,0.24-0.22,0.24H-784.94z"/>
		<path d="M-767.56-289.46c-1.69,0-2.99-0.42-3.89-1.25c-0.9-0.83-1.35-2.06-1.35-3.69v-3.68c0-1.64,0.45-2.88,1.36-3.71
			c0.91-0.83,2.2-1.25,3.88-1.25c1.15,0,2.13,0.19,2.96,0.56c0.83,0.37,1.44,0.91,1.84,1.6c0.4,0.69,0.53,1.51,0.4,2.46
			c-0.01,0.07-0.04,0.13-0.07,0.19s-0.09,0.09-0.17,0.09h-1.94c-0.16,0-0.23-0.08-0.22-0.24c0.03-0.81-0.19-1.44-0.65-1.89
			c-0.46-0.45-1.16-0.67-2.11-0.67c-0.92,0-1.63,0.24-2.13,0.72s-0.75,1.21-0.75,2.18v3.58c0,0.97,0.25,1.7,0.75,2.18
			s1.21,0.72,2.13,0.72c0.97,0,1.69-0.23,2.16-0.69s0.67-1.08,0.6-1.87c-0.01-0.16,0.06-0.24,0.22-0.24h1.92
			c0.15,0,0.23,0.09,0.26,0.28c0.09,0.93-0.06,1.75-0.47,2.44c-0.41,0.69-1.01,1.23-1.82,1.61S-766.43-289.46-767.56-289.46z"/>
		<path d="M-754.76-289.7c-0.16,0-0.24-0.08-0.24-0.24v-10.74h-3.44c-0.16,0-0.24-0.08-0.24-0.24v-1.64c0-0.16,0.08-0.24,0.24-0.24
			h9.3c0.16,0,0.24,0.08,0.24,0.24v1.64c0,0.16-0.08,0.24-0.24,0.24h-3.44v10.74c0,0.16-0.08,0.24-0.24,0.24H-754.76z"/>
		<path d="M-747.26-289.7c-0.17,0-0.24-0.09-0.2-0.26l4.32-12.66c0.04-0.12,0.13-0.18,0.26-0.18h2.56c0.15,0,0.24,0.06,0.28,0.18
			l4.34,12.66c0.05,0.17-0.01,0.26-0.18,0.26H-738c-0.13,0-0.22-0.06-0.26-0.18l-2.58-8.22c-0.13-0.44-0.26-0.88-0.39-1.31
			s-0.25-0.87-0.37-1.31h-0.04c-0.12,0.43-0.24,0.86-0.37,1.29c-0.13,0.43-0.26,0.86-0.39,1.29l-2.52,8.24
			c-0.04,0.13-0.13,0.2-0.28,0.2H-747.26z M-744.52-292.44l0.46-1.96h4.86l0.48,1.96H-744.52z"/>
		<path d="M-732-289.7c-0.15,0-0.22-0.08-0.22-0.24v-12.62c0-0.16,0.07-0.24,0.22-0.24h3.98c1.57,0,2.76,0.27,3.55,0.8
			c0.79,0.53,1.19,1.35,1.19,2.44c0,0.76-0.17,1.37-0.51,1.82c-0.34,0.45-0.89,0.81-1.65,1.08v0.06c0.89,0.16,1.57,0.5,2.03,1.03
			c0.46,0.53,0.69,1.24,0.69,2.13c0,1.31-0.42,2.26-1.26,2.85c-0.84,0.59-2.19,0.89-4.04,0.89H-732z M-729.82-297.32h1.74
			c0.84,0,1.45-0.15,1.83-0.44c0.38-0.29,0.57-0.75,0.57-1.36c0-0.6-0.2-1.03-0.6-1.3c-0.4-0.27-1.05-0.4-1.96-0.4h-1.58V-297.32z
			 M-729.82-291.7h1.86c1.01,0,1.74-0.14,2.18-0.43s0.66-0.77,0.66-1.45c0-0.67-0.22-1.15-0.67-1.46s-1.16-0.46-2.15-0.46h-1.88
			L-729.82-291.7L-729.82-291.7z"/>
		<path d="M-718.24-289.7c-0.15,0-0.22-0.08-0.22-0.24v-12.62c0-0.16,0.07-0.24,0.22-0.24h1.96c0.15,0,0.22,0.08,0.22,0.24v10.74
			h5.26c0.16,0,0.24,0.08,0.24,0.24v1.64c0,0.16-0.08,0.24-0.24,0.24H-718.24z"/>
		<path d="M-706.5-289.7c-0.15,0-0.22-0.08-0.22-0.24v-12.62c0-0.16,0.07-0.24,0.22-0.24h7.66c0.15,0,0.22,0.08,0.22,0.24v1.64
			c0,0.16-0.07,0.24-0.22,0.24h-5.48v3.34h5c0.15,0,0.22,0.08,0.22,0.24v1.54c0,0.16-0.07,0.24-0.22,0.24h-5v3.5h5.48
			c0.15,0,0.22,0.08,0.22,0.24v1.64c0,0.16-0.07,0.24-0.22,0.24H-706.5z"/>
	</g>
	<g enable-background="new    ">
		<path d="M-1034.3-261.7c-0.15,0-0.22-0.08-0.22-0.24v-12.62c0-0.16,0.07-0.24,0.22-0.24h1.94c0.16,0,0.24,0.08,0.24,0.24v5.14h5.6
			v-5.14c0-0.16,0.08-0.24,0.24-0.24h1.94c0.15,0,0.22,0.08,0.22,0.24v12.62c0,0.16-0.07,0.24-0.22,0.24h-1.94
			c-0.16,0-0.24-0.08-0.24-0.24v-5.4h-5.6v5.4c0,0.16-0.08,0.24-0.24,0.24H-1034.3z"/>
		<path d="M-1018.94-261.7c-0.15,0-0.22-0.08-0.22-0.24v-12.62c0-0.16,0.07-0.24,0.22-0.24h7.66c0.15,0,0.22,0.08,0.22,0.24v1.64
			c0,0.16-0.07,0.24-0.22,0.24h-5.48v3.34h5c0.15,0,0.22,0.08,0.22,0.24v1.54c0,0.16-0.07,0.24-0.22,0.24h-5v3.5h5.48
			c0.15,0,0.22,0.08,0.22,0.24v1.64c0,0.16-0.07,0.24-0.22,0.24C-1011.28-261.7-1018.94-261.7-1018.94-261.7z"/>
		<path d="M-1006.14-261.7c-0.15,0-0.22-0.08-0.22-0.24v-12.62c0-0.16,0.07-0.24,0.22-0.24h3.72c1.73,0,3.01,0.36,3.83,1.09
			c0.82,0.73,1.23,1.79,1.23,3.19c0,1.37-0.42,2.42-1.26,3.15c-0.84,0.73-2.1,1.09-3.78,1.09h-1.56v4.34c0,0.16-0.08,0.24-0.24,0.24
			H-1006.14z M-1003.96-268.32h1.52c0.91,0,1.58-0.17,2.02-0.52s0.66-0.9,0.66-1.66c0-0.8-0.22-1.37-0.66-1.72s-1.12-0.52-2.04-0.52
			h-1.5V-268.32z"/>
		<path d="M-995.26-261.7c-0.17,0-0.24-0.09-0.2-0.26l4.32-12.66c0.04-0.12,0.13-0.18,0.26-0.18h2.56c0.15,0,0.24,0.06,0.28,0.18
			l4.34,12.66c0.05,0.17-0.01,0.26-0.18,0.26H-986c-0.13,0-0.22-0.06-0.26-0.18l-2.58-8.22c-0.13-0.44-0.26-0.88-0.39-1.31
			s-0.25-0.87-0.37-1.31h-0.04c-0.12,0.43-0.24,0.86-0.37,1.29c-0.13,0.43-0.26,0.86-0.39,1.29l-2.52,8.24
			c-0.04,0.13-0.13,0.2-0.28,0.2H-995.26z M-992.52-264.44l0.46-1.96h4.86l0.48,1.96H-992.52z"/>
		<path d="M-978.32-261.7c-0.16,0-0.24-0.08-0.24-0.24v-10.74H-982c-0.16,0-0.24-0.08-0.24-0.24v-1.64c0-0.16,0.08-0.24,0.24-0.24
			h9.3c0.16,0,0.24,0.08,0.24,0.24v1.64c0,0.16-0.08,0.24-0.24,0.24h-3.44v10.74c0,0.16-0.08,0.24-0.24,0.24H-978.32z"/>
		<path d="M-963.72-261.46c-1.76,0-3.08-0.42-3.96-1.27s-1.32-2.06-1.32-3.65v-3.74c0-1.6,0.44-2.82,1.32-3.66s2.2-1.26,3.96-1.26
			c1.75,0,3.06,0.42,3.94,1.26s1.32,2.06,1.32,3.66v3.74c0,1.59-0.44,2.8-1.32,3.65C-960.66-261.88-961.97-261.46-963.72-261.46z
			 M-963.72-263.56c0.95,0,1.66-0.25,2.14-0.75c0.48-0.5,0.72-1.23,0.72-2.19v-3.5c0-0.96-0.24-1.69-0.72-2.19
			c-0.48-0.5-1.19-0.75-2.14-0.75c-0.95,0-1.66,0.25-2.15,0.75s-0.73,1.23-0.73,2.19v3.5c0,0.96,0.24,1.69,0.73,2.19
			S-964.67-263.56-963.72-263.56z"/>
		<path d="M-948.74-261.46c-1.69,0-2.99-0.42-3.89-1.25c-0.9-0.83-1.35-2.06-1.35-3.69v-3.68c0-1.64,0.45-2.88,1.36-3.71
			c0.91-0.83,2.2-1.25,3.88-1.25c1.15,0,2.13,0.19,2.96,0.56c0.83,0.37,1.44,0.91,1.84,1.6c0.4,0.69,0.53,1.51,0.4,2.46
			c-0.01,0.07-0.04,0.13-0.07,0.19c-0.03,0.06-0.09,0.09-0.17,0.09h-1.94c-0.16,0-0.23-0.08-0.22-0.24
			c0.03-0.81-0.19-1.44-0.65-1.89c-0.46-0.45-1.16-0.67-2.11-0.67c-0.92,0-1.63,0.24-2.13,0.72s-0.75,1.21-0.75,2.18v3.58
			c0,0.97,0.25,1.7,0.75,2.18s1.21,0.72,2.13,0.72c0.97,0,1.69-0.23,2.16-0.69c0.47-0.46,0.67-1.08,0.6-1.87
			c-0.01-0.16,0.06-0.24,0.22-0.24h1.92c0.15,0,0.23,0.09,0.26,0.28c0.09,0.93-0.06,1.75-0.47,2.44c-0.41,0.69-1.01,1.23-1.82,1.61
			S-947.61-261.46-948.74-261.46z"/>
		<path d="M-938.66-261.7c-0.15,0-0.22-0.08-0.22-0.24v-12.62c0-0.16,0.07-0.24,0.22-0.24h7.66c0.15,0,0.22,0.08,0.22,0.24v1.64
			c0,0.16-0.07,0.24-0.22,0.24h-5.48v3.34h5c0.15,0,0.22,0.08,0.22,0.24v1.54c0,0.16-0.07,0.24-0.22,0.24h-5v3.5h5.48
			c0.15,0,0.22,0.08,0.22,0.24v1.64c0,0.16-0.07,0.24-0.22,0.24C-931-261.7-938.66-261.7-938.66-261.7z"/>
		<path d="M-925.86-261.7c-0.15,0-0.22-0.08-0.22-0.24v-12.62c0-0.16,0.07-0.24,0.22-0.24h1.96c0.15,0,0.22,0.08,0.22,0.24v10.74
			h5.26c0.16,0,0.24,0.08,0.24,0.24v1.64c0,0.16-0.08,0.24-0.24,0.24C-918.42-261.7-925.86-261.7-925.86-261.7z"/>
		<path d="M-914.12-261.7c-0.15,0-0.22-0.08-0.22-0.24v-12.62c0-0.16,0.07-0.24,0.22-0.24h1.96c0.15,0,0.22,0.08,0.22,0.24v10.74
			h5.26c0.16,0,0.24,0.08,0.24,0.24v1.64c0,0.16-0.08,0.24-0.24,0.24C-906.68-261.7-914.12-261.7-914.12-261.7z"/>
		<path d="M-897.86-261.46c-1.67,0-2.94-0.41-3.82-1.24c-0.88-0.83-1.32-2.06-1.32-3.7v-8.16c0-0.16,0.07-0.24,0.22-0.24h1.94
			c0.16,0,0.24,0.08,0.24,0.24v8.12c0,0.92,0.23,1.63,0.68,2.13c0.45,0.5,1.14,0.75,2.06,0.75c0.92,0,1.61-0.25,2.06-0.75
			c0.45-0.5,0.68-1.21,0.68-2.13v-8.12c0-0.16,0.07-0.24,0.22-0.24h1.94c0.16,0,0.24,0.08,0.24,0.24v8.2c0,1.59-0.45,2.8-1.34,3.64
			C-894.95-261.88-896.22-261.46-897.86-261.46z"/>
		<path d="M-887.66-261.7c-0.15,0-0.22-0.08-0.22-0.24v-12.62c0-0.16,0.07-0.24,0.22-0.24h1.96c0.15,0,0.22,0.08,0.22,0.24v10.74
			h5.26c0.16,0,0.24,0.08,0.24,0.24v1.64c0,0.16-0.08,0.24-0.24,0.24C-880.22-261.7-887.66-261.7-887.66-261.7z"/>
		<path d="M-877.14-261.7c-0.17,0-0.24-0.09-0.2-0.26l4.32-12.66c0.04-0.12,0.13-0.18,0.26-0.18h2.56c0.15,0,0.24,0.06,0.28,0.18
			l4.34,12.66c0.05,0.17-0.01,0.26-0.18,0.26h-2.12c-0.13,0-0.22-0.06-0.26-0.18l-2.58-8.22c-0.13-0.44-0.26-0.88-0.39-1.31
			s-0.25-0.87-0.37-1.31h-0.04c-0.12,0.43-0.24,0.86-0.37,1.29c-0.13,0.43-0.26,0.86-0.39,1.29l-2.52,8.24
			c-0.04,0.13-0.13,0.2-0.28,0.2H-877.14z M-874.4-264.44l0.46-1.96h4.86l0.48,1.96H-874.4z"/>
		<path d="M-861.88-261.7c-0.15,0-0.22-0.08-0.22-0.24v-12.62c0-0.16,0.07-0.24,0.22-0.24h4.2c1.72,0,2.97,0.33,3.76,0.99
			c0.79,0.66,1.18,1.62,1.18,2.89c0,0.92-0.21,1.7-0.63,2.33c-0.42,0.63-1.04,1.07-1.87,1.31v0.04l3.22,5.26
			c0.05,0.08,0.06,0.15,0.03,0.2c-0.03,0.05-0.1,0.08-0.19,0.08h-2.22c-0.12,0-0.21-0.05-0.28-0.16l-3.02-5.06h-2v4.98
			c0,0.16-0.08,0.24-0.24,0.24H-861.88z M-859.7-268.82h1.92c0.92,0,1.59-0.16,2.01-0.48c0.42-0.32,0.63-0.83,0.63-1.54
			c0-0.69-0.19-1.19-0.58-1.48c-0.39-0.29-1.04-0.44-1.96-0.44h-2.02V-268.82L-859.7-268.82z"/>
		<path d="M-836.78-261.46c-1.69,0-2.99-0.42-3.89-1.25c-0.9-0.83-1.35-2.06-1.35-3.69v-3.68c0-1.64,0.45-2.88,1.36-3.71
			c0.91-0.83,2.2-1.25,3.88-1.25c1.15,0,2.13,0.19,2.96,0.56c0.83,0.37,1.44,0.91,1.84,1.6c0.4,0.69,0.53,1.51,0.4,2.46
			c-0.01,0.07-0.04,0.13-0.07,0.19c-0.03,0.06-0.09,0.09-0.17,0.09h-1.94c-0.16,0-0.23-0.08-0.22-0.24
			c0.03-0.81-0.19-1.44-0.65-1.89c-0.46-0.45-1.16-0.67-2.11-0.67c-0.92,0-1.63,0.24-2.13,0.72s-0.75,1.21-0.75,2.18v3.58
			c0,0.97,0.25,1.7,0.75,2.18s1.21,0.72,2.13,0.72c0.97,0,1.69-0.23,2.16-0.69c0.47-0.46,0.67-1.08,0.6-1.87
			c-0.01-0.16,0.06-0.24,0.22-0.24h1.92c0.15,0,0.23,0.09,0.26,0.28c0.09,0.93-0.06,1.75-0.47,2.44c-0.41,0.69-1.01,1.23-1.82,1.61
			S-835.65-261.46-836.78-261.46z"/>
		<path d="M-828.32-261.7c-0.17,0-0.24-0.09-0.2-0.26l4.32-12.66c0.04-0.12,0.13-0.18,0.26-0.18h2.56c0.15,0,0.24,0.06,0.28,0.18
			l4.34,12.66c0.05,0.17-0.01,0.26-0.18,0.26h-2.12c-0.13,0-0.22-0.06-0.26-0.18l-2.58-8.22c-0.13-0.44-0.26-0.88-0.39-1.31
			s-0.25-0.87-0.37-1.31h-0.04c-0.12,0.43-0.24,0.86-0.37,1.29c-0.13,0.43-0.26,0.86-0.39,1.29l-2.52,8.24
			c-0.04,0.13-0.13,0.2-0.28,0.2H-828.32z M-825.58-264.44l0.46-1.96h4.86l0.48,1.96H-825.58z"/>
		<path d="M-813.06-261.7c-0.15,0-0.22-0.08-0.22-0.24v-12.62c0-0.16,0.07-0.24,0.22-0.24h4.2c1.72,0,2.97,0.33,3.76,0.99
			c0.79,0.66,1.18,1.62,1.18,2.89c0,0.92-0.21,1.7-0.63,2.33c-0.42,0.63-1.04,1.07-1.87,1.31v0.04l3.22,5.26
			c0.05,0.08,0.06,0.15,0.03,0.2c-0.03,0.05-0.1,0.08-0.19,0.08h-2.22c-0.12,0-0.21-0.05-0.28-0.16l-3.02-5.06h-2v4.98
			c0,0.16-0.08,0.24-0.24,0.24H-813.06z M-810.88-268.82h1.92c0.92,0,1.59-0.16,2.01-0.48c0.42-0.32,0.63-0.83,0.63-1.54
			c0-0.69-0.19-1.19-0.58-1.48c-0.39-0.29-1.04-0.44-1.96-0.44h-2.02V-268.82L-810.88-268.82z"/>
		<path d="M-794.26-261.46c-1.69,0-2.99-0.42-3.89-1.25c-0.9-0.83-1.35-2.06-1.35-3.69v-3.68c0-1.64,0.45-2.88,1.36-3.71
			c0.91-0.83,2.2-1.25,3.88-1.25c1.15,0,2.13,0.19,2.96,0.56c0.83,0.37,1.44,0.91,1.84,1.6c0.4,0.69,0.53,1.51,0.4,2.46
			c-0.01,0.07-0.04,0.13-0.07,0.19c-0.03,0.06-0.09,0.09-0.17,0.09h-1.94c-0.16,0-0.23-0.08-0.22-0.24
			c0.03-0.81-0.19-1.44-0.65-1.89c-0.46-0.45-1.16-0.67-2.11-0.67c-0.92,0-1.63,0.24-2.13,0.72s-0.75,1.21-0.75,2.18v3.58
			c0,0.97,0.25,1.7,0.75,2.18s1.21,0.72,2.13,0.72c0.97,0,1.69-0.23,2.16-0.69s0.67-1.08,0.6-1.87c-0.01-0.16,0.06-0.24,0.22-0.24
			h1.92c0.15,0,0.23,0.09,0.26,0.28c0.09,0.93-0.06,1.75-0.47,2.44c-0.41,0.69-1.01,1.23-1.82,1.61
			C-792.16-261.65-793.13-261.46-794.26-261.46z"/>
		<path d="M-784.18-261.7c-0.15,0-0.22-0.08-0.22-0.24v-12.62c0-0.16,0.07-0.24,0.22-0.24h1.94c0.16,0,0.24,0.08,0.24,0.24v12.62
			c0,0.16-0.08,0.24-0.24,0.24H-784.18z"/>
		<path d="M-776.84-261.7c-0.15,0-0.22-0.08-0.22-0.24v-12.62c0-0.16,0.07-0.24,0.22-0.24h2.84c0.13,0,0.23,0.05,0.28,0.16l3.22,6.5
			c0.23,0.44,0.44,0.87,0.63,1.28s0.37,0.81,0.53,1.18c0.16,0.37,0.3,0.72,0.42,1.04h0.06c-0.03-0.36-0.05-0.75-0.06-1.17
			c-0.01-0.42-0.02-0.84-0.03-1.27c-0.01-0.43-0.01-0.81-0.01-1.16v-6.32c0-0.16,0.07-0.24,0.22-0.24h1.88
			c0.16,0,0.24,0.08,0.24,0.24v12.62c0,0.16-0.08,0.24-0.24,0.24h-2.8c-0.13,0-0.23-0.05-0.28-0.16l-3.12-6.28
			c-0.2-0.4-0.4-0.81-0.59-1.23c-0.19-0.42-0.38-0.84-0.56-1.25s-0.35-0.81-0.51-1.18h-0.06c0.01,0.41,0.03,0.83,0.04,1.26
			s0.02,0.85,0.02,1.28s0,0.85,0,1.28v6.04c0,0.16-0.08,0.24-0.24,0.24H-776.84z"/>
		<path d="M-756.64-261.46c-1.76,0-3.08-0.42-3.96-1.27c-0.88-0.85-1.32-2.06-1.32-3.65v-3.74c0-1.6,0.44-2.82,1.32-3.66
			s2.2-1.26,3.96-1.26c1.75,0,3.06,0.42,3.94,1.26s1.32,2.06,1.32,3.66v3.74c0,1.59-0.44,2.8-1.32,3.65S-754.9-261.46-756.64-261.46
			z M-756.64-263.56c0.95,0,1.66-0.25,2.14-0.75s0.72-1.23,0.72-2.19v-3.5c0-0.96-0.24-1.69-0.72-2.19s-1.19-0.75-2.14-0.75
			s-1.66,0.25-2.15,0.75s-0.73,1.23-0.73,2.19v3.5c0,0.96,0.24,1.69,0.73,2.19C-758.31-263.81-757.59-263.56-756.64-263.56z"/>
		<path d="M-746.72-261.7c-0.15,0-0.22-0.08-0.22-0.24l0.26-12.62c0-0.16,0.08-0.24,0.24-0.24h2.58c0.12,0,0.21,0.06,0.26,0.18
			l3.34,7.28l3.28-7.28c0.07-0.12,0.16-0.18,0.28-0.18h2.58c0.15,0,0.22,0.08,0.22,0.24l0.28,12.62c0,0.16-0.08,0.24-0.24,0.24
			h-1.88c-0.16,0-0.24-0.08-0.24-0.24l-0.16-6.46c-0.01-0.53-0.01-1.07,0.02-1.61c0.03-0.54,0.05-1.07,0.06-1.59h-0.06
			c-0.21,0.52-0.44,1.04-0.67,1.57s-0.48,1.04-0.73,1.55l-2.46,5.18c-0.05,0.11-0.15,0.16-0.28,0.16h-0.08
			c-0.12,0-0.21-0.05-0.26-0.16l-2.48-5.24c-0.25-0.49-0.49-1-0.72-1.53s-0.44-1.04-0.64-1.53h-0.06c0.03,0.51,0.05,1.03,0.06,1.57
			s0.01,1.07,0,1.59l-0.16,6.5c0,0.16-0.07,0.24-0.22,0.24C-744.82-261.7-746.72-261.7-746.72-261.7z"/>
		<path d="M-730.26-261.7c-0.17,0-0.24-0.09-0.2-0.26l4.32-12.66c0.04-0.12,0.13-0.18,0.26-0.18h2.56c0.15,0,0.24,0.06,0.28,0.18
			l4.34,12.66c0.05,0.17-0.01,0.26-0.18,0.26H-721c-0.13,0-0.22-0.06-0.26-0.18l-2.58-8.22c-0.13-0.44-0.26-0.88-0.39-1.31
			s-0.25-0.87-0.37-1.31h-0.04c-0.12,0.43-0.24,0.86-0.37,1.29c-0.13,0.43-0.26,0.86-0.39,1.29l-2.52,8.24
			c-0.04,0.13-0.13,0.2-0.28,0.2H-730.26z M-727.52-264.44l0.46-1.96h4.86l0.48,1.96H-727.52z"/>
		<path d="M-707.28-258.5c-0.48-0.4-0.87-0.79-1.18-1.17c-0.31-0.38-0.53-0.82-0.68-1.31c-0.15-0.49-0.22-1.1-0.22-1.82v-8.9
			c0-0.73,0.08-1.34,0.24-1.82c0.16-0.48,0.39-0.91,0.7-1.29s0.69-0.78,1.14-1.19c0.04-0.05,0.1-0.08,0.19-0.09s0.15,0.02,0.19,0.07
			l1.12,1.08c0.12,0.12,0.11,0.24-0.02,0.36c-0.29,0.29-0.54,0.58-0.75,0.85c-0.21,0.27-0.36,0.58-0.45,0.91
			c-0.09,0.33-0.14,0.75-0.14,1.26v8.62c0,0.49,0.05,0.91,0.16,1.24c0.11,0.33,0.26,0.63,0.46,0.9c0.2,0.27,0.44,0.56,0.72,0.88
			c0.13,0.13,0.14,0.25,0.02,0.36l-1.12,1.08c-0.04,0.05-0.1,0.07-0.18,0.06C-707.16-258.43-707.23-258.46-707.28-258.5z"/>
		<path d="M-699.12-261.46c-0.88,0-1.55-0.28-2-0.83c-0.45-0.55-0.68-1.38-0.68-2.47v-6.54c0-0.16,0.07-0.24,0.22-0.24h1.9
			c0.16,0,0.24,0.08,0.24,0.24v6.16c0,0.56,0.1,0.97,0.29,1.24c0.19,0.27,0.5,0.4,0.91,0.4c0.44,0,0.88-0.14,1.33-0.43
			c0.45-0.29,0.95-0.72,1.51-1.29l0.08,1.76c-0.39,0.39-0.78,0.73-1.17,1.03c-0.39,0.3-0.81,0.54-1.24,0.71
			C-698.17-261.55-698.63-261.46-699.12-261.46z M-695.16-261.7c-0.16,0-0.25-0.07-0.28-0.22c-0.04-0.24-0.08-0.49-0.11-0.76
			c-0.03-0.27-0.06-0.53-0.07-0.8l-0.18-1.02v-6.8c0-0.16,0.08-0.24,0.24-0.24h1.9c0.15,0,0.22,0.08,0.22,0.24v7.1
			c0,0.39,0.01,0.77,0.03,1.15c0.02,0.38,0.06,0.75,0.11,1.11c0.03,0.16-0.05,0.24-0.24,0.24
			C-693.54-261.7-695.16-261.7-695.16-261.7z"/>
		<path d="M-688.46-261.7c-0.15,0-0.22-0.08-0.22-0.24v-12.62c0-0.16,0.07-0.24,0.22-0.24h1.94c0.16,0,0.24,0.08,0.24,0.24v5.14h5.6
			v-5.14c0-0.16,0.08-0.24,0.24-0.24h1.94c0.15,0,0.22,0.08,0.22,0.24v12.62c0,0.16-0.07,0.24-0.22,0.24h-1.94
			c-0.16,0-0.24-0.08-0.24-0.24v-5.4h-5.6v5.4c0,0.16-0.08,0.24-0.24,0.24H-688.46z"/>
		<path d="M-668.32-261.46c-1.69,0-2.99-0.42-3.89-1.25c-0.9-0.83-1.35-2.06-1.35-3.69v-3.68c0-1.64,0.45-2.88,1.36-3.71
			c0.91-0.83,2.2-1.25,3.88-1.25c1.15,0,2.13,0.19,2.96,0.56c0.83,0.37,1.44,0.91,1.84,1.6c0.4,0.69,0.53,1.51,0.4,2.46
			c-0.01,0.07-0.04,0.13-0.07,0.19c-0.03,0.06-0.09,0.09-0.17,0.09h-1.94c-0.16,0-0.23-0.08-0.22-0.24
			c0.03-0.81-0.19-1.44-0.65-1.89c-0.46-0.45-1.16-0.67-2.11-0.67c-0.92,0-1.63,0.24-2.13,0.72s-0.75,1.21-0.75,2.18v3.58
			c0,0.97,0.25,1.7,0.75,2.18s1.21,0.72,2.13,0.72c0.97,0,1.69-0.23,2.16-0.69s0.67-1.08,0.6-1.87c-0.01-0.16,0.06-0.24,0.22-0.24
			h1.92c0.15,0,0.23,0.09,0.26,0.28c0.09,0.93-0.06,1.75-0.47,2.44c-0.41,0.69-1.01,1.23-1.82,1.61S-667.19-261.46-668.32-261.46z"
			/>
		<path d="M-653.6-261.46c-1.69,0-2.99-0.42-3.89-1.25c-0.9-0.83-1.35-2.06-1.35-3.69v-3.68c0-1.64,0.45-2.88,1.36-3.71
			c0.91-0.83,2.2-1.25,3.88-1.25c1.15,0,2.13,0.19,2.96,0.56c0.83,0.37,1.44,0.91,1.84,1.6s0.53,1.51,0.4,2.46
			c-0.01,0.07-0.04,0.13-0.07,0.19c-0.03,0.06-0.09,0.09-0.17,0.09h-1.94c-0.16,0-0.23-0.08-0.22-0.24
			c0.03-0.81-0.19-1.44-0.65-1.89c-0.46-0.45-1.16-0.67-2.11-0.67c-0.92,0-1.63,0.24-2.13,0.72s-0.75,1.21-0.75,2.18v3.58
			c0,0.97,0.25,1.7,0.75,2.18s1.21,0.72,2.13,0.72c0.97,0,1.69-0.23,2.16-0.69c0.47-0.46,0.67-1.08,0.6-1.87
			c-0.01-0.16,0.06-0.24,0.22-0.24h1.92c0.15,0,0.23,0.09,0.26,0.28c0.09,0.93-0.06,1.75-0.47,2.44c-0.41,0.69-1.01,1.23-1.82,1.61
			C-651.5-261.65-652.47-261.46-653.6-261.46z"/>
		<path d="M-643.4-258.48l-1.14-1.08c-0.11-0.11-0.09-0.23,0.04-0.36c0.31-0.31,0.56-0.59,0.75-0.86s0.34-0.57,0.44-0.91
			s0.15-0.76,0.15-1.25v-8.62c0-0.51-0.05-0.93-0.14-1.27c-0.09-0.34-0.24-0.64-0.44-0.91c-0.2-0.27-0.45-0.55-0.76-0.84
			c-0.13-0.12-0.15-0.24-0.04-0.36l1.14-1.08c0.04-0.05,0.1-0.08,0.19-0.07c0.09,0.01,0.15,0.04,0.19,0.09
			c0.48,0.4,0.87,0.79,1.17,1.18c0.3,0.39,0.53,0.82,0.68,1.3c0.15,0.48,0.23,1.09,0.23,1.82v8.9c0,0.72-0.07,1.33-0.21,1.82
			c-0.14,0.49-0.37,0.93-0.68,1.31c-0.31,0.38-0.71,0.77-1.19,1.17c-0.05,0.04-0.12,0.07-0.2,0.08
			C-643.3-258.41-643.36-258.43-643.4-258.48z"/>
	</g>
</g>
</svg>
